<mxfile host="app.diagrams.net" modified="2024-02-21T23:39:31.546Z" agent="Mozilla/5.0 (Windows NT 10.0; Win64; x64) AppleWebKit/537.36 (KHTML, like Gecko) Chrome/121.0.0.0 Safari/537.36" etag="6kAcAW7mP6oodVwcVtul" version="23.1.5" type="device">
  <diagram name="Page-1" id="KBBxMR3EAPfvTE5W4CT5">
    <mxGraphModel dx="1195" dy="615" grid="1" gridSize="10" guides="1" tooltips="1" connect="1" arrows="1" fold="1" page="1" pageScale="1" pageWidth="850" pageHeight="1100" math="0" shadow="0">
      <root>
        <mxCell id="0" />
        <mxCell id="1" parent="0" />
        <mxCell id="8Ngx9_ojINHOA52o8Yng-44" value="" style="rounded=0;whiteSpace=wrap;html=1;fillColor=#fad9d5;fillStyle=auto;strokeColor=#ae4132;opacity=70;" parent="1" vertex="1">
          <mxGeometry x="80" y="270" width="530" height="340" as="geometry" />
        </mxCell>
        <mxCell id="T3HEAIqgR0DYX0BthUk1-1" value="" style="rounded=0;whiteSpace=wrap;html=1;fillColor=#e9f1fb;fillStyle=auto;strokeColor=#6c8ebf;opacity=90;" parent="1" vertex="1">
          <mxGeometry x="120" y="280" width="480" height="280" as="geometry" />
        </mxCell>
        <mxCell id="T3HEAIqgR0DYX0BthUk1-2" value="" style="shape=image;verticalLabelPosition=bottom;verticalAlign=top;imageAspect=0;aspect=fixed;image=data:image/svg+xml,PHN2ZyB4bWxucz0iaHR0cDovL3d3dy53My5vcmcvMjAwMC9zdmciIHZpZXdCb3g9IjAgMCAxNDIuMjE1IDExOCI+PHBhdGggZmlsbD0iIzA5OWNlYyIgZD0iTTQ2IDI2aDExdjEwSDQ2em0tMTMgMGgxMXYxMEgzM3ptMjYgMGgxMXYxMEg1OXptMTMgMGgxMXYxMEg3MnptMTMgMGgxMXYxMEg4NXpNNDYgMTRoMTF2MTBINDZ6bTEzIDBoMTF2MTBINTl6bTEzIDBoMTF2MTBINzJ6bTAtMTJoMTF2MTBINzJ6Ii8+PHBhdGggZD0iTTEyOC43NjMgMjkuMDg3Yy0yLjI1OC0xLjUyLTguMTg5LTIuMTY4LTEyLjUtMS4wMDctLjIzMi00LjMtMi40NDgtNy45MTYtNi41LTExLjA3NEwxMDguMjYyIDE2bC0xIDEuNTFhMTcuMjMgMTcuMjMgMCAwMC0yLjUgMTAuNTcgMTIuNTgxIDEyLjU4MSAwIDAwMi41IDYuNTQ0IDE2LjQyMyAxNi40MjMgMCAwMS05LjUgMi41MTdoLTcxLjVjLTEuMjcxIDcuNTUuOTA2IDM2LjI0MSAzNCAzNi4yNDEgMjQuNTY5IDAgNDQuNzU2LTExLjA0OSA1NC0zNC4yMjggMy4wNDEuMDUgMTEuMDcxLjU0NSAxNS03LjA0Ny4xLS4xMjggMS0yLjAxMyAxLTIuMDEzeiIgZmlsbD0iIzA5OWNlYyIgZmlsbC1ydWxlPSJldmVub2RkIi8+PHBhdGggZD0iTTUyLjY3OSA1OS43NTFBMjcuOTMgMjcuOTMgMCAwMDY4LjkgNzIuMTQ0Yy0xNy45NzYgNS41LTI4Ljg4LTQuMTMyLTM1LTkuMjM1YTYyLjA3OSA2Mi4wNzkgMCAwMDE4Ljc3OS0zLjE1OHoiIGZpbGw9IiNmZmYiLz48cGF0aCBkPSJNNjguOSA3Mi4xNDRhMjcuOTMgMjcuOTMgMCAwMS0xNi4yMjEtMTIuMzkzQTYyLjA3OSA2Mi4wNzkgMCAwMTMzLjkgNjIuOTA5YzYuMTIgNS4xMDMgMTcuMDI0IDE0LjczMyAzNSA5LjIzNXoiIGZpbGw9IiNmZmYiLz48cGF0aCBkPSJNNTEuNzY3IDU3Ljk4OWEyNi43NjMgMjYuNzYzIDAgMDEtMTMuMyAzLjUgMjcuMDQzIDI3LjA0MyAwIDAxLTcuMDY3LS45MzRsMS40MjcgMi40YTI5LjEgMjkuMSAwIDAwMTkuOTE1LTMuMiAyNS4xNjYgMjUuMTY2IDAgMDEtLjk3NS0xLjc2NnoiIGZpbGw9IiMwNjZkYTUiIGZpbGwtcnVsZT0iZXZlbm9kZCIvPjxlbGxpcHNlIGN4PSI1OS4zNzciIGN5PSI1My4xODQiIHJ4PSIzLjQ3NyIgcnk9IjMuNSIgZmlsbD0iI2ZmZiIvPjxwYXRoIGQ9Ik01OS45IDUyLjJhLjk5MS45OTEgMCAwMS4zOTEtLjc3OCAxLjk1MyAxLjk1MyAwIDAwLS45LS4yMjkgMiAyIDAgMTAxLjk4NyAyYzAtLjAzOS0uMDA5LS4wNzYtLjAxMi0uMTE1YS45Ny45NyAwIDAxLS40NjIuMTI4QTEgMSAwIDAxNTkuOSA1Mi4yeiIgZmlsbD0iIzRkNWM2NCIvPjxwYXRoIGQ9Ik0xMjguNDc1IDI4LjkxYy0yLjI1LTEuNTEtOC40LTIuMjE4LTEyLjUxMy0xLjAyMmwtLjkxOCAxLjI5NGMtMTMuNCAyNy43MzUtMzAuMTcgMzkuNDYtNTMuMDgyIDM5Ljk4Mi0yNC45ODctLjA2OS0zMS4yMzktMTMuMjQ0LTMzLTMxLjIwOGgtNGMtLjUxNSA3LjU1IDEuNDEzIDM1LjMxNyAzNC43NjMgMzUuMzE3IDI0LjYgMCA0NC44NS0xMS4wMjQgNTQuMi0zNC4xNzggMy4wNS4wNSAxMS41NS4wNSAxNS4zLTcuNTVsLjc2MS0xLjYxeiIgZmlsbC1ydWxlPSJldmVub2RkIiBvcGFjaXR5PSIuMDUiLz48cGF0aCBmaWxsPSIjMDY2ZGE1IiBkPSJNMzUgMjhoMXY2aC0xem0zIDBoMXY2aC0xem0zIDBoMXY2aC0xem03IDBoMXY2aC0xem0zIDBoMXY2aC0xem0zIDBoMXY2aC0xem03IDBoMXY2aC0xem0zIDBoMXY2aC0xem0zIDBoMXY2aC0xem03IDBoMXY2aC0xem0zIDBoMXY2aC0xem0zIDBoMXY2aC0xem03IDBoMXY2aC0xem0zIDBoMXY2aC0xem0zIDBoMXY2aC0xek01MSAxNmgxdjZoLTF6bTMgMGgxdjZoLTF6bTcgMGgxdjZoLTF6bTMgMGgxdjZoLTF6bTMgMGgxdjZoLTF6bTcgMGgxdjZoLTF6bTMgMGgxdjZoLTF6bTMgMGgxdjZoLTF6TTc3IDRoMXY2aC0xem0tMyAwaDF2NmgtMXptNiAwaDF2NmgtMXpNNDggMTZoMXY2aC0xek0yMS44MDcgODMuNjI1YTIuMTY4IDIuMTY4IDAgMDAtMi4yMzUgMi4yMzRWOTYuNThhMTEuNjQxIDExLjY0MSAwIDAwLTcuNTQxLTIuNjQyIDExLjU5MiAxMS41OTIgMCAwMC04LjUwOCAzLjUyMyAxMi4wMzUgMTIuMDM1IDAgMDAwIDE3LjAxNkExMS41OTIgMTEuNTkyIDAgMDAxMi4wMzEgMTE4YTExLjY4NiAxMS42ODYgMCAwMDguNTA4LTMuNTIzIDExLjUgMTEuNSAwIDAwMy41MjMtOC41MDh2LTIwLjExYTIuMTMyIDIuMTMyIDAgMDAtLjY1NS0xLjYgMi4yMTcgMi4yMTcgMCAwMC0xLjYtLjYzNHptLTIuODI2IDI1LjI1NWE3Ljc0NCA3Ljc0NCAwIDAxLTEuNjExIDIuNCA3LjYyMSA3LjYyMSAwIDAxLTIuNCAxLjYzMyA3LjU1MSA3LjU1MSAwIDAxLTUuOTA5IDAgNy41NTYgNy41NTYgMCAwMS0yLjM4NC0xLjYyMiA3LjY1NyA3LjY1NyAwIDAxLTEuNi0yLjM5NSA3LjUxOSA3LjUxOSAwIDAxMC01Ljg0NCA3LjU0NyA3LjU0NyAwIDAxMy45ODUtNC4wMTggNy41NjMgNy41NjMgMCAwMTUuOTA5IDAgNy42NzEgNy42NzEgMCAwMTIuNCAxLjYzMyA3Ljc2IDcuNzYgMCAwMTEuNjExIDIuNCA3LjQ2NSA3LjQ2NSAwIDAxMCA1LjgyMnptMjcuNzgyLTExLjQxOWExMi4wMzQgMTIuMDM0IDAgMDAtMTcuMDE1IDBBMTIuMDMxIDEyLjAzMSAwIDAwMzguMjU1IDExOGExMS42ODYgMTEuNjg2IDAgMDA4LjUwOC0zLjUyMyAxMS41IDExLjUgMCAwMDMuNTI0LTguNTA4IDEyLjM4NSAxMi4zODUgMCAwMC0uODkyLTQuNjE5IDExLjggMTEuOCAwIDAwLTIuNjMyLTMuODg5em0tMS41NTcgMTEuNDE5YTcuNzQ3IDcuNzQ3IDAgMDEtMS42MTIgMi40IDcuNjIxIDcuNjIxIDAgMDEtMi40IDEuNjMzIDcuNTQ5IDcuNTQ5IDAgMDEtNS45MDggMCA3LjU3MiA3LjU3MiAwIDAxLTIuMzg1LTEuNjIyIDcuNjU3IDcuNjU3IDAgMDEtMS42LTIuMzk1IDcuNTE5IDcuNTE5IDAgMDEwLTUuODQ0IDcuNTQ0IDcuNTQ0IDAgMDEzLjk4Ni00LjAxOCA3LjU2IDcuNTYgMCAwMTUuOTA4IDAgNy42NzEgNy42NzEgMCAwMTIuNCAxLjYzMyA3Ljc2MyA3Ljc2MyAwIDAxMS42MTIgMi40IDcuNDc2IDcuNDc2IDAgMDEwIDUuODIyem01MC43ODItMTIuNzA4YTIuMDc0IDIuMDc0IDAgMDAtLjE4Mi0uODU5IDIuNSAyLjUgMCAwMC0uNDg0LS43MiAyLjE1NCAyLjE1NCAwIDAwLS43MDktLjQ4NCAyLjI1NyAyLjI1NyAwIDAwLS44ODEtLjE3MSAyLjE5MyAyLjE5MyAwIDAwLTEuMi4zNDNsLTEyLjg0NyA4LjM1OFY4NS44ODFhMi4xODEgMi4xODEgMCAwMC0uNjU2LTEuNiAyLjE1NCAyLjE1NCAwIDAwLTEuNTc5LS42NTUgMi4yMzggMi4yMzggMCAwMC0yLjI1NiAyLjI1NnYyOS44NjNhMi4xODcgMi4xODcgMCAwMC42NTYgMS41OSAyLjE1NiAyLjE1NiAwIDAwMS42LjY2NiAyLjEzMyAyLjEzMyAwIDAwMS41NzktLjY2NiAyLjE4NyAyLjE4NyAwIDAwLjY1Ni0xLjU5di03Ljc1NmwyLjYxNS0xLjcxOSA5LjkyNiAxMS4xNWEyLjA3NiAyLjA3NiAwIDAwMS41LjU4IDIuMjQgMi4yNCAwIDAwLjg4MS0uMTcyIDIuMTA3IDIuMTA3IDAgMDAuNzA5LS40ODMgMi40ODMgMi40ODMgMCAwMC40ODQtLjcyIDIuMDc0IDIuMDc0IDAgMDAuMTgyLS44NTkgMi4yNzUgMi4yNzUgMCAwMC0uNjIzLTEuNTY5bC05LjIzOC0xMC40IDktNS44NDRhMiAyIDAgMDAuODY3LTEuNzgxem0tMzYuOTAxIDQuNDU4YTcuNzEyIDcuNzEyIDAgMDEyLjQwNi0xLjYxMSA3LjM3NyA3LjM3NyAwIDAxMi45NDQtLjU5MSA3LjEzMyA3LjEzMyAwIDAxMi42MjEuNDcyIDguMyA4LjMgMCAwMTIuMyAxLjQgMi4yNzcgMi4yNzcgMCAwMDEuNDYxLjUxNiAyLjE1MSAyLjE1MSAwIDAwMS42LS42NDUgMi4yMDkgMi4yMDkgMCAwMC42MzQtMS42MTEgMi4xODQgMi4xODQgMCAwMC0uNzc0LTEuNyAxMS40NTkgMTEuNDU5IDAgMDAtNy44NDEtMi45MjEgMTIuMDMxIDEyLjAzMSAwIDEwNy44NDEgMjEuMTQgMi4yNjUgMi4yNjUgMCAwMC43MDktMS42NTQgMi4xNjcgMi4xNjcgMCAwMC0yLjIzNC0yLjIzNSAyLjQxMSAyLjQxMSAwIDAwLTEuNDE4LjQ3MyA3Ljc2MSA3Ljc2MSAwIDAxLTIuMjc3IDEuMzg2IDcuMjU2IDcuMjU2IDAgMDEtMi42MjEuNDYyIDcuMzc3IDcuMzc3IDAgMDEtMi45NDQtLjU5MSA3LjcxMiA3LjcxMiAwIDAxLTIuNDA2LTEuNjExIDcuNDY5IDcuNDY5IDAgMDEtMS42MjItMi40IDcuNjI2IDcuNjI2IDAgMDEwLTUuODg3IDcuNDg3IDcuNDg3IDAgMDExLjYyMS0yLjM5MnptODIuNTI2LTUuMTg5YTQuMjY3IDQuMjY3IDAgMDAtMS41MTQtLjkxMyA4LjkzOCA4LjkzOCAwIDAwLTItLjQ2MiAxNy4yNjUgMTcuMjY1IDAgMDAtMi4wMzEtLjEyOCAxMS43MzUgMTEuNzM1IDAgMDAtNC4wMzkuNjg3IDEyLjMzIDEyLjMzIDAgMDAtMy41IDEuOTc3di0uNDNhMi4yMzYgMi4yMzYgMCAwMC0yLjIzNC0yLjIzNCAyLjIzNiAyLjIzNiAwIDAwLTIuMjU2IDIuMjM0djE5LjU5NGEyLjI0NSAyLjI0NSAwIDAwNC40OSAwdi05LjhhNy40IDcuNCAwIDAxLjU5MS0yLjk0NCA3LjUxMiA3LjUxMiAwIDAxNC4wMDctNC4wMDYgNy4zNjggNy4zNjggMCAwMTIuOTQzLS41OTEgNy45MTYgNy45MTYgMCAwMTIuOTQ0LjUzNyAyLjM4OCAyLjM4OCAwIDAwLjk0NS4yMzYgMi4yMjkgMi4yMjkgMCAwMC44ODEtLjE3MiAyLjExNyAyLjExNyAwIDAwLjcwOS0uNDgzIDIuNDg2IDIuNDg2IDAgMDAuNDgzLS43MiAyLjEyMiAyLjEyMiAwIDAwLjE4My0uODgxIDIgMiAwIDAwLS42MDItMS41MDF6bS0yMy4wNTIgMi4wMkExMi4wMzIgMTIuMDMyIDAgMTAxMTAuMDUzIDExOGExMS41MzggMTEuNTM4IDAgMDA3Ljg2My0yLjkyMiAyLjIyOCAyLjIyOCAwIDAwLjY0NS0xLjYxMSAyLjE3IDIuMTcgMCAwMC0yLjIzNS0yLjIzNSAyLjM1NiAyLjM1NiAwIDAwLTEuNDgyLjU1OSA3LjEzIDcuMTMgMCAwMS0yLjE5MiAxLjI4OSA3LjU0NyA3LjU0NyAwIDAxLTIuNi40MyA3LjQ2MyA3LjQ2MyAwIDAxLTIuNC0uMzg3IDcuNzIyIDcuNzIyIDAgMDEtMi4xLTEuMDg1IDcuNSA3LjUgMCAwMS0xLjY2NC0xLjY3NiA3LjI4NyA3LjI4NyAwIDAxLTEuMDc0LTIuMTU5aDE3LjAxNWEyLjIxNSAyLjIxNSAwIDAwMS42LS42MzQgMi4xMzEgMi4xMzEgMCAwMC42NTYtMS42IDEyLjA2MiAxMi4wNjIgMCAwMC0uODgxLTQuNjMgMTEuNzE2IDExLjcxNiAwIDAwLTIuNjQzLTMuODc4em0tMTUuNzQ4IDYuMjczYTYuOTY3IDYuOTY3IDAgMDExLjA1Mi0yLjE1OSA3LjQ2NiA3LjQ2NiAwIDAxMS42NzYtMS42NzYgNy45MDkgNy45MDkgMCAwMTIuMTI3LTEuMDg1IDcuNTEyIDcuNTEyIDAgMDEyLjM4NS0uMzg2IDcuNDExIDcuNDExIDAgMDEyLjM3My4zODYgNy42ODYgNy42ODYgMCAwMTMuNzgxIDIuNzYxIDcuMjEgNy4yMSAwIDAxMS4wODYgMi4xNTl6Ii8+PHBhdGggZD0iTTEyOS43ODEgMzIuNDUzYy4xLS4xNi4yMzgtLjQ0NC41MzktMS4wNTlsLjM0LS43LjE1My0uMzE4LjM3OC0uNzg5LTIuMjIxLTEuNDg3Yy0yLjQtMS42MTctNy44NzktMi4yMjYtMTIuMTctMS40LS41NTQtNC4wNDUtMi44MjItNy41NTYtNi44LTEwLjY1N2wtMi4zNjItMS41ODUtMS41NTcgMi4zNDJhMTguMjE2IDE4LjIxNiAwIDAwLTIuNjY1IDExLjIxMSAxNC4yMDggMTQuMjA4IDAgMDAyLjA2NSA2LjJBMTYuNzUxIDE2Ljc1MSAwIDAxOTggMzUuOTcxVjI0SDg1VjBINzB2MTJINDR2MTJIMzF2MTEuOTc5aC01LjkzMmwtLjE0MS44MzhhMzEuNzg2IDMxLjc4NiAwIDAwLjExOSA5LjE2MSAzNi4yODIgMzYuMjgyIDAgMDA0LjEwOCAxMi40NTJjNS41NDcgOS45NTUgMTUuNjI0IDE1LjggMzAuNzU5IDE1LjggMjUuNzU0IDAgNDUuNDgyLTExLjg5MSA1NC42NjctMzQuMjE1YTIwLjMyOSAyMC4zMjkgMCAwMDcuNjc2LTEgMTMuMTQ1IDEzLjE0NSAwIDAwNy41MjUtNi41NjJ6TTg1IDI2aDExdjkuOThIODV6TTcyIDJoMTF2MTBINzJ6bTAgMTJoMTF2MTBINzJ6bTAgMTJoMTF2OS45NzlINzJ6TTU5IDE0aDExdjEwSDU5em0wIDEyaDExdjkuOTc5SDU5ek00NiAxNGgxMXYxMEg0NnptMCAxMmgxMXY5Ljk3OUg0NnptLTEzIDBoMTF2OS45NzlIMzN6bTg4LjYgMTEuMTIzYTE4Ljg1MyAxOC44NTMgMCAwMS03LjE0Ny44OGwtLjUyLS4wMS0uNjg4LS4wMTEtLjI1Ni42NDNjLTguNzQ4IDIxLjkzOC0yNy44NTIgMzMuNi01My4wNzIgMzMuNi0xNC40MTcgMC0yMy44MjUtNS40Ni0yOS4wMTUtMTQuNzc1YTM0LjI3NyAzNC4yNzcgMCAwMS0zLjg3My0xMS43NTcgMzEuOTY0IDMxLjk2NCAwIDAxLS4yNDItNy43SDMxVjM4aDY3di0uMDE5YzMuOTYxLS4wNDUgNy42NjUtMS4yNyA5LjUyNC0yLjcxNGwuODItLjYzNy0uNjYxLS44YTExLjUxNiAxMS41MTYgMCAwMS0yLjI3NS02LjAwNiAxNi4xODkgMTYuMTg5IDAgMDEyLjMzOS05LjkwOWwuNDQ0LS42Ny42MzguNDI4YzMuODgyIDMuMDMzIDUuODc1IDYuNCA2LjA4NiAxMC4zMTFsLjA2NyAxLjIzOCAxLjE5LS4zMjFjMy44OTQtMS4wNDkgOS42LS41MzcgMTEuNjg4Ljg3MWwuNzczLjUxOS0uMTIuMjQ2Yy0uMTI0LjI1Mi0uMjI5LjQ2NS0uMzEuNjI0YTYuODA2IDYuODA2IDAgMDEtLjE3Ni4zMjggMTEuMTU0IDExLjE1NCAwIDAxLTYuNDI3IDUuNjM0eiIgZmlsbD0iIzA2NmRhNSIvPjwvc3ZnPg==" parent="1" vertex="1">
          <mxGeometry x="130" y="510" width="48.13" height="40" as="geometry" />
        </mxCell>
        <mxCell id="T3HEAIqgR0DYX0BthUk1-5" value="" style="shape=image;verticalLabelPosition=bottom;labelBackgroundColor=default;verticalAlign=top;aspect=fixed;imageAspect=0;image=data:image/png,iVBORw0KGgoAAAANSUhEUgAAAagAAAJYCAYAAAA3yHJEAAAABGdBTUEAALGPC/xhBQAAACBjSFJNAAB6JgAAgIQAAPoAAACA6AAAdTAAAOpgAAA6mAAAF3CculE8AAAABmJLR0QA/wD/AP+gvaeTAACAAElEQVR42uydd3wc1fX2nzvbq3qvlixb7r0XDMZgMKb3AKGHJJAGKSQhkB+Q5E1CAqQQSiDUUIIxGIwNNhjjjnuXbckqVm+r7XXu+4eKJXlntLta7c7u3i8fIXlndnZ27sx97jn33HMABoPBYDAYDAaDwWAwGAwGg8FgMBgMBoPBYDAYDAaDwWAwGAwGg8FgMBgMBoPBYDAYDAaDwWAwGAwGg8FgMBgMBoPBYDAYDAaDwWAwGAwGg8FgMBgMBoPBYDAYDAaDwWAwGAwGg8FgMBgMBoPBYDAYDAaDwWAwGAwGg8FgMBgMBoPBYDAYDAaDwWAwGAwGg8FgMBgMBoPBYDAYDAaDwWAwGAwGg8FgMBgMBoPBYDAYDAaDwWAwGAwGg8FgMBgMBoPBYDAYDAaDwWAwGAwGg8FgMBgMBoPBYDAYDAaDwWAwGAwGg8FgMBgMBoPBYDAYDAaDwWAwGAwGg8FgMBgMBoPBYDAYDAaDwWAwGAwGg8FgMBgMBoPBYDAYDAaDwWAwGAwGg8FgMBgMBoPBYDAYDAaDwWAwGAwGg8FgMBgMBoPBYDAYDAaDwWAwGAwGg8FgMBgMBoPBYDAYDAaDwWAwGAwGg8FgMBgMBoPBYDAYDAaDwWAwGAwGg8FgMBgMBoPBYDAYDAaDwWAwGAwGg8FgMBgMBoPBYDAYDAaDwWAwGAwGg8FgMBgMBoPBYDBiGcIuASMRmbHyea3b4FNxHqLlFVQFAB7i04HKlOc8JD4oQKEHAI7QLh9P+MH7cHLeKSOcAwC8nMwh531OR6fXfurTH7jY1WYwmEAxEkFYrns+ya6gmXKKdB5I5whNo+CMlKdGEGIApcng+CSAGEGpASBGAHoAWgCqfr8B2vc/DPxLBDr0XufuQe2gcAGwEwIXpTADMAPUAsBMCLFQik4CmHlKzITzmcGjnfBcm1vOt0GO1lNv/sDMWp/BBIrBiDCjv/WsUc1p8qiPzyaE5oFy2YTSPEqQDUqzAaSDIA1AOgCFuG7QwD84cgIV1Gn17jzoo9wA2gG0AaQNlDZRjjYTkHoKNAF8PU/4JiqX1TMxYzCBYjAC4bHHuClVWTlen6KYwDuKUBQTjiumlBaBopAS5PdYNX56+MB79QQQqMA+tfuXHUA9BWo5oMZHUAOKasrz1UoZqT6CnHq8d72P3ZwMJlCMhBChqdVZhV4PN4ZwXBnhMYYSjKGUlhKgCIBSpOsW6eGZQIUoUENdYw9AzwCoAnCSUnqCUu6EnNAT2jR19Z4XvuNhNzWDCRQjpphx7/MKj0M2FuAn8pRM4ihfTgnGAKQMvfM6oj0jEyiJCNS5r9L+4oVqACcpIccIxVFK+UNqnefowdd/amNPAYMJFCPqTLjt+UIZlU0BMBHAZFA6AUA5euaAaCBdOhOoWBQowS9OgdOU4DABOUJ5HJb5fIeyu8zHNm16zMueGAYTKMaIMO3Gf+f6FHQGCJ0BihkAZgHIGro/YwKVQAIl1JweUJwEoXsI4fZQHnvsct+eM+/9xMGeLAYTKEZQTLr5nymQq+aCxzyO0LkUmAEgNVixYQLFBErkPR4Ah0H43ZTHdoDsOPnBj44DhLInkMEEinFWkO58uYT46ELCYwYhdAEPTAMFF2g3xgSKCVQIAuVvBwuAg6DYwvN0q5xTbjv+wf3t7AllMIFKMEGS+XAhBX8hKM5H99ohoT45fgQKAKEElHTf1IT0vEZIz01OejpZAkLO/huEgPQoAe3bd/CxCQg5KxqEUr/7gPI9xzmrSaTnTZTSfhrSTxR5Ckpo9zHpwOsaZwLlT6urQLCBUrKB83q/PLHmoTb2BDOYQMWTIN3+Sjmh9HxC6RIASwBkDtktxYpAEQpCCEAJCEe6b1dy9qYlhOt3G4fqPQrSggr1M4I8OKUUlKcAKPhepeoVMcp3bx+gYDEpUP3hAXoYwCaAfCWD4itmYTGYQMUYc771htEpcy0FwXJQXIzudUYBC44UBIr0WiuE9FgZXLfwkG4R6rZWAhAdAsjlMijlcijkcnAyDnK5DDIZB5mMg1wm6/431/1vmVwGAFD0/JbJOBDSvY3r0TqZTNZzHucil8nAUx943v/p+Lw+0J6O3OPx9b0GAF4fD8rz8PEUPt4Hn7fnx8fD5+Ph8fX8m6fweLzweL3wuH3gKT/kA8z3nBClFOD5bkHjuwWMYrCQSVagBu/PA3QPCFlPfPgst8u8nUULMoFiSJCpt78ylYJfToHlhGI++qf7oUF0DpEUKEJA+J7fXI+TjZx1r1G/byFQKuRQquRQKhRQKGRQKRVQKuVQKORQKLuFSCGXQ6HoFp94x+fju8XK44PX44XH64PL5YbH44XL44Hb5YXH44Xb7YHL7YHPx/c82Gcfbcrz3ULFU1DKd4seT8FT39kmlJ5ADX7ZDIKNAD7jvL71FWt+epr1DEygGFFgyZLH5F1Fxefx1HcFIeQKAIVU/OGNqkB1WxwcCNctQKTbHBowcieEQK1SQqVS9P1WqeVQK1Xdv1UKKBQK1vhhEDSX0w2nyw2XywOHyw2X0w2X2w2H0wOX0w2vr1+Wox5XIfX5+tyGvK/bEhzY5lEXqMEvHqaEfER430cnp9m+wWOP8az1mUAxRogJ1/1Dr9RollOCKwCsAJAyRPcQeYHqccv1mEF9llEvCrkcGo0SGrUKarUSGo0SarUSWrUKapWS3W0SwePxwu5wweF0wWF3weF0w9Hzb5fT0ydOlO+1tnjwvA88zw90F0ZVoPo9ExRNANYAZI1TiQ1sDRYTKEYYmHfduxqn3roCFDfxFJcSQB2Eg2VkBapHjHoFieuJkAMAlVIBjVYFrUYJnVYDna5HkNQq1qgxDs9TuNxu2GwOWG1OOB0uWG1OWKx2+HqtLB/fLVY8D97HgwrOk0VIoAZiA/AxIfRdh5z7lIkVEyhGEMy493mFzyW7COBuRLe1ZAjMgBk5gSIA0BMlx/VGywFQKxXQ6dXQ6TTQ6dTQ69TQalXgCMcaMtGggNPlgtXaLVwWix1WmwN2uxOUp30WFu/zdbsLoydQ/XewAPgIFO/Co1jPikcygWIIMPmOl+cQSm4nwPUATQ1caMIvUARnLaPu34BOq4ZBr4FBr4Ver4FOq4ZCIWMNxxjS4rLbHbBYHLBY7TCb7bBYbfB4vN0WFu/ttrJ6Qx8jK1D96aLAB4Twr55a/dBXLKsFE6iEZ8JdL6UqvPJrQeh3AUwdyvUxEgJF0LN4tVeMOAKtSg2DQQOjQQODQQu9TgOZjFlFjPBZWza7A2aLDWaLHWaLDdYuKzxeHrzXCy/v6xasQKMuwiNQ/V88A5A3eZ/v31Uf/+wkazAmUAnDdde9Kzulta8AoXcCuJT6rQA78gLVHVFHwMnkMOjVMOo1MCbpkJKkh0IhZw3FiKxmUQqL1YEukxVmqw2dnWbYbA7wPh98Xm/fouQICVTfPwjFVsrR/6gU2neOvPd9K2spJlBxyeRbX8vkZL67CcF9oCgQf7bCLVDda40IAIVSgaQkLZKTDUg26qDXa1gjMySJw+FCV5cVnZ1WdHSYYLXa4fN5wHv5gff7yAlU/1fMhNI3eSJ7rurDnxxircMEKi6Y/u3/zOA5/l4CcisAzeBnYKQEigAgHAcZJ0NSkg4pKXokGXUwGrSCmRAYDCnjcnthMlnQ2WFGR2cXuros3daVj4+EQPX/xx4ALzio9Y2GNY/ZWcswgYopZtz7vMLnVV1PKH4CYLpY2phwCVRvYlNwBMkGHVJTDEhNNcKo17JWDACep/DxfF/qIZ+PB08BnveBUsDH8+D5gY1AKYXPK7z+k5MRcNzAuTtCulMiAd1pkwBALudA0JNaieMgZ/N9AVtYHR1mtLV1oq21E06nq1+E4IgKVC9thOIlGfH9reKjnzewFmECJWkmfO9dvcLuuIsQ+hMAhYI3fZgEivT0eEqVAqmpRqSlGJCSoodCnnhzSDztyVHn9sHr88Hj9cHr8cHj9cLr9cHj7RYfr88Hr7d7ganP171OxzvYZSQBZDIZZByBTEYgl8vA9eQLlMvlUMi7f8vlMijk3Smd5AoOCrkcSqUcMi7xBI5SClOXFe3tXWhtaUdHZxd4j1e8VYcvUL0vuAHyIc/5/nx69c93sZ6QCZSkmHX7K9leQn6A7vmllCFv+mEKFCEEOr0G6alJyEg3whDHVhLPU7hcbrjcXrjcHrhcnu7cch4f3G4PPF4fPO7uHHSMHsuNI1AousVK2fNboZBDpZBDqVJArVJAqVT0JcWNR5wuN1pbTWhqakNrczt8Xk+AQYEhCVR/NoCSv1SueXAdC1VnAhVVZtz7eg7v5R8GpfdAJMtDOASKgENSsg4Z6UlIT0uCRq2Mi2vo8/ngdHngdLjhcHngcLrhdnngdHUnN/Uy4RlRIVOplFD3JNxVq7tTT2lUCqjVSiiV8WGJe70+tLWZ0NTcjsbGFnjc7u5HbGQEqpeDhJDHT02zrmJ5AJlARZQ5d7+Y5aKKnxOK+0B7Ah8QhC8hUIHigCS9HpmZycjISIZaGZvJUnmewuFwwe5wwe7ozuvmdHrgcLn6yk4wpClgvaKlVSuh1aig0Sih1cTuIm3ex6O13YTG+hY0NLTA6/GOlED1dqFHAPpE5XTbu0yomECNKNPueDmDgPsZCL5HAW1A92ewAkUAg16DrMwUZKYnQx1DlpLPx8Nud8HqcMJu7040anO44HZ5JTfHwxgecrkMGo0SOk13eiudVgWdVh1TVpfP50Nrayfq65vR1NDaU4ok3ALVt8sxSsmTVZrCt/He9WxUxgQqfCy5/RW1hZP9iII+DFDjgNsyTAKlVMqRnZmKnOwU6HQayV8Tp9MNi80Jm90Jm90Fu80Bp5MJERMuGQw6DbRaFbQ6FfRaDXRaVU8OR+ni8XjR0NiGmtNnYOrsGgmB6s0/eAgUv6j6+Gdr2d3CBGqYUDLjrtevBaX/jwKjBtxm4RAoAiQnGZCXm46MdKNk1ye53V5YbA5YrU5YbA5YLHbmmmME1YlotCoY9BrodRoYdGro9RrJipbV5sCZuibUVNfD5XSFW6B6/7+dgP9Z1ZpfbGF3CBOooJl+++uLwNGnADrL3902HIFSq5TIzUlHbk6q5NIK8TwPi9WJLosdZoudiRFjROA4Ar2uO99jkkELg1ELpcSeBUopmpvbUVV1Bq2t7QKBFaEJVN9HAO/KZPjVqdU/q2R3BROoIZl310upLqr8PUDv8f/9QxMoAoLUVAPyctOQlpIkmSvr8fhgMttgNttgtnSXShhQdI7BiBBqtRJGgxZGoxbJBi20WunUD7NZHThdfQa1pxvg8XrDJVB9jyEFfU6rdvzqyHuPsXx/TKD83kVk2p2v3kpAngKQPtTdFqhAyWUyZGenoCAvHWoJFOzzen3o6rLBZLbB1GWHzeEEmzZiSBGlQo7kJB2SjDokJ2mh0UT/+fH5fDhT14xTJ2tgtdrDJVC9ve0ZwuNXlR//7DXW+kyg+ph+96uTweM5APMDvduGEiiVUoH8vHTk5qRBHsUFkZRSdJntMJms6OiywmZ1sUAGRmwKllKBlGQ9UpN1SEnWR/e5AkVzYztOnjiNjo6u8AjU2Td8Sgj/g8qPHj7FWj2BBWrJY1/Ku+pqHyTA/4FCGeitKSZQWq0KRQWZyMxIidoksNPpRqfJhk6TFZ1dNvh8bA6JEX89k1GnRUqKDinJBhj1mqj1Vp2dZpw8cRqNja3+9Sdogep+jMHTx6q0o/7MwtITUKCm3/3aOFC8BtCZwd03/gWqW5iykJ2ZEpWrZne40NpmRkenGRYbc9sxEgu5XIa0VEN3kuQUfVTyEVosNpw8UY0ztU1+y4EEKVDd+Z+BHT7ivaN6zS+Ps1ZOCIGiZPrdb9wDSv8KQDvo7glaoLQaFYoLs5CZmQwSyctFgc4uK9o6LOjosMDl9rC7lcEAwHEcUpP13YKVaoh4zkFzlxXHj1eetaiGIVA9fzhBwaypeBeoWbe/ku2Tyd4CcL7A8Cbgu0apUqKkKDuiFhMFRVeXHW1tXWjtMLPwbwZjSLEiSEnSIz09CempBsgiWMrEZLLg6OGTaG3pGK5A9f6xDYTeVLXmF7WsZeNMoKbd9Z/FHLi3KZDj9y4I8L6RyQkK87NQkJsBThaZy2O22tHa2oW2djNcbi+7KxmMUMUqxYDM9CSkpRgiNkfc3NSGI4dOwmyxDVegAKCDJ7ires3PV7MWjQuBomTGXW/8AKB/AqAQzLRFh74QOTlpKC7KisiCQrfbi5ZWE5paTLA7XOxOZDDCiEIuQ3p6ErIzk2HQj3xqMUopaqobcOxoJVyuAJ9ngUisnn+97tEovnPmvZ84mEDFKAvu/LfBQeRvEJDL/Td1YAJlNGgxZnQe9CN8I1MA7e1mNLeY0NFpYXEODEYE0GpVyM5MQVZG8ohnafd4vDh29BROV54JouIv9f8yyB7w3DWn1z5UwwQqxph1x8sFPCf/GMBk/407tEAp5DIUF2YhNy9tRAMg3B4vmltMaGjqgMvFgh0YjGjAcQRpKQbkZKciOUk3op/VZbLgwL5j6OjsGoZAAQBaCKHXJGpOv5gUqGl3vj6FI/RjAPmCbT6EQGVnJqO0JHdEc+V1dlnR2NSJ9nYzs5YYDAmh06mRm5WKrMwkcCMUsk4pcLqqDkePnPRfmDMwgQIAN6Hku1Wf/OxlJlASZ8Zdr18J0DcA6EQHJQICpVDIMaYsDxlpSSNzU4Kio9OK2jOtsFgcrCdgMCSMXMYhKzMF+XnpUI1QrSubzYF9e46gra0zVIHq7a2fOq0e9fNECkWPKYGaedcbd1LCvwgKbkir2Y9ApaUaMKYsH6oRqFzr43k0NZtwpqGNufEYjBiD4wgy0pNQkJcO7QjkBKSgOH3qDA4fPgGe50MTqO6N72m1jluOvPeYmwmUhJh+9+v3EuA5gHJiLehPoDgZQdmofORkp4T9vLw+HvWN7WhoaIfHy9YtMRix3SESpKcbUFSQOSJCZTZb8M2uQ7CYbaEKFCihX+g0zisSITN6TAjUjLtf/y6Af3SfL0UwAqXVKDG+vAh6nTrsFlNDYwfq6tv8+5cZDEZMC1VKqh6jCjKhC3ff4fNh754jqK9rDkmgetJXfE1cZGXVhl90MYGKpjjd9fpDIPjTwCFEYAKVkZaE8rJ8yOThmwTleYr6xnacqW9jFhODkQBClZFhRHFhFtSq8E4NVJ2qw+FDJ8DzvhAECgCwxwe6rPaThzuZQEWB6Xe/cQsBfW3geQYgUAQoKcpGYV5G+L4hBVrau1Bd0wwnm2NiMBIKjiPIy0lDQX4G5GFMp9TZ3oUd2/fB5XKHIlAAsFOrdV4Yr+4+yQrU9HveuIxQ+gEA+TktJFYTjHAoH5OPzIzwRemZLXZUnm6Cxcqi8hiMREYhl6GoIBO52alh6z3tNju2bdkHq9UWikABFJ9pdc6V8Rg4IZPiSc28683ZAF0DQB3szTNxQjHSUg1hOQ+P14fqmhacqmxk2cQZDAZ4nqLD1F1lwKDTQBUGt59CqUB+YQ46O7pgtztDMTNKvW75pCl5C9+vrt7EM4EaQWbd+WYJ5fhNAIIygVRKOaZMKoXBEIZ0RRRoau3E0WO1MJlt7KlkMBgDB6892WE8bg8MRu2w61PJZDLkFeTAYrbCYgmhzyEo71LKUk0nN37KBGqEmPfjdzVej3c9gJJg3qdUyjFlYgm02uGHhbpcHhyrOIP6xnbwPMv/wGAwhLHYnGhuMUGrUQ07LJ3jCPLys2AOVaRAZqeOXVbbeWLDfiZQI0DmpJXPE5BLoyVOre1mHDlWCxvLLs5gMAKE53m0tnXB6fIgJUk3rNRJhBDk5Q1HpLA8Zeyyz0wnNtTHw7WVTJDEjLtevxsELw6959kgCWWPW0+rUQ7rs71eHypO1aO9w8KeNgaDETJqtRLlZfkwDnOqgVKKnTv2o7Gh9ZzuL4CaU41eGZlZ99HPG2L9enJSOIkZ975VDoK/BXXiMoIJ44qHLU5WqxN7D1YxcWIwGMPG6XTjwKEq1NW3Dc9yIASzZk9BampI0cg5ch99FaAxX+8v+i6+xx7j8rqSP0AQ804EBOPHFiAlRT+sj25u7cLRilpWWp3BYIQVU5cNNpsLKcOo7MtxBNk5mWiob4LHE3Sl7ZLkMVubTSc37GYW1HCsp/rR3wewIKgrPyob6enDWOdEgZNVjag4eYYFQjAYjBGhrcOMg4erhrVERa1WYv6C6aGWBfpTwSV/LGUCFao43ftaIaH0yWDek56WhPy89JA/0+fjcbiiFo1NHewJYjAYI4rV5sK+g1Ww2kJf5G8w6jF9xsRQ3qqTcfyLsezqi6pAEUqeARDwqlqVSoGxo3ND/jyP14eDR6rRweabGAxGhHC7vThwuAamrtDXVObmZaKwKC+Ut55ffOkfb2cCFSSz7nljFoArAhYzEIwty4NcHlpRMY/Xh8NHq1m6IgaDEXF8Ph8OH61Be2fog+Op08qhN4RQqp7SJ3JXPqZlAhWc/fQHBBHmnpeXipSk0IIiPB4fDh05DYvVyZ4UBoMRFXhKcayiDp2m0PK6ymQyzJwzCSTY1UEEuQqv+kdMoAK2nt68kIJeEOj+SqUcxflZIY5ceBw+Vg2rjS2+ZTAYURYpnuLI8VqYrfaQ3p+SbETRqPzgzQFCfzZm5Z/TY+16RUWgKOhvg9m/pCg7pJpOFBQVJ+uZ5cRgMKQlUkdr4XCGlnx8wqSyUKL6klw+z8+YQA3B7O+8PgXA/ED3N+q1yMpIDumzTle3oK3DzJ4IBoMhKTxeH44cq4XPF3zycaVSgQmTxwRvRYHck3XRn3SxdJ0iLlA8T74bzP5FhZkhJWTq6LTiTGMbexIYDIYksTtcqKgMLRtRcXFeCPlHabJW7r2JCZQAC+78twHAzYHur9OqkZocfGCEy+1FxckzAaSsYjAYjOjR1taFllZT8NYQ4TC2vCx4AwH4IRMoAZxy9S0IYt1Tfl5aSNbTycp6eLwsfRGDwZA+J6sa4XIHncoI+YXZUCiDy0VKgImFl/xuQaxcm4gKFKH0ykD3VSrkyExPDvozOjos6Oi0sruewWDEBD4fj9M1zUG/Ty6XoWxscfCdPiHXMIEaxORbX9MB9LxA909PMwadZJHnKSqrm9gdz2AwYoqWNhPMluBDz3NyMkOoP0UvZwI12CJSk6UACXhWLz3VGHwjt3aFHLrJYDAYUYMCNXWtQb/NaNDBmJoc5LtIafHK35UzgRp4US4JxnRNSdaDIyTwHxCcaWBRewwGIzbpNFlht7uC6/c4gqKC4POTEh9ZyQRq4ABhcaD7pqXooVBwkMlIwD8miw12VqqdwWDEMA1N7UH1ezIZQXpmctDBEnwQ/XE0kUfiQ0Y/sFZFnB0Bx0QmG3WQBzn/1NbWxe5uBoMR07S2mTFhDIKaf0/Wq6HRaOBxBz69QYDJzILqIdXdXg5AEej+KUlayGUk8B+OoKWdCRSDwYhtPF4fuiy2oPo/nVYFY3LQc/aFhSt+n8IECgDluaCqbaUlayHnuIB/bHYX3G627onBYMQ+pk5bUP2fnOOQkmIEIcF5nWSUTJL6tYiIi48SjA80q4NSIYNGpQjq+FZW44nBYMQJXRYH5LLgxMaoV0OuUATl5qMUEwBsTniBAqVpge6qUMghC7JxzDYmUAwGI04EyuoIug9UKeVQKFVBzkNRyZffiIxAgSYFmrNIrZRDHuTCM7fHy+5qBoMRF7jcHsgIh2A8dkqlHAplkN05hyQmUN1aHfCFUCrkQZu3Xg/P7moGgxEXUAoQ8JDLZAG/R62UQ8YF2Z1TkswEqpuAQ0xkHAk6xJzBYDDiCUIQVD8olxEQWXCeJ54wC6oXTaA7uj3e4P2vKjm7oxkMRnyIEwg0ajlIEKUcPF4fuCAFioBqmUAFidvrC3oOSq1kAsVgMOIDpVIGBScL6j0+Hx90mHksID2BcnuDnoNKT9ayu5rBYMQFaUmaoPtAj8eLONQn6QmUw+UFQCEPwlzNTtOzu5rBYMQFmamGoAXK7vSAxmEFcckJFKWAxepCRoou4PfkpBsgl3Hw+lg0H4PBiG0KspKCnuZoN9lDqj7OBCp4iUKnxYns9MCtIplMjpL8VJyoYeU2GAxGDHfIHEFZUVpQgWJOlwcWuyuooAomUMOg0+wIOtR8/KhMJlAMBiOmKclPgzbIqOT2LjtAATAXX2Sob+2CTBbceGDi6Exs2FkJK6sJxWAwYpTZE/OCnn8602QCgLgMkuCkeFJWhwcmszOobL5qhQxzJuaxO5zBYMQkWWl6jC1MDzqTeUVtR9xeE06qJ1bb3BV0Zcn5UwqCzoTOYDAYUmDJjGLI5cH1ee0mG0yW+E2WLVmBqmo0QRZM0UIZgVGnxEVzS9idzmAwYoqinGTMKM8JrlCrjOB4bXzPu0tWoEwWJxpaLEGbu4unFbF1UQwGI3Y6YUJw7QXjoJAF19cRSrD3eCMTqGix71Rz0CMKpZzDrZdODmqhL4PBYESLpbNHoTgnKei+7uCpRljtvfWfaFxeG0n34tWNXejoskPek+E80J+SnCSsWDia3fkMBkPSFGUbcfnCsqD7OBkh2HKgDnEbXx4LAgUAO442Bh0sIZMRXDKvFBNGpbMngMFgSBKtWoF7rpwGlVIWdP92rLoFzR3WuL9GkheoYzXtqG+1Bj0XpZTJ8L1rZyI/08CeBAaDISlkHIfvXT0DuWmGoPs2UODjbacS4jrFxETNup2nwREE7aM1aBT4yU1zYNSp2BPBYDAkw22XTMTk0RlB92lyGcGXe6vR2mnrPhDt9xOHrr6YEKjmThv2nWwOqTGzU7X4+a1zodOw9VEMBiP63LxsPJbNLg6pPzPbnVi/s1Jg6in+UknETKjbp7uqYLK4gjaH5RyHsrwUPHrHQhg0SvZ0MBiMqHHjheNw5eIxIfVjMsLhzXVH4Hb7BskSictihTElUG4Pj3e/qgAIQgqaKM1Pxm/uWgCjlokUg8GILIQAty6fiOsuKA+p/5LJCD7/pgqHKlsGWUwkrq9bTC0WqmnqwsY9NUGHZPb+jMlPwZ++fz7yMljgBIPBiAxyOYcfXjcD1y4ZE3LfdabFjPe+PJ4wwhRzAsURAoWcw4Y9NThZ3xmS/1YuI8jP1ONP31uC8qJU9uQwGIwRRa9R4PG7F2LZrOKQ+yyX24t//G8PfDwVESa2UDeq8JRidG4yctN1eHntYbR2OkLy48o5DmlGNf703SW4cGYxe4IYDMaIUJhlxNM/WIrpZVkh91WgwF/e2Y3GDpuIMLGFupKgoq4T4wpSMaU0HS9+chBWpztkf65GLccvbpmNn98yByqlnD1NDAYjbCyYnIe//XgpinOMIfdRHEfw/If7ceR0m7gwkfh1+cVUz8xTil0VTbhgWgEyk7X43+aTuP2i8VApZSEf85I5xSjNTcJjL29FQ5uNPVkMBiNklAoZvnvlFFy1uGzYx3rrsyPYtK/OjzD16hIZ+EocGlIxl1G1y+bB4dMdUClkKEjX48v9Z0B5GrIJLec4jC9Kw2u/uhTXnT8WhLCHjMFgBE9pbjKef2gZrlsydlj9kZzj8OHmk/jv50f9W0xCQRIk/hQqZiyo/nH+p+pNyEzWIDdNB0opTjSYMLEwFbJhZDDXaxR48IYZWDg5F0+8uhOtJjt74hgMxpDIOIJvLRuHe1ZOhkI+/DH/e18ex0sf7z/XYgKJV0MpNi0oAgIQ/4vQdh1vhtnRnWrebHPjSG0HQClkHBnWz/wJuXj70RW4YmEps6YYDIYo5YWpeOXhi/HANdOgVsqG3f+8+8UxvPjR/sEdIYaaY+q2r1gmiQgJ09nRghBeH4+dx5rg43kAQJfNjX1VbXB5fMP+fKNOiV/fNhev/nI5xhWlsaeQwWAMQKOS4/6rp4Wtj6AUeG3dYby05sDZfpCQIWMf+hx/cTqYjtmqfoQQmG1u7D1xdmW1zenBvspW2JyesHzGuKI0vPLwxfjhddOhZ7n8GIyEhxDg4tnFeP/xy/Ht5ePBccNXBpfbh9++8jVeW3cocEFDYrj65LF3g5ABzVTXakF9uw15abruxvb4sL+qFeML05CiH34WcxlHcMuycVgxtwQvfnwQH2w+Ba+PZ08qg5FgTCvLxA+vnY4Jo8LnVTFZnXjkxc04VtMekCgBACWDXmACJQlp6jcnRAe8XtnYBbVShnSjGgDg9VEcOt2GoiwDCjOMYZlLSjGo8LObZuHGC8biudUHsGFPLXtiGYwEoDDLiO9eOQVLpxeGdV76RF0H/u8/W9DcbgtImHq6u8HdYlyLlbQF6hwXrHArHK/rxNTSdOjVZ11xNc0WWB0ejM1PgVzGhe1m/f13FuHmqja88ulhbDlYD0rZQ8xgxBs5aTrccclEXL6wFDIuvJM8a7efwt/f3wPPEN6Y7uRGBAAdNCzvZ0mdHcIzgYqMMA1WpqEVwMdTHK5px7SSDKgUZxfutpsd2FfpwbjCtAHiNVwmlaTjL99fgkNVbXjp40PYdriBPdEMRhyQl6HHXZdOxKXzSsIuTHanB399Zxc2H6gNcGBLAniFWVBRgoqL2CDcHh+O1LRj8qh0KPpZTE6XF/srW1CcaUReuj6stVMmlaTjmR+cjyOn2/Ha+qPYtK8OPDOpGIyYY3ReMr510Tgsn10cNo9Lfw5VtuDP/92Jpg5rCIN2gS6RxrdKSVSgRGJUCBF1+9mcHhypacek4vQBox9KKU43d6Hd4sCYvFRoVOH96hNGpeH/3bcIDW1W/HdjBT7ccgoOl5c99QyGxJk6OgO3LZ+AhZPyRmTto9vrwxvrD+O9L4+D8mESETpYv1guvqjRZ/EQkW39MNvdOFrbjolFaefccBa7G/sqmzEqOwnZKfqw35C56Xo8eMMM3LViIt7/6iRWbT6Jlk6WlYLBkBJKhQzLZhbhpqXlGFuYMmKfU1Hbjr+8vRO1zebw2Dd+yrzHcz4BSQvUcFxxJqsLFWc6MbYg5ZwG5HmKygYTmjttGJ2bAv0IlIJP1qtw14qJuOPSCdh9vBlvf3GcBVQwGFEmI1mLqxaNxrVLxiDFoBqxz7E5PXhj/SGs2XoSPl8YHnp6Tufo5zUmUBETpnDME7WZHUAdRXlBqt+2szk8OFjVgpw0PQozjZBx4fc7c4Rg9rhszB6XjZomM1ZtPolPd55Gp8XFegsGIxKdnIzD/Im5uHpxGeZNzAE3wjnMNu2rwUsf7UOHxTkywpRIbRerJ05AAhoxtJkdqKjrwNiCVL9tSynQ0GZBu9mOoqxkZCRpR+yci7KN+PH1M/DANdOw9VAD1myrxNZDDWzhL4MxApTlp2Dl/BJcPKcYqQb1iH9edaMJL360D/tPNY9AvMJQnV18umZiL5NECHZsm9kBeqYD5fmpggMQt8eHk2fa0dhuQXFWEoy6kbuh5TIO503Nx3lT89FpcWHdztNYt6saR6vbWa/CYAyDjGQNLpxZhMvmlWBMQUpEPrO9y4E3PzuEDd+cDnsEb58njw4hTHFqWElPoAgRfO3c6D0KkMDccu1mB47UtGF8YaqoK8/qcONIdSuS9CoUZ6VAqx7ZHHwpBhVuurAcN11YjqYOGzbtP4ONu2uw/1Qr620YjAAw6pRYNDkfS2cUYv7E3LCvXRLC6fbik20n8e7GI7C7vBE2YmhCGFESt6CIH70KvRW6bC4crm7F+KJ0KGSyIfc9WNWEjCQd8jKMUEegLHx2qg43XjAWN14wFqcbu7Bhdy027a/DibpO1gsxGP1INaqxeEq3KM0qz46YKPUK06c7TuGDr47DZHVGX5j69ZdMoCIkTAMvdvjuAKvDg0NVrRhflAaNUjHkrdDSZUOr2YY0gwYFmUlQKyOT1XxUThLuWTkJ96ychKYOG7YfbsTXh85gx5FGeLxszoqReORl6LFocj4WTc7DjLFZERUloDsR9ee7KvH+puPoMDsibLLQvp6RhiReTKAiPFpAdzKqEO5Rh9uLA1UtGJOfilS9JqDTaDfb0WFxICNJi5w0IzSqyJXfyE7V4arFo3HV4tEw293YfrgB2w43YMfRRnSYnWAw4hGlQobpZZmYOyEHi6fkoyDTEJXzsLs8+GxnJVZvrui2mKLRB/Z2dQm2TCX2Mkkg8ASyYvh4iuO17SjKSkJemj6ws6IUrSYbWrtsSNKpkZ1qQHIgAhdGjFolLp5djItnFwMATjd2YfOBeuw61oh9J1uYdcWIeSupe1lGDuZPyBnxOWAxTBYnPttViY+3noDV4Y7SGsZA05WzTBJRg9Aew9Zf/MQwG6amuQt2pxuj81KCWh/RZXPCbHNCr1YiO82IFIMmrDn+AmVUThJG5STh28vHw+70YO/JFuypaMaeihZU1HWA59nKYIZ0yUnTYcaYLMwoz8KMMVnI6anrFk2qG01Ys6UCXx+shc/LS9poIYQMEeXHBGoExw4kIhe+rcsOt8eLMQVpUMplQb3X6nTjVH0bVAoZMpL1yEjWQxHkMcKFVq3Awkl5WDgpr/vcHB7s6xGs/adaUFHbydZcMaJKQaYBk0szMHNsFqaPyURuul4S5+X18dh19AzW7ziFI9WtAJV6n08SYs2uZIMkIp1hyuJw40BlM0pyUpBuDN5t5/b4UN9qQkNbF1IMGmQkG0Z0LVUg6DUKLJqch0WT8/oewpNnTDhQ2YoDJ1uw50Qzy2jBGDFkHMGYghRMGZ2JcUWpmD4mE9mpOkmdY6fFic37TmPdjlNo64qFnJn++sX49ZLEfSaJYEdRJ8+0w5SkwajclJBSH1FK0Wmxo9Nih1alQFqSHqlGXdSsqgGNLeMwrigV44pSceMFYwEANU1mHKvpwLGadhyr6UBFbUf3mg4GIwg4jmBUTlLf/TWuKA1jC1OhlHOSO1evj8e+ikZs2nca+yoa4eWl71UgIH5kKP7d9zElUJGyqtq67LA63SjLS4NuGIlk7S4PHC2dqG/tRJJOg7QkPZL00ZmrEqIo24iibCOWzykGAPCU9onW8doOnDpjwqn6TmZpMfpQKWQoyU3C6PwUjClIwbjCVIwtTInIWsHhcLqhE1/tr8a2A7Uw2109A0qpd3o9vd6AE6UBWlZMoCLWSH7NWoIRS57odHtxpLoZOakG5GckYTh5ZCkFTFYHuqwOyOQcUg1apBh10KnVkvMjc4T0BV5cOndU3+vtZgdOnTHh5BkTKutNqGwwoabJzKytOEbGEeSm67vFKC8Zo/NTUJaXjIJMAzguNjrEVpMNOw7XYcuBGtQ1d8V4QIG/7BHxPRElbYEifmymPs8eGfE7jVKgob03kWwSUo3DTyTr8/nQarKgzWSBQi5HikGLZIMOOo1K0k2RZtQgbbwGc8bnDHi9ucOOmmYzaprMON3UhZomM2qbLWjptLPKwjFCkk6FgkwDirONKMoxoijTiOIcI/IzDFBI0EU3FJ1mB3YeqcP2I3WoPNMOSmPdGTZo2Q3tid5j5TaipEt+rKZoWhpurw+n6tuRYrajIDM5bNV4PV4vWjrNaOk0Q6WQI9mgQ5JeC61aKSk3oBhZqVpkpWoxe1z2oO/Go7Hdivo2K+pbu3/O9Pzd3GGD2e5myhAhlAoZslK0yEvXIy9D3++3AXkZeug1ipj/jm0mG/ZWNOCbo2dQUdsGSml3tx7zYyQ66E+SUBU3pO/iI1QyA4NOiwMmiwMZyd35+VSK8F0+t8eLlo4utHR2QSHjkKTXwqjXQq/VjHj9mpFAIedQmGVEYZbR73an24vGdhtaTQ60dNrR1GFDc6cdbSYH2s0OtHU5YbI62cLjIUg1qJFsUCHNqEFGsgaZKVpkJmuRnarr/jtFO6KF+aJJTWMn9lY0YO+JBtQ2mnq6chp/RUEp4t6VF3MCRQI2yiN/N7Z12WC2OzF1dO6IHN/r86G9y4L2LgtkHAeDVg2DTguDVgOFQh4XN55aKe+b6xLDZHWh0+JEh9mJ1i4HuqwumG1umO1umG3df3fZXH3/tjk8cMegqHGEQK9RQKdRIEmnQpJeBaNOiSStEkZdz986FVIMaqQlqZFm1CDFoIJcxiVMZ+Vye3GsugUHTzXhwMlGtPeEhce1IznAL9edvZQli42UOg29S28JjijdnTRCwzSe59FltaPLagchgFqpgF6rhUGngVajjknrKhiS9Sok61VDCll/fDyFzemBzeGB3emBw+2F3emF1eEGTwGrvTttjc3lgc9H4fJ44fb4QGn3ejh/eDw8nG4vZDIOWrVcUHSVcg6EEOh7oj8NWgUICDRqOeQyDjq1HGqlHFqVAnqNAlq1AhqVTPIRcNHiTEsXDlc14fCpJpysa4PHx4NNbQ7sK+M5R1/sFSzs7ZBp4GIWywI1GKfbA6e7C+0mEziOg06thk6rhlajhkalipm5q5FExhEYtUoYtUowYovWTisqaltRUdOK49Ut6LQ4ep43dm2EB/Jsoa4kWoMQ6bQFlcATw/M8LHY7rHZ7X8es1aih1Wig06ihZoLFkDhtJhtO1LbiRG0rjte0oqPPbUcTLnN3CL3QQKViBQujIkuSvPhSzMHKUwqr3QGr3QGC7tX9apUSapUKGnW3cMllMvZcM6I0oKI402JCZX07aps6caK2W5B61yYxPQrAWqJ+hCmOka5AEWmPCmgM+Bx4nofd4YTD4UQn6QIAqBQKaNRqqNUqqFUqqJTMymKMzNi+rdOKumYTaps6cLqhAzVNnfB4fH2PNHPbBdIN9mYr54fuGwkrWBg5q4kGtGNUF0hRSmOuc3d7PHB7POiyWHrWmwFqpRIqlQpqlRoqlQoqpZKJFiMoMerosqGuuRO1TZ2oazKhtrkTDqenp3OlQ1R4Y4hf3X79Ikms6yiXZHvQwKzd6FtRiP1Fc5TC6XLB5XbBbDH3DdCUCiWUSiVUShWUyu6/FXIF6y8SHIfTjcZ2Mxpbu9DQ1oX61i40tZnhdHsHWEVMjMI7ZE9UYiZIQopC0O3mi8ObhwJutxtutxtWWEF6XAccx0GhUEKpUEKhUEKhUPT8rWAWV5zRZXWgtdOC1k4rmjssaO2woLnTDJPZMWDOKJ6L5cWMOMXxsyePhfaR6uWnCeZE53keLqcTLqdzUJ9EoJDLoeixshQKxdnfTLwke+92WR3oMNvQ2WVDu9mODpMNbSYrWk0WOF3ec+aKKFMiiQ3aSdxbqxLOJBHEcD96hgajp+PqndsacF16/pDJ5T2CJYdc3v2jkCv6/maRheHH4/Why2qH2eqA2eaEyWJHl7U7VVen2YYOsw2+foteWSRdrFtV8dlyEhQoGqBV270fiXKQBGNovF4vvF4vHM7BLqHuMTlHCORyBWQyWZ9gDfxbDoW8+zWO4xL2OvI8D4fLA5vDBavdCZvDBZvDBYvNCZuz+zWLzQmz1QmHy32O6NABf7N7NwZNJj86FN+TfjGYSUI6LcHKSYTvOrrd7nOeMX+jekIIZBwHWY+I9f7NcTLIZN1phjhCugcuPX9zHNdtpRECRY+1plRGLuDD4/XBx/Pw+Xzwen1we7xwe33weLzdaZbcHnh6Xnd5PHA4PXC63HC4PXA43XC43HA4PXB7vH5Eh/Zdqz5riN2W8WcvkcHZSRMjGiV2BEpCWc0B1hFE02r1+HzweH3nPp+DxIwOUrr+nbrX64PX5wNod+4+gIKnFF4f3y0mXh4cR+D1+eDxdAuMP4vE4/H0vL9XbAFXj9i63d6+QYw/V9q5r527LxMdRiJZTDEnUFKeX2duEglbZXy30PA8D56n8PE+eL3dVgxPKXiewuvzwefj4fV1ixXPn33d6+1+naf8ORFr5wQPnCMolEW3MSIsTGwOKgp2bVh3ZBaUpB432icelPLw8RSUnn2N5/keIen+TXnabcXQbrHh+W4R8vp84H08vJQH7+2xfnh+0HxLzycKBARQEdFhMKQmTH2JJBJgFCTRchsBXHQJmFaJYEE5nA44HLa+YQDfIxK91gLf5/rqFpDeB8fH+/o6+V7B6BMdH39OcTm/IiFksQx6n799GYx40qdzx+OJcafHXhEaIp2yXImwLsTlcsLU1Xk2V6W/+ZGeDUO7vpiAMBhBidNAcynhnqDYySQhwRW7ieEGYotsGQzpmVKDntE4rVoYAwLVazFJ7+InQpg5SwLBYEhYmALdlQlUuDtGEuB+UWwVNpPOiCJulxMdrU3o6miD1doFm8UMm9kEm8UMu80Mm8XcPV9Iebgc9r4+zGW3QSZXQKFSQaXWQalWQ6FUQ6FUQa3RQanWwpCcBn1yGvTGVCSlZUOrN7ILLqFBuz8Zo3E4mpRuuY1AmohEN1krTxPhUWAmVLQxm9pRX3MaTWeq0d7ahI6WRrS3NMLS1Rmxc1Br9UjNzEVqZh7Sc4uRlV+KjLxRkCtVrIEi6c6gfoQpjr9y7GWSkJLxTRNCoRISh90Om9XcV3rc4XB0RynS7tyCSpUKCqUKcrkCKrU2bCmY7DYrqk8dR+2p46ivqUJDbRWslq6oXw+n3YqG6hNoqD5x9tbgOKRm5iGvZDzySycgr3QCNLokJiRhfvxorzglkDDFnkD5jZGIbu8Za/rk8/lg6uhAR89PW2sr7HYbvF4v7PZuF5DVaoVGrYZcLu9OJSTn4HDYYTQaYTTqodcbYDQaYUgyguNiN8mr1+PBmTO1OFNTjTO1Nehoa4XJ1Imuzg6YOjvgcbuDOp5CqYTeYITekASDMQk6gxF6YxJS0jORlpGF1PQspGVkQaZQDhJCG04eO4iTh/fj9MljaGmsi5mBD+V5tDfVob2pDge3rQcIQVpWAUaNm4FRE2cjK380m8QM9zX3a1hRlosvelYt9fMaEWkuZkF1dZlw9PBhnK6qwumqSlSfrsbp01VoamwM2zlzHIfUtFRkZmZ2/2RloKCwEEXFRcjPL4BSpZTUNTF1dODwgf04cmg/aqoq0dTYAN7nC9vxPW43Otvb0NneJrqfMTkV2XmFyMzNx5nqStRWngDP++KjN6EU7U21aG+qxe4vP4DOmIJR42dh7LRFyC4uZ+oyTGE658kl8W9DyaXdJOcoU2CvJZhA1Z+pw97du7Fv7x7s3bMbladOjfi58TyPttY2tLW24eiRo+cMILJzclBUXITCwkIUFRcjv7AABYWF4CJUWoNSimNHDmHfN7tw+MA+1NfVSqKtzKYOmE0dOHFkf9x3LjZzJw7v+AyHd3yG5PQcjJ2xBGOnnwddUhpTnOEIk8DAPB7niyWaSSLACx9lR2w05enUyZPY/OUX2PTFRuzbu0diA2mKxoYGNDY0YMe27X2vq1QqlJSWYtyE8SgfPx7jxo+DTm8I62c3nKnDjq1fY+umL9HS3JTwHZxarYZGo0FSUhJUKhU8PTW7bDYb3G43vF4vLBbLyFuwbY3Yuf6/2PXZ2ygsn47JCy5FXulkpkBBdYs06v0OE6hBI3HJKUMULaimxka8/+7bWL/2E1Sfroq5m83lcuHY0aM4dvRoX/sWFhdh3PgJGDdhAiZPmwaDIXjB8vl82L71a6z76EOcrjwV/x0VISgsLMTYsWORl5eHgoIC5OTkID8/H3l5ecjJyYFKpUJKSkpQ17C1tRUtLS1obm5GQ0MDqqqqUFVVhcrKShw7dgwmkyksz0zNsT2oObYHGXklmLxwJUqnLGDRosKN3d3hifU1/TMZM4GKxEiB+Bcneu6DSqIaZh6ZG+LokcN489VXsO6TNfB6vfHjvqAUNaerUXO6Gus++QSEEIwqLcXkqVMxacpUjJ84ETKZ8C3q8Xiw/euv8eH/3kVjQ31c9k+pqamYPXs2pk+fjvHjx6O8vBzl5eXQ6XRh/RyZTIbs7GxkZ2cL7lNTU4NDhw7hwIED2LZtG7Zt2zYs0Wqtr8LGd57B3i//h6nnXYXRUxYBJHELUgbtIqJne8x41feIfK2Z97yxB8B0v1fYT462wrw0aNRnO6a+uUBydlDRe+IcISjJT+p5/WzNKNI7+EDPaz3v6TWT+x+DgPZNZfXt03876fe+fsfNS09CXrrx7Hn1H/T4ucCk35chQg3R81mUUmxY/yn+89ILOHLoYEI+ngaDAZOnTcfsefMwbcZMKFVqAIDX58XG9evx/ttvwdwVvhBsjuOQnZ2NvLw85ObmQqPRwGg09m1LSkqCx+OB1WpFV1cX7HY77HY72tvb0dTUhKam4bsUS0tLsWzZMixcuBCzZ89GWVmZZNuH53kcPXoUX375JdauXYtNmzbB6XSGfLy0nGLMWnYTCsZO7wvv95dAWDxRMBXJFymUyV64Zpd41nvqd1/hJMc4p+6X2L6EAkQh78t12ddl0oG9Ru8/3S4XGuvqz9UvIeuKYG31Jw+vYAIVqkDRQR0/d+6JcwQoyU+OikDlphmRn5E04KQGChIVFysBwTpy8AD+9PvHcWDf3rB19GPHju1zCWVnZyMjIwOZmZlIS0uDXC6HwWAAIQTJycmwWq19cxUmkwlOp7MvNL2jowNtbW2ora1FbW0tzpw5gzNnzsDlco3oPaRUKjF1xkyMnzgJGz9bh7qammFZC+Xl5Zg+fTqmT5+OqVOnoqysDFlZWZDLQ3cquFwu1NfXo76+HtXV1Thy5AgOHTqEQ4cOoa6uzu97kpOTccEFF2DZsmVYtmwZSktLY3ZAYbfb8cUXX+D999/HBx98gK4QBw+F5TMwd8XtMKZkMYHqL1A9B+/LGDGg7yRwu5xMoCIiULmDLKgeP+zAzp72s6CiI1DZqQYUZCYPGMv0T2rbv0gzERGxXlqamvC3p/+EtR+tDnl+y2AwYN68eVi4cCHmzp2L8vJyFBQUjGj7+nw+VFVV4fDhwzh27Fjf7+PHjw9rRB1OSktLsWLFCqxYsQILFy6EVquN6Od3dnZi//792Lx5M3bs2IGSkhJcd911WLRoEWSy2F1PJoTT6cQnn3yCN998E2vWBO+alskVmLzockxZfBVkCmViCxTt/pv6E57eUvCUMgsq4gI1oLQG7ROGgRZU9AQqK0WPwsyUATVaSAguPkop3nvrdTz71B/h6MmZFgzTp0/Htddei4svvhhTpkyRTIfXK1wHDhzA9u3bsW3bNuzduxfuIBfBhkpZWRnuuOMOXH311Rg7diwY0aG+vh7PP/88XnzxxaDdoMa0HJx37f3IyC9LTIGSK/o2DBSos2tBe4/hdrvRWHuGCVRkXHyKQSfIn9vxE9ItUHnRmYPKTNajMCt5oBvynHMcfKHpgItu7urE//36F9i08fOgrunkyZPxrW99C9deey1KSkpiamT9zTff9E2yb926Fe3t7WE7vlqtxtVXX427774bS5YsCTjpcCJgc7rB8xQGbXTy57ndbrzzzjv43e9+h+PHjwf8Po6TYdKiKzDt/OtAZLLEFaieXHyDg83jWaBiINWRn0wSEglZ6e+G638znHUR074ADzpIsABg7+5deORnP0JzgKNKjuNw+eWX44c//CGWLFkSk52kWq3GokWLsGjRou5hB89jz549WL9+PdavX48dO3aEFKmoVCpx++2347HHHkNOTk5CCI7J6kBNswnNnRa0mmxo7rSgrcuO5k4LzDYX3F4fLHYn3F4fnO5zr6lWpYBcxkEu46DXqpCi1yBZr0Fmsh45aUbkZxiRl56EUdmpUCqGb5UrlUrceuutuPnmm/HOO+/giSeewLFjx4Z8H8/7cOCrVThzch/Ou+6HMKblJtbIggy0mILoKuPjq0vTgpKfa3n09Pz953M4ApTkRcfFl2bUojg7td++tM+y6zuuwH32nxeew3N/+0tA6XYUCgXuuece/OQnP4npSfRA6OrqwsaNG7Fu3TqsXr0ara2tovurVCrce++9ePjhh+NWmLxeHkdrm3G0ugVVje043diB002dMFkdEfl8jiMozExGWV46xhVlYWppDsYVZUIhH55o8TyP//znP/jVr34VsOtPodJg0TX3o7B8VoLMQQ1y8flJu9dnQbE5qEgJVOoAF19vkMQ5Jx1lgUo1aDEqJ7XfOdEBbj5/Lj5Kefztz3/AG/95KaBrt3z5cvzlL3/BuHHjEs4l5fP58PXXX/dFhdXXD1zrtHTpUvzrX//C6NGjw/q5FrsLrSYr2i0OUJ72WCCevu16jQpqpRwqpRzGHstDqx7Z3IPHa1vw2md7sXHvqe6s6lFGqZBh0qgczJ9QhAUTizE6L/T0RWazGU888QSeeeaZwOYnCcGkhZdj2tKbQfqCBOI3SAIC58MEKsoC1RsRN7iirlQEKsWgQUlO2oDvc06QRL+/qc+HJx99GGs++N+Q12zMmDH461//iksvvTQsbeDx+lDbYkJtiwmtJis6LQ50Wh0wWZ2w2F2goLA7PfD5ujs/jbrH/cNxMOrUMGrVSNKpYNCqkZ2qR2ayHtmpBqQZdRFJh0gpxddff43XXnsNX3zxBR577DHceuutw5pjqm/rQkVdK47XtuJ4bQvq28xo7rT4dYcNhU6tRFaqAdmpemSnGFCam4bReWkoy0uHUacO23VoaDPjxU924pOdx8FLqCBZdqoBS6ePxiWzx6K8MDOkY5w4cQJ33nkntm7dGtD++WXTsPi6H0Gu0iSUQPV2TIOP63a50VjHgiRGXqDy06BVKfrOUEigCCHgOGBUbnSCJJL16m6BGhw67ifM3Ovx4NFf/AQb168d8nrdddddePbZZ0MOhfb6eByrbcGBUw3YX9mIyvp21Ld3jUiHppTLUJydguLsVIzOS+v+nZuGvAwjZNzIZAWglIYkTDanGzuP1WLLoWpsPVyNdrM9Ig9ZZrIeE4qzMH1MHqaX5aEsPx3cMFW9qrED//xwOzbtr5Rcp1KcnYLL54/H5fPHI1mvCdrt99e//hWPPPIIHI6hXZhpuSVYesvDUGuTEkOgBjwHTKCkKVD9ws+jKVBJOjVKc9MGXEUy4Hf3cXneh5/94LvYsmmj6HUyGo14/vnnceONNwbvJrE5selAFTbuPYU9J86EZAWMhHCVF2ZiSmkOJpfmoDgrNeLJ53meYuuRanzw9RFsO1INry/67jGDVoVZY/OxZGopFk4sHpaFdbCyEf/v7U2oqGuVXOeiVMhw0cwxuPH8KUFbVcePH8ctt9yCPXuGToRsTMvBhbf8CrqUzDgVKDIgzJwJlEQFqv+oWQoCZdSqUJqXPkCQzlpQpO+4z/zxSfz3tZdFr9HkyZPxwQcfBBUyzlOKzQeqsOrrw9h1vE4Sna9oR6JTY0pJDiaVZGPq6FxMGpU97Il2QcG2u/D2F/uxessRtJiskr0mMo7DjDF5uHBGGS6aOQZ6TfBzWTxP8e6mg/jXmu2wOtzS62QIsHDiKNyzYjbGF2cF/D6n04kHHngAL7009HytxpCCpbf8EilZhXElUJxC0bcQV1iguhMEuJxMoKIkUCKZJDgSNYEyaFQYnZd+jpXX//M+ev8d/P6xX4pen7lz52Lt2rUBZ5+2O934cNtRvPPlAZxp7UKsolUpMHNsAeZNKMS88UUD00aFiM3pxpsb9uGtjfsk2VmLoVbKsXR6Ga5YMB7TRucFbW22ddnwx7e/whf7pJvRfeGkYvzg6oUo6QkuCoRXXnkF3//+94d0+am0Blx0+6NIyihIEIGiA7pwJlCRFqhAMklEUaB0aiXG5KcLuvj27d6JH33n23157fyxdOlSrF69Gnq9PqCR8ofbjuC5j3agI0LzJ5GkICMZ8ycW4YJppZg2Og8cF/jtSSnw0bYjeHbVVnTZnDF/Lcry0nHrRdNx0cwxkMuCm8tbu/M4/vTOV7DYXZL8bjKOw3VLJuHey+bCGOCi4T179mDlypVobGwUt6T0yVh2+2MwpuUkjAXV+wZXHLr4IpITJ3fG1d8BEPAilWSjDoqehYFnLRPqN0sDIQQpBrUf0Tk33JtgsOj435cMcC0K76uQcUhL0p2j9IR0F8774b23wm4XFpLLL78cq1evDigYYu/Jejz0r4+xessROFwexCNmuxNHqpvx8fZjOFjViKXTywLqnGuaO/Gz59finS8PwOWJj3IkHRY7vtxfiTXbj4EQYExBRsBCVZafjktmj8WphnbUt5kl990opTh8uhkfbj2KzGR9txdiqD4kNxdXX3011q5di46ODsH9vG4n6o5/g4Jxs6BU62L6HiAASL+0ZcRfVY1+uuPz+WA1m4P5gJOmkxvfYgIVlEARJBu1PXMT1H90HCFnF8NGUaDkMg7pRt05ufgoKB7+8XdRUyUcYTVnzhx88sknUKvFJ8h9PI/nPtyOJ9/4Am1xaDX5ozArGU9/7/KAUvLsPFaL7/xlFepi2NU5lMty+9FafLz9GDQqBcYUBBYBqNeocOmccVAr5dh94gyoBLMMON1efLGvEqfq2zBjbAE0vW59AVJSUnDjjTfiq6++OmdNXH88LgfOVOxB0cT5kCvVMdv2AwSK+BGmQW3q83lhNVuC+QDJC5REq4MJFOrqJ0x+hxARHwmee6YUwJr/vYP9u3cJu7IKCrB69eohxamxw4J7/vw+Xlm3O2LFEaNNbroR//rx1Ug1iluVHq8Pv3/rS3z/mdVRj1iMBC0mK3735he44f/exJZD1YH1PwT49sUz8Mz9lwcd7h1JvthXiRv+7w1sPTz098rIyMDGjRtx/vnni+5nNbVg8zt/hs8bR94GCpEahvGZczImylcSAkkm/exL2ki7CwxSCrS1tOCfT/9R8D0ajQbvv/++aOVSoDtzwG2/fxsHqxqRKBi1Kvz9gSuRmSw+H9dutuP2//cu3t98CIlGdVMnfvSPj/DTf32Cpo7ARsvzxhfhjV/e2D1fKlE6LQ786B8f4W8fbB1yvZ5er8fHH3+MxYsXi+7XduYkdn70L8R8kjrB8ToZ4E1iAhUFE1fKA4NeUep/7/z194/BahH2A7/66quYNWuW6HH3nWrAfX9dhU6LA4kCxxE8cdfyvuzwQtS2mHDHH9+V5LqfSPLl/kpc99s38OaGfQFZ19mpBrz00LVYMLFYws8T8Or6PfjRPz6CeYhAF61WizVr1gz5LFUf3oLDX38Q2+Lkt2ckCWFFSVOgSGD5yvtGEFEUqP5s3rgem7/4THD/G264Adddd53oMXceq8UDz66OuRDp4XL/lfMxf0KR6D6VDe24+0/voUGCE//RwOHy4K//+xr3/WVVQNdEq1bir99bieuXTJb099p2pAZ3//l/Q1qIRqMR69evx5QpU0T3O/jlu6g/sScOWpyIiFB8TgFwsdpQBETEHxu5EV/vveHz+fDC354S3Dc1NRXPPPOM6PFON3Xg5y+sTYg5lf6cN6UEty6bIbrPmdYufP+Z1ehIIKsyUPaerMeNT7yFNduHLl3BcQQ/u3EJ7ls5V9LfqaqxA7f/v3dxYghLOSUlBWvXrkV+fr6oGbLr4xfgclhisn0JESsx1FsHPk49K7EnS2TgYoOoWt89c0+g2PT5p6itrhLc96mnnkJWlvAq+k6LAz/8+0cJZzmlGrX41S1LRd3oLSYrvvf0B2jrsjE1EsDudOO3r36O/3ttA9yeoUu43L1iNh68frGkpy/aumz4zl9XDTkPm5ubi1WrVkGjEQ4EcVpN2LPuP7FpNA0lTBTxGiMRIwLVOxHYX5hI9FvlbGVPijf+/S/B/ZYtW4Zvf/vbgtu9Ph4/ff6ThHRd/fqWC5BqEO5YXB4vHvznx2hoZ269QPho21Hc8cd3Ud82dNj9TRdMxa9vWTrsxLUjicXuwg/+9iGO1baI7jdr1iy8+uqroi7/msNb0FJzNMZbeJAwxTnSFqjeOaZBwiSV54n2rO7e8uUGVJ48LvAVCP74xz+KPjivfbYH+081JFxnetm8cVg8WTz34JNvfDFk58QYSEVdK779h3dxoHLoCNArFkzAz29aImlLyupw4/5nVuNkfZvoftdddx1+9atfie5zZPP7sS9MApYViUPFkqRA9VWl7SdMvemH/FpXUb5v3vj3c4KbV6xYgalTpwqP6po78dLaXQnXiRp1avzw6oWi+7z9xQGs3XmcKU4ImKwOfPfpVVj/zYkh971m8ST8+NrFkv4+XTYnvv/0B6htMYnu95vf/AbTpk0T3N5cfRhtdRVxJUzMgopSm5zNuyfdVtm9cxsqjgqvx/n1r38tYoF1WwiBzBnEG9+/Yh5SRFx7VQ3tePaDLUxphoHb48OvX16H1z/fO+S+Ny+diu9IPHCiw+LAj/+xBmaRHIMKhQIvvPCCqMfixO51MaZPJOGESdoC1ZN3L5AQ8mi32+drVwtuW7ZsGebMmSO4/ZMdx7D3ZH3C3XTjizJx1aKJgts9Xh8eeeWzhBTusD9JFHjm/S3415odQ+57z4rZuGrhREl/n5rmTvzihbWipWVmzpwpWom6vmI3PK5YSRsWQA9HesLPCVsHFaE2CUSYSNSzS3g8bmzdtEFw+y9/KVxmg+cp/r32m4TsNO+/aoHoxPwr63Yn/ELccPPSJ7vwl/c2D7nfL25egkWTRkn6u+w6Xoc/vr1JdJ+f/exngtt8XjfqK+Lg2RuQRYKesy6TCVRUxhMEUrF3D+/eBpvV/9qK0aNHY8mSJYLvXb/7BOpaTQnXUc4eV4DZ5QWC2+taTfjP+t1MUUaAtzbuH1KkZByHJ+9ejrK8dEl/l1VfH8aXIuXuFy1ahOLiYsHtDSf3xmw79i236RWmOI4zjx2BIkRyc1F7tghbTzfffLOw9UQpXvk08awnQoDvXzFfdJ8/vf0Vc+2NsEgN5e7TqhR46ruXSTrBLAD8bZVw3j5CCG666SbB97bUHIlBi6P/4Jz2/EckPUcf9wIl1WSIDrsNR/ZsF9wu9nB8ffA0qho7Eq5znDuuCBNESn5vOVSNbUdqmIqMMC99sgtvbdwnuk9uuhF/uOcSyDjpdhG1LSZsEcmAftFFFwluc9kt6GqJkXuN+BEm4s+TxOagojRa8EdPqF+U2uTQrq/h8fjP+jB9+nSUl5cLvveTHceQiHz7YuF0RpQCz320nalHhPjr/74eMoR/5th83L1itqS/x7pdwiHj8+bNE80u0V5/Kga0aZArL86zl8eIQAUiTNFtqBOH9oZkPVkdbtFRX7wyvigTM8cK50v7fM8JFhgRQSgFnnh945BRpHddMgvTy/Ik+z12HqsVzOauUqlE10R1tdbFQksF4MqL37QSMRQkcVaYpFAbqvLYAcFtV111leC2L/adSsg5lm9dOF20s3zpk8RbrBxt3F4ffv7CWtE0UhxH8PidF8Gok2Zl2i6bE5UN7YLbJ04UDpvvaqmNiV5PXJTo0GN6JlAjL0xSmosytbegrdl/aqK8vDyUlpYKvjeQlf3xRrJeg/OnCV+TzQerEnJOTgp0Whx46LmP4XAJV57NSjHgkVuXSvY7iGU8nzBhguA2S0dTLNq+SIgkfNIXqEAtpsg3VuWxg4LbFi1aJLjN6nDjm4o6JBor542DUi4T3P7aZ3vAiGIHf6YNv3/rS9F9zp9aiqsXSXMRb2WD8OBGLNTcaTWB8rHizRARJolUd0gggaIBFCOM3kii8uiBkATqQGXDkOWs4xGx7ARHa1oCSmrKGFnW7jw+ZNDET65bjLz0JMmde6OIi1KsThSlPBxWUxwIE7OgIkogwkRI9KL/Tx3dH5JA7UvAjOXjCjNFy7iv+voQUweJ8Ie3vkRts3CHrVbK8Yubl0juvJtNVsFt2dnZou912WOkjMvASPOE8fLFSJAEhVTmolwOO5rOVPvdlpqaKurzTsS8exfOKBPcZne68dnuk0wZJILd5cGvX14Hj1fY7TVvfBGWibRpNLDYhJPHioWZA4DP65G4MPXr70SFiWWSiLJ569/lF+mIvtamM4Ir0GfOnAlOYGGjy+PF8ZrEq2u0dPpowW0b9p6C3ekGQzocrWnB8x/vFN3nwesXQ69RSuacXV5vyALF+zzSbxQRYSJxvi6Kk3qLSO3StzYJW0FlZWWiD77bm1jh5WMLMpCfITxnsWEPs56kyGvr9+CgyLxgepIO37tinmTOV2zZhkqlEh3ESt6CosKWVf9FvH1rQ5lARcq0DUCdouCLbW2sC0mgTidgGLWYe89sc2LX8cSLaIwFeErxu7e+EC1pce3iySgvzJSGQIkM/AghUCqFrT3eG2MW/KAM5gM6wDicl4rNcht9RbwiP2JoE7GgRo8Wdmedae1KQIESvh6bDlSJdoCM6HKqvl00Xx/HEfzk2kUSsaC8ottVKlXsWlB94/XEjJKIrXIbPcIUzey9rSELlCmhOriS3DQUZCQLbt+wl7n3pM4LH+8UzTIxfUyeaOmUSFp8YigUihgWqIGlNUQmo8DWQUVRmITrQEU4SELAxSeTyTBqlHCht9qWxBKoWSJ59yx2F745foYpgMRxur34w3/FF/Def9WCqE996NXiARsWi0Vwm0wuj5WRuaCAgZXbiGK7CFbOpRE3dT1uFywm/3NJRUVFgr5uShPPxTdjjHCC0a2Hq0VDmRnSYdvhGmwVSW48vigT508dHdVz1IoIlNPphNstPM8kV2ok3gJU0K4aLEzxKFOcVNuECLryoud/tVstgiHmWVnCdY7azTY43d6E6dQIAaaNFhao3SeY9RRL/GP1NlE32nevmAsuimaUTkSgzGbxhbgKlTbWnq64LlAYEwJFAjBzu4NZIttQTrvwivWkJOFwarPNmVAdWmluGlIMwiPTPRWJt2A5ljlxpg2fiSQ5HpWdivOmlETt/PQa4SCIrq6uIQRKExuNkGB1oKRtQQ0hTNEaQDjsNsFtRqNRcJvVkViLUWeMEZ5/ajXZUJdgASPxwD8/2i7qlr19+cwYtaCkLVCBdXWsHlTUhalPnAabuxEcVYRqQSWaQIkVuGPuvdikoc2MD7ceFdw+oTgLU0pzonJuRp0qZIGSK6Xr4qOB7EFooDszgRqJpvE7GRglc1fMghIVKKcroTqzCcXC83F7TzD3Xqzy2md74OOF167dumx6VM4rN03Ye9Hc3BzTFtSQg3cqOoJnAjVytq0fEfL3WgRHDk5HiAKVQBaUUatCVopBcPv+BMzoHjdWVLsZG/eeEty+eEoJslMNET8vsc+srq4W3KZU68DJ5DHUAhQEVMSjx9ZBRU6cBllMUijz7rSFKlCJY0GV5WcIDuScbi9qWjpZTx/DvP7ZXuHOhBCsmFsuKQuqpqZGcJsuOSOmLCaSWMV0JW5BCVlMUcTlcghuE0unkkgh5mPy0wW3VTa0J2TBxnjiWG0L9ojMI66cNz7ij2xOmiEkgdIa06V/wUnP/+hQu8Xngl2JhpkHJkyE0Ig2ilApDQDwiqT8l3EcEoUyEYGqqGtlPXwc8P7mw4Lb8jOSRNfAhf+ZJKIuZTEXny45U/oXe8jxXHyvi4rZnjMaTSIT8Vd7PB4RgUqc9QtiFtTJM22sd48DNh2ohNku7LYWSxIcbjKT9ZDLhLux2tpaYQsqKT12G8HfehuWzTz6okT8tVPERmuykCwosQco3ijMShG2oM4wCyrWUMhlUMoH3vduj0904e7CSaMid79lJgtua21thU1k3jh25qAGdXjnBI8hbtPxxUYIi0QuPicLVaBkCdGZpRg00KqEM0fXNLEACSmRnqTDjDF5GJWditx0I/LSk5CXboRSIYderQTXz/J3e3ywOlywOt2wOtyig67cNCNKc9NQ2dA+4t9BzKV88qR4xnxdUmbsNFb/su/CLzGBirguDSlOkWsesczHYgLFJYiLLy9dOJLR5nSjK8SUT1qVAqW5aSjLT0dJTncaJYNWBaNWBZ1GCZvDDZPViS6bAx0WB06eacPh000Jl0E+ECaX5GD57LGYVZ6PUdmpAb9PqZAhVaFFqjGwha3TynIjIlBiLuUDBw6IC1RMWFAk4H4uHoVKLtU2CahLJySircJcfOKIhfvWt5kDPo5OrcSs8gLMGVeA2eUFKMhMDikZaU1zJzbsOYX3vz6Elk5rwoqSQi7DxbPG4PolUzC+KDJWQ3lBZDr/srzQBEprTINSrQONg16dxrFEyWPxpAkhUWkQmVxYoMSCJBTyxHDx5WcIW1ANbeJJOw1aFS6cXobls8dg6ujcsEQ+FmWl4K5LZ+HbF8/Ap7sq8PcPtqLdbE8ocZo4KhuP3LoUpblpEf3cKaNzR77zknEozhG2Ag8dOiS4LSmjIGbakJDuxbk0ASym2BYof1kkIhglIRbFJ5bzK1mvTojOUGxFvz8LihBg3vgiXLlwAhZOGnXOZHw4O7KV88bh/Kml+Mt7m/HRtqNx3xYyjsMPr1mAG8+fGhUXszICg7KirBTBz6GUigpUclZxjPR5VMRiYgIljTbq9/8BLRTh505rELYQGhsbBbelJ+kS4mYSK7HRYjrrYtOoFFgxtxw3XTAVRSJRf+FGr1HiN7ddiHFFmXjq3c3w+vi4bAelXIbf3b0cS6aWRu0cImGpii4Kr6wUraSbnFUYc+2aiEvcpS1Qg+eiopx/KiklLSSBykgQgUo1CE+gd5jt0KgUuH7JZNx20Qwk6aJnVV533mQYNCr85pXPRAvxxaQ4KWT46/dWYs646HbAkaggPUZknuvgwYOi740ZC8pPD9cXvUf77RBhbxITKIIhLCYa8ehzQ7KwQDU1NYl23BxH4j7NT6pR2IKaVJKDH127CGlGaZQ3WD57LExWJ/787ldx1QY/umZRUOJkd3mw/2QDjte1oL7NjPq2LrR0WuHjKTxeH5xuD+RyGfRqJfQaJfRaFZJ1GmSn6nH+tNGYNCo7at9VrLyHWICETK6AITU7JtqTBtIvxrFtJY+t1ul5kfSm94hswxiSksHJZOB9vqAsKI4jyE41oCGISLZ4s6CuXzJ5WMf2eH043dSJU/VtqG7qRKfFAbPdCYvDBZ1KiRSDBmlGLcYWZGDm2ALoNcohj3njBVOw+8QZbNpfGRfXf/HkUbjuvKGvs9vjw/rdJ/Dh1iM4VNUkWkKjvwU8GLVSIShQbo9vRL+rSiFHeaFwROLOnTuFPSEZBSBcLAUu9evr6JAdJBOoiAgTPfdF4ie9RyTzUBHCQW9Mhrnz3PUddrsdzc3NyMryXwupKDMlrgWKIwRalTJsx+N5iiM1zdhxtBY7jtbgSHVzwHNGCrkMS6aU4M5LZ4mGIQPAr2+5AHtP1sMc4hotqaBSyPGrW5YO6eVZu/M4nv7f1+iwOIb9mWKVbO2ukS0xM2FUlmCAhM/nw44dOwTfm5xVFEPSRLq7QlFhIiyTRFTVikgnl0dKepZfgQKAiooKYYHKTsb2ozVxK1BqlSIsLvCj1c34dFcF1u8+4XfUHqi19fmek/hiXyXuvGQm7rlsjuA6qmS9BrdfPBPPrtoS09f/igUTRN2nbq8Pj7y8/px6TjKOQ2luKsYXZyHVoIVOrYTN6caZ1i5sPVwNm9MdkkDZnJ4R/b5TS4XD2A8dOoSuLuE5sLS8sthp2KGECfFtUcml2yo04KzmkSQztwA1J48KCtTixYv9bivMTEE8oxNJcTQUDpcHa3cex9tfHMDppo6wnZOP5/HiJ7vQ1GHBb25bJngr3XD+ZLy5YW/MrpGSyzjcepFwNVueUvzihbXYfPB032u56UbccuF0XD5/PFQKGVweHwjpztjP97j8CCH449ubsHrLEb/HzUrVC36myeoY0e8sNv+0ZYv4YCOjsDzGWniwS4kIWFvMgoqMWUsCTCEfBfHKyhN2D1RUVAhuK86Kb4FSK4MXqC6bE298vhfvbz4kmh17MDKOw+LJozB3fCFyUo1QK+WwOFzosNhx+HQzDlY2DhC6NduPoSQ3TbAkuUohx2XzxuHV9Xti8tpPG52LHJE1aG98vm+AOC2aNAp/uPcScIT0LSJXK+X9L3Dfnw9ctUBQoMQyhzS2W0bs+3KEiAZnbN26VXCbSmOAMS03hmwNOqBf9LdgN44NqBjNJBFNCypHeAX6iRPCGZ6LspPjWqCCWQxqd7rxxoZ9eHPDPlEXkt8BQooBz/3oKhRm+b+eVy2c2O3mOd2E19bvwZc9ARDPfbgdS6eNRm66/071igUT8Npne2Iy9c38icWC26wON17+dNeAMd3v7l4OlWLoR5/nKeoE8hkSIr4wu7F95OZbS3JTYRRZpiAmUOkFY2LP1iCJU67nnH4l5r9BhBsvM084hPf48ePC70s2QKtWxu+NFEA7UAqs21WBax59HS98vDNocQKAm5dOFRSn/kwalY0/3bcCP73hPBDSPQfz0tpdgvsXZiZHPB1Q2ARqgrBVv3rLYVgdA69zh8URkBDzlOL//XeT322pBq2oyDV2jJxAzRiTL7ittrYWdXV1IgIVY+69gAq39kpu/JlQXGy0ERFpp8g2SkZOgWBl3dOnT8PtdgveRKPz0hCvDLW+qcNsxw///iF+/fJ6tHbZQv6cQEb+/bnh/ClYNKkEALD+mxOwiLgSo724NRQUcploVvLNh06fM0j4/VtfwMfzoCIq5eMpnnr3KxyrbfG7Xcy9Z7G7zhHFSAmymPUExOL8k1jH2GsMds9RxWPQubQFipB+iWH9CVPkm0ShUCI53X+kntfrxdGjwnnexFKzxDpNQ2QLv/nJ/2LbkeFHMX62+0TQbrictG5XlMvjxdeDOuz+zBpbEHPXPTfNKOhe9fE8DlWdu4B8x9Fa3P/salidbrgGrVdyebxwuDx45OX1eO8r4Vx2Qq7Sbutp5OaflAqZqAW1ceNG4c5OpkBK9qjYf9j8CBPt28AEKjJmbQDCRKLUIDkFwje5WIqVodbkxDJmu/g6IksQQRBi7D1Zj3e+PBDw/g6XB+v7VX/dcVS4BPi4osyYu+55GcJC0dRhgcfrf8Hs7oozuOzhV/C3D7Zg57FanG7qwP5TDXh+zQ6s+OUr+Gz3CdHPFatkW982cmmOZpTlDwzoGDyA+ewzYSs/twQyuSK2HzS/whS/xFCQxMBSktEcK+QVleLInm1+t4mlWCmLYwvK6RJf96JVK+DyeMPyWc+u2oJROSlDuuS8Ph6/e/OLASHPByqFM36kGbVIT9KhbRguyEijV6sEt7WYxL+HzenG218cwNtfHAj6cwtFolLrRrBQ5DwR997BgwdF55+yRk2K8aeMDu4J4x4uNhqlx2Ly4/IjUYhwySseLbhNVKDy0kMqvBcLuL0+0UwP4cwy4fb68KN/rMFrn+0R/MxWkw0/eW4NPt01MPS/ob1L1JorL8yIqesuVmvMHaYBQbAW1EhWMhabf1q3bp2456N0SgwLk4jFFMeKJZd2owywaweZuiRqLSMmUPv37xfcplEpkJeehLpWU1zeTA6XBwat/xG9mFsmFDxeH55dtRX/++oQVswtx8RR2VAq5Ogw27HzWC0+33MSDj9WHaVARV0rZo7NFxCoTGw5VB0z11wmEt7vG8HkxAViAtU8Mvd3bpoRxdkpIQmUUq1DWt7omBQnoVYkNO71ScqZJASsoyi794DuSD6lSg2369x5l/b2djQ0NCA3138qlrL89PgVKLewQGlUI+P7b2g348VPdgX1HjGBGlsQWxaUQ8S1KtQWwyXFoIFR5Ng1zZ0j8rli7j2bzYZt27YJbs8umQxCuJjrzIOymAgLkogIBH6i94h00h5xHCcaKCHm5ou1DjAYnC5hl5JGKZ2xUEVdq3D75MdW+3SJJLkdqZpb+enChTvtTjc6LCOTMmrhpGLBbRs2bIDLJey6zSmbGh8PGQ15IxOoERErMWGKYhhLXnFpSAI1oTgrbgXK4RYezY+UBRUKxwXW9gBAdpoh6LVW0cQkIlCZyfoRGdNlpgjn4DvTZh6RbBw6tVI0KEZ8/okgp2RKzD5XhMZtsvJYFiiRDOYDhEl681C7d+8W3Da+KDNuM5c43cIWVCi5+kaKmmaTYHAFRwgKMpNi5po3iIR0q5VyZCYbwv6ZWSnCx2zuHJk1UIsnjxIsr0Epxdq1awXfm5JdBI0hRnNhBtK9SajaQ2IIVABrcwmi6/ETE6hdu4TnRIw6NQoykuPTghKZD1FLyMXn43nR2lyxlHne6nCLliUZlRP+75KRrBPc1moamRD9pdOFn7dvvvkGtbXC69tySqfG54hwsHcpDqMlYiMX3yBhkgIFJWMFUx7V1dWhoaFB8L0TR2XH5fMSKy4+AKhpEZ7ILwog15+0votJxGIPv0tZbG5rJNaQaVUK0QCJ999/X/T9uaPjS6AICEiCOP2kLVD9hUmgaCSJkhmlVKlFAyW++eabiHYaUkDMxSe1eR2xUOjCGCuNUlErHPQxuSQn7J+n1yhFLDpX2D9v4aRRovePmECptAZkFIyJG2ny3wvGb04JaQpU/+tNKAiR5sUvKhsnuE3MzTdhVHwKVG+hO783GietEZ9YKHRBRlJMXfdDpxtFBCo77IvDxbJXjESSWDH33t69e1FZWSncluWzQThZ7OvSYGEifoSJhZlHsE0CEqboClfR6PEhCdTYggzBCd9YRix6S2qPTr3IHJTYHIskBcpPQthejDo1ysOcY1CtErZm7K7wlnpXK+Wi2SOGcu8Vjp8b29pE/BlRiZCFT+ICNaQwkeh3e8UiFtTu3bsFLQqlXBaXpTd4EYUiEhvdiZX8SE+KLYFqaDejSSSD+Lzx4S0jIuOEuw2xdFehMH9Csej8pZhAKTV6ZBZPiI+HKyBhYuugJCFMUunscgpLoFT5nzA2mUyiFXYnFMdfoAQVFShpnavYZL5KIRfNlCBFxLK0LxCpuCt1VswVrt90+PBhVFRUCG4vKJ8NLtbde32DcDqEpUVYFF9UhUmol4tiz8dxHApLxgpuF3PzTSnNib+bSWRkLbVS6ha7E26PL26sqB3HhAVq0qgc0fLsweITmWuUy8LXpaQYNKLi+t5774m+v3D8nHgY9g0pYISSuPX4cVJvHDJgFDGo3Wj0zVqxQIkdO3YIbptWlht3N5NCpHMSqksUPWtP3IqKNYHaeaxW8BoTAiyZWhK2zxJb76YN43KC5bPGigre22+/LbhNqdYhe9RExC8EGCRM8Rh4LlGBov5X4lJILqKyaLSwC2LLli2C27JSDGEd1UpCoEQCPzw+n+TOt3+dqMHo1MqYuvYWuwu7jteJdvbhwuYUFiixEPRgWTlPePC3bds2URd6/tgZ4GRyxBvEjzDFMxIUKHruHJMfUerWr+iPGUaNFR6lHT58GB0dHcJW1Oj4sqLEaxNJT6DEIs6ktrA4EDbuPSW4beKobIwJU8FMs0j+v1SDNiyfMTovDWNEEiu/+uqrou8vHDcH8YWQK0+Co/b4t6DEhUlKpKZnITXD/7omSim2b98uLFBleXEmUJGL7hppgdKqY0+gNh2oglvElXrZvPFh+ZxIuEYvny8cfed0OvHuu+8KbldpDMgZPSU+HqrePHt0qM6R5eKLrjAJZZKQQMOUjRd+GL7++mvBbVPjzILSiCSEdY1gdddQidRcSqQw25z46kCV4PYVc8vDsv6uzSwsUOFYQybjOFw8Szj7wwcffACTySTs1Zi8EDKZIj4eqiGEiUioDFHiWVA9yiTsypOGWVs2YargNrF5qFHZqUgxaOLmZhIrkGcZgRQ4IylQUsq+Hgwfbj0iuC1Jp8Z5U4YfLCGWEDYcFtTCScVIMwq7Cody75VMOS8Ou+pzs0aQOE8UK2mBEk+IKC2f62gRC2r37t1wOByC1vtI5EqLFmJJRM02V0x9F57G5hO/61gdGkUW7V6xYPgLV8UWOWeEQaAuny/siqyvr8eGDRsEtydnFiA1Z1RcC9M5GczjOGBCogIVSL0N6Zi2OQXF0Bv9529zuVyiiWPjyc1n1IoIlN0pvZtfJD8gz8fmU89TijXbjgpunzOuECU5qcP6DLE5KINWPazSKtmpBiyaJCwwr7/+OnwiEaGlU5fEZUdNBieKTZBsRzG0UJdK1rQlICgbN1lwu9g8VLxE8ikVMigVwvMbVrv0LCixJKqxakEBwIdbjwoKLCHAzUunDVughBbrEiJe0HAorlk8SXTg8Nprrwk/h5wMoyYvjENxwpDCFK+R55JfqDu0xUQlcJYUYyZOFdwuNg81rigz5tbcBGs9AYBlBLJcMwvKP82dFuw8LpxZ4tI55Ug1hh4OzvNUdB4q1PV9SrlM1AW5efNmHDt2THB7XtlUaPTJ8WlKCAlT38sszDwqrRErUSpjRQIltm3bBq/XfxSbjOMwY0x+zN9ImSLRW1aHW3KZJADxoA5HmLNyR5r/btwvau3esGR4YdhiyWlDFagLZ5QhVSRo6J///Kfo+0unLElQYRJJBccEaqTs2qGFiQKgEmgUiu6MEkKJY81mM/bs2SP4/tnlBTF/I4l1Ss2dFkmes1hQR5fNGdPtse1IDU6caRPcft15k4YVSi8mUFkp+pCOecP5wqLZ2NiIVatWCW5XafTIGzMd8Y5fYeq/kQlUZLRpqEYCkVbRY5lcjtKxwu6Jzz//XFigxsW+QGWKdErNHdaYEygpBnUEb0XtE9xm1Kmxcn7oC3ebO61htaDGFmRgQrFwIc/nn38eHo+wVVs6dQlk8jhZ++Svz+vJcJQw0RGSt6BEhElypiztzhpRPnmG4C4bN24U3FaSkyrawceEQCWLWFAmaVpQKXqNiEC5Yv7h/nRXBVpEhOSO5TNFS6mLC5Rwm6aFML914wVTBbd5vV689NJLoiPaMTOXxWcPTUiPl2goYSJg9aCiatL6WbBLpHKO3Wc4ftoswX22bdsGm014YnnW2Ni2orJThQVWzB0ULfQaJYwiFlRrpzXmH26vj8d7Xx0U3J6epMMVC0Kzojoswol2U4LMx2fUqrBsRpng9vfffx/19fWC2/NGT4UxLf7K1wzuAYUEjGWSiLYwDVIiqTZHyZjx0Or8d9Rut1s03HxOjLv5MpKFBapFgp19XnqS4DaXxyuazieWeH/zIdidwhGUt188M6T0Rx0Wu4hABZcd5drzJouunRoqOKJ8znIkGgTxLUySFiiK7ui9QLKVS6WNKAUI4TB2kvBErZibb9bYgpi+38Sir1pM0uvs8zOEBaqh3QwaJ94Ss92FdzYJW1GZKXpcuTD47BImMQtKH7hAKRUy0eCII0eOiA7s9MkZyC2Nk8SwAUsTSZhvK00L6hxXHvVvNkmlE+lXOHHCVGE3n1igREayDqOyU2P2RhJz63SKjLajxZh84VIOZ1q74uohf+PzvaJW1J2XzAp6LkrMxadWygMuV3Llggmic1Z///vfQUVGC+Wzl4NwHOKfQZkkJNsZJoJA9bvohIguAoA0Fur2/lCMmzpTcL+DBw+iqalJcHusRvMp5DIYNMJritrN0hOo8kJhgTopEp4di3TZnKJWVHqSDtcsnhScZWZzii5mDsSK4jgimtWivb0dr7/+uuB2mUKJ0dOWJLAw9fQ8lPaG+DGBirBZIiJM0ihYOPjccvKKkJouXB/qyy+/FDzEnHGFMXkTJenUgu5JSqW5pmisSDG8E3EmUIFYUXevmC0aNDIYnlJYRY6nDsCCunjmGFFX6zPPPCMaWFQyaQFUWgMSj15hQo8wsSAJaZgoZ5VJWuI0SEzFrCixeajZ5QXDSrQZLcTy1hEivbRBxdkpomUhjtW0xN2DPpQVZdSqcNuy4Ba6ekWygyhk4l0LIcCtIp9ns9mGDI4YO+uixBUmxLcwxYZA+RGmc4fqRFKnSgFMEBEosXkolUKOmWNjL+3RUGmM5HJp3WZiIf0dFgca2rvi8mF/4/O9sIis77pp6dSg1uOJVe8dKjJw/oRi0ZLu//rXv9De3i64PauoHGm5pQknTIkSvSdtgRrsypN45AqlPf/r+Rk/ZaaghVdbW4uDB4VHsosnl8TcTeT2iAuUQiaT1PnOHS/sSt1z4kzcRPD5s6Je/WyP6ADpvpVzA+88hpEN/vblwoM4j8eDZ599VvT9kxZdmTji1GMxkQQSppiwoLobJDYiV/pbUIbkVOQWCte0+fjjjwW3LZxYHHMDJI/PJ9qpiyVljTRqpVx0ru+b43Vx/cC/tXGf6MLpy+aOQ2luWkDHUohYSWJW9eTSHNEyM6+99hpqa4WzsadkFSK/bBoSggC7uHhdryvRXHxDjRZ6pUC6o4rJM+cJbluzZo3gtswUvWgItBTheSq6cFNsUWykmTe+SHSeb8ex2rju79weH174eKdwh8ARPHDVgoCOpVKICRQvuO2+y+aK3Es8nnrqqSGspysSys0l3ln2vxQs1ZEk7JQBhhWV1Kn1efomzxIunLZr1y7RcPPFk2OvZHW9yNqhvHSjZM7z0rnlgttO1LWioc0c933ax9uP4URdq7AVP6kYs4aYC1UqZNCK1DGzCUT4TRudK7qcYtWqVaI1nwwpmSieOJ8JE/r1gXGcQDamKupK2YylPf/1nmtp+QTBMvA8z+PTTz8VPNaiGJyHOtMmLFDF2SmSOMdUo1a0nPimA1UJ0a/xlOKfH20X3eeBqxaIPmvpRp3o8YXWvn33inminzuU9TRhwUpwnAyM/sIUvxF9sVFRlxCR6y/NkQPHcZg0Q9iVITYPNa4wE5nJsZXdXCz7wtRSaZS1v2zuOMhFwp8/230iYbq2LYeqsefEGcHt44uzcOF04QSuGSIFKrusTr8l4RdMLMb0sjzB961duxY7duwQ3K7WJaFs+pLENpb6D9gTIO2RxCvqxk7kCvXzM3mWsCvis88+g9PpfwErId0PcyxxpLpZtLPTqKJfq+dykfpH+081oLqpM6E6vWdWbRUNbnngqgWC4eKjcoTTcvkrxUEI8N3LhQdslFI89thjouc7fu5yyBWqhGqjgWs++w/YyZAyFkCnRXo0QLKdbCQEioT2lkASxUrI5+dHoSZOmwOZzP+EvNVqxVdffSV4uEWTY0ug9p9q8DtqBgC5jMOU0uiWQ5gxJl/U1fjh1iMJNyo/Wt2MDXtPCm7PTTfi2vP8p0ASi/Srauw457ULpo1GeWGm4Hvef/99fPPNN4LbFSoNxiVg1vLBA/Zz+7t+HU5oziQCCfsIR1qgur84DXeiKOmZttTPf2qtFmMmCmdaFovmm11eKAmrI1BsTjcqaoUn3sXq/USCb104VXCb3eXBxr2nErLr++fq7aIh4XddOhs6P8EQ44uEq99WNgxcYMtxBPeJWE8+nw+PPvqo6HmWz1oGlUaXoOLkTz/6BUYML0aCSFmkRkqgek1HLryfIdRQErmP/DBl9gJRgRLK1KxWykUn9KXIbpE5jQtnlIVcvXW4FGQkY6HItVy3qwJ2lychBaqu1YT3Nx8W3J6kU59TDkOrUoiWZz9VP1CgLp1TLpqp/6233sLRo0eFrSelGpMWrkzI9iEBCVO3ZRV8T0iJH4GSlEhxI3JNw/yF/a+LklZoJR1kbff+TJkpPA81VFaJi2aWxdTDtGGPsLtIp1bi/GnRSU1z09IpolkPVn19GInMS2t3wepwi1if06DtZ81PH5MnGGzi43kcqGzo+7dSLsM9K2YLHtvj8eC3v/2t6PlNXLgSal0SEhsBYQLptyWk/tBffy2ZealwC1RYFdn/HJNUY/6p30CJ9Oxc5BYUC77rvffeE9w2f2Ix9BplzDxCR2tacLqpQ3D7bRfNiPiUoVGrwsp5wsERe06cwfHa+EsOGwwmqwP/Wb9b1Iq6ul85jqUi0X1Ha1oGiN1NS6eKLtR++eWXUVlZKbhdpdFh4vxLmTD1+7M3eu+cnjDYh6t76oXz8yMZayqcAkWG+AlCmBCwxSSVuSgqZEKBYvIs4bUf//3vfwXdfEq5DOdNia2EmJ/urBDcNiY/PeK5BlfOHy86l/fmhn1gAO98eUC0COHNS6dCIZdBpZDjAhFLuH+qqFSDBncsFy7g6XQ68eSTT4qe1+RFV0Kp1iV24/TFSAy2mCLSb0e1g+Ui9CXDM4IYIErSCzrply92wM+0uYsF31NVVYU9e4QTeMaam+/jHcfg9QmnufnOZXPAcZFpO0KAaxYJF+KrbTFhy6Fqpk4AHC4PXhdJJJuZrMcls8figmmlfoMmevly31lr6P6rFoh6AJ577jnU1QnnPtTokzF+3vLEbpi+GAkyUr4jAgmLFBehLzh8YaKI2YVpo8aMR0a28GLVd955R3DbnHGFSAqikFy0aem04uPtwqlqxhRk4Mbzp0TkXGaXF6IwK1lw+9tf7B8y63Yi8b/Nh0SLS35n5RzRGk7VTZ041uMuHVuQgcvmjRPct7OzE7/73e9Ez2fakqsTb93T4BEWCWBSg2A40kUgYZEarkCN0Bejg3Qq9lN5zJi/RFSghNx8chmHC6aNjqnv+sq63YJrogDgvsvnITt15CuhXneesPVkd7rx8Y7jTJUGWVH/++qQ4PasFINoDae1O89ezwevXywamPLYY4+hrU24crE+OR1jZy5N+DYZUpjIcOwqGow4RaUTHo5AjeyX6q2BEiepPGYvEn7Y6urqsG3bNsHty2LMzVff1oW1InNRWpUCv719GWTcyC3DSzVqsUgk6e4nO4+LlkBPVN7+cj+cbm/Q7/N4ffh4R7flfPGsMaIpjY4dO4bnnntO3Ho6/1rI5ArWICMiTCH34xEXKS4SX4oGvVA3sAwR3dUlY+OeKhg1Gtl5haJWlBAzx+YjIym2Joqf+2i7YEZroDuzww+vWTBin7981lhRARSzFBKZTosD7311MOj3fbqrAi2dVqgUctw/RLmOn/zkJ/B4hNedJaXnoGz6eawx/HW6osIUtjBzyYgUF6EvFOaWGpyfKjaYtfB8wW3vvfcefD7/K/o5QnB+jLn5Wjqt+Mdq8YzZNy+dhpUi8xTD4TKRshr7TzWck+2AcZZ/r90lGtE3GJ5SvLq+O8DitoumI0fEffvJJ59g3bp1osebs/w2lrH8nC53REIkyDB/JCdQoXyJ8PlxBqyLir0aKLMWXiC4rampSTQ33wqRDleq/O+rgzhY1Si6zyO3XohLZo8N6+eW5qaJzpWsEQniYABWhxv/WL0t4P037DmJmuZO5KYb8e2LxUu5P/jgg6LHyhs9GUXjZrJGCMIy6gseG34uPsmJFDfCXyT4Fcl+XHsD10UNSpwYQxqVW1CM/GLhNSRibr4JxVkoy0uPqceKpxSPv7ZRNI0QxxE8dvsyXDRzTNg+VyxrucvjFc14wegR8W1Hceh005D7udxe/G3VVgDAL2++QLRa8bPPPouKigqRe0GGeStuZxc/2C45vLn4JCVSXGS+RGjJYglwTtXIWK+BIubme//99+FyuQS3XzZC7rCR5HRTB3776ueiZR1kHIcn71qOey+bM+xMExwhokElm/ZXic6NMc4OLh55ef2QOQpbu6xoNllx6ZxyzB0vPMfa2tqKJ554QvRY42YvQ0pmAbv4IQtTcA9PT2xAuH6iJlDDPemQym2QAdZSdw0Uf8IUa2I1e5Gwm6+9vV00w/klc8pFC+5JlY17T+FVkVQ6vVbyvZfNwZ++s2JY674mlmSLFnv8mLn3AuZMa9eQrr78jGR8/8r5+Ml1i0T3e+SRR2AymQS3qzR6zLjw+qDP0etxobO5Bi01x9BYdQi1R3eita4CdnM7EG9r3IiQMA3LhJK0SMkjdPJBcvaCx0rBwkDJyM5F8eixqD7l39Xxyiuv4Nprr/W7LdWgwcJJo7Bpf2XMfe9/frQdBZnJWDpdPNhjydRSTC7NxZ/f+SqkCrcXTBV2obab7dh5vJYpTxC8u+kA5k8oEi2gedtFM0Qf8h07duDFF18U/ZyZF14PtdYgqCk874O5rREdzTVob6xBZ3MtTK1nYDW1CgqRQqVF3pjpKJ64EFklk8Bx8phsg95oZepXmMJijoWLsI8I5NITp/6jhfhk3pJlggK1fv16NDQ0IDfXf+aJqxdNjEmB4nmKX/17HTjuEpw/VTy/YKpBg9/dvRxXLpyAFz7eif2nGgIXKJFoxy/3VYLnWeaI4NxAwCMvr8cbv7oJuWnGoHs4t9uNe+65B7zIwm1jWhZGT14AS2cL7JYuuOwWWLvaYO5ohrm9GZbOZpha6+HzBlcSxeOyo/rQFlQf2gKNPgXl8y5D2exLwJFYihD0N89Ow9lXhqOjpf2OFdYHTBaAQHHDFanc6Vd9mxAuK1BhykgzQKmQnXPt+/sMewMnCACdRtG37+B9+t5HBvkdRfbtv3/Q+w7e7mffrJw8bFjzvt+HllKKjIwMLFy40O/lyctIwqe7KmC2u2JPpCjFpv1VGJOfjqKslCH3z0tPwuXzx2N6WR7sLg/q27vgExGYcYWZ+PbFMwS3/331NtS3mZnqBInL48P+Uw24bO44yIJ0Mf/+978XDf4BAJfDhgNff4TD29aiYvdGnDqwBbUVe9FcWwFTaz0cVhOoiMAFgtftRFPVQbTUHEHRhAUgMRHGTgaF2w/KSTqoDJHX64HVbAlCVnynu059uUpKFlOgAiUWkReKQN0WlECliggU6ScYPb9jTaBUKjXqqk+hsa7G7yWora3F/fff79e9SQiBx8dj57HYdFXxPMWGPacwoSgTBZnJAb0nN92IZTPLcMP5U1GcnQKdRgWXx3tO3rgrFozHrLH+J9m7bE788e2vBFNKMcRp67Kh3WIPKht9RUUFbr75ZsH1fdHA3tWGpsoDyBszE3Kl1HNc9grUYN+ef+eU1+eDtSsYgeJDFaiIPUTyIFx7obv+wlDynfg1RmnMpuhbtPRS7Nm22e+2kydPYsOGDVi2bJnf7ZfPH49/fbQDLo83Jr/7jDF5mFkefLSWXqPEZfPG9UUzmm1OtJhsaDFZ0WmxY+bYfMH3fnWgSjQ/IGNoVm85gsklOaJh/P09Affee69oVGq06Giswqa3nsTSb/8WcqVW4ledhtkbNywXHw3yPcMWMi5AcRquUA3r+gmWPY7hwfDE6bORnCq8rumf//yn4LYknTrmynD0MqE4C3/+7mVQyofvYjHq1Bidl4b5E4qwYu44ZKUIZzDYfqQG+RlJKMlNQ3aqQTSRKUOYv3+wFZ0BZJl48cUXsXnzZsl+j66WWuxe+1JsXHQSmCaQ0I48Un1+WB4weRhOGiNxov6j9+g5Oh6rUX4cx2HBBRfjk/+96Xf7mjVrUFdXh4IC/5bGzRdOw8c7jsVUJG1JbhqefeCKAeXDI8Ujt1044HPtLg92V9Rh3a4T+OpAVcxao5Fi3vgirJw/DudNKYFKIR4N5/V6h4zaCwfJyckYN24cJkyYgPz8fGg0GhBCcOrUKezYsQMHD4rnFKw9shWl0y9EeqF01xcGnotgWGHm4bKY/L1vWD2U3I/IDMdCGiEl9WMxxcEI+LyLV+LTVf/1Gyzh8/nw/PPPCy5uLMtLx9xxRdh+tCYmvmtuuhF//8EVQ65xamhoQE5OTtgHHoNFUatSYPHkEiyeXIJ2sx3/WL0NH28/xupDDWJMfjp+cfP5mFySE3inIpdj69ateOutt/Dqq69iy5Yt8HpDHwCoVCqMGjUKEydOxJQpUzB58mRMnjwZxcXFou/74osv8IMf/ABHjhwR3Kdy70ZJC9QICpOYQIUiTGK+yGGrZ6Api4JNcUQAkBl3/mcdkckn+f1Og4wiEIJxo3Og1yr7XiW95dT7Re71vovjCNKT1D1vpX6CFeigIAnap29n96WDghmonyAJ6ve4A4Mk6KDACOonSIIOUO1nn/wl9u/yvxgyKysLNTU1UKn8F23bdawO33vmA8k/QqkGDf79s+tQkJEsut/69etx+eWXY+LEiXjkkUdwxRVXRNRCPlrdjJ8+vxbNnRYwupc0PHT9eX0BS6Fis9mwc+dOHD9+HJWVlWhpaYHZbIbdbj87YNBqkZycjPT0dKSnpyMnJwfFxcUoKSlBfn4+uBBLszQ1NWHhwoWorPS/NENjSMWKB/4BQkifN4L275r6jYvpoL8B6ndff+8beFw68HhC+4JAoZCf8xm9BQr770tB4HI40VhXf64qUP8aQU5UN3UAAFWnSURBVHnPFzXrfvPtsxYAeAzIjhDQTzDvCcmCGgkfpJBVNiyLiZCwjRokwwWXXiEoUM3NzXjjjTdw1113+d0+e1wBxhRk4ERdq2S/n1alwNPfv3xIcdq+fTuuueYauN1u7N27F1dddRVGjx6Nm266CTfffDPKy0c+We744iz8+6fX4nvPfIDaZlNCi9NNF0zFg9cvDsuxdDodLrjgAlxwwQUR/x7Z2dl44YUXsHSp/3psDksHOupPIi1/jPQbxU/lXArSz80fZL94NtXRcIIfSBD7Bk2wQRLB7Bt6qfd+ektiPIP5UEycNhOZOcLF3f7yl7+IhkbfLrLuJ9rIOA5/uOdSjC8WX2Fw6NAhrFixAjabbcDrp06dwuOPP45x48Zh+vTpeOihh7Bq1So0NDSMXIeWasCLD16LzBR9worTokmj8JPrFsfN9zn//PORmZkpuL2jQeoL38k5BQppb3D0MHLxhcHwCHbfkAQqHIEPYRUrQga/Lf6E6ex35XD+JZcLu52OHsXatWsFt184owyj89Ik+L2AX91yAeZPLBLdr7KyEhdffDE6OztF99u3bx+eeuopXHPNNcjLy0Nubi7mzZuHK664Avfddx++/PLLsJ17mlGLJ+68GByXeJF+Rq0Kv/zWBUFN8Xp9vMSfMYJRo4SrKzssUq8NNtBgOVeYhm2XjUQwXFiMFi7MJxbmIAlhYSIgfXNBsc55F62ARiu8HuOpp54SbkBCcNelsyX3ne5bOW/I9TINDQ1YtmwZGhsbgz5+Y2MjduzYgY8++girV6/GpEmTAvBoAJYAM3BML8vDLRdOTziBuvWiGchIHrp689HqZjy7aguue+wNXPXIq/im4oykv5dYBd9gUyhFQ5hob1GI8Hd3kRClkDVAHsLBQ9kvbMJ0zuHiwLDSaHU476LLsG71u363f/nll9i5cyfmzJnjd/vS6aMxOi8Np+qlMRK8etFE3HXpLNF9TCYTli9fjtOnTw/rs5RKJVatWoX0dPFaWftONeDx1zegttmEnFQDVs4fj5uXToNeoxR8z+3LZ+J/mw/BniDlOdRKOa5eNFF0n68PncbfPtiGqkEVib/39CosnV6GOy+ZhTH5katb5vb4IJdzouvaOjs7ceDAAeHvrUuSru3UG7xBhypaGNrRB7010LmoQOeghPYLuNfmwihCI5p6/azbLzAZizUuuvwayGTC60see+wxUSvqOyvnSuJ7LJ5cgl/cdL7oPi6XC1dddRUOHTo07M975plnMH/+fNF9dhyrxfefPhv40NhhwQsf78RNj7+J2haTqLvr2sUTE8Z6WjK1VHQZwKqvD+Mn/1xzjjj1Wqcb9pzEt558C3f8v3fx9hcHRK9tsPCUoqnDgm1HavDq+j345UvrcPMTb2HdNxVDLrp+6623RNMtpeZJeNH7UB0c6Y5eDmNm85EyUkLSBnkETmZ4YkX614aKG6Pp3IckPROzFy3B9k0b/G5ft24dtm/fjnnz5vndfv7UUkwfk4e9J+qj9h0ml+Tgd3cvF5274Xket912GzZt2jTsz7v77rtx3333ie5zrLYFP/nnGri953ZQjR0WPPDsh3jr1zdBp/ZvSV173mS89tnehBComWOEU0U1dljw53e/GnJhOKXAodNN3dV43wVSjVpMLM5CYVYK8tOTkJmih16thE6jhF6jBE8prI5uC9Xp9sJkdcBkdaDT4kBblx31bV0409qFxnbzgDZM0qnxh3svxSyR9FYAYDab8fjjj4v2ySk5JbHXWP6mN0joRxohS0lsn4C68UBcfOEQq6Cvmb/1L/7sz3iqF3XplTdgx1cbBaP2HnvsMaxfv17w/T++dhG+/ft3orLYND8jCU999zLRkt8A8OCDD+Ldd98dvqW2eDH+8Y9/iO7T0GbGD//2Idwe4dFzfVsXnvtoOx66/jy/23PTjCjISEZdqwnxzoyxwtGk728+JHodhegw27H54GkAp8N2nudNKcHDN5+P9KSh58ruvfdeNDc3C25PyyuFUq2LnUYK/7w7iaAoBWsfCrr4EFaxGmayWL8GbBwGWBWWjMbU2fMEt3/22WfYunWr4PZxhZm4dG55xM/bqFXh6e9fjhSDRnS/p556Ck8//fTwLbXJk/H+++9DqRSeP7I53fjRPz5CRwB54z74+ghMVuH9VkThmkYapVyG/PRkwe3bj0Q/Y0mSTo0n7rwYT333soDE6cknnxyy1EfJtAtjR5eGnNSgoR96+EZIKBoyJNwIn0zYhWnAsqg45Mqbbhe1Cn/605+Krou6/8r5MGhVETtfuYzDH+69FMXZ4vWd/vvf/+KnP/3psD/v4osvxpdffikaFNFdZO8zVDV2BHRMl8eLw6eFR9nnTyuNe4FKT9YJPlc8T6MagKOQy3D9kil477FbsXz22IDe88wzz+DXv/61+MAqPQ/Fk6S/3osEMts+/KKF4RCcsHvXOCmcREAWE+JbmHopLi3DtNnCk/7bt28XHRWmJ+nwg6sXROx8H775fMweonTGF198gdtvv31YtZhmzpyJt99+G+vWrUNqaqrovv9euwubD1YFdfwum7AFlazXxP19l5ksvDC5zWyLSqkSjhBcOqcc7z92K35243lINQzdDjzP46GHHsKPfvSjIfeddP6NMVC4cKjovWHlRBiJvj4QYQt8ABwBM24YZd/P5sALr1Urba66+Tbs27VNsEN/+OGHceWVV0Kt9h9xdeWCiVj/zQnsHuG1KbddNANXLJggus/Bgwdx1VVXwe0OPlR7woQJWLFiBa6++mrBEPvBbNpfiRc+3hn8sypyHyXCgl2xfHu9QQyRQqWQ46KZZbhl2XSU5ga+CN1qteJb3/oWPvrooyH3LRg3F/ljZyN2cwMPKkJE0RM1HpL1FO75pGC3UzGBCkbpwqGmAVyy3tQeAQgTF3+dRVFJGWbNX4xdW7/yu726uhpPP/00fvGLXwhevl/dcgFufuK/cLhGZhHiBdNKcf9V4uHdjY2NuOyyy2A2mwNocoKxY8di3rx5WLBgAZYuXTpkturBnKhrxW9e+SykIBExC8Lj9SGRSYmABalRKTBjTB6WTi/DeVNKYAzSTX3y5Elcf/312L9//5D7GlJzMOuy+2JWmPx37cMKNQ8kgIGM8PaALKhwitEwF+qKbyL9043HITd8+x7s3blVsEzBE088gRtuuEEwhUtBRjIevvl8/OaVz8J+buOLMvF/d1wsuv7Ebrfj8ssvR11dnf9RskqFWbNmYeHChViwYAHmzZuHtLTQUzZVNXbgB3//CPYQBNmgVWHCKOF8gYFmn4hlclONotenODsF1U2dYfs8o06NqaW5mFaWi6mjczGuMBNyWfCjTZ7n8fTTT+PXv/41HI6hA2KUGj0WXvcgFKoYc9v2Pmt0sB6FtdxGJK2kgARLPgzrKdjtw4MOZYHGF5k5ubho5dVY+4H/kGybzYZ7770Xn332mWBQxaVzyrH3ZD1WbzkStvPKSjHgL99bKRpOzvM8br31VuzevXvgSDwlBVdeeSWuueYaLF26VNBFGSzHalvwwLMfikbiCcERgt/evkxwHRTQXVo+3tGIFJGUyzi89+itOFzdhN0VZ1BR14raFhPaTFaYbE7w/MC+RamQQa9WQq9RQa9RIivFgILMZBRkJqEwMxkFmcmiFmugVFRU4M4778S2bdsC2l+h1OC8mx9GUkZBzMwMENIzyUGpH4tpKCNo2JZUOK2kYVtQ4RSk8IkV7c1oLjSqiN8Cc1fceAu+3rgeFnOX3+0bNmzAf/7zH9xxxx2Cx/jpDeehorYVx2pbhn0+WrUST9+/csgQ34cffhirVq3q+3dRUREeeugh3HHHHdDpwrfmhKcUb39xAM99tD1kV+Zdl87C4sniCzXbLQ7EOz6eDjmAnzQqG5NGZZ+zzepw97lV1Uo5lPKRDTwwm83485//jD//+c8BWU1AdzqjxTf8DKm5o2OzyxASpsGWVVCHpGSYohLM9pAsKLFyG2ETJBrK7F3vpJ8f6+Bs1qP4rn6q1elx9c3fFt3noYceEk22qlLI8cwDV6AwM3lY56KQy/D/7r0EZXniedb+/e9/449//GPf6O+BBx7AkSNHcP/994dVnI5WN+OuP76Hv7y3OWRxumjmGNxz2dDBF4kwBxVIglgh9BoljFoVjFrViIqT0+nEU089hZKSEjz++OMBi1NyZgEuuvtJpOWNjk1houfW/PNfhihsVlSohsdw3+tXoMJxMsFaXwHYmf6F6WwG88Qozb300stRUia89qOjowM333yzeK4xgwZ//+GVyEgKrROScRx+d/dyzBsvXjpj48aN+O53v9v377/+9a949tlnwyZMHq8P63ZV4M4/vofb/vBOdzqdEDl/aikev/OiIfO4AdIvJxEOMpOlm03B7XbjxRdfRFlZGR566CG0twe+Jit39FQsu+Nx6JIyYrRlzrWYyGBhGl53OJL9fKjbwm5BBfyBwV+9xKgLJdhAHId7fvAgZHLhOZ9Nmzbh0UcfFX9Q04z498+uQ0luWpCfT/Doty/E+VPFF6seP34c1113XV9Zgx//+Mf44Q9/OOzv32VzYt2uCvzq3+tw8c//jV+/vB4HqxqHdcyLZo7B7+5eDlmAZcS9vgSwoJKkV6CxsrISv/zlL1FYWIh7770XZ86cCarnGDfvMpx3089jLyBCVEfCJkwjbUGFZZt8hNRz2HNQAyf+E0+Y+lM4qhQrr7kBq995U3Cf3//+91i0aBEuvvhiUZF6+afX4dcvr8OWQ9VDfq6xJ7XM/AnillNbWxsuu+yyvqKDCoUi5KwRbV02HKxqwoHKBhysbMSRmuZzJuFDfvIIcM+KObhnxZy4KsgXDtIlYEH5fD7s378fn3/+Of73v/9hz549IR3HkJKFuVfch8yi8TG8zmmw56tfH0iFbK2wpDoKdR4pXNvOEagRV8HhNUpgY4p458obb8WurV+j4Uyt3+08z+Pmm2/G5s2bMWGC8OJZvUaJp79/OT7bfQJ/fe9rtHbZ/HbkS6eX4cHrFg85N+F0OnHVVVehsvJs2eyLL74YOTk5QzsvKHC6sR37TjVg/6kGHKhqREObeUSuX0aSDo/ceuGQFX794fHGv0CJuX+9Xi/kcnnYP9PpdGLXrl3YvHkztmzZgm3btsFisQxjAEIwdvZyTF16E+QKVRwNaftZTAJbR0ARJSFW8gD7+wgL1hAWk58SHPGOQqHA9x76BX770x8KVgft6OjAxRdfjK1bt6KoqGhIN9eSqaXYtL8SO4/VoanDApVChvLCTFw0c8yQufWA7iql119/PbZs2TLg9aHWMzV1WPDWxn34Yl8lmjosI3rdOI5g5bzx+OE1C4Ne/Nlf/OMZtVIumr9x4sSJGD16NBYuXIgJEyZgzJgxKCoqGnKZgMPhgNlsRmdnJ06fPo2TJ0/2/Zw6dQo1NTWC6/yCJSk9D3NX3ovMovI4sJoG9YUC3WGYAs2jJUg0EMsk0DDzYIyXkStYmCjmkgAlZWPxrbvuw3/+9TfBferr63HRRRfh66+/RmZmpujxlHIZLpo5BhfNHBOSO+aWW27BmjVrztlmt9tF35tq0CJZr4HL4x2xayXjOJw/rRTfWTkHo7JThz1+jWfE1iT5fD6cOnUKFRUV+OSTTwZs02q1SEtLg0KhgEajgVqthslkQldXF8xmc0jprYJFa0zDlCXXYvTUJQAni7/W8lPyaQSHSxERnUAsJ38W1EhZS2EvWJjIXLTyShw/fBA7tnwluM+JEydw3nnn4eOPP0ZpafgzcVNKcffddwvWddq0aRM8Hg8UCv+LP5UKGe68ZBa+deE0fL77JL7YV4ldx2vhdA9fsEpy03Dh9NG4cuGEoBaDVldXC6ZWonF+62WnGoSt3aYmwQhRu90+5GBkxKw+rQETF12J8tnLwckVYh6w+IAMdS+G8u0pCUBAwiU6oRyvT6DCbS2FYT4qwc0lEe794UOorjqFpgbh6rnHjx/H3LlzsXr1aixYEL7s5g6HA3fddRf++9//Cu7T2tqKVatW4YYbbhA9lkohx2XzxuGyeePg43mcqm/HoaomnKxv61dJ1SKYSTtZr0FeuhGj89IxaVQ2Zo7NR35GUtDf6W9/+xsIIbj//vsFBTlRBaq2tlZS56rWGTF21kWYuGAl5EpNQgxdaQBbCRm24ypSohPU8eQYmXmnYRpNJLBmI4kpZBqtFj9/7Ek8+tMfwtzVJbhfW1sbli5dir/85S+47777wHHDy6x76tQp3HTTTeekMPLHAw88gPPOOw/Z2dkBHVvGcRhbkIGxBeeuV7E53fDxFHanGz6eh0apgE6jhEoxvIl7t9uNH/zgB3j++efx7LPPilqMTKCifI7F41E+axkKx88GJ1MkhGUrLk50oIcpfNdCCpZTX4ogLgRhQpjeE3KTEWZhIScvH794/PfQaLWi+7lcLnz/+9/H3LlzAxIWoY786aefxpQpUwI+RmtrKy688EI0NTUN+7vq1N2ZCrJTDchLT0KqUTtscdq3bx9mzZqF559/fshBUbz3g1kpeskJFOE45Iwaj7krbscND/0Dl971GEomL4BMrkhw/0m/rBGEhONOjVQMwlDv8QsXM8JEeg9KzjWiEpSS0WPw09/8HxQipc97+eabbzBnzhzcfvvt2Lt3b0DHt1gseOGFF1BeXo4f//jHQc83HDlyBNOmTQuoPk+ksNvtePTRRzFnzhwcPHgwIKudWVCREaT03BJMnL8CF93yM9zyy5ew4q7HMGHepdAnZ4DRP50RGYnuNlKiE9Sx5GH+kLCbNkQsqTubpsKEyVPx41/8Gk//4Um43eJlIXiex6uvvopXX30V48ePx/LlyzF9+nSUlpZCq9VCLpejtrYWFRUV2LRpEz7//HPYbLZhnV9TUxOuuOIK3Hbbbfj973+P3NzcqFwnj8eDf//733j88cfR0NDg5z5L3JspogJFCPTGVBjTspGcnoO0nFFIyy1GWnYRZApVv6TdlMVF9evsiJ/SrQPCx8KXy2Aol1worr+QjyUPowCJKGPwyWJJICW0EsIBMzQz587Ho//vz/jT/z0KU2dHQO85evQojh49GrFzfO211/D222/jlltuwYMPPojx48dH5HPb2trw8ssv47nnnkN1dbXgfmLzc+HKZCFFCBEXqJqaGr+vl02ei9SsfNitXX0RdC6HFRwnh0KlhkKlgUwmh0ZnhFpnhM6YAo0+GcbUrO6oOwyqIMH0SLCBSP+L1b9zHCxKIZaHjZDoBBW91/se+UiZZmGzcUTX68Z3uY1gKBtbjt89/Sz+8OgjqK0+HdHPHls+FlWVVYILiHtxu914+eWX8fLLL2Pq1Km46qqrsHLlSkyePBkyWfiyYJtMJnz66adYvXo1PvzwQ7hcrgD6gcScg0rRa0Tn84QsqPEzz0PJhFnniItf0aF0QH099sSGwZ10jsU0rKsaCdEJ5TP8lnwP1moK1gILTpiI/0Zia6POJSMzC08+9TT++fRT2P715gg8LwRXXHk57rz3Luzfuw9P/PbJgBdn7t+/H/v378ejjz4KvV6PGTNmYM6cORg3bhxKSkpQWlqK3NzcIV1vVqsVp0+fxtGjR7Fz507s2rULu3btGlIsGd2IWU8Wi6Uvv+JgjKmZ7OJFQ5zoiA6fwm4BDfd1+TCsoIhaTcIl3tlEVH80Wi0e/OUjOLB3N17659/RWF8/Ip+TlZ2FHz/4I0yZOgUUwMxZM/Gb//sNnvztkwHX6ekvMl999RW++mrg4mO1Wo2srCzIZDIYjca+31arFV1dXejs7ERra2tYvo9YuRIZF7/3WKjzT8YUFrgQEV2CUGV3OlLdYNTEyN/r8iG+WuTFKaiDUjCB8s/UGTPx9L9ewOr/vYf3//vfIQMoAkWv1+Ha66/FlVdfAZVqYC62adOn4R8v/APPPPUMDuw/MOzPcjqdgnMg4UZMoDiSmAIldO05TgaVWsv8F5FgJC0mOmQ/HlEx8ve6PALiFPrU3VCtxvRJFIVCgetuuhlLL7oI6z/5GBs+/VTQZTMUOTnZuPiSi7By5WXQG/RnC30OtqyysvDEH57EJ2s+xn/+/R84nc6YuFaiAjXMBc5SJisleAtKHsCyBsbIKVVgtR6GbTFFXIz8vS6XojgJD1j7CxNTpkBJS0vHzd++HTd861s4eugQ9nzzDQ7u24e62lrBbNIymQxlY8owZcpkzJw9HZMnTwIhJKDV+4QQXHb5SsyYOQvvvfMuvtz4heTnhEQFCvGbzTwnTVig6urq/A98lGr2UEXPhBoJwhltFlaRCjaKL3wWUiiNRLs7P6ZNoSGXyzFl2jRMmTYNhACU59Hc1IiOtnb4fF74fD5oNGpkZmUgNTUVip4aQITQkBo5OycbD/zoB/jWbbfgow8+xLq1nw57XdVwyCsoxIQp0/DZxx8GJVDgvXF7T4RiQSmUKvYwRRJCIpHXKVzCEt4+a4S/cNiECQLCxMQqdDiOQ05ubk+0XG+j0bBf05TUVNx25x24+bZbcWD/fuzYuh07d+xAl8k08tZjegamzZqD2fMXoKx8ApobG4IWqHi2oHLTjILbhOagmEBFWJwCEjDpWT/heH2kwszDIEy0z2Ji80zxY8FNnzkT02fMxHfu/z5qa2pwsqICJ45X4OSJE2iorx+2KzAlNQ2lY8aitGwMJkyZhqJRJT2DTwpKAaXKf+cqJlAkTsMBtCoFUgwawe2nT/tfTydnAiUx8aL9h/Px1WdI0nqiAKFMleLdeiseVYyi4mJcePHFoBTgKUV7WxsaGxrR0tyElpYWOB1OuJxOeH1eOB1O+Hxe8DyFVquFRqeDwWBERmYWMrKzkZ2dA2NydyVgKrAgVKFQBi1QXJwKVG66sPXkdrv9poTqtqDYHJQkhIn2EyaKUBL2JKxAjbi+kb6GYsGu8fPcEaRnZCAtPQPAZJEsBfTs30GmyxEqoigeZh6f1zsvXbh2VnV1tWCpe+bii1av2O1NohgkTJHrlCPu5pPHdpPRhKgJwwgfQgIl5lqUx2mYudj8k1jeQqVKw26kqAzYB1tM5/aHIyhEUSFmnryBc4W0+z8CFiXBCO6Gl8nA+cn7J5avT6mUx+W1ELOgqqqqBLdp9UZ2I0XccKFn1x5Sf/uErR+kQb6eWAJF/CgT6TcZ2C1MpF9OPmZCMYZvRYktKFYp47NIntgclFCABABomEBFht7gnkCFiUTvLEfqdS7CJxGcyTRImAaK1dkPYm4+RnACpWQCBSAvVIHSJbGbKEKj9WAspnjsBzkpmHGDLzLhMNBiEjVhadxXPGWEWaD8pOoRS3CritPUPjlpoQqUgd1EkVKowYN2CBXKo+FQKMl1pFwYTj78VlRvpAoRF6azk4ZMoBjBWFDMxZdq0ECrUoQmUMzFFxl5Imd/E0JE+8ARNqFotF7npKmiZIgGOVsGGSDw8UygGIGjVmuCEii1Kv4sqFyRAAmLxYL29nbB7VodE6iIWA+CSQoGClPvbAgd3iTUSItNWC2oqJ7sueUNBjdIPwGjgFgaNQbjHItIrU54C0osxFwsgg8AtAY2BxUZC4oTt5h6HEx9w3YackquSPTrIX0GF0XzbUjT9twGIQMrS/Zs8vp4djczAkaj1QYpUPFnQeVnCIuMmHtPJpNDpdaymygSAsUR//2gwKtCC6vDLBwRtcI4KZp33fV3hC2mwZ/i8/EsUIIxLAvKbrcLWwzq+BMosTIbYot0jakZbO1hRKwnErAw9b4Q9EwHCal/j6hBw0XCYqKUuoPTYdp3BcWEqf+V9vqYQDECw98clNlsFtxfr4m/3HNii3TFLKiktCx2A0WAgUUyiagw9f0zWE8Sz7vC1N+PmHZwI3RyA1+nvDWY6+bz+QITpv/f3nlHS3LVd/57q6rT6xdnXpo3M2/yMEmaUUAogoRkhMaACAIBjiBsbMxZHexj2LUJPj7ser1mCTb2wcKLvQaEARkQGGMWScgjFBAojTQ5aEYTXk6du8K9+0d1qNivQ3W/fm9+X53W9Ku6Fbrq1v3U73d/93ctllVeIzcfqUpAxWoDlCxLiEVWVj/U6GCv77pKfVA9qwapAjXdfDL74Yv/LQYmgEEIAc5r64wXnCebaAU1baBuddCp4aCcGzUBSjcEQopU0WKy56cS0HUDnKL5SE0AFICKIdnLTZGQgsG+Tt/1J06c8F3XTYBqPp8YA5MWBxMrxDEDApzzmts/IfRUs9r8gPYVeJCE948UeqKWC5dXNYQ88qUxyy3xOlxeo3A+0uKKeQBK1/WK/VCdsZWTwXt0sNcjUrZ8HciCWlrJklwZTKXJW8sLOefgRq0WlJ5Cs7xmAe1LatLJ2K+vrtUEqFQ6D1mWwJiwGExs0UPnVU5DdkmLKu4z0LSSFRWPrZxAidGhXt91p0+frpjZvZf6oJprPUmsPL+Ls6krjYuyLSwlkdC12rr6oavzSw2gxfYl1QudWrbRssmXa7luybQKxoCQIlsGqlU4lCX8PJcnK4pUWd093gECCwsLFSyolQOoDUN9vuuOHz9e+dqRBdVc60mWHE1doTvDC0yFxtEo9D1pql7TsdTM7KmgjZGgYSa14oRy868cr+XCZbJ5GAZHOCRX3DWzJZQ1lVM5JY8l1QWoipF8KyjUvFKARCVAxbv7KA9fE2VG7kkOADmSFLj63zm4waFrWs0DdXPjLx1vMZhq3abUBxX0wWzrJg49dEqg+qsnhMD0fBqyxCBLsieYGPPP0ZfO61TbSb7q6umt2YLqia+cSfoqAapSgMTAyMa2OP+VOAqLAZBkydLPbmlGWRFN7m4Ozs1MpLlsrrYDcmMqOXZwrtG2vdlWltSKE8tMn80JQz9Xy/WbnkkBjCGsSFYyVTFIUEDTDGg6mVEkHwuq29uCmpyc9N1mVffKAdSG4fpcfEPrNlHlaZb1JCtue8GVK9vd3PLC+M9cJlsjn9TjLYBPw/uTWnVCPJ95vpYLODWbghBAKCSXxgQsBibTVWv+l8np9ab+IK1whSMRRCLuwbcTExO+26zuXhnpfbrjUfTE/QceHzt2rIIFtYEqTzOsJ0kqpDWqHkyA6WnigsMwDGhqvjZA5VPPNQiYVsCsKhdfIOty82OP1XIB86qOqdkkGAPCIaUimBgAJpgj87xAOldfwATZXitfXR79UJUAtaprZQBqY4UAiXQ6jYsXL/quHyQLKng4MQZFlgrfqwOTWdgc+wkAmVSq5jYrM3Pi0Wa29w3CzNOCauoJXjz0749DiJqIcW5sHgAQCclwJfYtTrnhAJNVuiGQU8mKIrnV49EPNT4+7g+oFWJBVQoxP378uG9Oy1A4gt7+NVRxAqUTIMsyRGlcUzVgMj/cKE7UKpBOpmt7ARfG+OyhHx9voF2v1yKqeZ3UKmImzjy7wPX887VcyJnZNNJZFWAmpEqHKI6PquK1Iaca0HSCFMlhDQyvqcmCWikuvs1rVvuuqxQgMbhuc4XAJFLtlhOgyIqjT927WWVgNutKCDNBNgBk0pmaB+hyNfWfgOebe7Vte0vce1YLqtnmnQCAfHrmkZpID4FTZ6YBAOGQDEVh7uEAFWoAKwxiS+VqgxQ9hitfQ2tGagRUfEX87ss2D/uuO3z4sO+6Ddsua5vfsBJc8EySq0g+4PD5FbOWGwaEMC2o5PxCzcdW5y483Iz2PSCYeQIKTT5hABBjz37vewKipt68sckEEikzhDIWVlBplvrSuCjHWwkDkMlzGJTxnFTQ8Mhad10bG/Mt3xkLozu+vLOay5KEnaP+A22ffvpp33WjbQSo5S5JUSxTClUPJgAQXJSCv9LJVKkfqmq4C/2ViZe++VSDYAmcDagwULfZlCytnz315JyeS/6kVivqRMGKkiSGSERe9H6WDm9JkSSEQCqnU0JZUkULKpXyz2u8ocL4oeWg7ev6EQ0rPg2X8AVUKBzBmo3bqdIE8pIgFzIZLQImj5ZVANAN3XTxcY7kQqLm42up6W9CLbn3am7DWwQsXwtKoMmUTFw8/M1aL+rkTBIT02bDEQkxMx0IvKJeyrfYGZYuYE7olcgaMAhSZEGtWevqUxFC4OTJk77brF/mgKrk3jt27BhmZmY8163dvBOyrFClaUSFgAgmM49VHmDyaFq5bpSy5MzPzNc+jEaI3NyxH383ICA1w/pCMy2oqta//PAXnxGGdrzW+3v45Dg03QDA0BFVIEn2G+3Xf+uaFlkIpLIGdILUJa1INIqeXnfIdaWBqpVy2C0H7ds64ruukntvw/bL262tX15sYoAkyZYp3IvLF5uQtbCQMRhcwCgAKZvJIptO13weRj7xg+zk0USV7XeQQKorQKJRC6ru9anJE39X68XN5XUcPTVlnjRjiEWUwoSF3nCqEA8DLoBUxqBZeC9xDXn0Q1UCVKUQ7XaXIku4bpf/QNunnnrKd92mHfuosjRAJ0mS7S/U1karApiKABNCgBeCvLhhYH5mrp4zySfO/Oy+GtruZgLJa9+oxoIKxEpabP2xf/vMT7iWP1jrFT43No8LEwulB64cel4ZTMyaiaJQQAggkdGgUkqkS1abtmyrCVCVAgzaXVdtX4euDv85rR599FHP5auH1qF/DWWQqNfUk2Wr5VQdmKwzhQuYc3QJmDn3ZqbnYBi1JyDQ07NfXzj9s7GA2vUggFSXBdUMUnqcnMoTY4f/pp57fuj4OJJpc96TaFiCLEne97sU0OdVIYp/MKRzBrKOIQGErEtDW1+1w7XsxRdf9C2/bqAH/T3LM9z8V6/d4bvu5MmTOHLkiOe6XVe/tq0B0L6GE4MsKwUeVdfHZAMYinM8WfqdZudrTwoLAIInZo786P8ECKNGDZWqJTXJSlq0zMkf/++fGWr26ZrfBAyO5w6dg26YkxN2xJQSpOCoC/5gKlciwJyiI5nlRKZLTFu273QFSrz44osVI/lee/nyS/fTGQvjln1bfNc/+OCDvu6pHVfeSBWlRmhKslyAUw1gAnM1lDrXS1NoZNIZpBKpuk5JTU38fXbypflmteVNsL5cgAqCmDWXmTzyyJ/XOi4KMCc0fPbQBYhCJHlHVIYkSRUGZbvmTHZ1XGk6x0JGh84FDdS9RNTd04ORdaO2ZYZh4PHHH/fd5m037Vl2v/Odr7scsUjId/3999/vuXxkw/a2nEFXtKmrgwGQ5cIYp4pjcP3BVKqHugFRzFSezWNmeq6+a2WoR6ee+r9fb0b7HZD1tagF1eyT8d3Phaf/5ZS6MPXlei785EwKLxwZMyHFGOJRuZxlQsDz8Mw2dbxbBgeSaR15jUypS0VXXHOta9l3v/td3/I7Rwdx2abhZfP74tEw3nPrFb7rDx48iGeffdZz3a6rb6IKUi2cJAZJDlUX/GCZ28mrGDeMUgi5ms9janLKN0fiIiTXUuef+RNNm9eabWwEyBBPCypI32NN5Y796NN/zw31SD2V4vz4Ao69XI7s64wpkP0GwVVhFpmZKCSk8wZSOV5fpSAtK13pAajvfOc7yOf9Dfv33Lpv2fy+e/a/Gqu6/Oey+vKXvd8Pox2d2P3qm6mCVGE2SZJszuckYdHgB1QAEwAI3QAv5NnTNR2TEzMQdQ6JUdNTX5p56cHjAbTT9VhF1RyragsqCFLWVU5Nzelzp37xZwDqmhvjxJkZnDhrDjCUJIZ4RwhyKTiCVV3LzPKiFC2T1znm0wZUCkVf0RrduBmrB+zReVNTU3jggQd8t7ntqm3YMrK67X/bztFBvOf1/jCdnJzEV77yFW9w33QHwpH2nKSxXVzwpUAIWVocTKwymEzLiZfGOmmqhrHxyboi9sx9qYemn/zSPzS7/W6W5eRnQbUESs51Lx/40sHc/MW/qbeiHDk1hcOnJguWFBCPhVwDeRezhYtgst1kAMmsgXTOoPiJlfoCzBiues31ruVf/OIX/R8axvDBN1/b1r8rHg3j0/fcjpAi+5b5/Oc/j0wm41oeCkdw5U37qXJUACSTZUiKYv7VIJgYzL5Pzo2CW0/F2NgkDL0+OEHwROL0o3+sqmm9QjsslhhWdQFqKUgrAIhDD3ziPiOfeqjeSnPy7CwOn5wqW1JRGYrMfBqlsqHtBaZSucLMHjlNYD5lIK+R228l6uprb3Ate+qppyoOXr1l3xZcvrk950dSZAl/+bv7K2a+OHfuHL7whS94rrv82lvR0dndtvdryZ5AZs5+KykhSExqGExFU1DXdYiC5ZTL5TE2Nlly89VjPKUnjn9s7vgjZ4Nqm5sIq8BcfPX+IFF9WVWc/umX/lQY+rl678yJs7N4/ugEhCj3SYUV+whuxqoAE8pTTpXuuhBI5TiSWUG5/FaYNm3djv5Bd7TaJz/5yQqWF/Anv/b6ihbKUigckvG/Prgf1+4arVjuox/9qKf1JCshXHPLW6hSeNxwJsmQJNkHmcKWumhRMDEAXMDQtdJLbyqZxsTYVEMJrdXUxBcmn/mnx+prg1sGq6olo7JLl8EnV3iDZeFVNp+YUMOdq3/ZsXrjnWCsruyUc8kcZhdyGBnohCwzKIr5psNLlo+wvryUT4S5T4pZ35wsoFINcxBdqDg/FbNvY9uXc7/McYxK62spa7MMHd8XK1vhnJ1lV6rTJplM4sSRQ7alp0+fxutf/3ps2OCdSWFVdwc6IiE8efiVtvgVg72d+PwfvAXX7KwMp+9973v4xCc+4bnu+jfchW2XX9P2LraWHq8AJveEjaJ0RgzVufJKL8hGOTO5ADA7O4/ZmYWGztNQ0z8+/8jn/hIw6jUW6jQuaoJaTZJbDCUsVn7hleemOwe3HYt0D94BxqR6flQ6q2FsOo3h/jjCIQkhRYIkMVvuPeY0I52Nshegim9IwpxOPq8KSIyVJ1IkQC1b9fatwk9//EPX8tOnT+N973uf73Z7Nq3BhekFnLgwvaTnf+uVW/HZD70ZG4crJ7QdGxvD/v37Pa2n3v5hvOU3PwJJlnGpiwGAJBWuheTjYLRH5S3e4JmluCEguJkhQgiOifEZpBLphs5X6PlfXPzZ336Ea0ktAPA0y6qqGVZyteCoBTKNgmz21ONnezdcMRnq6Lul3hemvGbg3EQCfV1RxGMhyDJDWJFgcGGOnRIFk9zSgPtZUExi7vWFVlszBPK62e8lSwSo5arO7m689PwzmJ+1Tzlx9uxZ7NixA3v27PF19d142UYcPzeNVybnW37eW0ZW41O/+Su4Z/+rKw7GBYBsNov9+/f75ht8y2/ci9XD69r+XjXVwV7oZ2JMBpgECFbxqKKWMxbFYIjCGCdVw8UL08jn8g2dMjfUw5O//MffyycuZgKGSSNWVUOuPSeglsRaqqTpoz89unrrdUKJdL2mbpPXEHhlfAEAQ/+qGGTGEFEkcC7AhbsBdwGq0NlpteylkjklSmUFAE0XUHUBxgQUuQw+AtTyUSwexzNPubNIPP7443j/+9+PWMw77FqWJNx21TaMzyVx/HxrLKk9m4Zx7ztuxEffc3NV04AYhoH3vve9+MlPvOcL3bHvOlz3hndc0jYTYxKkIpgQLJhE4R4UxzQlExmMj8/AqD8Ywtw1116ZOfTdezLjR+drAE4rrKpA3iPkqu5c7e1T3WCybjt56Ce/HNh+c7ccju1t5EdOzWUwt5DDmtVxKApDSGaQGFAcYuAGVAFMjgba19oqrBdCQDMYNM0M0pAlUfJbE6DaX2vWrsfTjz+GdCppW55KpXD8+HHcfffdHv0QhRcXieHmfVswvKoLz564AFUzAj+/Vd0duPOGXfjYe27B7/zqNdi6drXv+Vilqip+/dd/3XdsV8+qQdz1u/8VoVBk+bjfAtsZK1hM5qf8NmrPQGNNEFELmBgYhOAwCi49zgUmJmYwN5dEowHBgusX5o7+xz3Js09P1gGnRkDVKNwaBlQ91lKjYPKsexMvPfJ4//Yb4nK4Y18jNzOV0fDKeBK9nRF0doQRUiREFAmGYYLF2YCX/mb2oApfQFlAJASg6gKaYQJKkQlQy6LhYwyKEsLBZ3/hWnf06FH09PTguuuuq7iPV60fwJ3X74ZmGDg9NleYZLM+hRQZ+7aM4C037MaH7rwOf/TO1+KGPRsxUENG9UQigXe84x2+CWHDkSje++FPoacNc+41XZIEBtk+caATTI5W2M/NC2YHU/FjcKMUlZfN5nDx4jRyObVxNyfXT00f/v77k2eeGm8AMkGCCs2wpFgFMNXykRrYtqrt97zrMx+OdA99qGQvV+2fFrZ/GAM2re3FFTsGECqMk8qrHHmDQ1gSxTJJuCL97IAy10uODLXOZCbmbJoMsZCEeAiAJBygEB7QEQ6oCA9AOaEqPAAlHIASHtARDigJD0CVtxPWZ9B6aUU5bL+03Lds8XYIW1nhcQx4Lheex3CWtW8nqiqrqRr+5N7fdfVFAebcPg888ADe+ta3VvVwpXMqHn72JJ44dBbPHj+P2WS2sgW3qgub1qzC9vUDuHLbWlyxdWTRfqVKOnjwIO666y6cOHHCt2V962//IXZecX0V18+87qUywp72suK9K9SNasp6HsuvLi1Wp7zKMAYGCaJAFWHJ2ymEuw0RFa4JY466X5wQQTBwwcELVpPBOWZnkpibS9jbJ5+st2IR44wb+cOzLzzwe8mxg7M+QOANgqrR/fCg3HxsEeup2WCqaR+73/mXH4j2rPnDRgBVVGcshGsuG8ZgXwwMAlwIZLIcBoSt8fcDFGOFgby2qyhsEACELaOFBCAWFoiGJCgSAaodASUE8NjDP8ZXv/y3nvWro6MDDz74IG677baaH7ZEJo9zk/NIZ1XkNB2MAT0dUXTHoxjsjaMjGg7EMNB1HZ/73OfwZ3/2Z57RekXddMe7cOMdd1d5/ZYvoBgDOBgYkyGEPerOHIMk3MewNB/ua1IadOIAk3neusEBbv7mbDaPsYlZaKpeobGqHlBcyz8z+YuvfDg7eybZJLgEva+m90E1w5VXlzt56vBDz/VuvGIuFO25od4Q9JJfXuc4czEBVTUw0BczXX5hc8oOw4A/oJhHKLoljbo1ys82q0fhVmkGkNcENF7op5Ld/Vvk4ltajW7agiMvPo+5GXfAg6Zp+Na3voXdu3dj586dNe03ElIw2NuJtQM92DDUhw1DfRha1YXezlhgA34PHDiAt7/97fjqV78KTdN8y133K2/D69703uXpiq2lf4lJEEw2o/IEWxQDlVtVa1iU2ykmOAfn3Jxo0DAwMTmPyan5RrJC2OGkpv7j4s/v+8P8/Plqo/WCAlS97sOGJddRN1ir65lV00d++lK8f+PBSPfQ6xljDb9yzizkcPpiEpGwjL7uCEIyQ0Rh4LbBvWaOP29QCNsvkSyzYjovlvW7IRjyOsxktAKlyD8CVHv0RW3csh1PPPpwKT+aVYZhlAIObrrppqoCFZqtp59+Gh/4wAfw8Y9/HOPj4xUb7Vvf+pu48Y53Ldv7s9iYI8EYIMtgkApPpDeYWBBgKlhh3DAghIAQAvOJNC5cnAmkr6l4CD07+4+vHPjMp3lmQQsQPM0EVSCqFlBBggmN7mv29FPnlGjngY7VG29mTOps2CVicJyfTGN6Pof+3hiiYQnhEIMiMejcPF1mf8Yd1lI5+q9kUQl7Yw84BvuW3ApmZoqcCujcdAMWgyoIUEunru5edHZ340WPgInifXv00UfxxBNP4MYbb0RfX1/Lz1FVVXz729/GBz/4QXzqU5/CyZMnKz90koQ3vvN3cM0tb1qJrxVmeDiTzY/n1NpwDchvBExmf5ABwU1XXyabx/kL05hfSAeYs1Nkc9OnP3bhsb/+eiEmXbTBB2gBnKoBVNBgCgRQAJA4f3BGyyV+1D2y60omKYGEIKUyGk6cm4eqc/T3RhFWJERDpquunIVCVG7MhePiWcICzfB14QG7wps5B/IGQ04zx2nJEqtguRGgmq0Nm7diZnoS58++7Fvm9OnTuO+++5DNZvGa17wG4XC4qedkGAYOHDiAv/iLv8A999yDr33tazh3bvH0lfGuXtz1gT/GrquX/xTuzPZNMsEkFbqy/dIRsRqsMFZ81fQBEwQMg5vZIACoeQ1j4/OYmFqAbgQ3vEAYxsXEuSd/b+rZ+3/eJmCqxppqOShYEz5SUPsKx/uU7W/6+L2RzoF7vCueWLxGepQPh2Ts3tyHnRt7zazogiOrCuQ1czCuH5jsYejC4u4rBj44ASUsDwUcZQFFAqIKEA2ZlpXTtUhBEv5l6w2SsP6rqnn83V99GkdeemHRmtPd3Y13v/vduPfee7Fr167AHtLTp0/joYceKn3m5mqb/nvbnqvxlt/4MGLxbkdwAGq7Jm0QJMEBMGFG4YlCxS7GOTjvNxyv+xDm9ta2QBQCG6w1vnRs134ZhDAgBAfngKHrmJxJYnYuban/NbTRFYIkuJp5ZPK5Bz6VnTo0j9YGNTQSRLFklkzbAqr42b7/T9/YObz9z8FYPAhAFYt3d4Rw5Y5+bBiKm9FA3MwYkdfMuTiY4wWNWcwQZnmpKFs9dkBJkvtmWAEFmMdgzOynioaAmCIgSyBAtQBQAgJqLo8v/tWf4/jhl6p7WBjD3r17cccdd+D222/Hvn370NPTU9W2U1NTeOmll3DkyBE8+eSTePjhhzE2NlbXwx2Ld+KWN70XV910O8CY43cuI0AxgAupEB5u2Z7716liCLgVbNZztwGK2U/MBiZRiM0VhplDDwI655iZTmJ6LmlmhhBeLUfdgMrnExc+c+HAX/9LG1pNLel3qtfVxtodVGuvevumgT37Pysp4e1BAar4ZVV3BPu2r8LoYBySZIIqrwmomul/ZhafXbmPSrh9pawIBGazoNyAslpWwnUjFNkMV4+EBMISAaqZgIIAcvkc7vvc/8Thg8/V9aANDw9j586d6O/vRywWQzQaBQAkk0nMzs5idnYWL7/8MqanG0+VJCsKXv3aN+KmO96FWEenz+9sd0BZBm0wZs+6IPzrH3NYTdzzfMoPgRCWiXdcwGMQ3AAXZhy5rnNMzSYwM5su5dNzNzH1A0oY+pmFV57849lD/3aU4FRfXxBr4UeCO3frop+O3pHo5tv/6A9Cnf3vY7DMKtYgoIrq64pg37Y+bFwTh8TMhySjcqi6KPQzCVtj7wKUBM+BulYHQzGRrXMclBt25r8hGSaoFIGIzAhQTQCU2dgJ/PBfv4EfffdbbTlxpawo2H3l9Xjd/ruxanDNIr+zvQDFBGAwBsHNdENOh5lluJL7vgK2pK4c/vXO5sYr/k7HCN0SmLjp59MNjunZFKZnkqUp2f2dNHUBSuj5hX+devafP5OdOZ8mONUPqFZDqu7Pxpt//9V9G1/935ksrw0SUEX190Rw+ZZebFrTaWJQADnVQF5z9EEVXXmlVl/4AKroymMlaFQClMTcx2HMpHpIASIhICYLSBIBKihAFbd76YVn8LX7/gaJ+bm2AFNndy+ufu3tuOrGN6Crp6/K37n0gOLcrHicMUAwWz0pmkKlbZyh3aX7ydx1ygNQxanZbeAT9j4oIQBwwxxeIoC8amBqJoGZ+XQpyWsl0NQDKGHo51JjBz859fy/PLMMwdT0t7RGE7q29aejfzS2+daPfCTcueq9ENX+1uoAVVRXTMHuzT3YuaEbiswguDm2KaeZYyKsOfq8AcVLSSWdaZS8AFWeIkSUIjP8I+/MvqqIYn5CsoDMCFCNAkoAyOdy+MkPvoOH//17UNV8y6EUiXZgx95XY/dV12PbrisgKUqN12RpACWEVLBwJDcsnIEK3L3fcs1hrv4leAKK2fyCnucreCHwgQNgSOdUTE2nMLeQLXd0VWEJ1QgooWcXvjP17D99Jjt7IU1wChZQywZSANiW2+69vnvtZR9ncmg0aEAVC0XDMnZv7sHuDd2IRWQIMKiqgbxhho+7AWU+JV6h496AYnaIQAASc02G5gqYKAZxFCypkASEFIGIbFpZjABVF6CKZebnZvDjBx/AL5/4T2Qz6eY9qIxheN1GbNy+G1t37MXmnXuhhEJl0ABtCCgGXgoVYmZiIEeAgqvmlgIUnFF8wtJvVACTy31nBVTRIrMckNsfZzPrg4AQHBACc4kcJqdTSGfyXn64wAAlDPVYeuz5/zH53APPobkZIJY1nBoFVLtDynZ+oXhvaOsbP/Zb0Z41H2JgkaABVeoHkBg2DsWxY2MX1g/EwJiZ3iinceg6IAqRf8Wgcq9cfFZASZZuX3tIujvMHFYXnqOfSjD3oDaJCYRkICyb1lVYARRGgKoFUMV/NU3FwWd+jqcf+ymOHnoevMHxMIwxrFm/CZu278amV+3Bxq27EIt3epxDewDKbP8ZeCHMjjOL7S+4q2xpv6zsorO68srHcoaAl89NeAGK2fumbAZQYX+CC7OnSgCaZmBqPo3pmZQ5RYrwf7YbBpTgSTU59qXzT/zD/dDSRh1AuKTgFASg0I4wqvQZ3nfnhqE9t/+pHI5f3wxAWf/s74lg16ZuvGp9HCHZnCgxX5iBVxioCCjJ5hosOEUk6xBF4bCwRNFAs5QtRzaBeadeKgVTFFYozARVSCr8K5sgI0BVBpT1d2pqHufOnsLZUyfwyukTmBy/iEwqiUw6hVy2nLw1EokiEo0hEothVf8whtaux+CadRgcGcXQmnUIxzqq+J1LBSgGw+K2K70eORprrz4oZw+tLQBCWEIdRNm0F5Z74PU7y7Gu3BYmLopzMqFgLRVy5SVTOUzNpjC/kAWvyKNAACWMfPKHM4e+/9nUhRdmmgCLFQmnoACFdgTRYp9td/y3N3YObf0Ik5SRZgGq+DUakrF9NI5do93o7zWnTzAMgbwG5DkHuMVVJzFLMIPD/WZLmyTs/VmFp1WymT/OKD5vq8g5uNi5i5BsugRlGVAk0+oCAarC7xS+ZQ3DQD6bRaQjbnfOOjvrq4ZOKwDFzJGYhdBrLlAOanA+CcLdD2QFFBPM9z7bzsuRyMEzJN0KJmGBodXdxwUgODiAfF7H9Fwa03MZqJbs4qKJgOJ6/rnkxec/O/PCvx5sMWCw3OEUJKDQzjDy21eoYyC89fb/cnesd92HwKSuZgHKqlVdYewYjWP3hq5CX1VhPJUOGLwYWs7Lefvgnm4D1ilBhDsVUvm7F6CEI0jCG1ClvBbC6eIrrJcYQhIgMwFFBmTGzcHDBKiKgPIb89MugDIAoBDIIAQDZ4DgzAYbWH8Dc/T/OEPBy748V0Seuwwsr2bCFrnnuiblyZhsU14wCDPYoTC+yeAC8ws5TM6mkEjmUSHXTKCAEoZ+Jjv38t+OP/lPDwEaR/tZRGh3OAUNKCwxhOreb9+ma/rWXvPuD4Xjq+8ChNJMQBWXyhLDpuEO7BjtxMbhmJmY1jAjADW90AHsgoolmq8QIWhJO+saqGvLYsGc0YDegJIcwRVla8veoJV9/fbfqBSgJUkCMmNQpMKcWEIQoNoAUMXgAi7KkXBmIIMouepsYd3M/ZvgaN2sJHHXCVa2oJypgyxuQGaxyITlurv3a09HVCrGeWEZB+cCC8k8puYymF/IwuCiInACBRTXp/ML5780+fN//K6mZfSAALSU/U9LqmYlgm02gIIAnWubkSvfsal/x+t+X4l23y7MIUVNA5RVYUXC1pEO7FjfifWDUUgMMLjZV6UZzIwyKkJHlIMkbBksfABlB5E/oIqzazHhrBTCZkHZGie/JM+iOIxFWPoITHgxADIz+7UkWZTHdBGgAgWUaf2Ywx4KtQcGL07cBzs0So2rOwuo9bq5xiZ5Qau4P2bJScSd46CEu+9I2BO6uQFlH2ALjkIEngFm8glzySxm5rOYW8iakwaKKp7VgAAlBJ9TkxNfnXjum9/QEheyTQYPLgU4NQtQreiXaqa1hpFr3rV19dabfl+Jdt0GAanZgLIuikVkbFvbgVeti2PdQASyxKDp5pQcmlEOrWWOuT1dMJLcZTwBxbwvkO0dmAkU4zN83XbujgjbW7RvSLDFUpQYIEtmlKPEyqHxjJnjtwhQBWuHC9MJLBg4eCkxFueFKDq4z92aGdLmUnPknSt5di19iq4kqh7XxOp8tgIPtj4oa349BnjkyXMDipVdy4X5loonrXOBhWQO0/NZzM4XoLQoW4IFlODGrJYY/+fp5779rWzyQqZBoADt0+eElQ4oYGn7otBouTXXvHPr6s03vj8U69kPVAJVcICyKhqWsGEwii0jMWxb24FISIJmAJoOaIaAzt2Akiy/qBKgJAtxXOOgYO/LqibM3Gox2SK1hPsJcgOKeQdZOCuTsEY9CtPqK8KMlU03CdZr0L6AKgYb8NJ3YSZD5SiPHypYQKYFwQoNdMFCcbwM2M7ZIyjBlnJaCHt/EHO76oTLlub+YeaMeQPPbMVtaZMrQttlphuFXZhrNYNjLpHD3HwO0wsZGIao+rEMElCC81k1OfG1iee+/g0tMZGtARRoIXSwnOHUCkABreuTQoBlbevXXf2u7b1bb/jtUKznjQCUVgHKKlkGNg6ZoNo6HEVnTIYBQNVNYOmGsE9T7wMoV2aLUqSgO9y9mnFQrJg3zfHG7cyd5gkoZs+DVhlQzB6d5QMdW0NpcyV57LQEsHL6a2GJJmOWLNfOxlgIYbNWylaHBGFpkMuuqaLrzX0dhNV/VvhNrvKWBKc275cNUP6uM3ufkdPKFe4QcJuHTbhg7bSEPAMgLCcvmPt84JvIlZtkLtSpTE7D7HwOM/M5JNJ5F4hbCShhaGfyC2Nfm3zm/h9o2Zn8IhBAwBAJwkrCcoFTqwCFJgVIIOCyWGzd6i3XDwzte/M7w11Dv8ZKUX+tAZTzYeyNK9i6NobtazqwfjACRWLQOKDpApoB6MKZLLYQvi6sfVRFp9FiExa6AVVspG2NUXFKB+FugKyLyj1owlbWM4mo53gZ7k6BY2u4hcfYGlECKodXZ729TwfwtrZsy5zwsLgsF4OuNXmpBTG2waWuXHJe5yMs2wl/15nTUrRu52Vt2edJclqTzH4tuF8CV7t1zF3nbnlJEgAHB+Om624ukcPMQhZzC3nk8npVz0QzAcX13Av52TP3X3zmGw9Dyxh1NP5AcyLrgozow6UKKLQYSIFByevTNbK3e+01d98d7R58N5OV/qUAlHW7cEjCxsEItqyJYuNQFP3dIXPAKOfQDAmaDhjCmSxW2Cyo0vipxVIdWeMGrbDibhedE1BlMHl0wAt49Hk4OuWF8Lga9hBor+SiRWj4uvis//e6lYsFbbjS8FRjFTJ7xgNnvxA8UgDBHQVZ2saSAshV1nVs4WttWe+LACrDWvhHZdozP9iDJFjpPplORy4EEkkVs4kcZhfySGbyruk1lghQmpFfeDh18YWvTb/4/cMBA6mdgNW2Ykt0zHYEUs3ACnX0h0dvfN/N8YGNd8nhjmvgji9oCaCcikclbBiMYP1ABKMDEYz0hcEFoHEB3Rls4cow4QOoQgihcHaIC/+BuvCztnwAZXfPWd/OhctSsV9q4fMmj8JkdxVcSo4rawcUc4czwyM/nCMNTyVAlS094UrZY4ckcxwLbhA7qoHrd1rPmznvkXlPKw229g2ScNZv6/lYXZrFO1UMAYcJJy44khkdMws5zC3ksZDKF0LBRQ2gaR6ghDAm9czcv8+ffPRbibNPjVcJgWbDqlkh6iBANcflBzShv6nKda7la6+6e3vvlte8K9zRux9gHUsJKOeK7piMDUMRbBiIYHQgjKHeMMBQgJUZbKHz8sBHu7uPAYzbXXzM3cfkCSgPa8sLUMwxIZ1/wlDb+Ey4ghEcb/28gkVXmuCOuYMkbA23EO55iJz54TyCJODRT2Nt5LnDlWcFr/B4wXG7zuwgsYGO+5yv7XyE536F4z5Xuh/27cplTazzgjtZQNUMzCdVLKTymE+omE+r5lxL1ZOoBYASnOczj2dmTj8w8fz9T0DTjCoa+nqh1C7AAgEqWJdfW0HJa1nXyKs6R666+82R7pE75VBkRzsAyrk0rEhYtzqMDQNhrO8PY3QwjHhEhmoIGIX+K91g5rw45mtvMbWtfye/KyzZPxOAtY31zsfmHtTLmDuyzmXVCPcT6waU8Dy2gANM3HEseCcurQgoa9ykEGV2cL8oSLcVJyq4Hl0z0HL7xXUDhbn7oDysSmadHr5iAlcUspmURsuCc4FkRsdcMo+FpIr5VB6ZnG63UGojSlMBJbh+UcvM/Nv8y49/P3H6ibEqIbDcYbVsxNrkHNoRSFVDyW/ZmivftqVv42veHOrqfwtj8qp2AZTXqq6YhLWrw1i3OoR1q01odYTNsHYDgGGYg4Z1bk9bYwUUHG5AP0AxS2CAvRF0Z6uAX3oej6A8IbxfEYWt9fXu87JERDvO197PA1/rxhrZ6DG2ibtB4C7rOF9faLnBbtufA/D2hKv2m+PV31U8X/exjRJIWWGaimRWRyKpYSGtYiGlIZFWLZkbvOv5kgNKiLyhph7LTp34zvgz334a0Kpp8Gtx7TULVkEACwSo+iEVZB9Vs6Hktdxz21DH6vDo9b/1utjAxjuVcOe1YB6h6ksMKK+Fq7vkErSGe0MY7lPQ26HAEGY/lmYAhpCgcYBz/2SxTpeRu99KeLq1sEgj7/JVeAJKWBpux36t5yO8zt3MlWAd5FoJULCBt+DK8+n/8g/a8L4W3Cd4o7K1xVzuVFd4umPKC1EYF2detPIJaqqORFZDMq0hkdEwn1SRTOtlK7sGT8HSAEpwQ8v+Mr9w/odzB3/wSDZ5MVMliBq1oNoBVssOTO0GqKCsKWAJ3HrVggoA692wt69/z5tui/WsuV0Od1yBKlMqLQWgvFZHQgxDvSEM94Uw1KtguFfBQE8IXVEJmgAMg0HnZtSgbpgpaDiT7HAovZ1zXwvB2pp5Rqc5+11cgBJua80nZBs+WSfKY7xQEVD2wADz/9yx37LbDR5TS7j78IqWFfeAvTtUWzhA7RFA4rAwwc3sIKY1xEtWkapxpPIaFlIakhkdybSGhYwOVdXryAK05IDiXM0+r6anfjJ38tFH0hdtU100E0zA0rj6sJLg1I6AApYwKi8It14tf/du2Ns7sOtXb42uGnmTrHRcXul+tAug7H+WFyoSw+puBYM9ClZ1yljVFUJfXMZQbwixCIMuJHAD0AUD52ZgBi8MdmUu95zdPHIGMHAfN6JzgjtXGLnwG0vkH7RRTVof66BX7hF0wODTV+ZVlvnMfeTK4sNsJpRtukpLniFrpSu7SDkyOR2JjI5EWkMqqyOT05HOGkjn9OprYHsCinMt+6KWmnx44dRjDyXOPzdZB4xWAqyWNZjaGVCoEyzLAkp+f/fvvGVk9ebX3hzuHrhZCseuZKX0rcsDUJW26YhI6InL6ItL6Ikr6OtU0BuX0RuX0RMPIaSYVlcxrY9umO2uIZhpgRUuFK+Qi69kbTndiJbOLOETLl6yXqzRdpUAxZitT6zICQFnhm6P0HSr1eORScIv8MEaps4K7jeJMXDBIcGeqkjXONI53fxkDaRzRunvTM5AXuOoNHZv+QFKqFzN/lJNTR1InH7sQOL8c1NVwqbVYGqWuw8rEU7tDii0CZRqcuFV+XfFdb1r9/b27779tdG+kZvlSNe1jLHocgZUpWMIACGZobtDRmdMRneHhM6IjO4OGfGohO6YgliEIRZREAlJhUSpBdchGDjnxVwYJuBKee6cGSi85iryirbzB5R1DFPJZeaR0ol5hW3Dvr/iQgYGYYvh56W5uAQTBcgJCM6gGxw51UAubyBd/DdnIKeaQMqrHJmc4UqaKqq/ocsGUEIYC3ou+YQ6f/7A7LH/92Ru/ny6RgC1yqpaCliBALW01lSQfU2NACzIvz2/x7rWRoauftu10dXrrw9He65jcmjtSgOU/0LhqgSxiIx4hCEaltERkRALS4hGJERCEiIKQ1gxM2uEFYawIiESlqAoMmQIhGQJghV6vjiz5bsr582zBxrwgmvQmhjIPVbK0ogX+o+4sCcEEoJB07gZYKIbyGsCeY1D07k5B5jGoRocqiaQ10z45DWOnMqR1zjyKl8sr3YlJqwEQHGu549p2fmf56bPPDV5+PvPQ8saFaBTL5zqAdFSufuwkuG0nADViNsvaLdeU62nxb4P7nnjaM+Gq64Pdw5cJ0c6r2Jg0UsFUBUPVeU2jAERRQJj5ngwiQmEFKm0LhxyPxISY1Bkc7mu81IYtfWQeU2UfHq5QtSy6UpjyGtGjc2H99inqi72CgKUMPQpQ009rSbGn5w/eeAX6cmjc/D2mtYLoFZZUc2G1YoVW6bnvGz7moKAVPG70jUYXrv3ziuiq0evDnX0XSUr0V1gTCFA1dKmC9S0ZRXUELW1ygSosttu3sinntezc8+kxo89M3f0P07VAJhGvtdqVbUTrFa02DI/96WGUjNAxBz3ptptEesbiQ3u3r83tmrDXrmje68S7rgCYCECFAGqHQEluDHPtcwhLbvwfGbyxC9mjv/oGDSNVwmWZsFpqa2oamF1SYitkN/QTgEQTbGWKoHJb1m0f2N86FW3XhZZtf6ycKz3MinSsQdM6iJAEaCWAFCc6/kzRj79opqeeik7eeLF2eMHzgIarwFAQYOq2S6/Rq0lXEruvJUKKGB5BUAEDaOqYAUACIXkoZ1v2NQ5tOuycPfA5XIkvpvJ4Q1mSDsBigAVHKAK1tERPZc4lJu/8OLCmZ8dys28kvKBS9BQqgdIQYKrWYEUl5zYCvw9yyEAorVgqrAu2ruuo3/HLdujvWt3huJ9O+RQxyYpFNnidA0SoAhQfrdTCCPJdfVlrqaOqamZo5mZk0fnjj76MqDzGiHUSutpqayqepZdsmIr+HctVQBEM9x49cCqmnWe/0Z718X6d7xue6R37bZQrG+rHI5vluTwFibJnQSoSxlQQuN6/mVDzZ3h+dSpfHLiVPriwWPJCy9MVwGbemAUpPUUNJwITASoZQWqZkMqiGUN/du76Yah7pGdm8PdQ1vkWPdmJRTdxOTweiu4CFDLH1ACIif0/Hmu5V/R88nTenrm5ezUyVOzZ39xHnpp7FGjQGo3UC11ODoudXfepQioekDVDpAKGlbN+Lf0vXvdZau6RvaMhruGR0MdPaNyJL5ekqOjkhxeC8bCBKi2BJTGdXWc6/lzQs28oueT5/KJ6XOZ6ePnkudemDRnBYOoAKNmAapWUDXb5VcLfAhMBKi2AFU9IKoXRs0Eky90agFUpXVdo1f2dw1sG450DqyRY93DciQ+IimRYUkJDzM5vAaMRQhQTQCUEHnBtXGu5yd0TR0XWmZczyXG1dT0WHb21Fhy7KUZ6Lrhc9qizmWtAtVK65siEaCqAlU7ufQCCYKoE2L1lllsmet7fHBbZ2xg80C0c2hAjvf0K5HufikU7ZflyABTlFUSC/UxWe4Dk+IEKADCSHPO5wTX54Wen+G6OsX13LSRS03r+YVpNTE1k5t7eSo9eTK5CHyq+d4OgGoHUDULTiQCVM2gWmpIVbs+KGg1bCU1AqgKddH2txLtDccGN3fHuod7lY5VPaFIZ58UjvfIoWgPU5QOQOlkSqhTkqQ4mBwHkzokSekAk+JMkrraCFBccCMNwVNc8DSEkRGGkQE30kLoaa7rKWGoaa7nE7qanjNyiXktO5dQFybms7OnE3oupXscopa/lwJQjbjzgoZSo0AKAlwkAlRd12E5hY83E0xLAaiagFXjMgCKFB/Y0ClkWYp2DsYhSVIo1huHYJIU6SpZZ0xRwrIUduc3lENhJjgX3HBNmMS1TJrzwsQYTAg9m0wBXKi5hSQMLvTURAqGIdKzZ1JVM81/eTXLRAOwagRajVpZrQyiWAqrikSACsyqarUbr53AtAIBVVd9r+f5EAGVr3Z5vdZTOwKqURgFYT0FDScSAapl7r9LBUxBwygoKC0FpCpt32gDJGpcV6v11Ih7rxFANQqmIK2moKFVyzYkAlRbuf9a5d5rFZha0d/UDEA1G1KNStS5XlRRrhH3XrsCqhWg8itbz7YkAtSysqqCsqJaDaZWA6qVkFqq+h8UnGq1nlYCoFoNKrKWCFArwqoK0oqqF1q1liVAtf4ZaCacagFSEFBaSkAFAaogoEUiQC1Lq6qdwbRkY56qhE7Q/U6sDZ4F0WCZoK2nlQKooEFVbVkSAWrFWFVBw6pRIDUDUI3AKigrKghIBf1MiADKNTtYol4oNQqoIOBTK4wagRaJALXiYdVOYFpKQDUKrFqtqHrr+lKGmVda1+7RfEECqh5gBbmMRIAiWC0BmIIc89To98XWBWFFBVXnWxVm3izraakBVS+YWgkqEgHqkr3eS5W2aDkBqhErqhWQCkIrOZqvFYAKGlQkAhSpCsuq1WBaKkDVCqyVBKnlGs3XjoBqBFQkAhSpRli1Gky1AiooWDXbiqq2frdTmHmtcArSelrugKoWVCQCFClgWNULsXYDVKPAWq6QWg7RfK3K09dsQDlBRSJAkVoErKWM1GtGxF49QGp2aqOlCDOvB07VwChIi6mZVlXQ/5IIUKQ2t65aASi/9Y1AqV3y79X7bIiAt2n3YIlmAIqsJBIB6hIEVjMBVc/3VgIqqPoeZJh5M+FUC5DaBVBkJZEIUJcwsNoBULUCqx0hFZTaJdR8OQCKRIAirXBgtSOg6rWiGoHUUtf9oKP5WpH6qBYABQEoEokARdBqy4SwKyV6rxVwqgZG9QKpVYAikQhQpEXrQDvl22tl/r1WPAftGmpeq8UUlIVFIhGgSIFBqxpA1QuvRgAVFKSa8TwsReLYdkgkSzAiEaBIbQeuIC2qpYJUEM/Gcg01JxCRCFCkSxJczbaimgGpSvsKqmFeyrx8i8GGQEQiQJEuSXi12opqxzovGljfCkCRSAQoEtW/GqG1EiDVDnAikQhQJFILQFZPvW7XMPNK5USD+yWRCFAk0jKq28slzJxEIpFIJBKJRCKRSCQSiUQikUgkEolEIpFIJBKJRCKRSCQSiUQikUgkEolEIpFIJBKJRCKRSCQSiUQikUgkEolEIpFIJBKJRCKRSCQSiUQikUgkEolEIpFIJBKJRCKRSCQSiUQikUgkEolEIpFIJBKJRCKRSCQSiUQikUgkEolEIpFIJBKJRCKRSCQSiUQikUgkEolEIpFIJBKJRCKRSCQSiUQikUgkEolEIpFIJBKJRCKRSCQSiUQikUgkEolEIpFIJBKJRCKRSCQSiUQikUgkEolEIpFIJBKJRCKRSCQSiUQikUgkEolEIpFIJBKJRCKRSCQSiUQikUgkEolEIpFIJBKJRCKRSCQSiUQikUgkEolEIpFIJBKJRCKRSCQSiUQikUgkEolEIpFIJBKJRCKRSCQSiUQikUgkEolEIpFIJBKJRCIFoP8PdWwN+HPawdEAAAAldEVYdGRhdGU6Y3JlYXRlADIwMjItMDgtMTVUMjA6NTI6NDgrMDA6MDD1+1ztAAAAJXRFWHRkYXRlOm1vZGlmeQAyMDIyLTA4LTE1VDIwOjUyOjQ4KzAwOjAwhKbkUQAAAABJRU5ErkJggg==;" parent="1" vertex="1">
          <mxGeometry x="328.2" y="460" width="63.6" height="90" as="geometry" />
        </mxCell>
        <mxCell id="8Ngx9_ojINHOA52o8Yng-2" value="" style="group" parent="1" vertex="1" connectable="0">
          <mxGeometry x="160" y="300" width="100" height="100" as="geometry" />
        </mxCell>
        <mxCell id="8Ngx9_ojINHOA52o8Yng-1" value="" style="shape=image;verticalLabelPosition=bottom;labelBackgroundColor=default;verticalAlign=top;aspect=fixed;imageAspect=0;image=data:image/svg+xml,PHN2ZyB4bWxucz0iaHR0cDovL3d3dy53My5vcmcvMjAwMC9zdmciIHZlcnNpb249IjEuMSIgdmlld0JveD0iMCAwIDEwMCAxMDAiIGRhdGEtbmFtZT0iTGF5ZXIgOCIgaWQ9IkxheWVyXzgiPiYjeGE7ICA8bWV0YWRhdGEgaWQ9Im1ldGFkYXRhNDkiPiYjeGE7ICAgICYjeGE7ICAgICAgJiN4YTsgICAgICAgIGltYWdlL3N2Zyt4bWwmI3hhOyAgICAgICAgJiN4YTsgICAgICAgIGdldHRpbmctc3RhcnRlZCYjeGE7ICAgICAgJiN4YTsgICAgJiN4YTsgIDwvbWV0YWRhdGE+JiN4YTsgIDxkZWZzIGlkPSJkZWZzNDciLz4mI3hhOyAgJiN4YTsgIDx0aXRsZSBpZD0idGl0bGUyIj5nZXR0aW5nLXN0YXJ0ZWQ8L3RpdGxlPiYjeGE7ICA8cmVjdCBpZD0icmVjdDYiIGZpbGw9Im5vbmUiIHRyYW5zZm9ybT0idHJhbnNsYXRlKDEwMCAxMDApIHJvdGF0ZSgxODApIiBoZWlnaHQ9IjEwMCIgd2lkdGg9IjEwMCIvPiYjeGE7ICA8cG9seWdvbiBzdHlsZT0iZmlsbDojMjBjMmVmO3N0cm9rZTojMzk0ZDU0O3N0cm9rZS13aWR0aDozO3N0cm9rZS1saW5lam9pbjpyb3VuZCIgdHJhbnNmb3JtPSJtYXRyaXgoMS44MTc2ODY3LDAsMCwxLjkyNDQyMSwtNDEuMDk2MiwtNDMuODUwMDkxKSIgaWQ9InBvbHlnb244IiBwb2ludHM9IjcyLjUsNjEuMjAyIDUwLDczLjA2NyAyNy41LDYxLjIwMiAyNy41LDM1LjI3MyA1MCwyNS4wMTIgNzIuNSwzNS4yNzMiLz4mI3hhOyAgPHBvbHlnb24gc3R5bGU9ImZpbGw6IzIwYzJlZjtzdHJva2U6IzM5NGQ1NDtzdHJva2UtbGluZWpvaW46cm91bmQiIHRyYW5zZm9ybT0ibWF0cml4KDEuODE3Njg2NywwLDAsMS45MjQ0MjEsLTQxLjA5NjIsLTQzLjg1MDA5MSkiIGlkPSJwb2x5Z29uMTAiIHBvaW50cz0iNTAsNDYuNTIzIDUwLDczLjA2NyA3Mi41LDYxLjIwMiA3Mi41LDM1LjI3MyIvPiYjeGE7ICA8cG9seWdvbiBzdHlsZT0iZmlsbDojMjBjMmVmO3N0cm9rZTojMzk0ZDU0O3N0cm9rZS1saW5lam9pbjpyb3VuZCIgdHJhbnNmb3JtPSJtYXRyaXgoMS44MTc2ODY3LDAsMCwxLjkyNDQyMSwtNDEuMDk2MiwtNDMuODUwMDkxKSIgaWQ9InBvbHlnb24xMiIgcG9pbnRzPSI1MCwyNS4wMTIgMjcuNSwzNS4yNzMgNTAsNDYuNTIzIDcyLjUsMzUuMjczIi8+JiN4YTsgIDxwb2x5Z29uIHN0eWxlPSJvcGFjaXR5OjAuMztmaWxsOiNmZmZmZmYiIHRyYW5zZm9ybT0ibWF0cml4KDEuODE3Njg2NywwLDAsMS45MjQ0MjEsLTQxLjA5NjIsLTQzLjg1MDA5MSkiIGlkPSJwb2x5Z29uMTQiIHBvaW50cz0iMjguNjY1LDM1LjMxIDUwLDI1LjU2MyA3MS4zMzgsMzUuMjkyIDcwLjQyMywzNS43NTQgNTAsMjYuNDQgMjkuNjAxLDM1Ljc0MyIvPiYjeGE7ICA8cG9seWdvbiBzdHlsZT0ib3BhY2l0eTowLjM7ZmlsbDojZmZmZmZmIiB0cmFuc2Zvcm09Im1hdHJpeCgxLjgxNzY4NjcsMCwwLDEuOTI0NDIxLC00MS4wOTYyLC00My44NTAwOTEpIiBpZD0icG9seWdvbjE2IiBwb2ludHM9IjUwLjUsNDcuNzE3IDUwLjQ5LDQ2Ljg0MyA3MS45OTYsMzYuMDkgNzEuOTk2LDM2Ljk2OSIvPiYjeGE7ICA8cG9seWdvbiBzdHlsZT0iZmlsbDojMGVhY2QxO3N0cm9rZTojMzk0ZDU0O3N0cm9rZS1saW5lam9pbjpyb3VuZCIgdHJhbnNmb3JtPSJtYXRyaXgoMS44MTc2ODY3LDAsMCwxLjkyNDQyMSwtNDEuMDk2MiwtNDMuODUwMDkxKSIgaWQ9InBvbHlnb24xOCIgcG9pbnRzPSI1MCw0Ni41MjMgNTAsNzMuMDY3IDI3LjUsNjEuMjAyIDI3LjUsMzUuMjczIi8+JiN4YTsgIDxwb2x5Z29uIHN0eWxlPSJmaWxsOiMwZWFjZDE7c3Ryb2tlOiMzOTRkNTQ7c3Ryb2tlLXdpZHRoOjAuNTtzdHJva2UtbGluZWpvaW46cm91bmQiIHRyYW5zZm9ybT0ibWF0cml4KDEuODE3Njg2NywwLDAsMS45MjQ0MjEsLTQxLjA5NjIsLTQzLjg1MDA5MSkiIGlkPSJwb2x5Z29uMjAiIHBvaW50cz0iNjguNDMyLDQxLjIwMyA2NS43ODEsNDIuNjA0IDY1Ljc4MSw2MS40NjYgNjguNDMyLDYwLjA2OCIvPiYjeGE7ICA8cG9seWdvbiBzdHlsZT0iZmlsbDojMGVhY2QxO3N0cm9rZTojMzk0ZDU0O3N0cm9rZS13aWR0aDowLjU7c3Ryb2tlLWxpbmVqb2luOnJvdW5kIiB0cmFuc2Zvcm09Im1hdHJpeCgxLjgxNzY4NjcsMCwwLDEuOTI0NDIxLC00MS4wOTYyLC00My44NTAwOTEpIiBpZD0icG9seWdvbjIyIiBwb2ludHM9IjYzLjA3Niw0My45NCA2MC40MjUsNDUuMzQxIDYwLjQyNSw2NC4yMDMgNjMuMDc2LDYyLjgwNSIvPiYjeGE7ICA8cG9seWdvbiBzdHlsZT0iZmlsbDojMGVhY2QxO3N0cm9rZTojMzk0ZDU0O3N0cm9rZS13aWR0aDowLjU7c3Ryb2tlLWxpbmVqb2luOnJvdW5kIiB0cmFuc2Zvcm09Im1hdHJpeCgxLjgxNzY4NjcsMCwwLDEuOTI0NDIxLC00MS4wOTYyLC00My44NTAwOTEpIiBpZD0icG9seWdvbjI0IiBwb2ludHM9IjU3LjcyMSw0Ni45MDMgNTUuMDY5LDQ4LjMwNCA1NS4wNjksNjcuMTY2IDU3LjcyMSw2NS43NjgiLz4mI3hhOyAgPHBvbHlnb24gc3R5bGU9Im9wYWNpdHk6MC4xMjAwMDAwMiIgdHJhbnNmb3JtPSJtYXRyaXgoMS44MTc2ODY3LDAsMCwxLjkyNDQyMSwtNDEuMDk2MiwtNDMuODUwMDkxKSIgaWQ9InBvbHlnb24yNiIgcG9pbnRzPSI2Ny40NSw2MC4zMDYgNjcuNDQ4LDQyLjg1NiA2Ny40NDgsNDIuODU2IDY2LjAzNSw0My41MjEgNjYuMDM1LDQyLjc1MyA2OC4xODIsNDEuNjI5IDY4LjE4Miw1OS45MTgiLz4mI3hhOyAgPHBvbHlnb24gc3R5bGU9Im9wYWNpdHk6MC4xMjAwMDAwMiIgdHJhbnNmb3JtPSJtYXRyaXgoMS44MTc2ODY3LDAsMCwxLjkyNDQyMSwtNDEuMDk2MiwtNDMuODUwMDkxKSIgaWQ9InBvbHlnb24yOCIgcG9pbnRzPSI2Mi4xMjEsNjMuMDE4IDYyLjExOSw0NS41OSA2Mi4xMTksNDUuNTkgNjAuNjcxLDQ2LjI3MSA2MC42NzEsNDUuNDk0IDYyLjgyOSw0NC4zNDcgNjIuODI5LDYyLjY1OSIvPiYjeGE7ICA8cG9seWdvbiBzdHlsZT0ib3BhY2l0eTowLjEyMDAwMDAyIiB0cmFuc2Zvcm09Im1hdHJpeCgxLjgxNzY4NjcsMCwwLDEuOTI0NDIxLC00MS4wOTYyLC00My44NTAwOTEpIiBpZD0icG9seWdvbjMwIiBwb2ludHM9IjU2Ljc2NSw2NS45OCA1Ni43NjMsNDguNTU4IDU2Ljc2Myw0OC41NTkgNTUuMzE4LDQ5LjIzOSA1NS4zMTgsNDguNDU5IDU3LjQ3MSw0Ny4zMTIgNTcuNDcxLDY1LjYxOCIvPiYjeGE7ICA8cG9seWdvbiBzdHlsZT0ib3BhY2l0eTowLjA1IiB0cmFuc2Zvcm09Im1hdHJpeCgxLjgxNzY4NjcsMCwwLDEuOTI0NDIxLC00MS4wOTYyLC00My44NTAwOTEpIiBpZD0icG9seWdvbjMyIiBwb2ludHM9IjQ5LjUxNiw0Ny43MTcgMzEuOTg0LDYzIDI4LDYwLjkwNiAyOCwzNi4wOTQgNDkuNTE2LDQ2Ljg1OSIvPiYjeGE7PC9zdmc+;imageBackground=none;imageBorder=none;" parent="8Ngx9_ojINHOA52o8Yng-2" vertex="1">
          <mxGeometry width="100" height="100" as="geometry" />
        </mxCell>
        <mxCell id="T3HEAIqgR0DYX0BthUk1-9" value="" style="shape=image;verticalLabelPosition=bottom;verticalAlign=top;imageAspect=0;aspect=fixed;image=data:image/svg+xml,PHN2ZyB4bWxucz0iaHR0cDovL3d3dy53My5vcmcvMjAwMC9zdmciIHZpZXdCb3g9IjAgMCA1MC4wNzkgNTAiPjxwYXRoIGZpbGw9IiNmZWQxNDIiIGQ9Ik0yMy45NiA0OS45OGMtNi4xLS4yMi05Ljg2LTIuMDMtMTAuODItNS4ybC0uMS0uMzUtLjAzLTYuMmMwLTcuMDcgMC03LjIuMzgtOC4zNC43LTIuMDcgMi4zLTMuNCA0Ljg2LTMuOTdsLjU2LS4xMyA3LS4wM2M1LS4wMiA3LjA4LS4wNSA3LjMyLS4xYTYuODMgNi44MyAwIDAwMy4xOC0xLjI0IDYuNjggNi42OCAwIDAwMi4yNy0zLjUzYy4yOC0xLjA3LjI3LS45NS4zLTQuNzJsLjAzLTMuNWg1LjA0bC41LjE0YzIuNi43MyA0LjUgMy4yMiA1LjMyIDYuOTYuMzIgMS40NC4zMiAxLjUuMzIgNS4xNyAwIDMuNTggMCAzLjYtLjI1IDQuNzhhMTIuMzUgMTIuMzUgMCAwMS0xLjA1IDMuMDYgNy4zMiA3LjMyIDAgMDEtNC4yIDMuODdjLTEuMDMuMzUtLjE3LjMyLTEwLjMyLjM1bC05LjE1LjAydjEuNjZsNi4wOC4wMiA2LjA2LjAzLjAzIDIuOThjMCAxLjY0IDAgMy4xMy0uMDIgMy4zYTMuNjUgMy42NSAwIDAxLS40NyAxLjM0IDYuNTggNi41OCAwIDAxLTEuNiAxLjZjLTEuNjIgMS4wOC00LjEgMS43My03LjM4IDEuOTUtMS4xLjA4LTIuNjYuMS0zLjg0LjA2em04LjQtMy44N2EyLjE4IDIuMTggMCAxMC0yLjUtMS44QTIuMjQgMi4yNCAwIDAwMzIgNDYuMTdhMy4xNiAzLjE2IDAgMDAuNC0uMDR6TTYuMzIgMzcuM0E2LjM0IDYuMzQgMCAwMTIuNjMgMzVDLjgzIDMyLjc1LS4xIDI5IC4wMyAyNC4zYTE2LjU1IDE2LjU1IDAgMDExLjQtNi45NSA3LjE4IDcuMTggMCAwMTUuMTctNC4yN2MuNS0uMS41Mi0uMSA5LjQ2LS4xIDQuOTMgMCA5IDAgOS4wNC0uMDMuMDctLjAyLjA4LS4xMy4wOC0uODV2LS44NHMtMi43NS0uMDItNi4xLS4wNGwtNi4wNS0uMDJMMTMgOC4wNmMwLTMuNDUgMC0zLjQuMy00LjA0IDEtMi4yIDQuMDQtMy41NCA4Ljg4LTMuOTIuMzUtLjA0IDEuMy0uMDggMi4xLS4xIDUuMzUtLjEgOS4yOC44OCAxMS4zNCAyLjg0YTcuNDMgNy40MyAwIDAxLjY3LjcgNi4yMyA2LjIzIDAgMDEuODIgMS43bC4xMi40djYuNWMwIDYuMDggMCA2LjU0LS4xIDYuOTdhOC4wNCA4LjA0IDAgMDEtLjU3IDEuNzggNi4wMyA2LjAzIDAgMDEtMy45IDMuMDNjLTEuMTcuMzQtLjY0LjMyLTguNC4zNS03LjcuMDMtNy4yMy4wMi04LjMuMzJhNi4xNyA2LjE3IDAgMDAtNC4yNyA0LjUyYy0uMjggMS4wMi0uMjcuOTMtLjMgNC43bC0uMDMgMy41M0g5LjAyYTIzLjI2IDIzLjI2IDAgMDEtMi43LS4wNHpNMTkuMTQgOC4wMmEyLjE4IDIuMTggMCAwMC0uMjUtNC4wOCAyLjIgMi4yIDAgMDAtMS4zNSA0LjE2IDEuOCAxLjggMCAwMC43Ny4xIDEuNTcgMS41NyAwIDAwLjgzLS4xOHoiLz48cGF0aCBmaWxsPSIjMzU3MWEzIiBkPSJNNi4zIDM3LjNBNi4zNCA2LjM0IDAgMDEyLjYzIDM1Qy44MyAzMi43NS0uMSAyOSAuMDMgMjQuM2ExNi41NSAxNi41NSAwIDAxMS40LTYuOTUgNy4xOCA3LjE4IDAgMDE1LjE3LTQuMjdjLjUtLjEuNTItLjEgOS40Ni0uMSA0LjkzIDAgOSAwIDkuMDQtLjAzLjA3LS4wMi4wOC0uMTMuMDgtLjg1di0uODRzLTIuNzUtLjAyLTYuMS0uMDRsLTYuMDUtLjAyTDEzIDguMDZjMC0zLjQ1IDAtMy40LjMtNC4wNCAxLTIuMiA0LjA0LTMuNTQgOC44OC0zLjkyLjM1LS4wNCAxLjMtLjA4IDIuMS0uMSA1LjM1LS4xIDkuMjguODggMTEuMzQgMi44NGE3LjQzIDcuNDMgMCAwMS42Ny43IDYuMjMgNi4yMyAwIDAxLjgyIDEuN2wuMTIuNHY2LjVjMCA2LjA4IDAgNi41NC0uMSA2Ljk3YTguMDQgOC4wNCAwIDAxLS41NyAxLjc4IDYuMDMgNi4wMyAwIDAxLTMuOSAzLjAzYy0xLjE3LjM0LS42NC4zMi04LjQuMzUtNy43LjAzLTcuMjMuMDItOC4zLjMyYTYuMTcgNi4xNyAwIDAwLTQuMjcgNC41MmMtLjI4IDEuMDItLjI3LjkzLS4zIDQuN2wtLjAzIDMuNTNIOS4wMmEyMy4yNiAyMy4yNiAwIDAxLTIuNy0uMDR6TTE5LjE0IDguMDJhMi4xOCAyLjE4IDAgMDAtLjI1LTQuMDggMi4yIDIuMiAwIDAwLTEuMzUgNC4xNiAxLjggMS44IDAgMDAuNzcuMSAxLjU3IDEuNTcgMCAwMC44My0uMTh6Ii8+PC9zdmc+" parent="8Ngx9_ojINHOA52o8Yng-2" vertex="1">
          <mxGeometry x="11.11111111111111" y="44.44444444444444" width="33.333333333333336" height="33.333333333333336" as="geometry" />
        </mxCell>
        <mxCell id="8Ngx9_ojINHOA52o8Yng-57" value="" style="shape=image;verticalLabelPosition=bottom;labelBackgroundColor=default;verticalAlign=top;aspect=fixed;imageAspect=0;image=data:image/svg+xml,PHN2ZyB4bWxucz0iaHR0cDovL3d3dy53My5vcmcvMjAwMC9zdmciIGlkPSJ0ZWxlZ3JhbS1sb2dvIiB2aWV3Qm94PSIwIDAgMjU2IDI1NiI+PHJlY3QgZmlsbD0ibm9uZSIgaGVpZ2h0PSIyNTYiIHdpZHRoPSIyNTYiLz48cGF0aCBvcGFjaXR5PSIuMiIgZD0iTTg4IDEzNC44NzIzNkwyMjQuMTEyMjMgMzYuNTY5MDhsLjAwMTY4LS4wMDM2N2E3Ljg3MjQ0IDcuODcyNDQgMCAwIDAtNi4yMjMxNC0uMTUwMTRMMzMuMzMzOTMgMTA4LjkxOTc1YTggOCAwIDAgMCAxLjM1NjI5IDE1LjI5MDY1ek0xMzIuOTA3MDggMTc0LjM5MDU5bC0zMS4yNTAyMyAzMS4yNTAyM0E4IDggMCAwIDEgODggMTk5Ljk4NHYtNjUuMTExNnoiLz48cGF0aCBkPSJNODgsMTM0Ljg3MjM2bDg5LjkxNzI2LDc5LjEyNzE4YTgsOCwwLDAsMCwxMy4wODI4OC00LjIxODY5TDIyOC42MTM4NSw0NS42NDgyOWE4LDgsMCwwLDAtMTAuNzIzMDgtOS4yMzNMMzMuMzMzOTMsMTA4LjkxOTc1YTgsOCwwLDAsMCwxLjM1NjI5LDE1LjI5MDY1WiIgc3Ryb2tlLXdpZHRoPSIxNiIgc3Ryb2tlLWxpbmVqb2luPSJyb3VuZCIgc3Ryb2tlLWxpbmVjYXA9InJvdW5kIiBzdHJva2U9IiMwMDAiIGZpbGw9Im5vbmUiLz48bGluZSBzdHJva2Utd2lkdGg9IjE2IiBzdHJva2UtbGluZWpvaW49InJvdW5kIiBzdHJva2UtbGluZWNhcD0icm91bmQiIHN0cm9rZT0iIzAwMCIgZmlsbD0ibm9uZSIgeTI9IjM2LjU2OSIgeTE9IjEzNC44NzIiIHgyPSIyMjQuMTEyIiB4MT0iODgiLz48cGF0aCBkPSJNMTMyLjkwNzA4LDE3NC4zOTA1OWwtMzEuMjUwMjMsMzEuMjUwMjNBOCw4LDAsMCwxLDg4LDE5OS45ODR2LTY1LjExMTYiIHN0cm9rZS13aWR0aD0iMTYiIHN0cm9rZS1saW5lam9pbj0icm91bmQiIHN0cm9rZS1saW5lY2FwPSJyb3VuZCIgc3Ryb2tlPSIjMDAwIiBmaWxsPSJub25lIi8+PC9zdmc+;" parent="8Ngx9_ojINHOA52o8Yng-2" vertex="1">
          <mxGeometry x="39" y="14" width="20" height="20" as="geometry" />
        </mxCell>
        <mxCell id="8Ngx9_ojINHOA52o8Yng-23" value="" style="group" parent="1" vertex="1" connectable="0">
          <mxGeometry x="470" y="300" width="100" height="100" as="geometry" />
        </mxCell>
        <mxCell id="8Ngx9_ojINHOA52o8Yng-24" value="" style="shape=image;verticalLabelPosition=bottom;labelBackgroundColor=default;verticalAlign=top;aspect=fixed;imageAspect=0;image=data:image/svg+xml,PHN2ZyB4bWxucz0iaHR0cDovL3d3dy53My5vcmcvMjAwMC9zdmciIHZlcnNpb249IjEuMSIgdmlld0JveD0iMCAwIDEwMCAxMDAiIGRhdGEtbmFtZT0iTGF5ZXIgOCIgaWQ9IkxheWVyXzgiPiYjeGE7ICA8bWV0YWRhdGEgaWQ9Im1ldGFkYXRhNDkiPiYjeGE7ICAgICYjeGE7ICAgICAgJiN4YTsgICAgICAgIGltYWdlL3N2Zyt4bWwmI3hhOyAgICAgICAgJiN4YTsgICAgICAgIGdldHRpbmctc3RhcnRlZCYjeGE7ICAgICAgJiN4YTsgICAgJiN4YTsgIDwvbWV0YWRhdGE+JiN4YTsgIDxkZWZzIGlkPSJkZWZzNDciLz4mI3hhOyAgJiN4YTsgIDx0aXRsZSBpZD0idGl0bGUyIj5nZXR0aW5nLXN0YXJ0ZWQ8L3RpdGxlPiYjeGE7ICA8cmVjdCBpZD0icmVjdDYiIGZpbGw9Im5vbmUiIHRyYW5zZm9ybT0idHJhbnNsYXRlKDEwMCAxMDApIHJvdGF0ZSgxODApIiBoZWlnaHQ9IjEwMCIgd2lkdGg9IjEwMCIvPiYjeGE7ICA8cG9seWdvbiBzdHlsZT0iZmlsbDojMjBjMmVmO3N0cm9rZTojMzk0ZDU0O3N0cm9rZS13aWR0aDozO3N0cm9rZS1saW5lam9pbjpyb3VuZCIgdHJhbnNmb3JtPSJtYXRyaXgoMS44MTc2ODY3LDAsMCwxLjkyNDQyMSwtNDEuMDk2MiwtNDMuODUwMDkxKSIgaWQ9InBvbHlnb244IiBwb2ludHM9IjcyLjUsNjEuMjAyIDUwLDczLjA2NyAyNy41LDYxLjIwMiAyNy41LDM1LjI3MyA1MCwyNS4wMTIgNzIuNSwzNS4yNzMiLz4mI3hhOyAgPHBvbHlnb24gc3R5bGU9ImZpbGw6IzIwYzJlZjtzdHJva2U6IzM5NGQ1NDtzdHJva2UtbGluZWpvaW46cm91bmQiIHRyYW5zZm9ybT0ibWF0cml4KDEuODE3Njg2NywwLDAsMS45MjQ0MjEsLTQxLjA5NjIsLTQzLjg1MDA5MSkiIGlkPSJwb2x5Z29uMTAiIHBvaW50cz0iNTAsNDYuNTIzIDUwLDczLjA2NyA3Mi41LDYxLjIwMiA3Mi41LDM1LjI3MyIvPiYjeGE7ICA8cG9seWdvbiBzdHlsZT0iZmlsbDojMjBjMmVmO3N0cm9rZTojMzk0ZDU0O3N0cm9rZS1saW5lam9pbjpyb3VuZCIgdHJhbnNmb3JtPSJtYXRyaXgoMS44MTc2ODY3LDAsMCwxLjkyNDQyMSwtNDEuMDk2MiwtNDMuODUwMDkxKSIgaWQ9InBvbHlnb24xMiIgcG9pbnRzPSI1MCwyNS4wMTIgMjcuNSwzNS4yNzMgNTAsNDYuNTIzIDcyLjUsMzUuMjczIi8+JiN4YTsgIDxwb2x5Z29uIHN0eWxlPSJvcGFjaXR5OjAuMztmaWxsOiNmZmZmZmYiIHRyYW5zZm9ybT0ibWF0cml4KDEuODE3Njg2NywwLDAsMS45MjQ0MjEsLTQxLjA5NjIsLTQzLjg1MDA5MSkiIGlkPSJwb2x5Z29uMTQiIHBvaW50cz0iMjguNjY1LDM1LjMxIDUwLDI1LjU2MyA3MS4zMzgsMzUuMjkyIDcwLjQyMywzNS43NTQgNTAsMjYuNDQgMjkuNjAxLDM1Ljc0MyIvPiYjeGE7ICA8cG9seWdvbiBzdHlsZT0ib3BhY2l0eTowLjM7ZmlsbDojZmZmZmZmIiB0cmFuc2Zvcm09Im1hdHJpeCgxLjgxNzY4NjcsMCwwLDEuOTI0NDIxLC00MS4wOTYyLC00My44NTAwOTEpIiBpZD0icG9seWdvbjE2IiBwb2ludHM9IjUwLjUsNDcuNzE3IDUwLjQ5LDQ2Ljg0MyA3MS45OTYsMzYuMDkgNzEuOTk2LDM2Ljk2OSIvPiYjeGE7ICA8cG9seWdvbiBzdHlsZT0iZmlsbDojMGVhY2QxO3N0cm9rZTojMzk0ZDU0O3N0cm9rZS1saW5lam9pbjpyb3VuZCIgdHJhbnNmb3JtPSJtYXRyaXgoMS44MTc2ODY3LDAsMCwxLjkyNDQyMSwtNDEuMDk2MiwtNDMuODUwMDkxKSIgaWQ9InBvbHlnb24xOCIgcG9pbnRzPSI1MCw0Ni41MjMgNTAsNzMuMDY3IDI3LjUsNjEuMjAyIDI3LjUsMzUuMjczIi8+JiN4YTsgIDxwb2x5Z29uIHN0eWxlPSJmaWxsOiMwZWFjZDE7c3Ryb2tlOiMzOTRkNTQ7c3Ryb2tlLXdpZHRoOjAuNTtzdHJva2UtbGluZWpvaW46cm91bmQiIHRyYW5zZm9ybT0ibWF0cml4KDEuODE3Njg2NywwLDAsMS45MjQ0MjEsLTQxLjA5NjIsLTQzLjg1MDA5MSkiIGlkPSJwb2x5Z29uMjAiIHBvaW50cz0iNjguNDMyLDQxLjIwMyA2NS43ODEsNDIuNjA0IDY1Ljc4MSw2MS40NjYgNjguNDMyLDYwLjA2OCIvPiYjeGE7ICA8cG9seWdvbiBzdHlsZT0iZmlsbDojMGVhY2QxO3N0cm9rZTojMzk0ZDU0O3N0cm9rZS13aWR0aDowLjU7c3Ryb2tlLWxpbmVqb2luOnJvdW5kIiB0cmFuc2Zvcm09Im1hdHJpeCgxLjgxNzY4NjcsMCwwLDEuOTI0NDIxLC00MS4wOTYyLC00My44NTAwOTEpIiBpZD0icG9seWdvbjIyIiBwb2ludHM9IjYzLjA3Niw0My45NCA2MC40MjUsNDUuMzQxIDYwLjQyNSw2NC4yMDMgNjMuMDc2LDYyLjgwNSIvPiYjeGE7ICA8cG9seWdvbiBzdHlsZT0iZmlsbDojMGVhY2QxO3N0cm9rZTojMzk0ZDU0O3N0cm9rZS13aWR0aDowLjU7c3Ryb2tlLWxpbmVqb2luOnJvdW5kIiB0cmFuc2Zvcm09Im1hdHJpeCgxLjgxNzY4NjcsMCwwLDEuOTI0NDIxLC00MS4wOTYyLC00My44NTAwOTEpIiBpZD0icG9seWdvbjI0IiBwb2ludHM9IjU3LjcyMSw0Ni45MDMgNTUuMDY5LDQ4LjMwNCA1NS4wNjksNjcuMTY2IDU3LjcyMSw2NS43NjgiLz4mI3hhOyAgPHBvbHlnb24gc3R5bGU9Im9wYWNpdHk6MC4xMjAwMDAwMiIgdHJhbnNmb3JtPSJtYXRyaXgoMS44MTc2ODY3LDAsMCwxLjkyNDQyMSwtNDEuMDk2MiwtNDMuODUwMDkxKSIgaWQ9InBvbHlnb24yNiIgcG9pbnRzPSI2Ny40NSw2MC4zMDYgNjcuNDQ4LDQyLjg1NiA2Ny40NDgsNDIuODU2IDY2LjAzNSw0My41MjEgNjYuMDM1LDQyLjc1MyA2OC4xODIsNDEuNjI5IDY4LjE4Miw1OS45MTgiLz4mI3hhOyAgPHBvbHlnb24gc3R5bGU9Im9wYWNpdHk6MC4xMjAwMDAwMiIgdHJhbnNmb3JtPSJtYXRyaXgoMS44MTc2ODY3LDAsMCwxLjkyNDQyMSwtNDEuMDk2MiwtNDMuODUwMDkxKSIgaWQ9InBvbHlnb24yOCIgcG9pbnRzPSI2Mi4xMjEsNjMuMDE4IDYyLjExOSw0NS41OSA2Mi4xMTksNDUuNTkgNjAuNjcxLDQ2LjI3MSA2MC42NzEsNDUuNDk0IDYyLjgyOSw0NC4zNDcgNjIuODI5LDYyLjY1OSIvPiYjeGE7ICA8cG9seWdvbiBzdHlsZT0ib3BhY2l0eTowLjEyMDAwMDAyIiB0cmFuc2Zvcm09Im1hdHJpeCgxLjgxNzY4NjcsMCwwLDEuOTI0NDIxLC00MS4wOTYyLC00My44NTAwOTEpIiBpZD0icG9seWdvbjMwIiBwb2ludHM9IjU2Ljc2NSw2NS45OCA1Ni43NjMsNDguNTU4IDU2Ljc2Myw0OC41NTkgNTUuMzE4LDQ5LjIzOSA1NS4zMTgsNDguNDU5IDU3LjQ3MSw0Ny4zMTIgNTcuNDcxLDY1LjYxOCIvPiYjeGE7ICA8cG9seWdvbiBzdHlsZT0ib3BhY2l0eTowLjA1IiB0cmFuc2Zvcm09Im1hdHJpeCgxLjgxNzY4NjcsMCwwLDEuOTI0NDIxLC00MS4wOTYyLC00My44NTAwOTEpIiBpZD0icG9seWdvbjMyIiBwb2ludHM9IjQ5LjUxNiw0Ny43MTcgMzEuOTg0LDYzIDI4LDYwLjkwNiAyOCwzNi4wOTQgNDkuNTE2LDQ2Ljg1OSIvPiYjeGE7PC9zdmc+;imageBackground=none;imageBorder=none;" parent="8Ngx9_ojINHOA52o8Yng-23" vertex="1">
          <mxGeometry width="100" height="100" as="geometry" />
        </mxCell>
        <mxCell id="8Ngx9_ojINHOA52o8Yng-25" value="" style="shape=image;verticalLabelPosition=bottom;verticalAlign=top;imageAspect=0;aspect=fixed;image=data:image/svg+xml,PHN2ZyB4bWxucz0iaHR0cDovL3d3dy53My5vcmcvMjAwMC9zdmciIHZpZXdCb3g9IjAgMCA1MC4wNzkgNTAiPjxwYXRoIGZpbGw9IiNmZWQxNDIiIGQ9Ik0yMy45NiA0OS45OGMtNi4xLS4yMi05Ljg2LTIuMDMtMTAuODItNS4ybC0uMS0uMzUtLjAzLTYuMmMwLTcuMDcgMC03LjIuMzgtOC4zNC43LTIuMDcgMi4zLTMuNCA0Ljg2LTMuOTdsLjU2LS4xMyA3LS4wM2M1LS4wMiA3LjA4LS4wNSA3LjMyLS4xYTYuODMgNi44MyAwIDAwMy4xOC0xLjI0IDYuNjggNi42OCAwIDAwMi4yNy0zLjUzYy4yOC0xLjA3LjI3LS45NS4zLTQuNzJsLjAzLTMuNWg1LjA0bC41LjE0YzIuNi43MyA0LjUgMy4yMiA1LjMyIDYuOTYuMzIgMS40NC4zMiAxLjUuMzIgNS4xNyAwIDMuNTggMCAzLjYtLjI1IDQuNzhhMTIuMzUgMTIuMzUgMCAwMS0xLjA1IDMuMDYgNy4zMiA3LjMyIDAgMDEtNC4yIDMuODdjLTEuMDMuMzUtLjE3LjMyLTEwLjMyLjM1bC05LjE1LjAydjEuNjZsNi4wOC4wMiA2LjA2LjAzLjAzIDIuOThjMCAxLjY0IDAgMy4xMy0uMDIgMy4zYTMuNjUgMy42NSAwIDAxLS40NyAxLjM0IDYuNTggNi41OCAwIDAxLTEuNiAxLjZjLTEuNjIgMS4wOC00LjEgMS43My03LjM4IDEuOTUtMS4xLjA4LTIuNjYuMS0zLjg0LjA2em04LjQtMy44N2EyLjE4IDIuMTggMCAxMC0yLjUtMS44QTIuMjQgMi4yNCAwIDAwMzIgNDYuMTdhMy4xNiAzLjE2IDAgMDAuNC0uMDR6TTYuMzIgMzcuM0E2LjM0IDYuMzQgMCAwMTIuNjMgMzVDLjgzIDMyLjc1LS4xIDI5IC4wMyAyNC4zYTE2LjU1IDE2LjU1IDAgMDExLjQtNi45NSA3LjE4IDcuMTggMCAwMTUuMTctNC4yN2MuNS0uMS41Mi0uMSA5LjQ2LS4xIDQuOTMgMCA5IDAgOS4wNC0uMDMuMDctLjAyLjA4LS4xMy4wOC0uODV2LS44NHMtMi43NS0uMDItNi4xLS4wNGwtNi4wNS0uMDJMMTMgOC4wNmMwLTMuNDUgMC0zLjQuMy00LjA0IDEtMi4yIDQuMDQtMy41NCA4Ljg4LTMuOTIuMzUtLjA0IDEuMy0uMDggMi4xLS4xIDUuMzUtLjEgOS4yOC44OCAxMS4zNCAyLjg0YTcuNDMgNy40MyAwIDAxLjY3LjcgNi4yMyA2LjIzIDAgMDEuODIgMS43bC4xMi40djYuNWMwIDYuMDggMCA2LjU0LS4xIDYuOTdhOC4wNCA4LjA0IDAgMDEtLjU3IDEuNzggNi4wMyA2LjAzIDAgMDEtMy45IDMuMDNjLTEuMTcuMzQtLjY0LjMyLTguNC4zNS03LjcuMDMtNy4yMy4wMi04LjMuMzJhNi4xNyA2LjE3IDAgMDAtNC4yNyA0LjUyYy0uMjggMS4wMi0uMjcuOTMtLjMgNC43bC0uMDMgMy41M0g5LjAyYTIzLjI2IDIzLjI2IDAgMDEtMi43LS4wNHpNMTkuMTQgOC4wMmEyLjE4IDIuMTggMCAwMC0uMjUtNC4wOCAyLjIgMi4yIDAgMDAtMS4zNSA0LjE2IDEuOCAxLjggMCAwMC43Ny4xIDEuNTcgMS41NyAwIDAwLjgzLS4xOHoiLz48cGF0aCBmaWxsPSIjMzU3MWEzIiBkPSJNNi4zIDM3LjNBNi4zNCA2LjM0IDAgMDEyLjYzIDM1Qy44MyAzMi43NS0uMSAyOSAuMDMgMjQuM2ExNi41NSAxNi41NSAwIDAxMS40LTYuOTUgNy4xOCA3LjE4IDAgMDE1LjE3LTQuMjdjLjUtLjEuNTItLjEgOS40Ni0uMSA0LjkzIDAgOSAwIDkuMDQtLjAzLjA3LS4wMi4wOC0uMTMuMDgtLjg1di0uODRzLTIuNzUtLjAyLTYuMS0uMDRsLTYuMDUtLjAyTDEzIDguMDZjMC0zLjQ1IDAtMy40LjMtNC4wNCAxLTIuMiA0LjA0LTMuNTQgOC44OC0zLjkyLjM1LS4wNCAxLjMtLjA4IDIuMS0uMSA1LjM1LS4xIDkuMjguODggMTEuMzQgMi44NGE3LjQzIDcuNDMgMCAwMS42Ny43IDYuMjMgNi4yMyAwIDAxLjgyIDEuN2wuMTIuNHY2LjVjMCA2LjA4IDAgNi41NC0uMSA2Ljk3YTguMDQgOC4wNCAwIDAxLS41NyAxLjc4IDYuMDMgNi4wMyAwIDAxLTMuOSAzLjAzYy0xLjE3LjM0LS42NC4zMi04LjQuMzUtNy43LjAzLTcuMjMuMDItOC4zLjMyYTYuMTcgNi4xNyAwIDAwLTQuMjcgNC41MmMtLjI4IDEuMDItLjI3LjkzLS4zIDQuN2wtLjAzIDMuNTNIOS4wMmEyMy4yNiAyMy4yNiAwIDAxLTIuNy0uMDR6TTE5LjE0IDguMDJhMi4xOCAyLjE4IDAgMDAtLjI1LTQuMDggMi4yIDIuMiAwIDAwLTEuMzUgNC4xNiAxLjggMS44IDAgMDAuNzcuMSAxLjU3IDEuNTcgMCAwMC44My0uMTh6Ii8+PC9zdmc+" parent="8Ngx9_ojINHOA52o8Yng-23" vertex="1">
          <mxGeometry x="11.11111111111111" y="44.44444444444444" width="33.333333333333336" height="33.333333333333336" as="geometry" />
        </mxCell>
        <mxCell id="8Ngx9_ojINHOA52o8Yng-11" value="" style="shape=image;verticalLabelPosition=bottom;labelBackgroundColor=default;verticalAlign=top;aspect=fixed;imageAspect=0;image=data:image/svg+xml,PHN2ZyB4bWxucz0iaHR0cDovL3d3dy53My5vcmcvMjAwMC9zdmciIGlkPSJ0ZWxlZ3JhbS1sb2dvIiB2aWV3Qm94PSIwIDAgMjU2IDI1NiI+PHJlY3QgZmlsbD0ibm9uZSIgaGVpZ2h0PSIyNTYiIHdpZHRoPSIyNTYiLz48cGF0aCBvcGFjaXR5PSIuMiIgZD0iTTg4IDEzNC44NzIzNkwyMjQuMTEyMjMgMzYuNTY5MDhsLjAwMTY4LS4wMDM2N2E3Ljg3MjQ0IDcuODcyNDQgMCAwIDAtNi4yMjMxNC0uMTUwMTRMMzMuMzMzOTMgMTA4LjkxOTc1YTggOCAwIDAgMCAxLjM1NjI5IDE1LjI5MDY1ek0xMzIuOTA3MDggMTc0LjM5MDU5bC0zMS4yNTAyMyAzMS4yNTAyM0E4IDggMCAwIDEgODggMTk5Ljk4NHYtNjUuMTExNnoiLz48cGF0aCBkPSJNODgsMTM0Ljg3MjM2bDg5LjkxNzI2LDc5LjEyNzE4YTgsOCwwLDAsMCwxMy4wODI4OC00LjIxODY5TDIyOC42MTM4NSw0NS42NDgyOWE4LDgsMCwwLDAtMTAuNzIzMDgtOS4yMzNMMzMuMzMzOTMsMTA4LjkxOTc1YTgsOCwwLDAsMCwxLjM1NjI5LDE1LjI5MDY1WiIgc3Ryb2tlLXdpZHRoPSIxNiIgc3Ryb2tlLWxpbmVqb2luPSJyb3VuZCIgc3Ryb2tlLWxpbmVjYXA9InJvdW5kIiBzdHJva2U9IiMwMDAiIGZpbGw9Im5vbmUiLz48bGluZSBzdHJva2Utd2lkdGg9IjE2IiBzdHJva2UtbGluZWpvaW49InJvdW5kIiBzdHJva2UtbGluZWNhcD0icm91bmQiIHN0cm9rZT0iIzAwMCIgZmlsbD0ibm9uZSIgeTI9IjM2LjU2OSIgeTE9IjEzNC44NzIiIHgyPSIyMjQuMTEyIiB4MT0iODgiLz48cGF0aCBkPSJNMTMyLjkwNzA4LDE3NC4zOTA1OWwtMzEuMjUwMjMsMzEuMjUwMjNBOCw4LDAsMCwxLDg4LDE5OS45ODR2LTY1LjExMTYiIHN0cm9rZS13aWR0aD0iMTYiIHN0cm9rZS1saW5lam9pbj0icm91bmQiIHN0cm9rZS1saW5lY2FwPSJyb3VuZCIgc3Ryb2tlPSIjMDAwIiBmaWxsPSJub25lIi8+PC9zdmc+;" parent="8Ngx9_ojINHOA52o8Yng-23" vertex="1">
          <mxGeometry x="26.439999999999998" y="14.059999999999999" width="20" height="20" as="geometry" />
        </mxCell>
        <mxCell id="8Ngx9_ojINHOA52o8Yng-16" value="" style="shape=image;verticalLabelPosition=bottom;labelBackgroundColor=default;verticalAlign=top;aspect=fixed;imageAspect=0;image=data:image/svg+xml,PHN2ZyB4bWxucz0iaHR0cDovL3d3dy53My5vcmcvMjAwMC9zdmciIHhtbG5zOnhsaW5rPSJodHRwOi8vd3d3LnczLm9yZy8xOTk5L3hsaW5rIiByb2xlPSJpbWciIGFyaWEtaGlkZGVuPSJ0cnVlIiBwcmVzZXJ2ZUFzcGVjdFJhdGlvPSJ4TWlkWU1pZCBtZWV0IiBmaWxsPSJub25lIiB2aWV3Qm94PSIwIDAgNzcgMzkiIGhlaWdodD0iMzkiIHdpZHRoPSI3NyI+JiN4YTs8cGF0aCBmaWxsPSIjMUMzQjNCIiBkPSJNNTguOTgzNyAxMC41NDgzQzU3Ljk2NTEgMTAuNTQ4MyA1Ny4wMTEyIDEwLjk0MjQgNTYuMjkxOSAxMS42NTdMNTMuMzk5IDE0LjU0MjNDNTIuNjE3MSAxNS4zMjE1IDUyLjIxNzIgMTYuNDAxMiA1Mi4yOTk5IDE3LjUwNzdDNTIuMzA2NiAxNy41Njc4IDUyLjMxMTEgMTcuNjMwMSA1Mi4zMTc4IDE3LjY5MDNDNTIuNDIyOCAxOC41NDA3IDUyLjc5NTggMTkuMzA2NSA1My4zOTkgMTkuOTA3NkM1My44MTY3IDIwLjMyMzkgNTQuMzMwNSAyMC42NDAxIDU0Ljg4NjcgMjAuODIyNkM1NC45MTU4IDIwLjk4OTYgNTQuOTMxNCAyMS4xNjEgNTQuOTMxNCAyMS4zMzAyQzU0LjkzMTQgMjIuMDkzOCA1NC42MzQzIDIyLjgxMDcgNTQuMDkzNyAyMy4zNDk1TDUzLjkxNSAyMy41Mjc2QzUyLjk0NzcgMjMuMTk4MSA1Mi4wODk5IDIyLjY2MzggNTEuMzU5NCAyMS45MzhDNTAuMzkyMiAyMC45NzQgNDkuNzUzMyAxOS43NTg1IDQ5LjUxMiAxOC40MjI3TDQ5LjQ3ODUgMTguMjM1N0w0OS4zMzExIDE4LjM1NTlDNDkuMjMyOCAxOC40MzYxIDQ5LjEzNjcgMTguNTIyOSA0OS4wNDk2IDE4LjYwOTdMNDYuMTU0NSAyMS40OTVDNDQuNjcxMiAyMi45NzMyIDQ0LjY3MTIgMjUuMzc5OCA0Ni4xNTQ1IDI2Ljg2MDNDNDYuODk2MSAyNy41OTk0IDQ3Ljg3MjMgMjcuOTY5IDQ4Ljg0NjMgMjcuOTY5QzQ5LjgyMDMgMjcuOTY5IDUwLjc5NjUgMjcuNTk5NCA1MS41MzgxIDI2Ljg2MDNMNTQuNDMzMyAyMy45NzVDNTUuOTE2NiAyMi40OTY4IDU1LjkxNjYgMjAuMDkwMiA1NC40MzMzIDE4LjYxMTlDNTQuMDM3OSAxOC4yMTc5IDUzLjU2NjUgMTcuOTIxOCA1My4wMzI2IDE3LjczMDNDNTMuMDAzNiAxNy41NTY3IDUyLjk4NzkgMTcuMzgzIDUyLjk4NzkgMTcuMjEzOEM1Mi45ODc5IDE2LjM4MzQgNTMuMzE4NiAxNS41OTUzIDUzLjkxOTUgMTQuOTk0MkM1NC44ODkgMTUuMzIzNyA1NS43NDY4IDE1Ljg1OCA1Ni40NzI4IDE2LjU4MTZDNTcuNDM3OSAxNy41NDMzIDU4LjA3NjcgMTguNzU4OSA1OC4zMjAyIDIwLjA5NjlMNTguMzUzOCAyMC4yODM5TDU4LjUwMTIgMjAuMTYzN0M1OC41OTk1IDIwLjA4MzUgNTguNjk1NSAxOS45OTY3IDU4Ljc4NDkgMTkuOTA3Nkw2MS42OCAxNy4wMjQ2QzYzLjE2MzMgMTUuNTQ2MyA2My4xNjMzIDEzLjEzOTcgNjEuNjggMTEuNjU5M0M2MC45NjI5IDEwLjk0NDYgNjAuMDA2OCAxMC41NTA2IDU4Ljk4ODIgMTAuNTUwNkw1OC45ODM3IDEwLjU0ODNaIi8+JiN4YTs8cGF0aCBmaWxsPSIjMUMzQjNCIiBkPSJNNTcuNDMzMyAwSDE5LjU2NjdDOC43NzY5NiAwIDAgOC43NDcwNiAwIDE5LjVDMCAzMC4yNTI5IDguNzc2OTYgMzkgMTkuNTY2NyAzOUg1Ny40MzMzQzY4LjIyMyAzOSA3NyAzMC4yNTI5IDc3IDE5LjVDNzcgOC43NDcwNiA2OC4yMjMgMCA1Ny40MzMzIDBaTTM4Ljc1NTggMzAuNTczNUMzOC4xMzAzIDMwLjcwMjcgMzcuNDI4OCAzMC43MjcxIDM2Ljk1MyAzMC4yMjg1QzM2Ljc3NjYgMzAuNjMxNCAzNi4zNjc3IDMwLjQxOTkgMzYuMDQ4MyAzMC4zNjY1QzM2LjAxOTMgMzAuNDQ4OSAzNS45OTQ3IDMwLjUyMDEgMzUuOTY1NiAzMC42MDI1QzM0LjkxMTMgMzAuNjczNyAzNC4xMjA1IDI5LjYwMDYgMzMuNjE3OCAyOC43OTAzQzMyLjYxOTMgMjguMjUzNyAzMS40ODY3IDI3LjkyNDMgMzAuNDY4IDI3LjM2MUMzMC40MDc3IDI4LjI4OTQgMzAuNjEzMiAyOS40MzgxIDI5LjcyNjQgMzAuMDM5MkMyOS42ODE3IDMxLjgyMjUgMzIuNDM2MSAzMC4yNDg1IDMyLjY4NjMgMzEuNTc5OEMzMi40ODk3IDMxLjU5OTggMzIuMjczIDMxLjU0ODYgMzIuMTE2NyAzMS43QzMxLjM5OTYgMzIuMzk2OSAzMC41NzMgMzEuMTc0NiAyOS43NDY1IDMxLjY3NzhDMjguNjM2MyAzMi4yMzY2IDI4LjUyMjMgMzIuNjkwNyAyNy4xNDg1IDMyLjgwNjVDMjcuMDcyNSAzMi42OTI5IDI3LjEwMzggMzIuNjE1IDI3LjE2ODYgMzIuNTQ2QzI3LjU1NSAzMi4wOTg1IDI3LjU4MTkgMzEuNTY4NyAyOC4yNDUzIDMxLjM3NzJDMjcuNTY0IDMxLjI3MDQgMjYuOTk0MyAzMS42NDQ0IDI2LjQyMjUgMzEuOTQyN0MyNS42NzYzIDMyLjI0NTUgMjUuNjgzIDMxLjI1NyAyNC41MzQ4IDMxLjk5MzlDMjQuNDA3NSAzMS44OTE1IDI0LjQ2NzggMzEuNzk4IDI0LjU0MTUgMzEuNzE3OEMyNC44MzQyIDMxLjM2MzkgMjUuMjE2MiAzMS4zMTA0IDI1LjY0OTUgMzEuMzMwNUMyMy41MjI5IDMwLjE0ODMgMjIuNTIyMSAzMi43NzUzIDIxLjUzOTIgMzEuNDcwN0MyMS4yNDQzIDMxLjU0ODYgMjEuMTMyNiAzMS44MTM2IDIwLjk0NzIgMzIuMDAyOEMyMC43ODY0IDMxLjgyNjkgMjAuOTA5MiAzMS42MTU0IDIwLjkxNTkgMzEuNDA4NEMyMC43MjM4IDMxLjMxOTMgMjAuNDgwMyAzMS4yNzQ4IDIwLjUzODQgMzAuOTY5OEMyMC4xNjA5IDMwLjg0MjkgMTkuOTAxNyAzMS4wNjU1IDE5LjYyMjUgMzEuMjc3QzE5LjM3MDEgMzEuMDgzMyAxOS43OTIzIDMwLjc5NjIgMTkuODcwNSAzMC41OTM2QzIwLjA5NjEgMzAuMjAxNyAyMC42MDc2IDMwLjUxMzQgMjAuODY5IDMwLjIzMjlDMjEuNjA4NCAyOS44MTQ0IDIyLjY0MDUgMzAuNDk1NiAyMy40ODQ5IDMwLjM3OThDMjQuMTM3MiAzMC40NjIyIDI0Ljk0MzYgMjkuNzk0MyAyNC42MTUyIDI5LjEzMDlDMjMuOTE4MyAyOC4yNDQ4IDI0LjA0MzQgMjcuMDg0OSAyNC4wMjc3IDI2LjAyM0MyMy45NDA2IDI1LjQwNjMgMjIuNDUyOCAyNC42MTgyIDIyLjAyMTcgMjMuOTUwM0MyMS40OSAyMy4zNDkyIDIxLjA3NDUgMjIuNjU0NiAyMC42NjEzIDIxLjk2ODlDMTkuMTY0NiAxOS4wODE1IDE5LjYzNTkgMTUuMzcwMiAxNy43NTA1IDEyLjY4NzZDMTYuODk3MiAxMy4xNTczIDE1Ljc4NjkgMTIuOTM0NyAxNS4wNDk3IDEyLjMwNDdDMTQuNjUyMSAxMi42NjUzIDE0LjYzNDIgMTMuMTM3MyAxNC42MDI5IDEzLjYzODJDMTMuNjUxMyAxMi42ODk4IDEzLjc2OTcgMTAuODk1NCAxNC41MzE1IDkuODM3OTRDMTQuODQyIDkuNDE5NCAxNS4yMTI4IDkuMDc2NTUgMTUuNjMwNSA4Ljc3NkMxNS43MjQ0IDguNzA5MjEgMTUuNzU1NiA4LjY0MDIgMTUuNzUzNCA4LjUzNTU2QzE2LjUwNjIgNS4xNTgyOSAyMS42NDQyIDUuODEwNiAyMy4yNzA0IDguMjAxNjJDMjQuNDQ5OSA5LjY3MzE5IDI0LjgwNTEgMTEuNjIxMiAyNi4xNDEgMTIuOTkwNEMyNy45MzkzIDE0Ljk1MTcgMjkuOTg3OCAxNi42NzkzIDMxLjY0NzUgMTguNzY5OEMzMy4yMTU3IDIwLjY3OTkgMzQuMzM5NCAyMi45MTczIDM1LjMxNTYgMjUuMTc0OEMzNS43MTU1IDI1LjkyMjggMzUuNzE3NyAyNi44NDIzIDM2LjMwOTcgMjcuNDgxMkMzNi42MDIzIDI3Ljg2NjQgMzguMDI1MyAyOC45MTcyIDM3LjcxNyAyOS4yODlDMzcuODk1NyAyOS42NzQxIDM5LjIyNDkgMzAuMjA4NCAzOC43NjQ3IDMwLjU4MjRMMzguNzU1OCAzMC41NzM1Wk02My43MTI4IDE5LjA1MjVMNjAuODE5OSAyMS45Mzc4QzYwLjA0OTIgMjIuNzA1OCA1OS4wOTU0IDIzLjI4MDIgNTguMDYzMyAyMy41OTQxTDU4LjAxMTkgMjMuNjA5N0w1Ny45OTE4IDIzLjY2MDlDNTcuNjU0NSAyNC41NDcgNTcuMTQ1MiAyNS4zMzUxIDU2LjQ3MjggMjYuMDA1Mkw1My41Nzc2IDI4Ljg5MDVDNTIuMzE1NSAzMC4xNDgzIDUwLjYzNTYgMzAuODQwNyA0OC44NDg1IDMwLjg0MDdDNDcuMDYxNCAzMC44NDA3IDQ1LjM4MTUgMzAuMTQ4MyA0NC4xMTk0IDI4Ljg5MjdDNDEuNTEyNCAyNi4yOTQ2IDQxLjUxMjQgMjIuMDY0NyA0NC4xMTk0IDE5LjQ2NjZMNDcuMDE0NSAxNi41ODEzQzQ3Ljc4OTYgMTUuODA4OCA0OC43MTY3IDE1LjI1NDUgNDkuNzY2NiAxNC45MzE3TDQ5LjgxOCAxNC45MTYxTDQ5LjgzODEgMTQuODY0OUM1MC4xNzMyIDEzLjk3ODggNTAuNjg3IDEzLjE4ODUgNTEuMzYzOSAxMi41MTM5TDU0LjI1NjggOS42Mjg2N0M1NS41MTg5IDguMzcwODIgNTcuMTk4OCA3LjY3ODQ1IDU4Ljk4NTkgNy42Nzg0NUM2MC43NzMgNy42Nzg0NSA2Mi40NTUxIDguMzcwODIgNjMuNzE1IDkuNjI4NjdDNjQuOTc1IDEwLjg4NjUgNjUuNjcxOSAxMi41NjA3IDY1LjY2OTcgMTQuMzQxN0M2NS42Njk3IDE2LjEyNSA2NC45NzUgMTcuNzk5MSA2My43MTI4IDE5LjA1NDdWMTkuMDUyNVoiLz4mI3hhOzxwYXRoIGZpbGw9IiMxQzNCM0IiIGQ9Ik0yNi45ODM5IDI3LjA4MDZDMjYuNzI5MiAyOC4wNjY4IDI2LjY0NjUgMjkuNzQ3NyAyNS4zNTk4IDI5Ljc5NjZDMjUuMjU0OCAzMC4zNjY2IDI1Ljc1NTIgMzAuNTgwMyAyNi4yMTMyIDMwLjM5NzdDMjYuNjY0NCAzMC4xOTA3IDI2Ljg3ODkgMzAuNTYwMiAyNy4wMzMgMzAuOTI5OEMyNy43MyAzMS4wMzIyIDI4Ljc2NDMgMzAuNjk4MyAyOC44MDQ1IDI5Ljg3MjNDMjcuNzYxMiAyOS4yNzM1IDI3LjQzOTYgMjguMTMzNiAyNi45ODYxIDI3LjA4MDZIMjYuOTgzOVoiLz4mI3hhOzwvc3ZnPg==;" parent="8Ngx9_ojINHOA52o8Yng-23" vertex="1">
          <mxGeometry x="50" y="18" width="23.94" height="12.12" as="geometry" />
        </mxCell>
        <mxCell id="8Ngx9_ojINHOA52o8Yng-27" style="edgeStyle=orthogonalEdgeStyle;rounded=0;orthogonalLoop=1;jettySize=auto;html=1;entryX=0;entryY=0.5;entryDx=0;entryDy=0;startArrow=classic;startFill=1;" parent="1" source="8Ngx9_ojINHOA52o8Yng-1" target="T3HEAIqgR0DYX0BthUk1-5" edge="1">
          <mxGeometry relative="1" as="geometry">
            <Array as="points">
              <mxPoint x="210" y="505" />
            </Array>
          </mxGeometry>
        </mxCell>
        <mxCell id="8Ngx9_ojINHOA52o8Yng-28" style="edgeStyle=orthogonalEdgeStyle;rounded=0;orthogonalLoop=1;jettySize=auto;html=1;entryX=1;entryY=0.5;entryDx=0;entryDy=0;startArrow=classic;startFill=1;" parent="1" source="8Ngx9_ojINHOA52o8Yng-24" target="T3HEAIqgR0DYX0BthUk1-5" edge="1">
          <mxGeometry relative="1" as="geometry">
            <Array as="points">
              <mxPoint x="520" y="505" />
            </Array>
          </mxGeometry>
        </mxCell>
        <mxCell id="8Ngx9_ojINHOA52o8Yng-35" value="" style="rounded=0;whiteSpace=wrap;html=1;fillColor=#ffe6cc;fillStyle=auto;strokeColor=#d79b00;opacity=90;" parent="1" vertex="1">
          <mxGeometry x="135" y="99" width="150" height="100" as="geometry" />
        </mxCell>
        <mxCell id="8Ngx9_ojINHOA52o8Yng-33" value="&lt;font data-font-src=&quot;https://fonts.googleapis.com/css?family=Architects+Daughter&quot; face=&quot;Architects Daughter&quot;&gt;Website&lt;/font&gt;" style="verticalLabelPosition=bottom;html=1;verticalAlign=top;align=center;strokeColor=none;fillColor=#00BEF2;shape=mxgraph.azure.website_generic;pointerEvents=1;spacingTop=-6;" parent="1" vertex="1">
          <mxGeometry x="153.34" y="132.75" width="50" height="42.5" as="geometry" />
        </mxCell>
        <mxCell id="8Ngx9_ojINHOA52o8Yng-34" value="API" style="image;aspect=fixed;html=1;points=[];align=center;fontSize=12;image=img/lib/azure2/app_services/API_Management_Services.svg;fontFamily=Architects Daughter;fontSource=https%3A%2F%2Ffonts.googleapis.com%2Fcss%3Ffamily%3DArchitects%2BDaughter;labelBackgroundColor=none;spacingTop=-3;" parent="1" vertex="1">
          <mxGeometry x="223.34000000000003" y="132.75" width="43.33" height="40" as="geometry" />
        </mxCell>
        <mxCell id="8Ngx9_ojINHOA52o8Yng-36" value="" style="rounded=0;orthogonalLoop=1;jettySize=auto;html=1;jumpStyle=none;strokeColor=default;startArrow=classic;startFill=1;" parent="1" source="8Ngx9_ojINHOA52o8Yng-1" target="8Ngx9_ojINHOA52o8Yng-35" edge="1">
          <mxGeometry relative="1" as="geometry" />
        </mxCell>
        <mxCell id="8Ngx9_ojINHOA52o8Yng-38" value="Cinema" style="text;html=1;align=center;verticalAlign=middle;resizable=0;points=[];autosize=1;strokeColor=none;fillColor=none;fontFamily=Architects Daughter;fontSource=https%3A%2F%2Ffonts.googleapis.com%2Fcss%3Ffamily%3DArchitects%2BDaughter;" parent="1" vertex="1">
          <mxGeometry x="130" y="99" width="60" height="30" as="geometry" />
        </mxCell>
        <mxCell id="8Ngx9_ojINHOA52o8Yng-42" value="" style="edgeStyle=orthogonalEdgeStyle;rounded=0;orthogonalLoop=1;jettySize=auto;html=1;startArrow=classic;startFill=1;" parent="1" source="8Ngx9_ojINHOA52o8Yng-40" target="8Ngx9_ojINHOA52o8Yng-41" edge="1">
          <mxGeometry relative="1" as="geometry" />
        </mxCell>
        <mxCell id="8Ngx9_ojINHOA52o8Yng-40" value="User" style="shape=image;verticalLabelPosition=middle;verticalAlign=middle;imageAspect=0;aspect=fixed;image=data:image/svg+xml,PHN2ZyB4bWxucz0iaHR0cDovL3d3dy53My5vcmcvMjAwMC9zdmciIHZpZXdCb3g9IjAgMCAxOCAxOCI+PGRlZnM+PGxpbmVhckdyYWRpZW50IGlkPSJhIiB4MT0iOSIgeTE9IjYuODgiIHgyPSI5IiB5Mj0iMjAuNDUiIGdyYWRpZW50VW5pdHM9InVzZXJTcGFjZU9uVXNlIj48c3RvcCBvZmZzZXQ9Ii4yMiIgc3RvcC1jb2xvcj0iIzMyZDRmNSIvPjxzdG9wIG9mZnNldD0iMSIgc3RvcC1jb2xvcj0iIzE5OGFiMyIvPjwvbGluZWFyR3JhZGllbnQ+PGxpbmVhckdyYWRpZW50IGlkPSJiIiB4MT0iOC42MSIgeTE9Ii0uNCIgeDI9IjkuNiIgeTI9IjExLjkyIiBncmFkaWVudFVuaXRzPSJ1c2VyU3BhY2VPblVzZSI+PHN0b3Agb2Zmc2V0PSIuMjIiIHN0b3AtY29sb3I9IiMzMmQ0ZjUiLz48c3RvcCBvZmZzZXQ9IjEiIHN0b3AtY29sb3I9IiMxOThhYjMiLz48L2xpbmVhckdyYWRpZW50PjwvZGVmcz48cGF0aCBkPSJNMTUuNzIgMThhMS40NSAxLjQ1IDAgMDAxLjQ1LTEuNDUuNDcuNDcgMCAwMDAtLjE3QzE2LjU5IDExLjgxIDE0IDguMDkgOSA4LjA5cy03LjY2IDMuMTUtOC4xNyA4LjNBMS40NiAxLjQ2IDAgMDAyLjE0IDE4aDEzLjU4eiIgZmlsbD0idXJsKCNhKSIvPjxwYXRoIGQ9Ik05IDkuMTdhNC41OSA0LjU5IDAgMDEtMi40OC0uNzNMOSAxNC44NmwyLjQ0LTYuMzhBNC41MyA0LjUzIDAgMDE5IDkuMTd6IiBmaWxsPSIjZmZmIiBvcGFjaXR5PSIuOCIvPjxjaXJjbGUgY3g9IjkuMDEiIGN5PSI0LjU4IiByPSI0LjU4IiBmaWxsPSJ1cmwoI2IpIi8+PC9zdmc+;fontFamily=Architects Daughter;fontSource=https://fonts.googleapis.com/css?family=Architects+Daughter;labelPosition=left;align=right;spacingRight=4;" parent="1" vertex="1">
          <mxGeometry x="500" y="99" width="40" height="40" as="geometry" />
        </mxCell>
        <mxCell id="8Ngx9_ojINHOA52o8Yng-43" value="" style="edgeStyle=orthogonalEdgeStyle;rounded=0;orthogonalLoop=1;jettySize=auto;html=1;entryX=0.5;entryY=0;entryDx=0;entryDy=0;startArrow=classic;startFill=1;" parent="1" source="8Ngx9_ojINHOA52o8Yng-41" target="8Ngx9_ojINHOA52o8Yng-24" edge="1">
          <mxGeometry relative="1" as="geometry" />
        </mxCell>
        <mxCell id="8Ngx9_ojINHOA52o8Yng-41" value="" style="shape=image;verticalLabelPosition=bottom;labelBackgroundColor=default;verticalAlign=top;aspect=fixed;imageAspect=0;image=data:image/png,iVBORw0KGgoAAAANSUhEUgAAAgAAAAIACAYAAAD0eNT6AAAABGdBTUEAALGPC/xhBQAAACBjSFJNAAB6JgAAgIQAAPoAAACA6AAAdTAAAOpgAAA6mAAAF3CculE8AAAABmJLR0QA/wD/AP+gvaeTAABSMUlEQVR42u3dd5hddbk2/vtZu0zbe2bSk5lkWvpMSICEEokIaqQl9EQFRZESAoqor/V3jkY9nqMej5VuQcHGQOgiRQ0ikEB6mSSQybRMyvS6Z3Zb6/n9MSEGSJmy21r7/lzXXO91fMnM3s9ae3/v9a0CIkpp8+/b4MmcOH6cWsZ4E9Z4gZGvQL6IjhIgX6H5KpInKjmAla2QHIF4Ac0DxD3w/76DD4DnXf9bBEDvu/63TgAmIF0KDQs0ABh9KhoQSKdaVqdAOhXSaRjosGB2qulq9risFk/ulOaXzpcorx5R6hKWgCh53l95cFw0w5qsMKcIpEgVkwFMBlAIYDwE46AYZ9NvlxZRNCvQAkEjFPtF0Khq1Buq+0Juo3Hj0oJW3gVEDABEjrOsUl31mfVFojJN4JoKYJqqThVgGoCpALLSvET9AKoV2GsA1YBUK2QvNFy9bmtJA1aJxbuIiAGAKKWd82RDgamuchWrwgDKVbUCkFMB5LA6wxIGUA2gCoqdYkhVVMydJcGi3Y8sF5PlIWIAIEqo+fdt8BiTxs1wW675Cp0P6HxATgOQzeokRATAHgE2WoKNMK2NUY9n08alBX0sDREDAFFMLKtUV6O3sVyBsyA4G4ozAcwG4GZ1UkoUwE4Ab4hinai+/tq2KTs5hEDEAEA0KGc9uycX4cxFAj0HkIUAFgDwszK21A1gPSDroPqqy8h85dXLxvWwLEQMAEQ458kWv6nhswDrw4AuAuRMvHeJHDmDCeBNEbwCyN/ChrGGqxCIAYAoTSys3JdlZViLoMZiAIsFmMfPQdqyAGyF4EWo8WJmXviVl84vDbIsxABA5BBnPtY4D6IXCHQxRBZBkcmq0DH0A/gXRF80IM+vvXzKdpaEGACIbOS8B2ozg6O8ixTWUlFcrkARq0LDUA/geRHjmcyO8IsvXc/eAWIAIErFp/wxAusyiFwK4MPg2nuKrYAoXoDoUxKRp9Yun9LOkhADAFGSzH/6wFiXaV1sqC5T4AJw8h4lhgnRdVB5JGqZlRuvKjnIkhADAFGcnfVkzQSxPMsVshzQ9wEwWBVKahhQvApopTfqqfzX8kktLAkxABDFyMLKfVmmW5YYotfxSZ9Sv2fAeNBtZPyJew4QAwDRMJy3Rt19HQ0XQuSTAiwFD80he+mD4Ck1rd8Xm8XP8ewCYgAgOokFT+6f6baiHwfkes7eJ4c4CJFHIPj165dN2cZyEAMA0WHnPNniN83gx1Ss6w9vv0vk1G/cV1XlgexIxsMvLR/fy4IQAwClpYWP1s4yDfenRfRmAKNYEUof2gMYf1KVu9+4cvJW1oMYAMjxKiqrvDlu32UicjMG1usTpbuNgN5vRIyH1i6f0s9yEAMAOco5TzYURBS3QnGzAONYEaL3fB03A3p/1LLu5t4CxABAtnf26rrT1XCtgOh13IOfaFDCIvKkZclP3rhy8lqWgxgAyD5WqXHWqQ1XqhpfkIHNeohoeF4RlZ+s2zb5CawSi+UgBgBKSRWVVd4cr+9jAuPrUJ3FihDFTA2gP8/qtO7joUTEAEAp45wnW/xRq+8zUPkyBIWsCFHcNAn03iCsn265orST5SAGAEqKhZX7Rlse/QKAzwHIY0WIEqYToj/3uPHTV5YUd7AcxABACXHmY41jDDU/pyKfB5DPihAlTa9C7nJF8UMeUUwMABQ3858+MNYTjnxWRe7gEz9RagUBQH4DV+S/X7+srInlIAYAionzKpt9fe7+2wD5Oht+opQPAneZ0fD/bFw+tYvlIAYAGpaKyiqvz+P7tKp8B8AEVoTINtoA/d/sLutnXDVADAA0+Cf+NeoOdDReL9BvApjMihDZ9hu+QRTfLopO+R2PJCYGADqhM1bXfxgiPxbgFFaDyClf9LLbFHxxwxVT/spqEAMAvcNZT9SXq+J/oXIxq0Hk2K/8Z0zROzZeUbSXtSAGgDS3sHJfoeXS/1LBdQAMVoTI8UJQ/Zlkhb/3+sXTu1kOBgBKM/Pv2+Bxjx93qyq+C4ifFSFKO20i+t2iSNGdnB/AAEBp4ozH6z8kKj8HUM5qEKV7KyCb1dI71l9V9DKLwQBATn3qf7xhqkvlfwBdxmoQ0buag2fgNm9/49KSWtaCAYCc0vDft8HjGjv+yxD8J4BMVoSIjqMfIquy8yf/+KXzJcpyMACQjZ3xeOOpotavAMxnNYhokLap4sb1VxWtZykYAMhmFlbuyzLd+Bag/w+AixUhoiGKCuTu/hzPN7ZdMDHAcjAAkB2e+lc3nCuCXwKYwWoQ0QjVqOqK9VcV/42lYACgFHXq47X5Hsv9AxG9ideWiGLcXDwCyMo3rpzcxlowAFAqPfU/Ub9ULLkHQCGrQURx0gToV964svhBloIBgJJsYeW+QtONewFdwmoQUYI8aaq1cuNVJQdZCgYASoIzV++7AtBfAhjDahBRgnWKYOXrVxb9maVgAKDEPfVnWYb1fRXczmoQUZI9lG1m3frS8vG9LAUDAMXzqf/RhgUQ6w+AcIY/EaWKWohe+8aVJWtZCgYAijVVOWN1w+0Q/BCAlwUhohQTFeB7xWbRd3m4EAMAxcj8yr1Fhsv1ICAfYDWIKMWtFVOvfWM5zxRIdTz/PcUtWF1/teFyb2bjT0Q2sVBdsvmMx+quZSnYA0DDcNbv9+RqlvdOBT7JahCRTf22z8z6XBUnCDIA0CCf+itrZorb9RgU5awGEdmbvgWVK9dfXVzFWqQWDgGkWuO/uuFScbleZ+NPRA55zpwBwdoFq+uvZi3YA0DHsKxSXXWuhu8B+AqvCxE5sSsAil/kjCn60kvnS5TlYAAgAPOfPjDWCEf+CGAxq0FEDs8B/zTc1kdfv6ysibVgAEjvxn913ekGZDWAElaDiNJEo6XG1RuvnvI6S5E8nAOQRGc+Vn+dAXmFjT8RpZnJhlj/POOx+ptYCvYApJVpz+7JGNXn/QUEvPmJKN0boYdcprFi7fIp/awGA4CjnfZkQ4E7qk8AOIPVICICBPq6mnr5+uWlh1gNBgBHWvBYwxxR/AXQIlaDiOgd9sOwlqy/onQLS5EYnAOQIGesrv+wqL7Cxp+I6JgKYRkvL3i87iKWggHAOY3/Yw3XA3gWQB6rQUR0XH6x5KkFq+tXsBTxxyGAeFKVMx9t+JYKvsViEBENyc/XX1V0B0SUpWAAsJVpz+7JGNXv/TUUPBGLiGh4LdQjOd3WdS9dXxpkMRgAbGFh5b7RUZf5GJRH+BIRjdBrVthz2cZrClpZCgaAlHbG6voyKP4CYBarQUQUk4aqWmBc/PrVU/awGgwAKWlB5b4zYZjPADKO1SAiiiFFk6W4ZNPy4o0sRmxwFUCsGv9Has+DYb3Ixp+IKC6PqxMMAy/NX113PovBAJAyzni0finE+CuAXFaDiChufKLyzPxHGj7CUjAApELj/wkFHgOQyWoQEcVdtog+febquitYCgaApFnwaMMXFHgQgJvVICJKGK+l8vAZqxs+ylIwACSh8a/7MqA/BidSEhElg0dV/7Bgdd0NLAUDQMLMf6T+q4D8kJUgIkoqF1R+uWB1/R0sBQNA/J/8H6lfJYLvsxJERClBoPjJgtX13HJ9yIWjQTvjkYbvquh/sBJERCnYoAl+sP6q4q+xEgwAsX3yX133PSi+wUoQEaV0CPju+qtKvslKMADE6Mm/7rsq4JM/EZENKPTrG68u5VAtA8AIG/9H67+p0G+zEkREdgoB+NLGq0t+zEowAAzL/NV1XxLFj1gJIiL7ZQCBrFh/dfEvWQoGgCFZ8EjtHYD8hJUgIrItU1SvXb+89GGWggFgcI1/Zf0nIfo71oeIyPYiInLV+quLn2YpGABO9uR/GSCPgtv7EhE5RRjA5RuWlfyVpWAAOKbTK+s+aAj+Ah7sQ0TkNH1iWBetv6rsZZaCAeCdT/6VNWdCjL8D8LEaRESO1GWpfGjT8uKNLAUDAADgzMq6UhWsU2A8q0FE5GitlroWblo+pZoBIM0trNw3OizmawBm8nNBRJQWdofD8r7t1xZ3pHMR0vowoIrKKm9YzEfY+BMRpZVZGR48Me3ZPRkMAOlIVTKMnF8B+CA/C0REadYEiJ6bG/D8Fqpp2xOetgFgwaP1/yWKT/JjQESUngT42IJH676Vxu8/HRv/us+o4te8/YmI2BkA0es3Xl36OwYApzf+j9Sep5DnAXh53xMREYCIYcjF668q/hsDgEOdVllfboi+CiCf9zsRER2lG+patHH5lO0MAA4zf3XdJFhYB6CI9zkRER2jRawzLF24fnnpoXR4u2kxCfC8B2oz1dQn2fgTEdFxKUosyOPpsjwwLQJAj1/uFJEzeHcTEdFJegHOzg14f8YA4ACnV9bfDMUNvKuJiGhwGUBXLKisu8H579PBFlTWnKlivAwgg7c0ERENQdAS4/2bry7awABgM2c+1jjGjEY3ACjhfUxERMPQgKh3/sZrClqd+OYcOQSwrFJdZtT8Ixt/IiIagSJxh/+8rFJdDAA2USP13wf0I7x3iYhoJBT4UK3Uf8eJ781xQwDzH669HCKPgUcdExFRjHKAQJZvWF78KANAilpQWTNTYbwBIJf3KxERxVCPBTl78/LinU55Q44ZAjjr93tyFcaTbPyJiCgO/Ab0kYrKZh8DQIqJeD13ApjJe5SIiOKkPBN9P3XKm3HEEMBplfVXC/QR3ptERBR/+rFNy0sfZgBIsrmr90x2me6tAozmTUlERAnQKbDmbVw+tcHOb8LeQwCr1HCb7gfZ+BMRUQLlK4yH7L4/gK0DwOnl9V8HcD7vRSIiSrBz90rdl+z8Bmw7BHB6Zf18wHoNgJf3IRERJUHEgC7asLzsDfYAJMjcBw/lANYf2PgTEVESeSwYf6iorLLl0kBbBgBPZt/PwCV/RESUdDotU7L/146v3HZDAKdX1l0B6GO86YiIKFVYgsu3LCt9kgEgTuZV7it0IboVwBjebkRElELNaau4MHfjVSUH7fKKbTUE4Eb0Ljb+RESUenSsmtYv7fSKbRMATnuk9mMKXMabjIiIUrQX4JL5lXXX2ObV2uFFLqzcNzqo0Z0CTOANRkREKazNY2rF69eUNbEHIAaCGv0xG38iIrKBMVG33McegBiY/3Dd+Qr9OxxycBERETmfii7bvLzsUQaA4Tb+Tx/I1r7QNgBTeTsREZFtAgDQFI0as7dfW9yRqq8xtYcAAsHvsvEnIiK7EWCC1239N3sAhuHUP+89wxBjLQAXbyUiIrIhy7Lk/Vs+XvIaewAG6bw1a9yGYdzHxp+IiGzMMAzcN/++DR4GgEHqbi79ChSn8d4hIiJ70zlW/pgvpuIrS7khgPl/bphqibkDQCZvHCIicoA+uLV881Vl9ewBOAFLzJ+w8SciIgfJRtT4EXsATmDen2s+Yog8z3uFiIicRoALN3209PkUej2poaKyypuh2dsUmMnbhIiIHGiX0dk2b+OKBZFUeDEpMwTg0ewvsfEnIiIHm22NGvs59gAcZV7lvkJDzd2A+nh/EBGRg3VHTJ2xIwUOC0qJHgBDo99j409ERGkg123Id9gDAOC0P9fMg8gm2ORkQiIiohEyDbFO27h86vb07gEQ40ds/ImIKI24LDV+mtY9AKf/ee8ShfE07wUiIko3IsldFpi0J+/z1qxxK4wf8hYgIqK0pPKjZZWatDNvkhYAuptKPgNgNu8AIiJKy/YfOmePWffJZP39pAwBnPdAbWZXFt4CMIW3ABERpbH6ntzozOqLp4cS/YfdyXi3nZn6WWHjT0REVOzvcq8A8HPH9wDMfHK3PzvorYZiPK87ERERWvqywlPfvGxWTyL/aMLnAGT3eb/Cxp+IiOiIcdlB7+cd3QMw/49vjlXDU6OAn9ebiIjoiK6o6Srdfm1xhyN7ACyX+/+x8SciInqPPLcreocjewDOfKxxTDQcrmUAICIiOqbuqOkqSVQvQMJWAYRDkS9B2PgTEREdR67LiH4ewCrH9ABUVO4b7bEideDTPxER0Yl0mQmaC5CQHgCPFfkiG38iovjJcRsoyHFjVKYLbgH6o4qDfVEc6ouyOPaS53JbtwP4tu17AM76/Z7ckNtVDyCf15WIKDZK/B6cPTELc8dkYN7YTBTkHPt57kAgiidqe/Dwnm50hy0Wzh46IkZ/UdXyil5b9wCE3catbPyJiEZuQrYbFxbl4JISH6bneQf1bwpy3Lh1zihcVurH7S8fQk13hIVMfaO8Vtb1AH5h2x6Aac/uyfD1uGqhmMTrSUQ0dBkuwbkF2VhS4sM5k7LgkuF/be8PRPHR5/cjEGFPgA3U5k+on/HS+efHbQwnrj0AOd3uTwPKxp+IaAhcInjfpCxcUuzDeYXZyHDF5lmtMMeNT8zIxX1VnSxy6ivtbCq+AsAjtusBWFaprj1W7S4A03kdiYhObs7oDFxS4sNHpuRgdGZ8jomv74ng8mcbWWx7WL/lY2Vn2q4HoNqsvYKNPxHRiU3MduOi4hxcWuZHid8T979X5PfA5zbQy2EAOzhj3h/3Ltp6zdRXbBUAFPgirx0R0Xv5vQY+UJCNJaU+nDkhK6GHsgiA0lwPtreFeCFsQAx8CcAr8boXYu70P1TPtwxjAy8dEdEAryFYVJCFS0r8WFSQBa8hSXst/7GuBX+p6+VFsQc1xKjY9LGSXbboAbAM1xcB5WUjorQ3e3QGlpb4cGFxDkZluFLiNcVqUiElphPAVPN2ACtTvgfgtD81FCiitQC8vG5ElI5Kcj24sMiHi0tyMMXnSbnX94NNbfjzW928UHbpAgCCpqJkxzVlTSndA6CI3sbGn4jSzehMFy44vElPxeiM1G5Q2EFrry4AINMtcgtivD1wTHsApj27J8PX5doHYBwvGRE5ndclWDgxC5eU+HB+YTbchj261r++tgXP1XMOgM009+aZRdUXT4/Z7M2Y9gDkdLqWQdj4E5FzGQLMG5uJS0p8uLAoBzkew3bvoTts8kLaz3h/p3ElgD+lZAAQkZWc/EdETjQ1z4vFU3KwtNR33IN37KKHhwLZkkJuiWUAiFl/1el/rJlrCbbyEhGRYx65sly4qNg3cPhOvnOmNl3xbCPqeCiQLVlinbLtY9N2pFQPgCm6UsClJURkb1luwQcn52BJycAmPYYDv9a6QuwBsCtR4yYAn0+ZHoCKyiqf28zaDyCXl4eI7Obtcf0lh9fr57gNx77XkKk4+5E6DtbaOL9pJLtw23UTAynRA+Axsz6ubPyJyGZKcz24oMiHSx0wrj9YBwJRNv72lmd4+pcB+G1KBAAFPsNrQkS2+Pb0Gvjw4cl8p47NTLv3fzAQ5U1gd6rXp0QAmFtZMxMmzuIVIaJUleESnD0xC0tstl4/Xj0AZPP2X/D+0yurp21aPq06uT0AUdwAzv4johRUPjoDS0p8uLjYh/wMgwUBcLCPAcABJBo1Pg3gP5IWAM5bs8bdcUg/wWtBRKmixO/BklI/Lin2YVKajOsPrQcgAu7X4oAEIPj0skr91iPLZdi7Oo3o09F+sPgiEZ3ES0FEyZTrNbB4ig9LS32YNzaTXZInUNMdZhGcofCtSN2HATyflAAgop9kkCSiZPAagoWTsrCkxI/zJmfDY7DZPxlTFXVdEXYAOKYbwPrkSALAsD8xM3+925+Z5WkCkMWrQESJUj46A0tKfbio2IdRGS4WZAhquyO44i/7WAjnCETdwYlVyyuGdbLTsHsAsrLcVyobfyJKgInZblxU4sMVZX4U+T0syDDt6WT3v8PkuKKZSzHM8wGGHQBU5RoOtBFRvPg8Bs5/e0veiVn8umEAoGMQ4OPDDQDD+kzNfbB6vLhlP2J8miARpTdDgDMmZGFpqR8fnpKDTBeb/Vj6wr+asKYxwEI4SyQjEp70xqdmtyWmB8CDj0HZ+BNRbEzN82JJiQ+XlvkxJpPj+vFSzR4AJ/KEvN5lAO5NSAAQyHLWnIhGYnyWG4uLcnBZmR8zHHTUbqrqjyr2B3gEsCMphhUAhty/VlFZO9EdtfYD4LZaRDQkGS7BuYXZWFrix6KCbHDlXuLsaAvhEy/sZyGcydSoFmy7blpzXHsAPFHrSmXjT0SDZAjwvonZuKTUhw9OzkEGx/WT4i12/zuZC27jUgC/imsAUOAq1pqITubtcf2lZX6M5bh+0lW1h1gEB5OBtvlXQ/w3g3fm73aNCXm8h8DZ/0R0DOOyXPhIkQ9LSn2YPSqDBUkh1zy/HzsZApwsYql7wvZrizvi0gMQ8ngvZeNPREc7elz/nIIsuIRd/CnYMnAFgPN5DMNcAuChuAQAhV4ObsdBlPYMAeaNzcSSkoEteXM8nBaUyqq7wghZPADA8VQvjUsAmPbsngx0ygdZYaL0VZbrwQXFPiwt8aPQx85Au9jZzqf/NHHhtGf3ZFRfPH1QYz2D/gRndRgfgsDH+hKllzyvgcVFPiwt8eHUcZksiC0DAMf+04Qvq8N4P4C/xTQAiIElPEKSKD0cfdTuBydnw80F+7a2iwEgbYjgkpgHACguZmmJHPzFAeD08ZlYWuLH4qIc+NJ4XD9iWmjuCiJqWpg8JgcuGwegqKWo7uIQQBp9ki8F8IWYBYA5f6yZC9ViFpbIeYr9Hiwp9WFJqR8FOek9rh8xLRzs6ENTZxCWKgTApFHZtg4Ae7siCEXZfZs+tOyUP9bO2n5N6e6YBACxrAvBpT1EjpGf4cKFxTm4pMSPuWO5Xl8VONTZh/3tfTCPmi0/xp8Jr9vePSEc/0/DPgDLuhBAjAKAyGKWlMjePIbgfZOysKTUj/MnZ8PDcX0AQFdfGPUtvegPm++sl9tA8bgc278/7gCYjgkAiwH8dMQBoOSB2kzAOocVJbKneWMzsaTUhwuKfcjzcr3+2/pCUdS3BtDdFz7GQw8wdYIfbpf968UegLT0gcEsBzxpAMjz6LkKZLGeRPYxMduNi0t8uHyqH8V+DwtyFMtSHOzsx/72APQ4Q+PF43zIy7b/EcUhU/FWBycApqEcXxsWAnhpRAFAxVrM3f+IUp/fa+AjRTlYUuLHaeMz+ak9htaeIBpaAoiY1vHDU34WJuQ545nnrc4wItwBMD2DriGLRxwARGSx8v4hSkmGAGdOyMLSUj8+NCUHWW42+8cSDJuoa+lFV9+Jn4bzsr0oGuuc/c62tQZ58dOUQhYD+P+GHQAqKveN1kj4FJaSKLW8vSXvZWV+TMrhlrzHfQoaRHf/27K8LkyflOuoBU9VbRz/T1cCzD/1gdr8LdeXdg4rABjR0LmAcNYQUQrIz3DhomIfLi3zoXw0l+6dTFtPCA2tvQhHrZP+t163gVmF+bZe738s2xkA0pmBTOscAH8ZXgBQOZe9/0RJ/AQf7uK/aloul+4N0mC7+9/mcQ00/nZf7/9uXWEL+3oivCHSmCrOHXYAUOADLCFR4k3N82JJqQ+Xl/kxOtPFggyCpYqDHf040N4Ha5ATl1yGYGZhHrK8zqvxjrYgj29J9wBgnbgNP24AOOv3e3L7ofNYQqLEGJvlwgVFPlxa5sesUeziH4rOQBh1zb0IRc1B/xtDBDML8pCT4cw5FDvaQgOPcZS+BPNn/nq3/80bZvUMKQD0ibFIoHz0IIqjgVP3srGk1IcPTs7hqXtDFIyYqG/uRWff0Na6iwDTJ+XCn+XcPRK2cwUAAW5PlvdsAC8OKQCIYBHDI1F8nDo2E0vL/LigyAc/d+cbMstS7G/vw8HOPgx1mbIIMH1iLvJzvI6uEbcAJgAQtd4/5AAA1bPZ/hPFTkGOG0tK/bi01I8i7s43bB2BMOqH2N1/5MsQQNkEP0b5nD3EciAQRVvQ5M1CAOSs43YPHPN/XaWGYu98Fo5oZDJcgg8U5mBpqR/vL8gGe/iHLxy1sK8tgNbu4Xdtl03wY6w/0/G14gZAdNTT/FlYpQZWiTWoADBnRu0cKHJZOKKhM2TgAJ6lpX5cVOxDjodd/CP6+lKgqasfjW2BdxzVO1Sl4/0Ym5uZFjXbwfX/9G95FdOqZ1UBOwcVAMSyzuJG4kRDU+T34NJSP5aU+lHA3fliojcYRW1zD/pC0RH9nrIJfoxLk8YfALa3sQeAjmrTYZyNQQcAlbOUMwCJTsrnMXD+lIEu/rMmZjE3x4hpKRrbAmjq7B/xN1HJeF9aNf5hU7GzLcQVgHRUm65nAfjNoAKAip7JkhEd25EDeMr8+PCUHGS52cUfS52BMGqbewa1he9gGn+nnOw3WLs7QgiZbP3pHQngmBMB3xMASh6ozQTM2awY0TuV5XmPHMDDLv7YC0VM1A1jTf9xG/9x6df4A8CWFnb/03sSQHnJA7WZddeXBk8YAPK8OtdS8NuNCAMH8FxS4sPSMj8P4IkTVeBAR9+QtvAdVOOfn5WW9dzWygmA9B6eXHe0HMCmEwYAy7JO40AmpfUnxRC8vzAbl5b68f5CHsATT939EdQ196A/HLs166Xj/Rifl5m2Nd3KJYB0DJaB004aACA4jaWidDQ1z4ulZX4ewJMAUVOxr60XzV2xa6wEQGmazfZ/t4OBKJr6orzB6L2fDzXe07Yfq6v/dJaK0oXfa+CCooEu/tPGZbIgCdDaE0R9SwBR04rZ7xQAZRPTY5MfPv3T8OiJA8CySnXtDu+dw0KRkx09i3/xFB8y3eziT4Rg2ERtSw+6+2J7Rv3be/s7fXvfQQUATgCk45v77h0B3xEA3uqvmQoXslgncqJJOW5cVOzD8hl5nMWfQJYqDnb0Y397ABrj1WmGCKZNysUohx/swx4AigHf3LI3i7cBtccMAKZLK/gsRE7y9l78V0/P5UY9SdAZCKOupRehSOwPpjEMwYxJucjLZuMPACFT8WZHmIWg44dxw1OB4wUAAyjn9hHkBOWjM3D19FxcXOJDNjfqSbhI1ELDCA/uORGXIZhZmAd/Jk9VfNuOtiAiFr/B6fgEWg7gmWMGAIWWg89IZFPjs91YUuLDldNyedxuEjV3BdHQ2juig3tO1vjPKsyDj43/O2zl+n8axLPR0f+H+53pwCjnGQBkJ15DcN7kHCwt82NRQRZcwgCbLIFQFHXNPegNxm8ZmsdlYFZhHrIzOIfjPQGAEwBp2AFglRqKvTNZH7KDt9fsXznVj/wMrtlPplge3HOyxn/25Dxkedn4HwtPAKRBmA1VgYi+IwDMLXuzWOHmCgBKWbleAx8p8mH5jFzMGsUlX6kglgf3nIjXbWD25Hxkehj2jmVfbwSt/SYLQSfjm/uH6sJtQOM7AoAl3mmAxfJQSnl7zf6y6bn44OQcuLktb0oIRUzUtfSiMxD/WecZHhdmF+Yhg43/cW1pCXLwlgZFFdPw7gAAQ6fxDqJUUZrrweVTc3FZmR9juC1vKn15oKmrH41tgbhN8jtapteF2YX58HIlxwlx/J8G/RkGpgF46Z0BQHUqS0PJ5PMYuLDYh0u5LW9K6umPoLa5F/3hxOw1n3W48few8T95AOAKABoswZG23n10KhD2AFCCGQKcOi4TS0v9uKTUhyx+2aecqKXY3xbAoc7+hP3NnAw3ZhXmwe3i/XAy/VELezrCYA8uDeo7F8a09wQAA5jG+4cSZWK2GxeX+rB8ei4KfVzPnapae4JoaAkgYiZuflBOphuzCvLhdnG+x2Bsaw3BVH570+AcHgI4KgCoiv5+bylLQ/GU6RZcUOTD5VP9mD+B2/Km9FNl2ERtcw96+iMJ/bu5WR7MKMiDi5M9B437/9MQI8A7hwBOe6B6bMQj2SwMxUP56AxcNS0XF5f64POwSzeVWarY396Hgx19SPRDZV62FzMKcmFwM6ehBQBOAKSh8Z/yh/pR268t7nADgOnBFNaEYsnnMXBhyUAX/+zRXLNvB939EdQ29yAYTvx68lE5GZg2yc/Gf6jPcgwANJz7JmpOATAQANTCFBgcQ6LYPO0vm57HCX02EjEtNLTG7+Cekxnrz0TZBD/Y9g9dXXcYXWFuAERDZESnANg2MAfAkCmcQkrD/gLPcuHCYj+umpaLafk8mtVO4n1wz8lMzM9C8TgfL8QwbeHTPw2LFAFvTwIUTGH7T0MKkAIsKsjBVdNycW5hNnfos5lAKIra5h4EgtGkvYbJY3JQOJpTj0ZiGwMADav9Hxj2dwOAZelkdr/RYEzIduOSUj8+Oj0XBVy+ZzuWKva3HZ7kl8TXUTzOh4n5PHpkxD0AXAFAw6FHBQARFLAidDxuQ3D+5Bwsm56LsyZmgw/79tQRCKMuAQf3nPDBQ4CyCbkY6+fE0JHqCVuo6QqzEDSM9l8nHQkAACawJPRu47PcWFLmx8dm5GFSDo9gtatI1EJDW/Im+b3NEMHUiX6M9rHxj4WtrUFYHLql4QRxyIR/BwDFBO7KQgNf0sCZE7OxbFouPlSUAxfHhmwt2ZP83uYyBNMn5SIvm5NEYxYAOP5PI3i+AwD3/Ps2eEKCUaxHehub5cKlZbkc23eIvlAUtc296A1Gkv5a3IZgZmEefJm8r2LdA0A03K/889ascbujmf7xAJ//0/Vpf+GkbCybnofzJmfzad8BLFU0tvXhUGfid/I7Fq/bwKzCfGR5eaRzbK8zsJ0BgEbw9d96sHiMOwJjPLdrSS+jM124fGoulk3PxWQ+7TtGZyCMupZehCKpsTFMpseFWYV5yPCw8Y+16s4weiMWC0HDF8EEt+HCOO4BkB5mjcrAR2fkYWmZHxk8ac05n+Mk7+R3LFnegeN8vdwNMi42NvezCDSyLgCXjnMDMkqZAJx7kQU4tzAH187Mw8JJ3HTFaVp7gqhvCSBqps7T4MBxvnlwu9j4x8vmliC/tWlETDXz3ZZp5QvHfh3H5zFw+dRcfHJ2HgrZze84wcPH9Xb3R1LqdfE438TY1NzP3dtpZERGuUWEKwAcpNjvwTWz8nDltFwexuNAlioOdvRjf3sgJSb5HW1UjhfTJvE433g7GIjiUCDKQtDI2n9IvhtAHkthf/PGZWLFKaPx/sJsLulwqK6+MOqaexGMpN7pb+NyM1E6wc97LwE2t3D8n0ZOFXluheQL+5Js6/Txmbht3hicNZH7qjtVxLTQ0NKL1p5QSr6+SaOyUDSWJ/olLAA0c/kfxSQCjHKLIo+x3X7GZ7nx5QVjcWGJj5fPwVq6B3byi5qpGdJ5ol/ibWIAoBgQIN8NUUZ3m1k4KRvfXzQBYzK5vtqpghETtc296O5L3cNeeKJf4vVGLOzpDLEQFAs5bqhmg5N2bOOmOaNw+2lj+NTvUJYqDrT34UBHX8pN8jvy5MAT/ZJmSwsPAKLYUEG2GyKM8Daxcu5o3DZvNAvhUN39EdQ29yAYNlP2NRqGYPrEXOTn8FCfZOD4P8UwAWS5IcjmHMDUt2BCFlbOZePvRFHTQn2K7eR3LG6XYGYBD/VJpk3cAZBiRTTbDQVn8NjAp8rzwb1VnKe1O4j61tTaye9YBg71yUOW182LlqygaCm2t7EHgGLVA4BsNwAOAaQ4jyFYOJE5zUlSdSe/Y8n0ujCrgIf6JNvO9hCCUXbXUsy6ALLcADJZiNQ2MceNTDcf/x0RuhU40NGHA+19sDT1v8xzMt2YWZAHD/f1Tzou/6MYfxtluQGwTy/F8eA+Z+g5PMmvP4Un+R0tN9uLGZNyua9/iuAOgBRjbgYAGzgYiCJqKdz8IralqKloaO1FS7d9nuBG+zIwdaKf+/qnyrMauAKAYv9saQDgwF6KC5mKvzUEWAgbau8NYVt9u60a/3G5mZg2kYf6pJL67jDagyYLQTHtAWAAsInfVHXAVE4AsotgxMTu/V3Yc7AbkRSf4X+0wtHZKJvg595gKYZP/8QegDS2sz2En2xqYyFSnCpwqLMf2xs60JXC2/geS9FYHyaPyeFFTEGcAEjx6AFwMwDYx293diJqAV89Yyy3Ak5BPcEIapt60R+211ntIsDUCbkYw619UzgAcAIgxb4HwK3sVraVh3Z1oK47jG+dPR6Tcjh/MxWYlqKhNYDmLvt9SRuGYMakXORlc2vfVNUeNFHfHeaGrRT7LgAAJrgSwFb+tT+Ai5+ow9JSPy4s9ePMCVlcIZAkbT0h1Lf02mqc/8iH32VgZkEut/a1wdM/G3+Kx7MLA4BNhU3F6upurK7uRq7XwPlTfLig2IeFk7Lh5cYBcReKmKhr6UVnIGzL1+91G5hZkIfsDH70Uz8AcPyfYk+A6NsBgGysO2zhyb3deHJvN/xeAx+YnIPFRT4sKsxBJsNATA1M8utDY5s9dvI7liyvC7MK8+F1c3c/O9jM8X+Kx3fZUT0A5BA9YQvP1PTgmZoeZLoEZ0/KxgUlfnxwSg58Hn7hj0QgFEVtcw8Cwaht3wO39rWXoKnY1R5iISgeom4AUdbBuV8eLzUG8FJjABkuwcLDYeD8yTnwe9kADJaliv1tfTjY0WfrsdjcbA9mTMrj1r42sq0liIjFGQAUF6ZbAJ4vlQZCR4UBlwDzxmXhgmIfLir1Y0wmV4IeT2cgjNrmHoSjlq3fxyhfBqZxa1/b4fI/ihtF1K0AZ5ikW+zTgS+WTc39+OGGVpw5MQuLi334cJGPYeCwcNRCfUsv2nvt3/06IT8LJeN8vKg2xAOAKG4E/W5A+sFFJmkcBhRrD/Zh7cE+/NfrzTj1cM/A4mIfJmSn5wzx1p4g6lt6ETXt/7koGJWNKWO5u58dWQpsbeHzGcVNvxvQPtaB3v7Cebtn4H/Wt2BavhcXFPtxcakPJbnO3yimPxxFTVMveoMRB4R7oGS8H+PzMnlj29RbHSH0hC0WguL1HdHnVmifcGNZOobqzjCqO9tw19a2I2HgwhIfyvKcFQYsVRzs6Mf+9gCcsDGmIYKpE/0Y7ePWvnbG8X+KJ1X0uQXCu4yGHAY+MDkH50/OwWnjs2z9vnr6I6ht7kF/2BmrYd2GYEZBHvxZ3N3P7ngCIMU1AAj63VD0sQOAhh4Gwvj1jg5M9nlw/pQcXFDsw6njs2xzK0Utxb7WXjR3OedL1uM2MIu7+zmnB4ATACmORKXPrYJetv80XI29ETy0qxMP7epEQY4bHyrypXwYaO8Noa7Znvv3Hw9393OWA4EIDgW4RQvFkaEBtyHo5IGAFJsvreiRMDAxx43FRQOrCU4bl4VU2HsmGDFR29yL7r6wo+ruy/RgZkEu3NzdzzHY/U9xp2h3K6STywAp1g4dFQZGZbhw7uSBYYJzCrITfnKhKtDU1Y99bQFYDttVLS/bi+mTcrm7n8NsaGL3P8W7/UenW6Gd/OqgeOoImUcOK8rLcOG8w2HgfQXZ8MS54QqEoqht6kEg5Lzu1LH+TJRN8IOb+znPRgYAijMR7XIbFjqVXyCUIF1HhQG/18D7JmXjvCk+LC7KQVYMx69NS9HYFkBTpzPPUp+Yn4Vi7u7n2MBc0xVmISjOXQBGx8AQACcBUBL0hCw8X9eL5+t68W334ZMLi/34UFEOckZwcqFT9u8/nqKxOZg0Kps3kIOf/vmVTPFmqHa6VbWDywAp2fqjijX7Alizb+DkwvcVDISB86cM/uRCJ+3ffywiwNQJuRjj5wY/jg8ALAPFmSXa5TaAFm42SakkZP47DHhdgvnjs3D+lBxcXOrH6OMcVtTcFURDay9Mhx6dahiC6ZNykZ/t5Q3icJwASImghqtJZj+0cxJM9wGWg1Kd2xCcffjkwnMmZsLvNdAfMtHc3Y9A0Llrpj0uAzML8pCTyQ1+nK43YmHhn/bCZBcAxft7xTAmuCdMbmppqi+0AHARMaW0qKV45UAfXjnQh7PGenHLDOePg2d4XJhVkIdML49pTgdbmoNs/CkRzG2ZU9uMl84/PwqgnfUgO9nUHkZf1NnflNkZblRMzmfjn0bY/U8J0orlYr791N/MepCdRCxgU3vEse8vN8uD8sn58HBrXwYAothrAg53+wu0ifUgu1nb4sy10qN9GZhZmMfd/dJM2FRUtXELYEqI5iMBACIHWQ+ym93dUbSHnLWGZWJ+FqZPyoXB7f3SztbWIEKcAECJIHrwSABQC/tYEbIbS4F1rc4ZBpg8Joe7+6Uxbv9LCaPScFQPgDIAkC291mL/TX9EgGkTc1E4mrv7MQAQJeQ7Z9+RAGDAYAAgW9rfZ2FfwLTt63cZghkFedzdL82ZqtjSwvF/SlAHgDXw0O8e6A3APm4+TXbuBfhojv2enj0uAzML85CTwQ1+0t2uthACEZOFoAQ9eZj/HgKwEG1gRciu1rVGYLcdgDM8LpRPyWfjTwCA9ez+pwQK9Wf8ewhg96dmtwHax7KQHXWGLezuts9WwDmZblRMyUemhxv80ACO/1MCddesmNp1JAAMMGpYF7Krtc32mAyYl+3F7MJ8eFzc4IcGKIBNzQwAlDB7j7T6R92G1awL2dX6tghCKT4OMDY3EzMLuMEPvVN1ZwidIY7/U4KIHGnr3f9OoVotyi8msqeQqdjUFsHCcal5XO7E/Cyu8adj2nCof6AbgCgR7f9RD/tHegAMNfayNGRna5vDKfhhA0rG+9j403Fx/J8SSaHvHQLQo8YFiOyoqiuKrnDqbA1siGDqpFxMyMvixaHj4vg/JTQA6L8DwJEhAMtlVYvJIQCyL1MVr7eG8ZGCzKS/FpchmFmQB3+WhxeGjquhJ4KDgSgLQQkTjbrfOwTwZs3MegCMomRra1uSfzaACDCrMJ+NP50Uu/8psV9O6K2+cdr+9wQArBILit2sENlZbW8U+/uSOwzgy3LDl8kNfogBgFKs/VfshIi+NwAMPLrsZInI7tYl+YAg4ZRuGqT1Tdx/jRJHgXe08e/ajUQZAMj2XmsJJ3Vr4IMdAURMixeCTqilP4qG7ggLQQkMAHL8ACDvSgdEdtQWsrCnJ3kTq3qDEfxz5z4Egvxyp+PbwO5/SjBDTtADoIbFAEDO6AVI4p4AUctCe28Qz22txe797RwQoGMHgEMMAJRY1rva+HcEgN1Zs/byUCBygvVtYSRrSwBLB/6waSm2NbRgzY4G9AbDvCjEHgBKHkHv4dV+xw4AWC4mINtZKbK7vqhiW0fiu+BVAetdExBae/rx4rZ61DR18sIQAKA7bKK6M8RCUALbf2zBKrGOHwAACHQzS0VO8FoSVgOYeuxuh4hpYUNNE17e1Yi+MDd+4dN/PyyODVFiH07e07a/JwCoGAwA5Ajb2qPojSb2W9Y8yez/Q50BPL+llr0BaY7r/ynhAQC65eQBwLQ2sVTkBFFVvNGa2LF3U08eON7uDfjXrkb0szcgbXsAiBLJZbhO3gNgBlzbAXD9EjlCok8INK3Bzzw82BnAc1vZG5Bu+qMWdrZx/J8SKhzueu8y//cEgOrbp4cA7GK9yAn29ETR1G8m7O9Z1tCWHkSih3sDdrM3IF1saQ4iygkAlEAK7Dzctp84ABz2OktGTrEugcMApjW8tYcHOwJ4fmsd6lu6ecEcjt3/lGgGdN2x/vdjnlgilr6uIjexbOQErzaHcemULCTisOvjrQIYjHDUxOvVB3Ggoxenl01AhtvFi+fEAHCoH9wdihLaA6DG68cOBsf8ry32AJBjNPdbqO1JzDCAGYMzAPa19eC5LbXY397Li+cwEUuxrZU9AJRYlnHsHoBjBoBdjbN3Auhi2cgpXmtOzKSrWI3thiImXn1zP16vPohw1OQFdIjtrUEEo3z8pwQ+/QOdb9XPeGvwPQCrxFLFBpaOnGJdSxhRjf8Xr6Wx3X+4vqUbz22pw4EO9gY4Aff/p0QTxbp37wD4NvcJ/tU6hXyI5SMn6IkqdnREcepoT/waf8tCPDJGMBLFK7v3o2xCPk4tHge3y+AFtWsAaOrn8D8lNgCcYFL/cb9JVOVVlo6cJN4nBJpx7mGoaerE81vr0NLNp0g7MhXY0sxrR4llibwy5AAg0FcAcGEyOcam9jACcRx/jcUEwJMJhCJ4qaoBm+ua33PoEKW2N9tD6E7WEZWUriKZ7v61Qw4Ab94wqwfQLQPrVfjDH/v/RCzFxrb49QKYmpgvdwWw52AHXthej45AkF9xNrGhqY+fQ/4k+mfDtuvmBYYcAABAVF/mx5ac5LWWOAaABD+Rd/eF8PftDdjW0AJL2RuQ+gGA3f+UcCdsw08YAFSEAYAc5c2uCNpC8XlST1QPwNEsVeze3441OxrQ0x/mBU5RCmDjoT4WghJ7352kDT9hAHBb5r8AcNCKHMPSgSWBcfndZvKewtt6g3hhWx1272/nLPMUVNsVRluQ+zlQQplheF8bdgCourGiXaBbWUdyklfjtClQMnoA3vH3LcW2hha8vHMf+niwUErZwKd/SjTBxrrrSzuHHQAAQCEvspLkJPv7TNQHYv80NtyDgGKtqasPz2/hMcMpFQA4/k+Jpjhp2z2IAGAwAJDjxGNPgKiVOqNlEfPfxwwH2RuQdOu5AyAlvANARx4AwuJ5BQDvXnKUdS0hxHbSvkJTcF3+wY4Ant9Wx4OFknkNAlEcDERYCEqkQLTXvW7EAaDu+tKg4vg7CRHZUWfYws7O2H0pm5am7OS7tw8WWvvWAR4slARvcPyfEkwha6pvn37SyU6D2lRcVDkMQI7zWkvsJgOaVuovltnX1oMXttWjqYsNUiJx+R8l2mC6/wcdAAy1/sqSktNsaI0gFKOle6ZNtuXtC0Xwz537sKGmKaXmLDj6PuMEQEp8F8DzgwsKgzTz17trAJSysuQkt8zMwcLxGSP+PYFQCK09AVu995xMD86cOgnjcrN4I8RJe9DEOX+s5t4MlMjGf++bN86aFrMeAABQkb+wsuQ0r8ZoUyA7Pk0HghH8ev0+/GxjCyI8WCg+T/+H+tj4U0KJ6JOD/W8HHQDEUgYAcpyqjgi6YnBCm2nDBnRDJ/Bgg+Kere248sl67GoP8YaIdY3Z/U+J7gAYwsP6oAOA2edaA6CH5SUnsRRYG4NeANNGPQAWgGcPAU8dxJGlkHs6Qlj2VD3u3NwGk4+sMe0BIEqgbrfPHPSqvUEHgOrbp4cE+jfWl5wmFpsCWTYJAGEL+FMjsK7jvf9/UUtx5+ZWXPdsAxp7uG59pHrCFt5krwol1nNVyysG/YXmHtJTDvCUAFewxuQkdb1RNAZMTM5xDb8HwAaPzT1R4Pf7gAPBkzy1NvXj0ifq8NUzx+GjM/N5gwzTpuZ+RNmbQgkkgqeH8t8bQ/mPI0bmEwB45ig5ztoR9gIk+yCgkzkUAu6rO3nj/7ZAxMI3X23C5/5xAB08xW5Y2P1PCRb2BsNDmqs3pABQd31pJ0T+yTqT4wJAa3jYWwOrApam7qPe7h7g/jqgaxi9+i/U9WDJ43VYs49bCQ8V9/+nxNIXt986tyNuAQAA1LJWs9DkNK1BE291DW/cO5UnAG7qBP60H4iM4CW29kex8sX9+OarTeiPcvOgweiPWtjRGmQhKHHNv8iQ2+YhB4CoRp8AwD5BcpxXhzkMkKrd//9qA544aqb/iL5cADz8ZieufLKeDdsgbG4Ocm8FSqSoROTpof6jIQeA2ptOaQL0VdabnOaN1jCGsyWAaaZWALAAPH0IeKEZMd+EpqYrjOXPNHC54Ems5/g/JZLImrdWzGyNewA4/DjwCCtOTtNvKra0Db0XwEyh8f+oApX7gTc64vc3TEvxi82t+Pgz9ajv5pxgBgBKgdj/6HD+1bACgGW4HwYQZdHJaYZzQmCqzAEImsBv64Gq7sT8va0tQVzxZD0efrOTN85RwqZiWwuHSShxt5zhwrDm5g0rAFR/ZnoLAG4KRI6ztT2KnsjQnuhTIQD0RIFf1wP1CZ54/vZywZteaERrP58JAGBLS3/MTpkkOinFX3d/anZbwgLAwB+VP7Ly5DSmKt4Y4tbAyT4HoDk0sMzvUBI3nXu5MYDLnqjHy42BtL+HuPyPEsqQPw37nw73H2Z6g48B4KedHGeowwDJ3AZ4Xz/w6wagMwV27m3tj+LmFxrTfrngGwc5/k8JE8h0B59JeADYdt28ABTPsP7kNHu6ozjUP/iVrskaAtjdCzxQD/SlUM/728sFr36qHrvTcB/8iKXYyvF/SpzHtl03b9gP4sbIPuzGQ9DDn3r+8MdBP0PZGjgZQwCbOoE/7Tu8wU8K1q+6I4zlT9XjwaoOpNNo+PaWIPojFj9D/EnIj1rWQyO5X0cUAPbkTn8OQCNDGDnNq82hQTVclio0wU3cv9qAxw/EZoOfeAqZiu+ta8aNzzWipS89Jgi+weV/lDiNe/Jm/yNpAQDLxQTwB0Yx/jjtp7nfRHX3yRutaAI3AVIALzQpXmiyVy1f2d+Ly56oxUtpcJ7A+oN9/PzwJyE/KnjgcBucpAAAwLD0NwC45oUcZ23zycewE7UJkCrw1IGBp387aus3ccsLjfjmq4ccO0HQtBSbm7kCgBL0lRB1/W7E7fdIf8Hum2e/BcFaXg9yXgAII3qSBt6y4n8shqXA4wcVGzrtnbMVwMO7O7HsqXq86cAJgjvagghEeFgSJeSz9M/qFdP3Jj0AAIBAf8NLQk4TiFrY3h456VNfPEUVeLgR2NzpnLru6Qhh2VN1jpsguJ7L/yhBRPSBWPyemAQAd1AfBtDNy0JO8+pJhgHiuQQwYgG/bwB29jhvhG1ggmATbnx+n2N2EHyDGwBRYpr/zt5o36Ox+E2uWPySlmfvDo+59HNTFDiDF4ecpDlo4sMFmfAacuxegnAIkWjshwH6TeCBBkWdwx8qG7ojeHpvN2aNycAUv9e278NU4DtrD3ELYEoAva/+5nlPx+I3GbF6SZZh3gVOBiSHiVjA+tbj7wkQj6OA+03gdw2KxjR5oGzui+L6v+7D99Y1IWrZ8ytkV1sQPWGO/1MCmn9Lfxmr3xWzAFD9mYqdgL7Ky0NO89oJNgWyYrwKoN8EHqhPn8b/yJcagN9VdeBjz9SjsSdiu9fP438pQV6qvrmiKuUCAACoGPfy+pDT7O6MoDVkxb0HoDcK/KpOcSCNd5Ld1hLElU/WYU2DvfYM4P7/lAiiGtM2NqYBAAHXowBaeJnIaU+nx9oTQKEx6wHojQ48+TeFWO/OkIlbXmzE99Y1IWKDIQEFsLGJEwAp7po8efp4ygaA6tunhyDCXgBynFeb3jsMYFmx2QS4Jwr8ph5s/N/VqP6uqgMffboe+1J8SOCt9hA6QyYvGsX3MyG4p2p5RTiWv9OI9Yt0R617AIR5uchJ9vdFUdf7zuVq0RgsAeyKKH5Vp2gOcf7ssexoDeKyx2vxbG1Pyr5G7v9PCRCKGtZ9sf6lMQ8Au1aUHxRoJa8XOb0XwBph93R7GPhlHdDGuHxCvRELd/xjP77yz4MIpuAyO47/U9wJ/lh3fcWhlA8AAGAZ+AmvGDnNmoNBdB611Gsk4/8toYEJf50R1nWwnqjuwsefrkd9d+okJgWwoYkBgOLMtH4ej18blwBQ/ZnyTYC+wqtGThKyFA/X9L3r63/o9vcDv6xTdEdZ06Gqagviiifq8GxNamw8urczhLZ+jv9THEOm4B97bq7YYpsAcPhVsxeAHOeV5hA2H+6zN2ToH589vcBv6hV9bDOGrTdi4Y41B/Cfrx5K+iqBNw5y9j/FOwHgp/H61e54/eI9+2c9Mb1g904IynkFyUkerO7DrHwP3O6hBYD1HcDTBxUW5/vFxMO7OrGnPYSff6gQ47PdSXkN/2rs5f6nFM/Wf1f1/tl/iddvj18PwCqxVPTHvIDkNK1BE/fs6oUhBozjnBFwtLAFPNqoePIAG/9Y29TUjyser0vKTnxdIRMv7wvwIlDcCPB9rJK47TFtxPPF51l9DwKyj5eRnGZzWxi/3dOHbM+JD7CpCSh+sVexpYs1i5eW/iiue3YfHtjRntC/++fdnbbYqIhsq9GTp3+O5x9wxfOXH3zmfmvMZbe5AHyE15Kcpq43ih7TwCw/oO9aEdASAv56SPFc08D+/hRfqsArjQE09kTwgSk+uAbRMzMSgYiFL605iL4oDwCieN3U8s3d15W/Fs8/EfeBM0PkPlX9hgKjeEXJaV5tDuPNLgNXTXEj3wPU9JrY3G5hb99Ao0SJ9fieLtR1hXHn4kKMy4rf19svNrWitZ/LOChu2r0R89fx/iOSiHcy4/5d31bBN3lNiSgRCnwe3L24EOVjMmP+u7e1BPGxp+tte3Qx2eLx/5t7bir/btwf0BPxVqLq/TEgnbyoRJQIB3oj+PjTDfhHjE8VbOmL4ra/NbLxp3jqirhDv0jEH0pIAKhZMbULYt3J60pEidIftXDbi424a3MrYrGDcFu/iRue24emALv+KY7P/oIf111/WkIemCVRb6rkgc357mhWLaD5vMRElEhzx2XiPxdOwKnjs4b176tag7j9H/vR0M29mym+T/9Rd7DEcQEAAKb9ctf3AHyD15iIEk0AvH9yDq6rGI1FhdmDWinQ1m/il9va8GBVB5f8USKsqr5p9rcT+ZlImFm/2zUmGkINBLm8zkSULPkZLiyanIPTxmehLN+LSTkeeF0C01K09pt4sz2I1w70YU1DLxt+SpSOqDtYlqin/4QHgMO9AN8CsIrXmoiI6Ehr/I3qG2f/TyL/pJHo95gRtv4PQBOvNhEREQCg2SWS8InyCQ8AVbdV9AL6fV5vIiIiANDvvHnDrJ5E/9WkHKGVkad3h7pwO4BSXngiIkrbpl9QJ32eXyXjbxvJ+KNVyyvCEP0vXnoiIkrvBIBvVd8+PZQ2AQAAqnPLfyfANl59IiJKU1v25s3+Q7L+eNICAJaLaRnGHbz+RESUnk//cgeWS9LOC5Vkv/9p9+98HMDlvBOIiCiNVFbfXP7RZL4AI9kVMNzuLwEI8V4gIqI0EXSb8tWkt7/JfgFvfWZGjQI/4/1ARETpQIEf7V45uy7tAwAAuF3GfylwkLcFERE53P7MiP4gFV5ISgSAN2+Y1SOC/+R9QUREjib6tYEN8RgAjqjeP/sBgazn3UFERA71evWN5X9IlReTMgEAq8SygDsA8OgtIiJyGrVU/x9EUqaNM1KpOntvnv0agEd4nxARkcP8vmZFxSup9IKMVKuQaeArAPp5rxARkUP0Gqbr66n2oiQVK1V2/86vCsATA4mIyPZU8IWam8p/mmqvy0jFYhUdaPo/ABt52xARkb3J+pq82b9IxVeWkgHgpVXnRy3LugFAhDcPERHZVFQMa0Uy9/u3XQAAgNpb5mwF8BPeP0REZFPfr76xYnOqvjgjlSsX6vWvAlDNe4iIiGzmLdOT9b1UfoEpHQAavzilX0RuAvcGICIi+1CIrqy7vjTIADAC1TfNfkmAB3g/ERGRTdy396aKf6T6izTsUElLM74IYD/vKSIiSnEHTU/o63Z4oWKXik67r2qZQip5bxERUQq3qlfuvbn8cQaAGJt6387HAVzOO4yIiFKNijxac/PsZXZ5vYadihsFbgXQytuMiIhS7Hm6WSX6WTu9YlsFgPoV5QdF9UbeaERElFIP/4oba286pYkBII6qb6l4EtD7eb8REVFKtP7A3dW3zH7abq/bsGOx+9H/BYHu5m1HRERJtiuIvq/Y8YXbMgAcWLGgD5BrAYR57xERUZKEDNFrBtokBoCEqV5Rvkkh3+L9R0REySAq39hzc8UWu75+w87Frzk464dQ+QdvQyIiSmjjL3ix+tCsn9r5Pdg6AGCVWC41rhOgnbcjERElSIdGzBuwSixbhxgnXImye7dfKWKs5j1JREQJaDiXV6+oeMQB78MZyu6tegCCT/PWJCKieFHg/toVFSuc8F4Mp1yULBOfA7CTtycREcXJ9r6s6Bed8mbESVem7P5dM6DWGwDyeJ8SEVEMdYoLZ+y9saLaKW/IcNLVqbl59lsquA6A8l4lIqIYURH5jJMaf8cFAACovbniKSi+z/uViIhi0/zju3Y54jetAwAA1Bwq/w8FnuNdS0REIyJ4sWZ0+Xec+NYcGQCwSqyIC9cCqOXdS0REw1TvVvc1WC6mM7ONg5XcX3WqYeE1AFm8j4mIaAiCYhmL9t46e6NT36Dh5KtXd3PFFlVZwfuYiIiG6FYnN/6ODwAAULuy/CEI7uO9TEREgyGCO2tuqXjA6e/TSIeLaYS8nwfwOm9rIiI6IZXXMkfhS2kRdNLlmpbcVTXRcGMdFMW8w4mI6Bhq1WUtrL3plKa0eDhOl6tad1vFITNqXQSgg/c4ERG9S5eoXJoujX9aBQAAqL/tlF2WYVwBIMR7nYiIDosAuGrvyvId6fSmjXS7ynU3z/4noNeD2wUTERGgArmx5paKv6fbGzfS8WrX3DLnTwC+y/ueiCi9iei39t5S/mBavvf0zXwqpfdV/VYg1/EjQESUlk3gn2pWzL4WImnZI2yk73UXHS3BGwH8nR8CIqI0awIU/zTCnuvTtfFP7x6Aw8ru25sHDb4CYA4/EkREaWFn1DIXNdw6N61XhQnvA6Dknl0lItY6ABNYDSIiRzuEqJxd+9ny+nQvhMF7AahbObvOsIxLAHSxGkREjtWpBi5i488A8A57b5290YJxEYBeVoOIyHH6YOHSupsrtrAUDADvUX/L7LUCXA4gyGoQETlGvyW6pPbWin+xFAwAx1VzS8XfVfVycLdAIiIniIhay+tXzFnDUjAAnFTdyjnPC6xrAERZDSIi2zJV5bqalac8w1K8F1cBnEDJ3Ts+JSK/YVAiIrIdhcrNtbeW/4qlYA/A0HsCbp3zO6jezkoQEdmr8ReRz7LxZwAYkdpb59ylKl9gJYiIbNL6q3695pbyu1kJBoAY9ASU/xSi/8VKEBGlNgG+XXfrnB+wEoOqFQ1Wyd07viqC77MSREQp2KAJflBzy5yvsRLsAYhDT8CcHyjwVVaCiCjlfJONP3sA4t8TcO/2W0TlLgYoIqKkUxX9Qt0tp/yMpWAASIiye6quVehvAbhZDSKipDRhpihuqrm14gHWggEgoUrv2b4ckN8D8LAaREQJFYbItbW3VDzKUjAAJKcn4O7tl6gYjwCaxWoQESVESEU+WndLxZMsBQNAUpXcve0DIsbTAPysBhFRHCkCAuPymlvL/8ZiMACkRk/AXTvOUAPPARjNahARxaXF6jRMvWTvbae8xmIwAKSUqXdvm2+J8RcAE1gNIqKYOmRBLq5fWbGZpWAASEnFv9xaKlHXXwDMZjWIiGLSUlVJ1Lik9rPl9SxG7HAde4zV3zSv1lLrHAh49jQR0cj9A/2RRWz8GQBsoeHWuR05o+VCKB5kNYiIhu23OWPkorovnNbJUsQehwDiSVVK7t3xLUC+yVoTEQ3+2xPQ79TdMufbEFGWgwHAtkru3vEpAPcD8LIaREQnFBbRG2tXnvIQS8EA4AjF91R9UFRXA8hnNYiIjqkDolfWrTzlJZaCAcBRiu6tKjcs/QuAElaDiOgdzVGtqnVJ/W2n7GItEoOTABOo4ZaKnVBZCOg6VoOI6IjXXBI9m40/A4Cj1d1WcaikufX9AH7AahAR4f6csXL+3pXzmlmKxOIQQBKV3r39Ewq5D0A2q0FEaSaoorfVrzzlNywFA0BaKrmr6lQIHgO0lNUgojTRYCiurrltznqWggEgrRXeuWuMxzD/AOACVoOIHO6vUa98ovHGinaWggGAgIFNg+6p+gqA/wbnZhCRA7/lAPywrrniG1glFsvBAEDvUnbP9iWWykPgfgFE5BzdKvrp+pWnPM5SMADQiULAvTunm5b5mEDmsBpEZPPn/t0KvZJL/FIPu5pTUM0t5Xt8aiyECmfHEpF9237BL/v7zAVs/NkDQMNQfNf2K0XkfgBjWA0isolOCFbWrZzzZ5aCAYBGoOSuqokQfQDAhawGEaV0oyL4ewTRTzWuPHU/q8EAQLGgKiV377gdIj8AkMGCEFGKiUD1v+ta5nyHs/wZACgOptyzc44L+kdVPYXVIKIUsQsi19avrNjMUtgHJwHazL6V5Tui/V1nicrPMbCulogomc+RDwUD5hls/NkDQAlUcs+OC1T1twAmshpElGAtqnJDw21znmYpGAAoCYrv2zlJItF7VeRSVoOIEtRyrDbCuK32jlOaWAwGAEqyoru3LROVuwGMZTWIKE4OKYzPNdxW8ShLYX+cA+AQDbfOfcRtWBUQPMRqEFGMKQQPmRlGBRt/9gBQKvcG3FV1tcD6BTg3gIhG7k1D9ebaz859maVgDwClem/AbRWPutyhWQL8HIDJihDRMERF5QeS7TuVjT97AMiGiu/cejrEuB/AfFaDiAZHN6vgpoZb525kLdgDQDZV/9l5m8a6QwtV9GsA+lgRIjqBgKh8oX7c7jPY+LMHgBxk8j1bCl3q+h8oPslqENHRj/wCeVTU+HLtZ8vrWQ4GAHKo4rt2nA/ozwHMYTWI0t4GteSOhs/NeZWlYACgdLBqjbto3NjbBPg2gDwWhCjtHvoPqODbDc2n/IqH9zAAUBoq/en2CeqW76joDQBcrAiR4wUB/F+wz/qfpi/PC7AcDACU5kp+sW0WDOM7Cl3GahA59hv/GZjW7fWfm1fLYhADAL1D0d3bPiyQH0Exj9UgcgrdbCju4Hp+YgCgE6usdJW0zrpOVb4FoJgFIbKtWoWsamip+D3H+YkBgAatorLK29NqflpUvg1uK0xkJ60q+iMjy/+zuutLgywHMQDQsEz43605GTnyWVH5GoB8VoQoZfWIyt1uK+O/q2+f3s1yEAMAxcTMX+/294fCt4JBgCjlGn6o3A3D+kHDrXM7WA5iAKB4B4GvAhjFihCx4ScGAEojJT/ZnG953Z+H4nYAo1kRooRpE9Gfudzhn9esWNDFchADACUnCDxQm2n1BZZD9RsAZrIiRHFzCIr73N7QT9jwEwMApY5VahSNq7oEql8D8D4WhChmqqG406uZ91bfPj3EchADAKWsoruqFgmsL6niUvDYaaLhWgORnzTcWvEMRJTlIAYAsk8QuHtbGSz5PIAbAWSzIkQnFYbIk5bK/zV+tuJ1loMYAMjWJv580ziv4V4JyG0AxrMiRO/RBMW9LhP31N5xShPLQQwA5CgVq6q8PWPMy2DIzVB8iPcgETYCer8V7n2o8Yvv62c5iAGAHK/07q0zTct1PaA3AhjDilAa6QLkYUutOxs/N3c7y0EMAJSWJvzv1hxvtiwTGJ+B6iLel+RQKoqX1ZDfRN3BRw+sWNDHkhADANFhBXdtn+JWvQaQFQBKWRFygP2A/N4S+VXjbRXVLAcxABCdyCo1poypWiyinwRwOYAcFoVspAfAEwAeamid83cexUsMAETDMLDTYPdiQD4JxWUAvKwKpSATgjWAPtQP92Mtt1X0siTEAEAUI4V37hrjksjVUCwH8AEALlaFkigKwUsAKq2Qa3XjFyvaWRJiACCKs8k/rhptZESXQLEMkI+wZ4AS9qQPXQfFIy7T+DPX7BMDAFESlfxkc77lcS8FcBmgHwHgZ1UohroheB6WPOX2hp7mQTzEAECUiiorXUUtMxZCjSUALgUwm0WhYagB8DeIPuNvcT9ftaoizJIQAwCRnXoHfrFtliV6ISCLMTBvgCsK6Fh6ofgnoC+aon/d/9lT32JJiAGAyCEqVlV5u8ZY7xNYHzkcCE4DJxKmKxOKTRB5QVVfzGt3reVTPjEAEKWJcXdV+bJM82yILlLIOQDOBScTOrfBF2xR6KuGyitWxPV3ztonBgAiOhIIMk3rfRBdBOCswz95rIwtdQLyusBaB5VXQiFd2/TleQGWhYgBgOjkVqlRNHrnLBXzLAXOloFAUA7Aw+KklIhAq1TkdVhYZ7jk9fpb5+yGiLI0RAwARDEx/74NnpaIewYsmW8ZmC+K+YDMA+BjdRKiF4I31dKdhmAjDN1ohfo28ihdIgYAoqSY8otNBaLucohWWJBygVaIyFxV7kkwTCEAewFUCXQnIFUQa2dD67xd3FufiAGAKLWpSsHdOyZLVKaJy5wKS6YZItMAaypEpjIcoFugNZZINRTVEN0LNapVrer9n5u7n134RAwARI5UdPe2UZaJyYZIscKaAhiT1bKmAFIgggkAxh3+MWz21iwALQBaVNEE6AExjH1Q7BNBo6Va746a++q+cFon7wIiBgAiOpbKSldJS8W4qGWOc0HHqWK0ZSBf1MgHkA/VfDGQr4psAH6oZMLQLFXkyMCSxrx3BYhMAFnv+iv9AILvasC7FAiLIABFHwa65HtE0KcWOiHSCaBTgQ7A6nQBHSakxW24WupaypvZTU+U2v5/gzhwPcv89IIAAAAldEVYdGRhdGU6Y3JlYXRlADIwMjItMDctMDRUMjA6MzY6MDYrMDA6MDCqgY9vAAAAJXRFWHRkYXRlOm1vZGlmeQAyMDIyLTA3LTA0VDIwOjM2OjA2KzAwOjAw29w30wAAAABJRU5ErkJggg==;" parent="1" vertex="1">
          <mxGeometry x="495" y="190" width="50" height="50" as="geometry" />
        </mxCell>
        <mxCell id="8Ngx9_ojINHOA52o8Yng-45" value="RaspberryPi" style="shape=image;verticalLabelPosition=middle;verticalAlign=middle;imageAspect=0;aspect=fixed;image=data:image/svg+xml,PHN2ZyB4bWxucz0iaHR0cDovL3d3dy53My5vcmcvMjAwMC9zdmciIHZpZXdCb3g9IjAgMCA1NzAgNzIwIj48cGF0aCBkPSJNMTU4LjM3NSAxLjY1NmMtMy42Mi4xMTMtNy41MTcgMS40NS0xMS45MzggNC45MzhDMTM1LjYxMiAyLjQxNyAxMjUuMTEuOTY3IDExNS43MiA5LjQ2OWMtMTQuNDk0LTEuODgxLTE5LjIxIDItMjIuNzgxIDYuNTMxLTMuMTgzLS4wNjYtMjMuODItMy4yNzItMzMuMjgyIDEwLjg0NEMzNS44NzUgMjQuMDMgMjguMzYgNDAuODMyIDM2Ljg3NSA1Ni41Yy00Ljg1NyA3LjUxOS05Ljg5IDE0Ljk0NyAxLjQ2OSAyOS4yODEtNC4wMTggNy45ODQtMS41MjggMTYuNjQ0IDcuOTM3IDI3LjEyNS0yLjQ5OCAxMS4yMjMgMi40MTIgMTkuMTQxIDExLjIxOSAyNS4zMTMtMS42NDcgMTUuMzU3IDE0LjA4NCAyNC4yODcgMTguNzgxIDI3LjQ2OSAxLjgwNCA4Ljk0OCA1LjU2MyAxNy4zOTIgMjMuNTMxIDIyLjA2MiAyLjk2NCAxMy4zMzYgMTMuNzYzIDE1LjY0IDI0LjIyIDE4LjQzOC0zNC41NjMgMjAuMDg5LTY0LjIwMSA0Ni41MjItNjQgMTExLjM3NWwtNS4wNjMgOS4wM0MxNS4zMzggMzUwLjY5Ny0yMC4zMTcgNDI4LjE2IDM1LjQzNyA0OTEuMTI2YzMuNjQyIDE5LjcwOCA5Ljc1IDMzLjg2NCAxNS4xODggNDkuNTMxIDguMTM0IDYzLjEzIDYxLjIxOCA5Mi42OTIgNzUuMjE5IDk2LjE4OCAyMC41MTYgMTUuNjI4IDQyLjM2OCAzMC40NTYgNzEuOTM3IDQwLjg0MyAyNy44NzUgMjguNzUgNTguMDc0IDM5LjcwNyA4OC40MzggMzkuNjg4LjQ0NSAwIC44OTguMDA1IDEuMzQ0IDAgMzAuMzYzLjAxOSA2MC41NjItMTAuOTM4IDg4LjQzNy0zOS42ODggMjkuNTctMTAuMzg3IDUxLjQyMS0yNS4yMTUgNzEuOTM4LTQwLjg0MyAxNC0zLjQ5NiA2Ny4wODQtMzMuMDU3IDc1LjIxOC05Ni4xODggNS40MzgtMTUuNjY3IDExLjU0Ni0yOS44MjMgMTUuMTg4LTQ5LjUzMSA1NS43NTQtNjIuOTY1IDIwLjEtMTQwLjQyOS0xOS41MzItMTY0LjUzMWwtNS4wNjItOS4wMzFjLjItNjQuODUzLTI5LjQzOC05MS4yODYtNjQtMTExLjM3NSAxMC40NTctMi43OTkgMjEuMjU2LTUuMTAyIDI0LjIxOS0xOC40MzggMTcuOTY4LTQuNjcgMjEuNzI3LTEzLjExNCAyMy41MzEtMjIuMDYzIDQuNjk4LTMuMTggMjAuNDI4LTEyLjExIDE4Ljc4MS0yNy40NjggOC44MDctNi4xNzIgMTMuNzE3LTE0LjA5IDExLjIxOS0yNS4zMTMgOS40NjUtMTAuNDggMTEuOTU2LTE5LjE0MSA3LjkzOC0yNy4xMjUgMTEuMzU4LTE0LjMzNCA2LjMyNS0yMS43NjIgMS40NjgtMjkuMjgxIDguNTE2LTE1LjY2OCAxLTMyLjQ3LTIyLjc4MS0yOS42NTYtOS40NjItMTQuMTE2LTMwLjA5OS0xMC45MS0zMy4yODEtMTAuODQ0LTMuNTcxLTQuNTMtOC4yODgtOC40MTItMjIuNzgxLTYuNTMxLTkuMzkyLTguNTAyLTE5Ljg5Mi03LjA1Mi0zMC43Mi0yLjg3NS0xMi44NTgtMTAuMTQ4LTIxLjM3Mi0yLjAxNC0zMS4wOTMgMS4wNjItMTUuNTc0LTUuMDg4LTE5LjEzMyAxLjg4MS0yNi43ODEgNC43MTktMTYuOTc2LTMuNTg4LTIyLjEzNiA0LjIyNC0zMC4yODEgMTIuNDY5bC05LjQ3LS4xODhjLTI1LjYxIDE1LjA5My0zOC4zMzMgNDUuODI2LTQyLjg0MyA2MS42MjUtNC41MTItMTUuODAyLTE3LjIwNi00Ni41MzQtNDIuODEzLTYxLjYyNWwtOS40NjguMTg4Yy04LjE0Ni04LjI0NS0xMy4zMDYtMTYuMDU3LTMwLjI4MS0xMi40NjktNy42NDktMi44MzgtMTEuMjA4LTkuODA3LTI2Ljc4Mi00LjcxOS02LjM4LTIuMDE4LTEyLjI0Ni02LjIxNC0xOS4xNTYtNnoiLz48cGF0aCBkPSJNMTA3LjM5MiA2OC4wNTZjNjcuOTQ4IDM1LjAzIDEwNy40NDcgNjMuMzY5IDEyOS4wODcgODcuNTA0LTExLjA4MiA0NC40MTgtNjguODk2IDQ2LjQ0NS05MC4wMzYgNDUuMTk5IDQuMzI5LTIuMDE1IDcuOTQtNC40MjggOS4yMi04LjEzNi01LjMwNC0zLjc3LTI0LjExMi0uMzk3LTM3LjI0My03Ljc3NCA1LjA0NC0xLjA0NSA3LjQwNC0yLjA2MyA5Ljc2My01Ljc4Ni0xMi40MDYtMy45NTYtMjUuNzY4LTcuMzY2LTMzLjYyOC0xMy45MiA0LjI0Mi4wNTIgOC4yMDIuOTQ4IDEzLjc0LTIuODk0LTExLjExLTUuOTg4LTIyLjk2OC0xMC43MzMtMzIuMTgtMTkuODg3IDUuNzQ1LS4xNCAxMS45MzktLjA1NyAxMy43NC0yLjE3LTEwLjE3LTYuMy0xOC43NTEtMTMuMzA3LTI1Ljg1NC0yMC45NzIgOC4wNC45NyAxMS40MzUuMTM1IDEzLjM3OS0xLjI2NS03LjY4OC03Ljg3NC0xNy40MTgtMTQuNTIzLTIyLjA1Ny0yNC4yMjcgNS45NyAyLjA1OCAxMS40MzEgMi44NDUgMTUuMzY4LS4xOC0yLjYxMy01Ljg5NC0xMy44MDYtOS4zNy0yMC4yNS0yMy4xNDIgNi4yODUuNjEgMTIuOTUgMS4zNzEgMTQuMjgzIDAtMi45MjItMTEuODg5LTcuOTI3LTE4LjU3LTEyLjgzNi0yNS40OTIgMTMuNDUtLjIgMzMuODI4LjA1MiAzMi45MDUtMS4wODVsLTguMzE3LTguNDk3YzEzLjEzOC0zLjUzNyAyNi41OC41NjggMzYuMzQgMy42MTYgNC4zODItMy40NTgtLjA3OC03LjgzLTUuNDI0LTEyLjI5NCAxMS4xNjUgMS40OSAyMS4yNTQgNC4wNTcgMzAuMzczIDcuNTkzIDQuODczLTQuNC0zLjE2NC04Ljc5OS03LjA1LTEzLjE5OCAxNy4yNDkgMy4yNzMgMjQuNTU2IDcuODcgMzEuODIgMTIuNDc1IDUuMjY4LTUuMDUuMy05LjM0My0zLjI1NS0xMy43NCAxMy4wMDUgNC44MTcgMTkuNzA1IDExLjAzNSAyNi43NTcgMTcuMTc1IDIuMzkyLTMuMjI3IDYuMDc1LTUuNTkyIDEuNjI4LTEzLjM3OSA5LjIzNCA1LjMyMyAxNi4xODkgMTEuNTk1IDIxLjMzMyAxOC42MjIgNS43MTQtMy42MzggMy40MDQtOC42MTMgMy40MzUtMTMuMTk4IDkuNTk3IDcuODA3IDE1LjY4NyAxNi4xMTQgMjMuMTQyIDI0LjIyNiAxLjUwMi0xLjA5MyAyLjgxNy00LjgwMSAzLjk3OC0xMC42NjYgMjIuODk1IDIyLjIxMSA1NS4yNDUgNzguMTU4IDguMzE2IDEwMC4zNC0zOS45MTktMzIuOTQ3LTg3LjYxNi01Ni44ODctMTQwLjQ3Ny03NC44NDh6bTM2MC41MzMgMGMtNjcuOTQ4IDM1LjAzLTEwNy40NDcgNjMuMzY5LTEyOS4wODcgODcuNTA0IDExLjA4MiA0NC40MTggNjguODk2IDQ2LjQ0NSA5MC4wMzUgNDUuMTk5LTQuMzI4LTIuMDE1LTcuOTQtNC40MjgtOS4yMi04LjEzNiA1LjMwNC0zLjc3IDI0LjExMy0uMzk3IDM3LjI0My03Ljc3NC01LjA0NC0xLjA0NS03LjQwMy0yLjA2My05Ljc2Mi01Ljc4NiAxMi40MDUtMy45NTYgMjUuNzY4LTcuMzY2IDMzLjYyNy0xMy45Mi00LjI0MS4wNTItOC4yLjk0OC0xMy43NC0yLjg5NCAxMS4xMTItNS45ODggMjIuOTY5LTEwLjczMyAzMi4xODEtMTkuODg3LTUuNzQ1LS4xNC0xMS45NC0uMDU3LTEzLjc0LTIuMTcgMTAuMTctNi4zIDE4Ljc1MS0xMy4zMDcgMjUuODU0LTIwLjk3Mi04LjA0Ljk3LTExLjQzNi4xMzUtMTMuMzgtMS4yNjUgNy42ODktNy44NzQgMTcuNDE4LTE0LjUyMyAyMi4wNTgtMjQuMjI3LTUuOTcgMi4wNTgtMTEuNDMyIDIuODQ1LTE1LjM2OC0uMTggMi42MTItNS44OTQgMTMuODA2LTkuMzcgMjAuMjUtMjMuMTQyLTYuMjg1LjYxLTEyLjk1IDEuMzcxLTE0LjI4NCAwIDIuOTIzLTExLjg4OSA3LjkyOC0xOC41NyAxMi44MzctMjUuNDkyLTEzLjQ1LS4yLTMzLjgyOC4wNTItMzIuOTA1LTEuMDg1bDguMzE3LTguNDk3Yy0xMy4xMzgtMy41MzctMjYuNTgxLjU2OC0zNi4zNCAzLjYxNi00LjM4Mi0zLjQ1OC4wNzgtNy44MyA1LjQyNC0xMi4yOTQtMTEuMTY1IDEuNDktMjEuMjU0IDQuMDU3LTMwLjM3NCA3LjU5My00Ljg3Mi00LjQgMy4xNjQtOC43OTkgNy4wNTEtMTMuMTk4LTE3LjI0OSAzLjI3My0yNC41NTcgNy44Ny0zMS44MiAxMi40NzUtNS4yNjktNS4wNS0uMzAxLTkuMzQzIDMuMjU1LTEzLjc0LTEzLjAwNiA0LjgxNy0xOS43MDUgMTEuMDM1LTI2Ljc1OCAxNy4xNzUtMi4zOS0zLjIyNy02LjA3NS01LjU5Mi0xLjYyNy0xMy4zNzktOS4yMzQgNS4zMjMtMTYuMTkgMTEuNTk1LTIxLjMzNCAxOC42MjItNS43MTMtMy42MzgtMy40MDMtOC42MTMtMy40MzUtMTMuMTk4LTkuNTk2IDcuODA3LTE1LjY4NyAxNi4xMTQtMjMuMTQxIDI0LjIyNi0xLjUwMi0xLjA5My0yLjgxNy00LjgwMS0zLjk3OC0xMC42NjYtMjIuODk1IDIyLjIxMS01NS4yNDYgNzguMTU4LTguMzE2IDEwMC4zNCAzOS45MTgtMzIuOTQ3IDg3LjYxNi01Ni44ODcgMTQwLjQ3Ny03NC44NDh6IiBmaWxsPSIjNzVhOTI4Ii8+PHBhdGggZD0iTTM2OS45NDYgNTIwLjM2MWE4MS4zOSA3NS4wNTIgMCAxMS0xNjIuNzggMCA4MS4zOSA3NS4wNTIgMCAxMTE2Mi43OCAwek0yNDEuNDU0IDMwNS45NjJhODYuMTMgNzIuOTk5LTU1Ljk2NiAxMS05NC45NjggMTQzLjcxMyA4Ni4xMyA3Mi45OTktNTUuOTY2IDExOTQuOTY4LTE0My43MTN6IiBmaWxsPSIjYmMxMTQyIi8+PHBhdGggZD0iTTMzMi40ODYgMzAxLjk2MmE3Mi45OTkgODYuMTMtMzQuMDM0IDEwOTQuOTY4IDE0My43MTMgNzIuOTk5IDg2LjEzLTM0LjAzNCAxMC05NC45NjgtMTQzLjcxM3pNNzIuOTEgMzQyLjA4OGMzNi40MTQtOS43NTcgMTIuMjkyIDE1MC42MzYtMTcuMzMzIDEzNy40NzZDMjIuOTkgNDUzLjM1IDEyLjQ5NCAzNzYuNTg4IDcyLjkxIDM0Mi4wODh6IiBmaWxsPSIjYmMxMTQyIi8+PHBhdGggZD0iTTQ5My42NzggMzQwLjA4OGMtMzYuNDE0LTkuNzU3LTEyLjI5MSAxNTAuNjM2IDE3LjMzNCAxMzcuNDc2IDMyLjU4Ni0yNi4yMTMgNDMuMDgzLTEwMi45NzYtMTcuMzM0LTEzNy40NzZ6TTM2OS45NzIgMjIwLjY1M2M2Mi44MzQtMTAuNjEgMTE1LjExNiAyNi43MjMgMTEzLjAxMSA5NC44NTgtMi4wNjcgMjYuMTIxLTEzNi4xNTktOTAuOTY5LTExMy4wMTEtOTQuODU4em0tMTczLjYxMi0yYy02Mi44MzUtMTAuNjEtMTE1LjExNiAyNi43MjMtMTEzLjAxMiA5NC44NTggMi4wNjcgMjYuMTIxIDEzNi4xNi05MC45NjkgMTEzLjAxMi05NC44NTh6bTkwLjI2LTE1Ljg5N2MtMzcuNTAzLS45NzYtNzMuNDk2IDI3LjgzNC03My41ODIgNDQuNTQ0LS4xMDUgMjAuMzA0IDI5LjY1IDQxLjA5MyA3My44MzcgNDEuNjIgNDUuMTIzLjMyNCA3My45MTYtMTYuNjQgNzQuMDYxLTM3LjU5NC4xNjUtMjMuNzQtNDEuMDM5LTQ4LjkzNy03NC4zMTctNDguNTd6bTIuMjkgNDE2LjM2MWMzMi42OTctMS40MjcgNzYuNTcgMTAuNTMyIDc2LjY1NiAyNi4zOTYuNTQzIDE1LjQwNS0zOS43OSA1MC4yMS03OC44MjYgNDkuNTM3LTQwLjQyNyAxLjc0NC04MC4wNy0zMy4xMTUtNzkuNTUtNDUuMTk4LS42MDUtMTcuNzE2IDQ5LjIyNi0zMS41NDggODEuNzItMzAuNzM1em0tMTIwLjc3MS05NC4wMTNjMjMuMjc5IDI4LjA0NSAzMy44OSA3Ny4zMTkgMTQuNDYzIDkxLjg0My0xOC4zNzkgMTEuMDg4LTYzLjAxMiA2LjUyMi05NC43MzYtMzkuMDUxLTIxLjM5NS0zOC4yNDItMTguNjM4LTc3LjE1Ny0zLjYxNi04OC41OSAyMi40NjUtMTMuNjg0IDU3LjE3NCA0LjggODMuODg5IDM1Ljc5OHptMjM2Ljg4MS04Ljg5MmMtMjUuMTg2IDI5LjUwMS0zOS4yMTEgODMuMzEtMjAuODM3IDEwMC42NDMgMTcuNTY4IDEzLjQ2MyA2NC43MyAxMS41ODEgOTkuNTY2LTM2Ljc1NiAyNS4yOTYtMzIuNDY1IDE2LjgyLTg2LjY4MiAyLjM3LTEwMS4wNzUtMjEuNDY0LTE2LjYwMi01Mi4yNzYgNC42NDUtODEuMDk4IDM3LjE4OHoiIGZpbGw9IiNiYzExNDIiLz48L3N2Zz4=;fontFamily=Architects Daughter;fontSource=https%3A%2F%2Ffonts.googleapis.com%2Fcss%3Ffamily%3DArchitects%2BDaughter;labelPosition=right;align=left;fontSize=10;spacingRight=0;spacingLeft=2;" parent="1" vertex="1">
          <mxGeometry x="90" y="570" width="23.77" height="30" as="geometry" />
        </mxCell>
        <mxCell id="8Ngx9_ojINHOA52o8Yng-48" value="" style="edgeStyle=orthogonalEdgeStyle;rounded=0;orthogonalLoop=1;jettySize=auto;html=1;startArrow=classic;startFill=1;entryX=1;entryY=0.25;entryDx=0;entryDy=0;exitX=0.5;exitY=1;exitDx=0;exitDy=0;" parent="1" source="8Ngx9_ojINHOA52o8Yng-46" target="8Ngx9_ojINHOA52o8Yng-24" edge="1">
          <mxGeometry relative="1" as="geometry">
            <Array as="points">
              <mxPoint x="679" y="300" />
              <mxPoint x="679" y="300" />
              <mxPoint x="679" y="325" />
            </Array>
          </mxGeometry>
        </mxCell>
        <mxCell id="8Ngx9_ojINHOA52o8Yng-46" value="ChatGPT 4.0 API" style="shape=image;verticalLabelPosition=middle;labelBackgroundColor=default;verticalAlign=middle;aspect=fixed;imageAspect=0;image=https://upload.wikimedia.org/wikipedia/commons/0/04/ChatGPT_logo.svg;fontFamily=Architects Daughter;fontSource=https%3A%2F%2Ffonts.googleapis.com%2Fcss%3Ffamily%3DArchitects%2BDaughter;labelPosition=right;align=left;fontSize=10;" parent="1" vertex="1">
          <mxGeometry x="656.24" y="250" width="46" height="46" as="geometry" />
        </mxCell>
        <mxCell id="8Ngx9_ojINHOA52o8Yng-49" style="edgeStyle=orthogonalEdgeStyle;rounded=0;orthogonalLoop=1;jettySize=auto;html=1;startArrow=classic;startFill=1;" parent="1" source="8Ngx9_ojINHOA52o8Yng-47" target="8Ngx9_ojINHOA52o8Yng-24" edge="1">
          <mxGeometry relative="1" as="geometry">
            <Array as="points">
              <mxPoint x="610" y="370" />
              <mxPoint x="610" y="370" />
            </Array>
          </mxGeometry>
        </mxCell>
        <mxCell id="8Ngx9_ojINHOA52o8Yng-47" value="" style="shape=image;verticalLabelPosition=bottom;labelBackgroundColor=default;verticalAlign=top;aspect=fixed;imageAspect=0;image=data:image/png,iVBORw0KGgoAAAANSUhEUgAAAewAAAHaCAYAAADCCXrQAAAMP2lDQ1BJQ0MgUHJvZmlsZQAASImVVwdYU8kWnluSkJDQAghICb0JIjWAlBBaAOndRkgChBJjIKjYkUUF14KKBWzoqohip9kRO4ti74sFFWVdLNiVNymg677yvfm+ufPff87858yZuWUAUD/OFYtzUQ0A8kQFktiQAEZySiqD9ARQgSrQBc7AhcvLF7OioyMALIPt38u76wCRtVccZFr/7P+vRZMvyOcBgERDnM7P5+VBfAAAvJonlhQAQJTx5lMKxDIMK9CWwAAhXiDDmQpcLcPpCrxHbhMfy4a4DQAVKpcryQRA7RLkGYW8TKih1gexk4gvFAGgzoDYNy9vEh/iNIhtoI0YYpk+M/0Hncy/aaYPaXK5mUNYMRd5UQkU5otzudP+z3T875KXKx30YQUrNUsSGiubM8zbzZxJ4TJMhbhXlB4ZBbEWxB+EfLk9xCglSxqaoLBHDXn5bJgzuM4AdeJzA8MhNoQ4WJQbGaHk0zOEwRyI4Q5BpwoLOPEQ60G8QJAfFKe02SiZFKv0hTZkSNgsJX+WK5H7lfm6L81JYCn1X2cJOEp9TK0oKz4JYgrEFoXCxEiI1SB2zM+JC1fajC7KYkcO2kiksbL4LSCOFYhCAhT6WGGGJDhWaV+Wlz84X2xjlpATqcT7CrLiQxX5wdp4XHn8cC7YJYGIlTCoI8hPjhicC18QGKSYO/ZMIEqIU+p8EBcExCrG4hRxbrTSHjcT5IbIeDOIXfML45Rj8cQCuCEV+niGuCA6XhEnXpTNDYtWxIMvBRGADQIBA0hhTQeTQDYQdvQ29sI7RU8w4AIJyAQC4KBkBkckyXtE8BoHisCfEAlA/tC4AHmvABRC/usQq7g6gAx5b6F8RA54AnEeCAe58F4qHyUa8pYIHkNG+A/vXFh5MN5cWGX9/54fZL8zLMhEKBnpoEeG+qAlMYgYSAwlBhNtcQPcF/fGI+DVH1ZnnIl7Ds7juz3hCaGT8JBwjdBFuDVRWCz5KcoxoAvqBytzkf5jLnArqOmGB+A+UB0q47q4AXDAXaEfFu4HPbtBlq2MW5YVxk/af5vBD6uhtCM7kVHyMLI/2ebnkWp2am5DKrJc/5gfRazpQ/lmD/X87J/9Q/b5sA3/2RJbgO3HzmAnsHPYYawRMLBjWBPWjh2R4aHd9Vi+uwa9xcrjyYE6wn/4G1xZWSbzneqcepy+KPoKBFNl72jAniSeJhFmZhUwWPCLIGBwRDzHEQxnJ2dnAGTfF8Xr602M/LuB6LZ/5+b9AYDPsYGBgUPfubBjAOz1gI9/83fOhgk/HaoAnG3mSSWFCg6XXQjwLaEOnzR9YAzMgQ2cjzNwB97AHwSBMBAF4kEKmACjz4L7XAKmgBlgLigF5WApWAnWgg1gM9gOdoF9oBEcBifAaXABXALXwB24e7rBC9AH3oHPCIKQEBpCR/QRE8QSsUecESbiiwQhEUgskoKkIZmICJEiM5B5SDlSgaxFNiG1yF6kGTmBnEM6kVvIA6QHeY18QjGUimqjRqgVOhJloiw0HI1Hx6OZ6GS0CC1BF6Or0Rp0J9qAnkAvoNfQLvQF2o8BTBXTxUwxB4yJsbEoLBXLwCTYLKwMq8RqsHqsBa7zFawL68U+4kScjjNwB7iDQ/EEnIdPxmfhi/C1+Ha8AW/Dr+AP8D78G4FGMCTYE7wIHEIyIZMwhVBKqCRsJRwknILPUjfhHZFI1CVaEz3gs5hCzCZOJy4iriPuJh4ndhIfEftJJJI+yZ7kQ4oicUkFpFLSGtJO0jHSZVI36YOKqoqJirNKsEqqikilWKVSZYfKUZXLKk9VPpM1yJZkL3IUmU+eRl5C3kJuIV8kd5M/UzQp1hQfSjwlmzKXsppSTzlFuUt5o6qqaqbqqRqjKlSdo7padY/qWdUHqh+pWlQ7Kps6jiqlLqZuox6n3qK+odFoVjR/WiqtgLaYVks7SbtP+6BGV3NU46jx1WarVak1qF1We6lOVrdUZ6lPUC9Sr1Tfr35RvVeDrGGlwdbgaszSqNJo1rih0a9J1xylGaWZp7lIc4fmOc1nWiQtK60gLb5WidZmrZNaj+gY3ZzOpvPo8+hb6Kfo3dpEbWttjna2drn2Lu0O7T4dLR1XnUSdqTpVOkd0unQxXStdjm6u7hLdfbrXdT8NMxrGGiYYtnBY/bDLw97rDdfz1xPolent1rum90mfoR+kn6O/TL9R/54BbmBnEGMwxWC9wSmD3uHaw72H84aXDd83/LYhamhnGGs43XCzYbthv5GxUYiR2GiN0UmjXmNdY3/jbOMVxkeNe0zoJr4mQpMVJsdMnjN0GCxGLmM1o43RZ2poGmoqNd1k2mH62czaLMGs2Gy32T1zijnTPMN8hXmreZ+FicUYixkWdRa3LcmWTMssy1WWZyzfW1lbJVnNt2q0ematZ82xLrKus75rQ7Pxs5lsU2Nz1ZZoy7TNsV1ne8kOtXOzy7Krsrtoj9q72wvt19l3jiCM8BwhGlEz4oYD1YHlUOhQ5/DAUdcxwrHYsdHx5UiLkakjl408M/Kbk5tTrtMWpzujtEaFjSoe1TLqtbOdM8+5yvmqC80l2GW2S5PLK1d7V4HretebbnS3MW7z3Vrdvrp7uEvc6917PCw80jyqPW4wtZnRzEXMs54EzwDP2Z6HPT96uXsVeO3z+svbwTvHe4f3s9HWowWjt4x+5GPmw/XZ5NPly/BN893o2+Vn6sf1q/F76G/uz/ff6v+UZcvKZu1kvQxwCpAEHAx4z/Ziz2QfD8QCQwLLAjuCtIISgtYG3Q82C84MrgvuC3ELmR5yPJQQGh66LPQGx4jD49Ry+sI8wmaGtYVTw+PC14Y/jLCLkES0jEHHhI1ZPuZupGWkKLIxCkRxopZH3Yu2jp4cfSiGGBMdUxXzJHZU7IzYM3H0uIlxO+LexQfEL4m/k2CTIE1oTVRPHJdYm/g+KTCpIqkreWTyzOQLKQYpwpSmVFJqYurW1P6xQWNXju0e5zaudNz18dbjp44/N8FgQu6EIxPVJ3In7k8jpCWl7Uj7wo3i1nD70znp1el9PDZvFe8F35+/gt8j8BFUCJ5m+GRUZDzL9MlcntmT5ZdVmdUrZAvXCl9lh2ZvyH6fE5WzLWcgNyl3d55KXlpes0hLlCNqm2Q8aeqkTrG9uFTcNdlr8srJfZJwydZ8JH98flOBNvyRb5faSH+RPij0Lawq/DAlccr+qZpTRVPbp9lNWzjtaVFw0W/T8em86a0zTGfMnfFgJmvmplnIrPRZrbPNZ5fM7p4TMmf7XMrcnLm/FzsVVxS/nZc0r6XEqGROyaNfQn6pK1UrlZTemO89f8MCfIFwQcdCl4VrFn4r45edL3cqryz/soi36Pyvo35d/evA4ozFHUvcl6xfSlwqWnp9md+y7RWaFUUVj5aPWd6wgrGibMXblRNXnqt0rdywirJKuqprdcTqpjUWa5au+bI2a+21qoCq3dWG1Qur36/jr7u83n99/QajDeUbPm0Ubry5KWRTQ41VTeVm4ubCzU+2JG458xvzt9qtBlvLt37dJtrWtT12e1utR23tDsMdS+rQOmldz85xOy/tCtzVVO9Qv2m37u7yPWCPdM/zvWl7r+8L39e6n7m//oDlgeqD9INlDUjDtIa+xqzGrqaUps7msObWFu+Wg4ccD207bHq46ojOkSVHKUdLjg4cKzrWf1x8vPdE5olHrRNb75xMPnm1Laat41T4qbOng0+fPMM6c+ysz9nD57zONZ9nnm+84H6hod2t/eDvbr8f7HDvaLjocbHpkuells7RnUcv+10+cSXwyumrnKsXrkVe67yecP3mjXE3um7ybz67lXvr1e3C25/vzLlLuFt2T+Ne5X3D+zV/2P6xu8u968iDwAftD+Me3nnEe/Ticf7jL90lT2hPKp+aPK195vzscE9wz6XnY593vxC/+Nxb+qfmn9UvbV4e+Mv/r/a+5L7uV5JXA68XvdF/s+2t69vW/uj+++/y3n1+X/ZB/8P2j8yPZz4lfXr6ecoX0pfVX22/tnwL/3Z3IG9gQMyVcOW/AhisaEYGAK+3AUBLAYAOz2eUsYrzn7wgijOrHIH/hBVnRHlxB6Ae/r/H9MK/mxsA7NkCj19QX30cANE0AOI9AeriMlQHz2ryc6WsEOE5YGPk1/S8dPBviuLM+UPcP7dApuoKfm7/BUOFfJjvMWkJAAAAimVYSWZNTQAqAAAACAAEARoABQAAAAEAAAA+ARsABQAAAAEAAABGASgAAwAAAAEAAgAAh2kABAAAAAEAAABOAAAAAAAAAJAAAAABAAAAkAAAAAEAA5KGAAcAAAASAAAAeKACAAQAAAABAAAB7KADAAQAAAABAAAB2gAAAABBU0NJSQAAAFNjcmVlbnNob3QAyhEUAAAACXBIWXMAABYlAAAWJQFJUiTwAAAB1mlUWHRYTUw6Y29tLmFkb2JlLnhtcAAAAAAAPHg6eG1wbWV0YSB4bWxuczp4PSJhZG9iZTpuczptZXRhLyIgeDp4bXB0az0iWE1QIENvcmUgNi4wLjAiPgogICA8cmRmOlJERiB4bWxuczpyZGY9Imh0dHA6Ly93d3cudzMub3JnLzE5OTkvMDIvMjItcmRmLXN5bnRheC1ucyMiPgogICAgICA8cmRmOkRlc2NyaXB0aW9uIHJkZjphYm91dD0iIgogICAgICAgICAgICB4bWxuczpleGlmPSJodHRwOi8vbnMuYWRvYmUuY29tL2V4aWYvMS4wLyI+CiAgICAgICAgIDxleGlmOlBpeGVsWURpbWVuc2lvbj40NzQ8L2V4aWY6UGl4ZWxZRGltZW5zaW9uPgogICAgICAgICA8ZXhpZjpQaXhlbFhEaW1lbnNpb24+NDkyPC9leGlmOlBpeGVsWERpbWVuc2lvbj4KICAgICAgICAgPGV4aWY6VXNlckNvbW1lbnQ+U2NyZWVuc2hvdDwvZXhpZjpVc2VyQ29tbWVudD4KICAgICAgPC9yZGY6RGVzY3JpcHRpb24+CiAgIDwvcmRmOlJERj4KPC94OnhtcG1ldGE+CjM+TeoAAAAcaURPVAAAAAIAAAAAAAAA7QAAACgAAADtAAAA7QAAMiwkT9WhAAAx+ElEQVR4AeydCdRuUx3GjwYqQyKVriKVMq2KEiGiQRrRLLQkmRuISqVBS8YlZYqiS0mEIhnSJWNYlJRKuUWjayipaDrtZ+c5a99zz3mn7/3e993f9ztrvd+Z//u/f3t/+9l7n7P3WawMS8ECAQhAAAIQgMBEE1gMwZ7o9ME5CEAAAhCAQCSAYJMRIAABCEAAAhkQQLAzSCRchAAEIAABCCDY5AEIQAACEIBABgQQ7AwSCRchAAEIQAACCDZ5AAIQgAAEIJABAQQ7g0TCRQhAAAIQgACCTR6AAAQgAAEIZEAAwc4gkXARAhCAAAQggGCTByAAAQhAAAIZEECwM0gkXIQABCAAAQgg2OQBCEAAAhCAQAYEEOwMEgkXIQABCEAAAgg2eQACEIAABCCQAQEEO4NEwkUIQAACEIAAgk0egAAEIAABCGRAAMHOIJFwEQIQgAAEIIBgkwcgAAEIQAACGRBAsDNIJFyEAAQgAAEIINjkAQhAAAIQgEAGBBDsDBIJFyEAAQhAAAIINnkAAhCAAAQgkAEBBDuDRMJFCEAAAhCAAIJNHoAABCAAAQhkQADBziCRcBECEIAABCCAYJMHIAABCEAAAhkQQLAzSCRchAAEIAABCCDY5AEIQAACEIBABgQQ7AwSCRchAAEIQAACCDZ5AAIQgAAEIJABAQQ7g0TCRQhAAAIQgACCTR6AAAQgAAEIZEAAwc4gkXARAhCAAAQggGCTByAAAQhAAAIZEECwM0gkXIQABCAAAQgg2OQBCEAAAhCAQAYEEOwMEgkXIQABCEAAAgg2eQACEIAABCCQAQEEO4NEwkUIQAACEIAAgk0egAAEIAABCGRAAMHOIJFwEQIQgAAEIIBgkwcgAAEIQAACGRBAsDNIJFyEAAQgAAEIINjkAQhAAAIQgEAGBBDsDBIJFyEAAQhAAAIINnkAAhCAAAQgkAEBBDuDRMJFCEAAAhCAAIJNHoAABCAAAQhkQADBziCRcBECEIAABCCAYJMHIAABCEAAAhkQQLAzSCRchAAEIAABCCDY5AEIQAACEIBABgQQ7AwSCRchAAEIQAACCDZ5AAIQgAAEIJABAQQ7g0TCRQhAAAIQgACCTR6AAAQgAAEIZEAAwc4gkXARAhCAAAQggGCTByAAAQhAAAIZEECwM0gkXIQABCAAAQgg2OQBCEAAAhCAQAYEEOwMEgkXIQABCEAAAgg2eQACEIAABCCQAQEEO4NEwkUIQAACEIAAgk0egAAEIAABCGRAAMHOIJFwEQIQgAAEIIBgkwcgAAEIQAACGRBAsDNIJFyEAAQgAAEIINjkAQhAAAIQgEAGBBDsDBIJFyEAAQhAAAIINnkAAhCAAAQgkAEBBDuDRMJFCEAAAhCAAIJNHoAABCAAAQhkQADBziCRcBECEIAABCCAYJMHIAABCEAAAhkQQLAzSCRchAAEIAABCCDY5AEIQAACEIBABgQQ7AwSCRchAAEIQAACCDZ5AAIQgAAEIJABAQQ7g0TCRQhAAAIQgACCTR6AAAQgAAEIZEAAwc4gkXARAhCAAAQggGCTByAAAQhAAAIZEECwM0gkXIQABCAAAQgg2OQBCEAAAhCAQAYEEOwMEgkXIQABCEAAAgg2eQACEIAABCCQAQEEO4NEwkUIQAACEIAAgk0egAAEIAABCGRAAMHOIJFwEQIQgAAEIIBgkwcgAAEIQAACGRBAsDNIJFyEAAQgAAEIINjkAQhAAAIQgEAGBBDsDBIJFyEAAQhAAAIINnkAAhCAAAQgkAEBBDuDRMJFCEAAAhCAAIJNHoAABCAAAQhkQADBziCRcBECEIAABCCAYJMHIAABCEAAAhkQQLAzSCRchAAEIAABCCDY5AEIQAACEIBABgQQ7AwSCRchAAEIQAACCDZ5AAIQgAAEIJABAQQ7g0TCRQhAAAIQgACCTR6AAAQgAAEIZEAAwc4gkXARAhCAAAQggGCTByAAAQhAAAIZEECwM0gkXIQABCAAAQgg2OQBCEAAAhCAQAYEEOwMEgkXIQABCEAAAgg2eQACEIAABCCQAQEEO4NEwkUIQAACEIAAgk0egAAEIAABCGRAAMHOIJFwEQIQgAAEIIBgkwcgAAEIQAACGRBAsDNIJFyEAAQgAAEIINjkAQhAAAIQgEAGBBDsDBIJFyEAAQhAAAIINnkAAhCAAAQgkAEBBDuDRMJFCEAAAhCAAIJNHoAABCAAAQhkQADBziCRcBECEIAABCCAYJMHIAABCEAAAhkQQLAzSCRchAAEIAABCCDY5AEIQAACEIBABgQQ7AwSCRchAAEIQAACCDZ5AAIQgAAEIJABAQQ7g0TCRQhAAAIQgACCTR6AAAQgAAEIZEAAwc4gkXARAhCAAAQggGCTByAAAQhAAAIZEECwM0gkXIQABCAAAQgg2OQBCEAAAhCAQAYEEOwMEgkXIQABCEAAAgg2eQACEIAABCCQAQEEO4NEwkUIQAACEIAAgk0egAAEIAABCGRAAMHOIJFwEQIQgAAEIIBgkwcgAAEIQAACGRBAsDNIJFyEAAQgAAEIINjkAQhAAAIQgEAGBBDsDBIJFyEAAQhAAAIINnkAAhCAAAQgkAEBBDuDRMJFCEAAAhCAAIJNHoAABCAAAQhkQADBziCRcBECEIAABCCAYJMHIAABCEAAAhkQQLAzSCRchAAEIAABCCDY5AEIQAACEIBABgQQ7AwSCRchAAEIQAACCDZ5AAIQgAAEIJABAQQ7g0TCRQhAAAIQgACCTR6AAAQgAAEIZEAAwc4gkXARAhCAAAQggGCTByAAAQhAAAIZEECwM0gkXIQABCAAAQgg2OQBCEAAAhCAQAYEEOwMEgkXIQABCEAAAgg2eQACEIAABCCQAQEEe8ITqSzLnj1cbLHFer5WF06K7b6cnqaLO7ETp//+9789hSw7/vV0AxdBAAIQ6JEAgt0jKC6bnQQk1A972MP6jrxEvlMloG+D3AABCMx6Agj2DMsCvQhFL9c0Yenlvl6uabI9Ccfqvv/73/8uHvGIRxQ33XRTceGFFxYPf/jDo3jruvqicw8++GDxqEc9qth6662LOXPmFL6/fi37EIAABAYhgGAPQm2E9+y4447FfffdF4WjSSjkyuKLL17ceeedxfbbb19su+220bu6+NhlH7/uuuuKAw88sHj0ox8dW4JtXb5qXf7tb38rDjjggGLdddct/vOf/0Thsr10/c9//jP6ctVVVxVHH310PPXIRz6y5+7k1NYotiWy//jHP4pll102xm/FFVcs/vWvfxXyWYviveSSSxZHHHFEsffee/fs0iWXXFJsttlm0bb4skAAAhAYCoFQgLNMMIGQyGrO9fTbfffdq5gEYa22vRFEufTx008/vSebDvvMM8+MZoIo29wi6/vvvz8eO/HEE/uy7TDGub755puj73//+9+reAXBjtvHH398jE8Q8jIIcLnEEkss8ltqqaXiNY997GPLK6+8Mt4XKgOVLTYgAAEITJUALeygEpO8qNW3YMGC2HINib2Iqzr2mMc8prj33nuL/fffP7aadVHTs1ddq59azeeee27x2te+tmsLW61QtTS//e1vF1tuueVCLdC6M0Hsoi+nnXZasd1228WWexC32CqvXzsJ++ruDpWM4klPelJx6aWXFs961rOKBx54IHZryz/H59hjjy1222236LKeSzelg2ypC1xd4hdffHGx0UYb0cKehETGBwjMJAKh8GGZYAKhuza23IJQxHXIe4usg0jEY/vuu28VE7ekqwNhI21hn3322ZWdIODVdt2+z33rW9+Kpjq1sN0iPeWUUyp7vr9udxL2Q2Uk+qlW8S233BLjl7aKHZ8g2F3jo9a34qQW+OWXXx5tpa31eIA/EIAABKZAQK0Flgkm8LjHPS4KQSfhk0hILPbbb78qJt0E+5xzzon3qCJg4WoSUZ8bVLB9f5PtcR8LreLIQJWiToJ9zDHHxOvkb1s6WLBVeUKwq2zIBgQgMEQCCPYQYU6HqX4Ee5AWtgS7TYQkUBZcBPv/PRttrBDs6cj92IQABFICCHZKYwK3EexFHwEMq2VOC3sCMzwuQQACrQQQ7FY0k3ECwUawJyMn4gUEIDBuArwlHpprk7wst9xy8Q3w0BXbOp5ZY301njh0iRcHH3xwjE63t8TDM+xiq622qqbR1PVNS+gSj295hy7x4jWveU1Pb4mfeuqp8S1x2fP9TbZ9LHQnx+vCP4MPjWQt3/Qm+BOf+MTisssu6+kt8bZ0UBw0hpu3xEeSdAQCgdlJYNw1BsLvTGAmt7A7vfke/hurF71Gsd1pHDYvnXXOo5yFAARGQ4AW9oTX02ZqC9stVa133XXXYv311y/uvvvuarx5EPOhpEz4N4q9CF7bqPYVtmZn02xm22yzTZzxLLxdX83k1jQO237bjte0sE2CNQQgMG0ERlMvIJRBCczUFrZf+AoCWIbu6EHxDPU+jVNPF4/DpoWdUmEbAhAYFwFeOhsX+R7DnQ2C/Z3vfCfSmLSJRhDsHjMpl0EAAiMhgGCPBPPggcwGwT7//PMjIAukWrqj/jWlkP2hhd1Eh2MQgMCoCSDYoybeZ3izQbBpYfeZKR66vFOlZjCL3NWJqc7ltnSKT25xwd/w4g0QJpsAgj2+9JmUFnZboduJTNM9na5vO9dkp9OxNjuDHO8UTtO5YYXRZqcpTB0b1tJmv+14U7j1a5uu8bF+rvU9rMdLAMEeL/+uoSPYXRFN2wXjFmzNB980J/ygER62vSY/JAI5LMNiofjK1iTEu5Mf9rMtbbqdb7uP46MlwLCuaXv/fjiGZ+qwLn+OUsOk9OnOLbbYYuI+RzmuYV2h8FRFuhpe5pz029/+Nm7+5Cc/KX76058Wv/rVr4o//elP8ROhul4sl1lmmTgRzKqrrlqsvvrqxRprrFGstNJKNhHXoWCPQ910faflwQcfjJPBaIIZ2W8aaufjWuszr8Nc9LlS+SA/HU5q38e01tJL+GKrJY27eNx6661FGItfhI/AFL/5zW+Ku+66K35qVddqyF6oOBdPfvKTi2c+85mR6bOf/ex4TOe9yI7sNnHyNZ3WiqvTptN1iq/+fxZffPHqMt2ndPKiPPL973+/uP7664v58+fHyZfE03FZZZVVinXWWafYcMMNi+c+97m+LYY/lThUhtiYHgIh8VkmmAAt7PElzjha2GG2tIUifPvtt5dHH310+dKXvrRceuml4y+UBD1PKqN7Nt988/Koo44qf/3rXy9kux6WT4aCPW5quN1TnvKU8ulPf3oZvhVePuMZz2j86dwKK6xQHnjggfG+Tp9gdRhta7X0tMi38L32MsxCV4ZKR/ShHr78WmuttUp9bc1hd7Jbj+8NN9xQhm/Il8973vM6fgCniXcQ7/Ktb31recYZZ5R/+ctfqmDFLohntd9tQ9c6zjvssEMZvs1ehkpBI2fFX6wf//jHl3vuuWdlOgh9tX3eeefF9G7yue3YBhtsUM6dO7d0usunfuJQBc7GtBNQzZVlggkg2ONLnFEKtgrtVOhCi69873vfW+pb3fWCNrSSSn3GU59V1XqJJZaoftr3z2Pdfb/EWwW9bHtJw6wfCxPZlKGlvkj4tldfr7zyyjZRiVB1oMcNi9cPf/jDnsOVHxdddFEMwfenwUl8UrGeN29e+brXvW4R+6HFWjFt4ireYh1aoAvdKyE98sgjy/vuu68KNg2vOtiwkYrjRhtttJDdOt90P0wTHK05nNDTUr7xjW9c6H7nA/msuPmnfZ9LZxt80YteVKoSo0UcEe2IYqL+INgTlRyLOoNgL8pkVEdGJdipWKuVE+aDX6glLaHQTwJcF+G0EK9vqzDW9Sqcdb/PL7XUUuWhhx5aYayLdlpQH3TQQfE+ib0L/Ka1RED2L7300mg3bfVVAXXZEAcL7iGHHBLtqcKiCko9TB2TTwrzBS94QWXZ9/uAePqYeivUijUHrUM3eqMIp9fUt8VV4VvAfV49AR6iqPDrXO1Tuk4F+5WvfGX0zZWFepy1L38Vnlr3XjStrnobdFx+6Zp6pcI+1te6Ls0foVu9/MY3vhFNp+nhsFiPlwCCPV7+XUNHsLsimrYLRiHYKhTdSgrPpMuXvOQllaCEKVNjAVwvZAfdV2Eum75fAqGWmZa6wHo/PAOtREL3+9762i21PfbYI9p74IEH4rqfPxZW3bPxxhvHsCRS9bC870pI2h2e2jBX2Tv33HPLFVdcMdqSSImDxMm2prJWZcW+yI662b10E+1UsPXYQ/ebZZNP9tkt7Pnz55dz5syJ96ki1qtQN9l2BUjnwsd+YhTcTe74sB4vAQR7vPy7hj4bBFuFqZY///nPsVUisZjqTwVlWnh3Bd1wwSgE26Jy9dVXx+eXKizrLbemwnUqxySCalXJxmqrrVaq0Ndikda2/dK2niXbr7ZwLTLqQrdIpS112em2OL1+8YtfVGLaJkAWLp3/8Y9/HE2n4aVC89nPfjb6L98lar63LS6DHnfrV/dvu+22VXRTltXBhzZSwX7Zy14W/VSczDP1Rcdcadpuu+2ihU022STeo3j52qZ7fa7b2hU6VUJ+/vOfxzBSrnX/2R8tAQR7tLz7Dm02CPYll1wSubjA7htShxumYnO6BdvCduWVV1YtNBW8LnC9bitkdV5d3u461XabwNVt6F4XzhJZt7Ttk7hZaL70pS9VYtAmdqmvF1xwQUyR8MnXDimz6CkLg16yk7/uZq/7rn23aF/+8pdXhny/fHe6u2td96SC2mTTx8TQXCWQ2k7j5+ua1rrevQIWbfli3ypnH9rQcZ9zC7uTYDt9d9lll9IVEaVJW7o0+dh2zHG0+G+22WZ1d9kfMwEEe8wJ0C342SDY4dvcEUMYSlNqPnEJ5VR+999/f7zfBWE3xm3np1OwLYZqTYahWFGgLKBtBaqPSxAkPm5t+bjWKtAlZmpBuwBOz9e3LXx64ciLublbOwwnq56RtomownJ473rXu6KpfgXb4UuE5aeFr+6z9u3HCSec4NsqkXbr+qSTTqoqGu5RsI91mzruZ7kWxfQaibaYd/LJ1+t+p81HPvKR6J9ZVs4+tNGvYDuMMBSreiHQYfmc9hUX/7TfFm/f47WvMy8/zzbTuv/sj5YAgj1a3n2HNlMF2wWD1nrL9oUvfGEcXrPuuuuWYXzowD/ZWXPNNeMzUHf1DlrYTJdgu/Wn1uzaa68dRaWt9WdOFmILrAtYrXVMYl8XGolLvTBP7/O2RegDH/hAzJ8Wl5Tb7rvvHv3sVPg7/DDGN1aYZMwVk24Z30zuuOOOKDTyzfbsp9f2d/nll6+GqtlXr/Xs3ddbfMzSx72vOLkC4HMKW0ybeMueW7S24fu89nnt+w32pgpMP4Jt22mYKSPFoR4P36M4Ki7pvT7XtDZjDflimRwCCPbkpEWjJzNVsFVI9Fp4NBUovRzT27NaehWNegJMl2Dbn7322iuKSpMopHxU2KYFs1rketv5i1/8YnwrW0OgbrrppvKqq64qzzzzzPLDH/5wHJ9sRm2FuM+ntq+99tqIwaJtkbn44otj17DukT++N12ndr75zW9GO71+gc1C61axBSO1721Xbt7+9rdXSeb7dUDbqrTperNty2sWc12r8c/77LNP+fWvf73UOwVieuONN0bGJ598crnzzjvHMdC6VvbaONhPtcq1HSZZqcY4p37K10EE2/bNW76k8RA7PeYIE+fEnpG050Y+uzLRxsT2fd11110nV6s4xB3+jIUAgj0W7L0HOpMF2wVD+rxQhc2gPxVGLpzU+gqzVkXQFsjeqf//yukQbPtyzTXXxMJchWZTweljqXDttttupX633XZb16jI9+OPP77qbu8m2i6c9eKTFvvpZ9p6IS3MihV9brOVxkUVCi0W/rjT4Y+FzOOj28RQImVfzzrrrGjRXfj2+ZOf/GT00yJmls5vXlvM9Xb05z//+fjSYwcX46nf/e53cSy7bbT5qfMpDw+jq1dgBhVsx0ksXDHQsLLjjjuuVEV1wYIFMT5a6+Wx008/vZpQRfeaoePRtHbe2/+ht96dF7ox4vz0EUCwp4/tUCzPBsFuKiwGPeZCRoXwJAq2hcnDtzoV+I6LCtevfvWri+QndSPLnoTKP4uXL1YLUbOViaftNbF1a03nPJbarWu/Pa7x4b43vd7HtLYQPPWpTy3vvffe6Ea3gt7d4XqHwRPFtNm3COsxisRIi+JuG3/4wx+qVnWTDQud7aj1G6bxjHb8RwzNU2sxtn1fo8qQ490pDc1D46Qt1rLpZVDBNmvHUcPpeqkc+SU8cfC9jkd97YqAu8XrDBwH1qMjgGCPjvVAISHYvU/DqQLHoqRu40kTbAufZtqSr50KTBeWuu5rX/vaQnlHAtgkIrpIhaoFx0IpAXaruE1cVIBbzPx2swXAwi2emhYz5azt9GeB0jF1LWtxT0XcafhjP3W97kvjntrWtlvF73vf+ypLiq9t7Lfffh39kw2LtSoV8x8a0mZmWjcJk7k6HAX+8Y9/vIp7Gu/U5zSNv/zlL0efUx4KTz8t3d4ST+0qrczp/e9/f7xff2SrXonTvn5e1GKWLeeJ1G667fygSpQqU1rsq22xHi0BBHu0vPsODcFeWBDSAqVp24I9iS1sC7ankGwr5FVQOh5+EUwZR2KRCka3zOTWoa7be++9YyEtAUlFJGVofzR/dzrMKy2k3/CGN0Q7utYFempDx3zcz5jlc5MI2n/H6W1ve1u0bSFK7Wo7Pe6hgIqj/ZMQai5uXdsWx9SGv8Ou8G3DPnVauwIjEVxvvfVieJ0qQvZF49m16D6Hp7W3+xFsVzo0Dtv3y682zjru/KcpVDUnuTjZTp21952WP/jBD6Lvae9APMCfkRJAsEeKu//AEOzBBHvSWtgu6P74xz9Wz5VdGLpw9NqFqLpRdb0Wt3b7zUHuhg1f9yr1XF9htImLBVvXnHbaaTEotwa91nH7mYqfj2nt42rB3nnnndGOxaLuv8VGQ/FUUdD9bVzcupZI6not4mrbbqFbIFOfvG22nnjENqKxPv6Yh54Z23bKz8e0Ng9VJvQWvBan5yCCnaafKx2uRHSKglnrmk984hPRb/NI/U23HSc9A9di1nGHPyMngGCPHHl/Ac4GwVYBrUJW635/vs9rd/OpG2+SusRdoKpb1AVikzDpmAt4j+FNW2T95Z7/C5rvefWrXx3Dtn374XXqz6677hpvs7C4oNaXqdw6a7PjQl52v/KVr0Q7Fjj74rXthk+sRt/axFa+Wag+9alPxdvVakxbjppfW2Gm4TtuWvt+bX/3u9+NNhw/+9Pr2umpL6C5VZ/aT8NN/dFb/FrMYxDBdh7fdNNNq65u91J0899d44q/fWxLR533uSOOOCKadnp1C4fz00MAwZ4erkOzOhsE2wXHMNYu8DX0R61KLW7d9psoLlSPOeaYqnCz/bqvLqzVYrn88stjUG7dasfCsP3221fClAqk7bkrXIVy+J7xQnYsUP2uLS7pM9e2eFhc0olUXMg7Dnpman+b7ChePq5ubi1tlQ7b1GQrsunwbd9rc1G6epiRxEMstEiwNP5b1zdx1XG3Jp///OdXX9ZS+P3y1PVpnpJwyn6b72ahazTkTovj3a9gy5bj9+lPfzraUtzNIR7o8MfCrgl73OPiCoD8q/8s2K48Itgd4I7gFII9AshTCQLBXrQQqRcq6b6FU9MrTopgp12RnijFhW7qu7ZdeGoCmfS+qeQh36s52x2eC2Lve+3jK620Uqk3rrVYXFwB0ZA0+9kmUk4HdYtrKFRqJ+6EP46fxO9pT3taT2L7ile8ohIn3WcB+tGPflQJWRNbHbPopy9p2ZeprPWGtvgpjLawzWnrrbeOQUlgLdbm0MszbHPV2r0ETpde4mBeelSheeTltysyzgPp2vlB70BoQbB7oTx91ywm0yGBWCaUwHLLLVeE4TFFqFkX4Z+80cvwbK8Irahi3333LcLQm3iNrtU96aKk1k/Hw3SgxVZbbVWEAib+2myHgqYIBUoRvt5ThC8EFaGQLEJhkZqttkPBUYQWUHHqqacW4RlhPO77q4se2vBx+SKfw5ejiiAQRSg8oo/163vdl73Qmos+hukboz+Ks+LZ7+L4HHvssUUY/xxvl/0mVmIiNvI/TDJShG8bxzRR2phZmOKzCIJdhI+cRH+a/vVsJ7Rwi8985jPxulDIFuLV7+J4h0K2CM+Hi3nz5hXhJbbIx/zrNkMBHc8rHS+77LIitEareCgf2I/wslMRegBiXlI49bik9ufOnRvzg/KoeHiRX0H4i/AWexGGucXDSqe6LTF3GJ/73OeKIJAV01CZiMzDsLcivN3ekw2l5U477VT9Xw2SNxSQ0iV0hxeHHXZYoThqafJfx801zMRXXHHFFdW+OCluimMYA18EEW5lKjuh0hHDDUP1Iv/Qq1CYo853W5wXw6ONYtNNNy3CpDsxTZQ2TYv9DpWc4vDDD49hyweWMREImYVlggnM1Ba2a+6hoCpDATZtKRDEdWDbw+oSd5e0PvIR/s3jT/H2dn0dCv3Wc/VrB9nvZD8ISBW2v6JmDgLpbU004rCb4qIwnMbpt5vdvS5b5qIhWrKle5p8c2s+iGP1BSnf67W7+9ts2Ncm+z43lXU3u2oRy346flytVeXPflrY7iVQD4zTQnZ6XdzC/utf/1rq0YB88st8TfF3GrpXop+wevWJ63onoNodywQTmA2C7Wks77nnntj9qkJ4qj8/m5xK0rpAnOozbHdZ6oUjF4rdCnhdJyEc9s/ht61TwW4aN+wCW93lT3jCE2J8mgRb9i0umrhFL2dpscBapHRsrbXWinbamNjOW97yFl0eFwu/u+v9DLzNRhpfXTNMrr2EacFWpUPfPdfiPGoW/XSJe0Y62QmtZq16WhDsnjBN7EUI9sQmzf8dmw2CPejnGKc76YYt2OnsWN0K+WGLigSqW5gStVSw9ZlLLa5wmLdFUkOjdI/sNtlObekTnVos2Lah5+G+1+tUXN3C07HwqGUhG9pxBWKbbbbpWHlIbSqccQm2/p/9/W6x6LeFbeH3mG4xcOVF292WfgXbaUgLuxvZ0ZxHsEfDeeBQZoNgeyxpXRgGhjakG4ct2P5+sUUuFZFJ2XYBLX+OOuqoSLKeLhbdCy+8MIpkp/i4dfzmN7+5ShW1KG3zox/9aEcbvl8f5mgak24B8pC1ttb+uPlaaJdddtlSH2vRMohguwKjCooXBNskZv4awZ7wNEawx5dAs1GwU8FrE2x34SplunVn+/nznDlzyl/+8pcxMS3W2tHnUCWmabgWV7eEtb/LLrvEeyVO6XsJFuxXvepV0U5TK932xrm20Gp+AL3RrqVfwVbcbEez5XlBsE1i5q8R7AlPYwR7fAk0bMFWF7NFo5uwSMD0MpDGHY/yp+FwEln5p2f3WlKBdWr4mCYxUZx0fVOc0hb7iSeeGG/X1Jha1NL0C09Ngm1xko22XhgLtr/y1WTHzL2W3VEyVRw1857CX3HFFeNnOxX/fgVb95sJgi2Cs29BsCc8zRHs8SXQsAX7lFNOqQS7k7B0OmfRGcX6oIMOivDNIU0JC6VeoPI43ibBlp9uZWseci2+Nwxb68jD4rTOOutUY8F9r33xs3DNW66wurHrdn4UXK+//vrovio9/T7DNhME2zlgdq0Zhx3+Qyd5manjsEPBE8f7hgK0CNNSFltssUU13ndS0iMUqHEc91THYQdRiWOFL7rooiJM/BGjp3iHwnqRqIbWZBz3rnTffPPN4xjZIFJxbO4iFw94IAirKuqNd8uv0MUafxqrLH8VfniWvMj1HtOr8fnnnXde9LEpTkGw41hhjQW/NIy5Dp+0jLYUv+9973uN445TPvvvv39x4IEHFuaYOuJj++yzTxwnrLhpaYqfbYapVYv1118/juXWdb4ntTvIdieuSlflp1ABL8Jz+yJMKBPD1/+BfJBvvYzD9v9NEOwizJ0e3QyPKKrx8d38dpqFudjj2PdQeeg4Dtv5kXHY3ciO6HzILCwTTIAW9vgSxy3LqQ7rcitQ313utTWafvgjfWY8ahrp8+J62I7XGWec0bF1G8So6i73c3Gx8Lev1eUdiruFfm5JquvaU5G6Gz71wy/AhQlV4v1BNKuw6jbd0vdXxFI749pW2jp9exnWZS60sMeVYuMNly7x8fLvGjqC3RXRtF0wLMH2OFl9YUpTdUpIJCx1QdG+3ybW29Gek7yfl4r6gSGh6CTI3Wz5Xgm3pjKV/xLnpnj5WXXoSYlmv/CFL1TXNd3jY5uGebq9NHFwpSH9mEUbW1eW1MXur305Dg5jGOsmP9vsIthtZDjeRADBbqIyQccQ7PElxrAEW6Jg0XYrqk1UdNwtTs3epUVjjXW/hGAqP/tw8803l3fffXcFVqKh1qvEL7Xfi5h5HLTG6aYVjrpou3Wr/Pz73/++9EdQFNc6C4u1bBx55JHRT6dF5fRDG46Thny5xV63Z19cGVKY8+bNixYUb8U/jXc/2w5fLX29RJcyExvZ13P31GZ6DYJdT1H2OxFAsDvRmYBzCPb4EsEiMdUuccXA3bm9TKHplqCmjnRL0MI4KA2/rKU4aXpM5avdd9+9DM+UFzEpEZKQ9LJIiLRIrCSMbWKZinCYz7wMz7Hj9a6cWFS19rHwHL+aIc0t6Saf7MOGG24YbaZhpXa17YqDP2Yhe73GtSls55FLLrkk9i6sueaaZXjeXn14xvcoDHFNxdphO3xX5uR/G0e6xE10dq4R7AlP99kk2C786oXauJLI/gxDsC241157bRQViUdboZy2Oj0UyoX9oGwcl0MOOaQK32KmSUnCh2NKv73cL2/7ZMF0S9b262uJpkW5fk5MzCV8nCa6osqGw2jyzWIuoZS9Nts654lY1Br/2c9+Fs05bZpsdzqmioL90lfE0rgoDvpEqXoIPC1rky2JNYLdRIZjTQQQ7CYqE3RsNgj2+eefH4lbVFQIjuNXT3b7MwzBdnwURviKWCzce2kJar5uTzgiYdHPIlH3t77v69y614tezk8S1abwn/Oc55T6zrI+TeruXtup2/e+rzvhhBNivCyKqYD1up36FL7AFYNwOji8+trhS4At9l43hevn6ZodzUu3SoGv81oi64pCmj/UAk7joPDFWoJ+8sknx8cBKU8E20RZ90IAwe6F0hivcQFbLwTSgsgFkFpJXlxr977WKih8/Oyzz46Fqwq2TrbdWgmf14ym3LWa2vW2C9Z0vLHvT/3Vtrv2dD58ptEmxr5OC1PHJy2Q21i5VanubL8sZqF0pFzA601pMWhjY1buGpeIelpO23JausBvWvsa3aOPdayxxhoxXLN3OIqTjtVFLgy5isHV42EfvDazBQsWVM+RO8WtHo790Np89RKbJ1ixIDu8prWv2XLLLRvjmIah8F2pePe7312ZM68mlukxx1c3huFsVV6ucxWD+jF1mYdPW8YwXUmQbS10iUcM/OlAgHHY4T95kpeZOg47FMxxHHIoPOP3jTUuNrwIFcf7hvw6siSRH6HgLMIMX0WYLSuOkw0FaBzXGoRqKOOwHZlQ0MfxtuEFpSIM24rf/w6Fehx37Wvq69B9HMcwr7zyykX4gEY8vdlmm9Uv67ivsc877LBDcfvtt8fvhIeuXFXUG+9xeEqPq666Ko5R1vVBeBqv90HHbccddyxOOumkOO48VFB8uqe18oIW+Ra+vlWEN8kbx143GbOP+oZ3eLM8pp/SsW1RWIpTEPoiTGtaaKy9vjHdzxK6u4vwadB4i2zJh6ZFaax8prD8zXrluVBpqMbi6zzjsJvocWwhAh3EnFMTQGCmtrBDJlykRadj4/x5jme3KIfdwlZ28vNSf7nLLb1O8faLUr5GM4Zpqk61aJsWtQDVItc1Gq/r+7qFlbaK648pmsJJj7mVOC+8fa3w1LJUS9Zh97JOr3fr3r0SaVht2/bh9a9/fQzXPRSdwjbbJZdcMj7H15hvfSu6aVHaaWa3UCEp9T1q21Vcvd20du9LqHSV9957bzTteMln+00Lu4k6x1ICdImnNCZweyYLtgs3CYm69VV4qpAd1U/hae5s+aE5nvXcVosn45gOwZZ9d6luvPHGPQuLGElQU1GVz2G2sPId73hHuccee5S77bZbqUlBNtlkkzLMKlaJSGi9VeO7zby+llhaeEJrXG5WlYu40+WP4xRameXaa68dw+5WQaj7ID91TF33XmzX+53WFr758+dXb4Pbh7QyUA+3LuyrrbZaGWZvK/WN7T333LNUt7kqPnprX8Lu+50m3m9ap+nlz4M6XykuCHanFOVcnQCCXScyYfuzQbCbCrpRHbNIaQiRxidrmW7Blqhpue222yoBqItGU/wlOvqpcuNWW9N1PqZrdK2F0Meb1m5phmk7q6Fknd5XiBFI/khYLa4HH3xwFDW/W9EUXtMx+/mxj30sWnY6JMF03TTbuXPnRh/Sykon0VY+6NVfpZV5NcXDxxS289c73/nO6LufWzsiCLZJsO6FAILdC6UxXoNgT283uYVPgq23qLVYKNwSGtZLZ2k28ktSF1xwQdViSwWjk7hIEHReLTzdU//ylI7pXDcbFhaHq6FO9UpL6nO3bQv2rbfeWr3UlbYwHV7T2r5q7XQwo27h1s+7pb3ffvtFtvLBLe2msNNjElmJcZ2p9iXUFuD0nqbtNMzwTL2qzNQrQf0Ittg4fKYmraf67NhHsCc8nRHsmSnYynYWpNNPP70SbXW59ipyTULRzzEV/m7ZS6yvuOKK+N/gZ/j9/mtYKHXf1ltvHePkykA3vxznF7/4xTFYt5T79UHXp36oS9thS3S9PZ1rCb7jo7Hpfivcz63TOPUj2PIZwU7pzb5tBHvC0xzBzkuwJVBtw7rqWU0tUgtT+GJZufzyy0dBUaEsO251Dltc1IpMxUvd4DfccEN0r0lU6n637afd4meeeWaMS7eWvuNoITruuOOieb+c1xZWt+OuDOk6zy4njuLaS3f2IMzVW5Ny1cuB7qVxr03d71Sww1vikZnSx1xSP8bRwna6aOpZLVNNl3r82e+PAILdH6+RX527YKvwSQudSdt2gSTO9e5gF7Zpl3hTQao42Y7EoFfBVmZSgW1x0cQf6YxZEjsJgG1PhZ38tr00TTSn95133hnz9VTE2v8Ybt3ec8895aqrrlqJdi++L7300tV4c9ux3UHWafez5h3QF9Dsh4RbvQspC5/rZ6373YXu+9RLohnlvHTimgq23xJvy2Oy75a7vy2uMFzpc3id1maiN+H9prt7Wex/ujYfBLsT1dGdQ7BHx3qgkHISbHelnnbaaVFkJBAqhCU6k/pbZpllYiE+Z86c1rfENYOXClEVbHqrvCku6lLWNXoWfuWVV8a0bmtV1TOCCm23XNRKVXirr756JS4qQBW2w9W2WnMqTOuFu/Z1XAW7+EuYdJ+204JYXbXnnHNO5UonUaku6mEjFVo/Q15hhRUqPxwHr+Wf2Mm3N73pTTEEV2B6CK7rJbLlZ+uaPEaTCy277LIVC/GSD/pJeFU5qnPVNeaq87rO91hA5b/u23bbbUsPD5RzTtc2R1PB1sxrsiPBN5/62vlV4XgZRLA1R/1GG20Uw1OeVXzqYWlf/7/y6YMf/GAMrlt87BPr6SGAYE8P16FZzUmw/aEKT1Gpf/ScfvqAhRZXPByfww47rK946EMQqZ240+WPRCUtDPU1LXHUC0sSgjaOEhCJtwRZPwt50/USRrXMzjrrrGpaTbmVhtvFzZ5OW0DSedOb/Kkf82x6wxRsOSx/3LLUvnoyDjjggGrmt7ofEmdxNVOtta/j9Wu1v8oqq5R77bVXec0118h8XCTEaZg+Xl+ngq3PfjbZbzqm1rgX8/Z+p7V90ixy8rvJdtOxnXbaKZodVsWuk4+cayfATGchd07yEmq/RZhsIc6UFAr1RldD7bgIrblqFiVdpGtDQb/Q9SEbqIIWj4fWVRE+rhBnsgoFUTXj0kI3hJ3QgogzcYXCtAhjU+NsTUEU6pfF/VAYxNmbrr766iJ0I0fboaCrZjRT2ApLi7a96Fi67+Nat52rH6/vpzbSbV/nteIXBLoIz4+LD33oQ0VoaVdxdHw0e1aYBzrOEqbrm9JBx0NhVoTWUfGe97ynCF/Equyk4XfbDoVvTB+nnfZvuummIrwQVoSWe7w9dN0Xd9xxRxG6NVvN6f7Qsi1Ct3QR5i4vwocoig022CDOsOabZFuL0miYi/NeEN7i0EMPLcL49jiDnHiau8OTn7outOSKMId5nFkuzSe+bhhrhZPm3fAyWBE+eFKEqXGLULkobrnlliJMOBNnlmsLL7SuizD+vQhjtYvQpVyEnopivfXWi6x9j+Ippk5DH29aO9+Li2ZOu/HGGwv9P2vxOd+na2QziG0RXs4rdt5553jKvH1dp3WoIMT/6VBJKw4//PCF0ia9z+mkfK18plkAQ2UvzuY27PyShst2ZwIIdmc+Yz+bk2AL1nQVtqNKiLr/9f1e/Rj0PjOUmKpgVMFZX0LLvwiznBXh2XOszIVn7VUlQoISuk1jBUSCrYpIKlKypQJev+kseAeN/6D31Rm17XeKe3juHpneddddkasqYFqUBqF7uAhd6RVX/V/WF6WZrpXIzcRlutNmJjIbdpwQ7GETHbK93AR7yNGf1eZUQEpgtExVBFJbaqU1VQTGDXuUgmDhFoteWsJtbIZlp80+xyGQEkCwUxoTuJ2jYKvg1S+3pa3g7jc+EsNhC2KbD23h1PlPh0+9pK8rHL1c28a/l3unck3dxzamCmM6udb96BSnYaTnqMPrFB/O9UYAwe6N09iuylGwxwZrlgbcJCKzFMXQol1nKsOdhHxoAWMIAh0IINgd4EzCKQR7ElIBHyAAAQiMnwCCPf406OgBgt0RDychAAEIzBoCCPaEJzWCPeEJhHsQgAAERkQAwR4R6EGDQbAHJcd9EIAABGYWAQR7wtMTwZ7wBMI9CEAAAiMigGCPCPSgwSDYg5LjPghAAAIziwCCPeHpiWBPeALhHgQgAIEREUCwRwR60GAQ7EHJcR8EIACBmUUAwZ7w9ESwJzyBcA8CEIDAiAj8DwAA//9ir3ibAAArp0lEQVTtnQnQftUcx2/InlJatKqmVIMySKFomWxTUxjLTAlTGFmHCmXKLtlCTEZFJcu0iYhIUklliTREUypJSQsJxXW+Z3zvnPf+77O+z3Y6nzvzvPc+9557zu/3+T3v+Z5z7r3nrlSHpWJZWAKrr756ddttt1X3u9/9qv/+97+ddj7kIQ+p7r777uqggw6qjjjiiJhGaXVOuijU+mj/GWecUe21117VSiutFD+98r7//e9f/ec//6nOPPPMavfdd6/uueeeauWVV06zZRsCEIAABGZAYCUEewaUl1EEgr0MeJwKAQhA4D5EAMFe8GAi2AseIMyDAAQgMCMCCPaMQI9bDII9LjnOgwAEIHDfIoBgL3g8EewFD9CCmKd7EP7973/H+xH6maR7GHTfwgMf+MCBafvlwzEIQGD2BBDs2TMfqcQcBVvioZvTtEgcJBLtJd3/gAc8oNLNbSzjEbAIj3r2uOeNWg7pIQCByRBAsCfDcWq55CbYXXenDwNn3POGybuENLfffnt18cUXV2r8dDWQxEBPB9x7772VnirYbrvtYi8b0S7h14GP9xUCCPaCRzInwdbjX+op33DDDdWll14ayep7l4Cohy2R1mebbbapNtlkk/j4GD3t0X6Qbuicf/751TOf+cyhTn7kIx9ZXXnlldU666wT+bcf/xsqExJBAAKzJxAqU5YFJhAqV40n16FSjWtttz+hxxT3heewG0+CeDbb3giVe+39p59+ejwnCGffvIOAxnThOeyYTbhO6uxWWN91111x3/HHH7+CjW2b0+9HHnlkPC88S75CnuzoT8DxDIIdmff7nYTed0yz1lpr1TfddFPM2Of3L4WjEIDAIhBQ74dlgQnkKNgnnXRSI9gSCTUK2h+Lh4T7qKOOihFAsEf/IVpwLdi9eIvzgx70oBiX0LNGsEdHzRkQmDsBBHvuIehvQI6CfeKJJzaC7R562qPWdrofwe7/G+h3tJdgt3nre7gzPMZl7bXXRrD7QeUYBBaUAIK9oIGxWQi2SbDuItAW7LQh1BZtBLuLIPsgkA8BBHvBY4VgL3iA5mwegj3nAFA8BGZIAMGeIexxikKwx6FWzjkIdjmxxlMIINgL/htAsBc8QHM2D8GecwAoHgIzJIBgzxD2OEUh2ONQK+ccBLucWOMpBBDsBf8NINgLHqA5m4dgzzkAFA+BGRJAsGcIe5yiEOxxqJVzDoJdTqzxFAII9oL/BhDsBQ/QnM1DsOccAIqHwAwJINgzhD1OUQj2ONTKOQfBLifWeAoBBHvBfwMI9oIHaM7mIdhzDgDFQ2CGBBDsGcIepygEexxq5ZyDYJcTazyFAK/XDPM3LvKS0+s1//GPf1QPfehDq/Dyj2qfffaJWMNUmfG1mW3G6f4wl3j1xje+sfrnP/9ZPfjBD24nXfjvesVlEE41fuOny2C9TlSvsfSnK804+/x6zR/96EfVjjvuGF9vKlu6ljA1aRXetlaFucSryy+/PK59fju9fdJafsn+9qIY6tN1rJ120t/lo5kr77YNstn7xXxedkYj+AOBSRGgzbLYBOhhL158gojVes3ov/71r+Z1paNYee+998Zz77nnnlFO60wbRCvu99u6gjA1L14JdcSS7WHmEpdN/V6h2mWEOEzCl668033yVWWJ36iLYjYrO0e1jfQQGJYAPexJtXymlA897CmBHSNb9Tb1Ca+wXHL2bbfdVl1//fXVH//4x+qWW26p/va3v8V0ShReaVmtuuqqVXgHdbXeeutVG2ywQRXeX77k/CBAK+S5JEGfL7JHPcjl9rDVW1U+7qkGcat+/etfV1deeWV13XXXVX/9619jj1a2r7nmmtXGG29cbbXVVtXmm2/eWCdbQsUTe7PNzglsKE/Zl3K/+eabq1/+8pfRxmuvvbb6y1/+EkcPZL9GaR71qEdV66+/fvXYxz422rnRRhstsUTM6XUvQcKXHAgMq+ykmw8Betjz4Z6WGoRoSU86DP3XZ511Vh2G8ettt922XmONNZb0ZMP/fed3vas6iHa9yy671O9+97vrSy+9NC1mrJ7jcnvY6q06Dxlz7rnn1q94xSvqDTfcsNOH1Df5s+WWW9ZvetOblvii/MRsuYvySHvTQZTro48+ut5pp53qRzziEQPts61BwOutt966fstb3lJfcMEFS8xS/pOwdUmmfIHAlAioRcyywAQQ7PkGJxWzq6++Olb6j370ozvFIvTuan1CT3XJR/ssHu31E5/4xPrYY49tRGNUsbN94w6Jm+4Pf/jDevvtt1/BzrYv/t7lkxoiqSCmYutyhl3bL6UPvfv6wAMPrMNIxRL7uljbPq+77Nxmm23qz3/+80saA2l5w9pIOgjMmgCCPWviI5aHYI8IbELJVYG7EpdgqDedVv66Vqweptbp/rYgp9+VTh+fm54Xhpfr73//+431w4qdbRxVsG+44YZYlsp5/etf3whhl22pD+m27JcwikPqy/7771/fddddMf9xrm2nvp988sl1uCzU2LfyyiuPxFz2pnbKXvuw2Wab1aeccsoS5vS2GxxsLCABBHsBg5KahGCnNGaznQrG2WefXa+zzjpNJR+uSUeRcqW/3LXETnk6n/e85z2Nk8OI3TiCrSH8v//973W4Kz8O6atsCbXE0HaMs9ZNbRZEiWG4/h190U1swwphyv51r3tdY4+GtdNGwTj2+Zw28xe84AV1uCYebZWdZtoEgg0ILAgBBHtBAtHLDAS7F5np7E9F8hOf+EQjGOFxtUaMXPFPcp2KtnrzXlJ7vC9dW1xG6WHr+vRVV11VP+UpT4n+TVIMJarhxrSY78Mf/vD6xz/+cTRXjYNBi31Ruhe+8IWNbRLYSbJ2XmqgyHd9D4+61eHGvcbE1JZmJxsQmDMBBHvOARhUPII9iNDkjqt354r6iCOOaETClbor+kFriVb6GZTexyUg7qG+//3vj46lNnV5anuHEWwLnwRbN2Gp3OX2qm17e23R1s1hv/jFL6Lpd999d5cLK+zbb7/9om0Pe9jDml51v961jnkoXz5qu1/6tq0qx/u++tWvRnvE1WxXMJAdEJgTAQR7TuCHLRbBHpbU8tJpKNTPH+u6qSvwtOfrfe21xEHCp7RaSzAkvBYRDRXrmAWzfb6+W2Bcns4/77zzolP9eqcWlWEEW+W4QaDtLrHWcdurtbcH2d/lk0U7PFpV33rrrX198UjC8ccfH9n73K58vU88ZVfqk4/ZD9lvtj7WtU7LO/HEE5sf07BD+c0JbEBgigQQ7CnCnUTWCPYkKA7OQ5NqaNFQcXiGd4lo9KvwJXpdwtclCtrXS2DS9BaPXXfdtenluTHR9mRUwVY5bmCkZUrghhlJsIin5/baVjlugISZ7xrT0+vU2mkfJOqrrbZaZK/GTq98tV929DueHlNetiPd723HN43jt7/97Whv29bGCTYgMAcCTJwS/msXeWHilOlHJwhGM9nHvvvuW51wwglxilVNtdpvCSJQaYIRLUFk4wQdm266aZxYJIhfnOzjjjvuiBOq/O53v6uuueaamDaIY5ygROV2LaHnWAWhiIfOPPPMavfdd4+TggSRWiF56AEOPXHKCif/f4fyVXnKS0toJMZJR7SWrZoI5qabbop+/P+UODmJfA91lnd1roMIVqH3HI+deuqpVbjBKzITOy86rnSHHXZYFW66i5PNmKvTpOs0zx122KHabrvt4kQumqBG9tx+++2VJlPRxCqXXXZZnPRF56tMlSU/g0ivYLs4iL3iruOaDEeT3aS/j9QOtiEwcwJzaCRQ5AgE6GGPAGvMpO69Xnjhhc2w9aAenHtjSqcJOXRuELaeFoTZwmpdH915552bnqF7duGfvtnnbfeyNYmJF/X22j0+906HHRJ3/i479fNpT3ta/elPfzpec9ajbBqmVnl33nlnHRoc9WmnnVa/6lWvanriYqCeufPstbYvyt/Xsc3cQ84qZ5NNNol59cvT3LfYYos6NGaa3rkZtde/+tWv6ne96111mGku5q1hdH1SW8UgHV1Q3rqHIcxaF7Mz43befIfArAmolcmywAQQ7OkGJxVA3Z2titwCk1bq6baHa8M0o/VFF120goGq4JVvr4pek4AoP4tmmre3LSASsTDlaSxDw/b6pIvLGEWwXa7FWgIWXsCyQt5pOem2ZmjzJCti4fxse3ttXtr/5S9/OWZlwfZad5PreL+8PKwdphmNly5skxoWus6vxoA+2k7jqnRqcOyxxx6xDDUIZJM+uvvf9urxvfe+9731jTfe6Kx7xrBJwAYEZkgAwZ4h7HGKQrDHoTb8ORYM9aZ0c5Qq736CbUHRncXqvWmROEgoJKYWavUcLdypoNiy5z73ubGsVMwsHFqnvcBzzjknnqZ89EmXcQQ7zV8i6PyVr3ywL2Kjj/ZJBNOb32TH85///MYHc0l9SLfNNAzvN+aLlRsgn/nMZ2JevXrXyt9MjjzyyJiHRdq99CbjsKF9slG+pMze8IY3xHLUILLNq6yySn3wwQfX4ZJFk4X8bot+c5ANCMyJAII9J/DDFotgD0tqvHSulDU1pwWml4jquI996EMfigVqRi+L5jAWaMISLd/4xjcasXO56ToVKA1Ta5EI+RN3hD8ue9Qetv04/fTTY1apeDrvrrXSpbOYPf7xj+8rtPbJvXk1dH7+85/HrCWkbgS8/e1v78vDYq38vvnNb8bz3djqsjPdJ0a2Wftf85rXxLKUpyZn8QQvOia+sklrFggsGgEEe9Ei0rIHwW4BmeDXVPw+97nPxUpcPUFdJ1Vl3v5ov4RUzxZ7ZiwL/rBmubf329/+NpZnQetae1j8bW9725LsLdLa6e1RBNv5akpS5zGqH254aO5w2+4eq7+nax3z9edPfvKTsVz9UQ9Yy5vf/OaYjxsS6bna1n7n/6UvfSmeo3sGhhVtnaCXtmjR9Xld1/7BD34Qv/uPevvm6X2sIbBIBBDsRYpGhy0IdgeUCe1KK+e3vvWtUTB6DcmmAqI3dGlJz+9lkhoF7r2q52Zh9LPevQRK5XkYOdy5viR756GdtmFYwXZPVS/SCHd+x3zT/JYUNOCLe8d77rlnX7E1O18vfvGLX9zkbOEf1MNWHr6GrRnawt33TR4SbQ/jD/Kl67jON8cmUzYgsIAEEOwFDEpqEoKd0pjsdlpJu4enG8n0HHZ453Ncp9t6S5cET3dKa2lX/hZnCYB6a716fyeddFLz5ql+DQQLnKbpTBf30rXPPgwr2M5Tr8T0Mu7wrwVbQ9QSVPeALdDttXv2uldAr8rUYsHWsL/S92vApMeVx/FhkpXwLnK70azlj2MgVmbkBPZX+9sxdBrWEFhEAgj2IkYlsQnBTmBMcVPCIRHRcKkm8Oj66JjSWGQs0BKFfhV/eCa41rViiaRvbJP49BNrHbe47rXXXks8H1ewVZ4F0bOoWbyWFDDkFwuhhqb92FQ/0faQuHrKvo7tYWrN4y2f+53v4yk3Nah089sHP/jB+LYzjxq0XZCfjpO2bXs7Hd8hsMgEEOxFjk6wDcFe8AAl5qlXp8eHdEOZHg960YteVOu1me5ZSnD8SUXH+9rrSQu2b/zSKIIaH1qWK1xuqOy2224De8jpdWgx0uLzxU52icEgNhL1Xml0x7fed7333nvXH/3oR+tzzz23/vOf/xzLSv/Ibwn3chosaX5sQ2AWBBDsWVBeRhkI9jLgjXCqK+/2WhW7K/d2dn/6059qvX7z8MMPr5/3vOfVG2+8cfPoUVt8JTISLAnNoF6kz520YPuauB4p87Jcwfawvy8p+Bq5fUjX8tu9bN3k58VD67oRTOndsEjP7dpWfvqIaS8B13m6SVCTtrzzne+M87P7UTKX3yu+Ps4aAotCAMFelEj0sAPB7gFmyru7KnEN32oo+dBDD40CoNdHdgmJhNl3mPcS6GFEe9KC7fx8d7gQTkqwP/axj0UW/QRbrDza4MfiZIN72Rpa97vHLexdfPvts4Cn/Nvp1bDSnfdh6lIV3yzLZdFkxAYEpkQAwZ4S2Elli2BPiuTw+VhAfIZm4dIsaBuFGbbalb+EQT1CCUwvcfY5EhOJuT7e129tgZ3UNWz3sMN83XZt2UPC7mHrBjD5MkiwbcMhhxzS2CChNPPvfve7DRsxHaZh04+hjikPx6nNPsxtXv/0pz9tbLEdzQ42ILBABBDsBQpGlykIdheV6ezTcHh6Q5fEQ2/MSgVBFb96iRbo9FjXtkRc53SlHyRGkxZs924/8pGPNACXew3Xgq0pR+X/sIL9jne8o7HBPVuL5Re/+MWGuUcrBrHqYt9rn/IUi3QYXY/1eWjedjQGsgGBBSGAYC9IIHqZgWD3IjPZ/alY6yYl3bTkCl8VvHqGEl3v67WWCCidet29xGuzzTar9VKPXsedd2mCrYhaLPWo2Nprr93wVgzEVGvzWe5ajQDF1cL95Cc/uQ5v6Io/rLThNtlfGrlBYHwCCPb47GZyJoI9fcypWGt+cL81SoIq0RzUu5OI6FGlXjdL6fzHPOYxtZ6nPuaYY+IzwnqhxyDBmbRgezjac3GL7KR62Mcdd1z0Z1AjxDboBjMv7mHbHt8Uppv69g2TxnhkwLzUIBJvlTUoNj6n31qC7fsRFCe//MONB9vJGgLzJoBgzzsCA8pHsAcAmsBhD+v+/ve/r9ddd90oPLqz2D2vXpW9hLotJkqr/RJ9PR8sYdIjTBKfdNEbr3rl6/3TEuzDDjusMSUVy2bnCBtmp2F22T1IsD1bWdpo6LLBz2fLFL0RTZPVODbmo7VipDwVB/fAxxVxi3Z4v3ZDYLkNmiYjNiAwAQII9gQgTjMLBHuadOvmmrV6U7vssksj1qkodG1LHFJh0CxoehPV+973vvo73/lO80rM1HoJk94trUV3KHflm+6btGA7v1e/+tWNWV1i2RwcYsOCfcABBwwUbPHyZQXdpKZFgthLFHVNOR2avvrqq2u91UsjFeoJp6zSbcVGPXmJ+KAGRHqetj0C4AaFe/vRWP5AYM4EEOw5B2BQ8Qj2IELjH5dQWLC+8IUvRAFQZT+oZ23RUQX/jGc8I4rIVVdd1WmIKnz1FiU+KsvlXXLJJbG8VPTb4mGBnfRd4jvttFMjkran0/ghdnrYWHnK/n7XmNNjen5dy6DyFSPxczk26brrrosjF7rjXRPUPO5xj2uGtdscJdxdIyHtdPrueOjxMvfyB9lom1hDYNoEEOxpE15m/gj2MgH2Od0ioF7cs571rCg4ev1jWnG3K3WLjtJp8g/3MF2Mvlugnb+Pae0e46DXa6rcSQu2GxqazlPX0LUsR4x8rmZNW2ONNfpykz9qDGmtoecrrrgilm8e8UufPxJuNXp8J3c7qaaMveyyy2q9yUsvEtHliI1aj+GpfMevHdf0uxtsp5xySiymV5ltG/gOgWkTQLCnTXiZ+SPYywTY53QLqoanLSb9hlDd+9I1U70/24t60Xpb1DDiY4HXxCESiX7lTVqw0yHpr3/969F8CaE+4yweLj711FOjLxa6VPzSbQ83qzfsl3YMw0y2qXHgBoLOsXg7hm375ZN64d/61rfqgw46qLmRUPYMEm37oWfvtSDYbbp8nxcBBHte5IcsF8EeEtSIyVKh8jPE6oFalFOh8bZ7qJonXIsEy6I1bPEWqOc85zlR5PqJx6QFW35YNNNXXI4r2BYyTcuqvC105tVeu+x99tmnwdVLcJsEYcPvzNa+dnrZLqaKg+xxgyg9X9saBdCz37apX0PJfqiXrqVXnvEgfyAwQwII9gxhj1MUgj0OtcHnuLemlHrTkypyC4or9XRtIVdlrrdvabH4xi9D/LHY6Hz36J1vWpa3pyHYst9l+o1ZtmsIF5re+F133RWT+y1bstn52v50rWMWyc9+9rPx3LTR1FW2hDJtELmBMIi7YmsR1zptkHjO836NMwv2jjvuGM0ahU+XH+yDwKQIINiTIjmlfEoQ7I9//OORnuaSVuWoSnaaHxWWCvaBBx4YBdsCmQqNt90TXm+99ZrXa44acouc5vJWvs7TZbTXtmdSN505fz9a9fSnP71xQbyHXdIe79Zbbx19sci5jPbaDRQ9Lqdn3bX06rlKYNMyNHXok570pHrPPfdsTPQNYc2OPhuKtV+Jes4550R7ZZ8bEG1b7Yvua9CCYPeBy6GZEkCwZ4p79MJKEGz3uEanM/4ZqWDrPdWqtC2Q7Qpc3y2ua665Zn377bfHgtOe2yBL1BjRcv755zeC0a9HmtozacFW3hbQ1772tY3p6sEO8ikVype+9KWNWA/yxaMXqeh2NRLSHrVmnNtvv/0a9rJbz2N7SW3xvl5r5+vr7cprkGCbu8/tlTf7ITArAgj2rEiPWc59VbDdi1HFqclF7rjjjvrKK6+s9azttD6aGEV5SyhSYfK1zX6CLTst2noZiJZePcQ01GoYuLeo8tdaa61G5JRnv4/tsXA431To3PBwQ8A29stXxySwjsHLX/7yJTy6RjnSXqaEXTa5jEFindqk+wW0tNkpf/ui4x/+8Ifr1VZbrSlD4mp79by7fi9elJfOTWPqY1p7KF3b+++/f8zTowz2IV27HL2OU4vjF7/wBwJzJIBgzxH+MEXfVwU7rSBVGavHN82PKmiVo8exfA3aAvGpT30qVuKDntV1j0wTrHiReCqfro/TaK3JVFZfffVYTipgKYf29jQFW2VJaC22m266aX3SSSc1zx6ntntbQ/qa8GSDDTaIfqSi37Y9/e7e9VOf+tTalwXSXqvjoHJ09/oWW2wR81ceEk8LqMozO01Uc8IJJ9i0JWsJtz/pgWOPPbbJ17FM7fS2mShmWlJb0/zYhsCsCSDYsyY+YnklCLYrylmsVeFfc801MQruqX7ve99rBMiC0MsWH3/JS17SXBftF9LLL798hReJKG+LQq9ytH/agm077JO+a8IQzSR2WJi+9Oijj46Twhx++OFxcpL2yziG8SEVxpNPPjmiSgXQYq1nqH3nvOyQTcq/q4w0zy233LI+4ogjanHu6gmr565r5hpKV776pOd7n9duHGy44YbNKIBt7BdnjkFgFgQQ7FlQXkYZpQi2K+dprlUpqxdvwbZw3Hzzzc1Ul4N62crDAqcJSPRaxtNPP72++OKL48QdGpr+yle+Eh8h0pzUFgL55fO6RMjp0vU0BdvC5PL0vZ+QOZ3StM/1sfZafnroOR3Wd0NJ/xaOgSY70fnKfxg7ZIN5ulyJrO7sVlma/Wy33Xar9WY0H5c9g2z3tX1NMZvaF7/wBwJzJoBgzzkAg4ovRbBdqU5rbZFMBTu9jirhVdme6WyQHX4me1A6lZs+QpQKhm3qlcc0BDstsy14skP2yd725QntS23vZXO6340f9dp174CWdi84HbrWtXTb0GVbmre3lU62pn75mNeOgb/3WjumGvK3nb2uiw/6v+U4BKZBAMGeBtUJ5olg978xq1fl297vCj0VbA11urf3m9/8ptYjRzrP11zbebS/SyzUg1SeEjN9LCASq1Soda7TaHvXXXdtXoTRztffJy3YFkEJqKcSHaY3a3tGWbtnrXP0bmstFsH2v0c65JzezGYBHaZcxdfsVbbjIv8c+375pGX52rV/G217+Q6BeRFAsOdFfshyRxHsgw8+uMk1rQS9U70F7z/jjDOiOLmi61WZuZI/88wzYzZpr9T5eu0bik488cSYt/L0+b3yn9V+V9ptwU57eEcddVTDJBWcYWxU/i6jK72Ew3m+7GUvi6+MVLp+vdZxBLufQLnHu/3220cRXWWVVaK/squf7V3+9Nonf+yn0uilKloGPTKW3oX+yle+svn9KF7T/g2l9uo1oVoQ64iBPwtGAMFesIC0zfGjLf0qVFfEmjPZi4XZ37VOBVvXXV3p9hMNHxtXsH2+y5r3Wj0pX8O2SKSVs55Lto3qaQ+yv19clI+Op4K47bbbxpBceOGFsZx++bunnz67rJNTex3nYR7rkvjJJr2aUotutvM+Cb237f8oa/tpf/Sb1Is4tOg6te2MO3r8Sf2ScKZCqm3ZOIpNg9Lqt5D6/IEPfCBaNoytPVxgNwSmSgDBnire5Weu4UtVgqq8VQm2P6rILOqHHHJIU2BXpZMKtgRYFZryVU9O+bTz1nf38s4666yY9zA9bN0NLJvVM3Leyn+eH/miClq9yvZjXXIs9UsvfXBlLx987iBx9jlKp7J0XioyuvvaE6j4znTx78XFoyvpvN+yNRU2x/mCCy6INusavMptf1SGh/w1O9ktt9yirGpNLbr55ps3/krAlHaYXm3qZ5pe+V900UUxf/WsbWPcMeCPfHP6n/zkJ81b1MzWrNLyfGyYtc5zHk6vmwf1SJuW9H9kgKkchsDMCSDYM0c+WoHusbhy6bf224VUgiu9tLS0Mvra177WVNL98vQxzRClJRW2NG9te0j8uOOOGylvlzGrtW+Acg/bfviOZX3XUO7GG2+8xA+LsBtPrvi1lkB6v9KlvugmJg23p4sFO03Xa/vZz352emqnYJ977rlLyuyVl/avu+669Z133tnkqVdTamRBPqTnSbxTv7xtP9PGiM7TpDBqNLpRomvW+s2Nuigu6WQnen5aIxOpbdoWd9siW8VdNqUfN0CcLm10KZ0uT/hd5mostH8To9pOeghMk8BKyjz8+FkWlECYQ7m69dZbq1AZqXHVaWWoSKvwKsHq0EMPrcKweEwTKsoqiP0K6b0/zKlc7bvvvlXokVWhEqu0v2tRHqFyr0Kvudp5552rUKFVoaLrSlqFCroKFWMVhturAw44IOYbKtUqNB7ituxXWW0/uvZ1FpDsbJ+j71raefsUHZcdsue8886r1l9//ehzm1FokETWSn/TTTdVQSyq0FipwosynNXQ62222aYKw9lVuCZbhUeO4nlhOs0qjDpUYba0ao899qjCu6GjHak/3hbL66+/vtp7772rY445pilXfoSeYvxupuE55phfGEGIfjaJ/7+hdPI9vLWqesITnlCFexiiHbZHyWRTaKhUZ599dvw9tfPo+i5+oUddhdnHop3hMaqYzL+FrnOG3Zfmoe3wDvHqtNNOq8KoQHXjjTcOm80K6cKkK1V45KsKd6XH37QShMZajHv797DCyeyAwBwJINhzhD9M0RINC16v9KrgJaSrrrpqFYY9eyVbsj/0YGJDQOcOWlTZh7uKKzUM+i0Wj9DTrkKvLSa1+PQ7b5bHZE/oYfZsdMgW8RZPCZyWMA1mdckll1RhiLa64oorqj/84Q/RP4mdG0ASYTHaaKONqvC+5yr0CKsws1cVLlfEPNQQkBi4sSP+iq32iVvX4rhKhMMc5l1Jmn3KPwxzxwZRs7O1ofzkW+h1xvz0XYvESvv8Xf6F58qrn/3sZ1XofUY7w8szoq9iEmZsq8KoQbXVVltValDqo9+eFnETE+U3iSX0eqPN6W8vTPEa46FGiuJx7bXXRt9Dzz6mTcuVvYqLGkyKS7jhrtphhx0qNyyUVrFI80/PZxsCi0QAwV6kaEzAFotmv6yGSdN1/jDnDZOmK+9Z7xvGTgmZerIWWduoBonEQb0+56MKX40ljVikS1v8dcznpOmWsz2J/CSyEv0u4ZK/YqE0GulR40TrdJGfElcJpIU/Pb7cbdkmP92Icn5qIKhxqFGo2267rVLDQvtkgxoNakiosROG61eIjYRafni0wnmyhsCiEkCwFzUy/7fLFVU/M1U5qTLrEpde56nyVQU7aHHeqtiGHS4cNu9BZU/reNqbHFSGuJqTGAwjRsOcMwwjsxf3tkC27XZ+Pqd9XN99TOtePWA3MIYtU+KoZVg2MfEy/qg82TiMfV3F+Hw1whDqLkLsW2QCCPYiRwfbFoqARFEfCbI+7UVCqI/ERJ/cl9Rf+SKf5Z8W++jvceeM/8g+ibdjYf6pGY6V44JIp3TYzo0Agp1bxLAXAhCAAASKJIBgFxl2nIYABCAAgdwIINi5RQx7IQABCECgSAIIdpFhx2kIQAACEMiNAIKdW8SwFwIQgAAEiiSAYBcZdpyGAAQgAIHcCCDYuUUMeyEAAQhAoEgCCHaRYcdpCEAAAhDIjQCCnVvEsBcCEIAABIokgGAXGXachgAEIACB3Agg2LlFDHshAAEIQKBIAgh2kWHHaQhAAAIQyI0Agp1bxLAXAhCAAASKJIBgFxl2nIYABCAAgdwIINi5RQx7IQABCECgSAIIdpFhx2kIQAACEMiNAIKdW8SwFwIQgAAEiiSAYBcZdpyGAAQgAIHcCCDYuUUMeyEAAQhAoEgCCHaRYcdpCEAAAhDIjQCCnVvEsBcCEIAABIokgGAXGXachgAEIACB3Agg2LlFDHshAAEIQKBIAgh2kWHHaQhAAAIQyI0Agp1bxLAXAhCAAASKJIBgFxl2nIYABCAAgdwIINi5RQx7IQABCECgSAIIdpFhx2kIQAACEMiNAIKdW8SwFwIQgAAEiiSAYBcZdpyGAAQgAIHcCCDYuUUMeyEAAQhAoEgCCHaRYcdpCEAAAhDIjQCCnVvEsBcCEIAABIokgGAXGXachgAEIACB3Agg2LlFDHshAAEIQKBIAgh2kWHHaQhAAAIQyI0Agp1bxLAXAhCAAASKJIBgFxl2nIYABCAAgdwIINi5RQx7IQABCECgSAIIdpFhx2kIQAACEMiNAIKdW8SwFwIQgAAEiiSAYBcZdpyGAAQgAIHcCCDYuUUMeyEAAQhAoEgCCHaRYcdpCEAAAhDIjQCCnVvEsBcCEIAABIokgGAXGXachgAEIACB3Agg2LlFDHshAAEIQKBIAgh2kWHHaQhAAAIQyI0Agp1bxLAXAhCAAASKJIBgFxl2nIYABCAAgdwIINi5RQx7IQABCECgSAIIdpFhx2kIQAACEMiNAIKdW8SwFwIQgAAEiiSAYBcZdpyGAAQgAIHcCCDYuUUMeyEAAQhAoEgCCHaRYcdpCEAAAhDIjQCCnVvEsBcCEIAABIokgGAXGXachgAEIACB3Agg2LlFDHshAAEIQKBIAgh2kWHHaQhAAAIQyI0Agp1bxLAXAhCAAASKJIBgFxl2nIYABCAAgdwIINi5RQx7IQABCECgSAIIdpFhx2kIQAACEMiNAIKdW8SwFwIQgAAEiiSAYBcZdpyGAAQgAIHcCCDYuUUMeyEAAQhAoEgCCHaRYcdpCEAAAhDIjQCCnVvEsBcCEIAABIokgGAXGXachgAEIACB3Agg2LlFDHshAAEIQKBIAgh2kWHHaQhAAAIQyI0Agp1bxLAXAhCAAASKJIBgFxl2nIYABCAAgdwIINi5RQx7IQABCECgSAIIdpFhx2kIQAACEMiNAIKdW8SwFwIQgAAEiiSAYBcZdpyGAAQgAIHcCCDYuUUMeyEAAQhAoEgCCHaRYcdpCEAAAhDIjQCCnVvEsBcCEIAABIokgGAXGXachgAEIACB3Agg2LlFDHshAAEIQKBIAgh2kWHHaQhAAAIQyI0Agp1bxLAXAhCAAASKJIBgFxl2nIYABCAAgdwIINi5RQx7IQABCECgSAIIdpFhx2kIQAACEMiNAIKdW8SwFwIQgAAEiiSAYBcZdpyGAAQgAIHcCCDYuUUMeyEAAQhAoEgCCHaRYcdpCEAAAhDIjQCCnVvEsBcCEIAABIokgGAXGXachgAEIACB3Agg2LlFDHshAAEIQKBIAgh2kWHHaQhAAAIQyI0Agp1bxLAXAhCAAASKJIBgFxl2nIYABCAAgdwIINi5RQx7IQABCECgSAIIdpFhx2kIQAACEMiNAIKdW8SwFwIQgAAEiiSAYBcZdpyGAAQgAIHcCCDYuUUMeyEAAQhAoEgCCHaRYcdpCEAAAhDIjQCCnVvEsBcCEIAABIokgGAXGXachgAEIACB3Agg2LlFDHshAAEIQKBIAgh2kWHHaQhAAAIQyI0Agp1bxLAXAhCAAASKJIBgFxl2nIYABCAAgdwIINi5RQx7IQABCECgSAIIdpFhx2kIQAACEMiNAIKdW8SwFwIQgAAEiiSAYBcZdpyGAAQgAIHcCCDYuUUMeyEAAQhAoEgCCHaRYcdpCEAAAhDIjQCCnVvEsBcCEIAABIokgGAXGXachgAEIACB3Agg2LlFDHshAAEIQKBIAgh2kWHHaQhAAAIQyI0Agp1bxLAXAhCAAASKJIBgFxl2nIYABCAAgdwIINi5RQx7IQABCECgSAIIdpFhx2kIQAACEMiNAIKdW8SwFwIQgAAEiiSAYBcZdpyGAAQgAIHcCCDYuUUMeyEAAQhAoEgCCHaRYcdpCEAAAhDIjQCCnVvEsBcCEIAABIokgGAXGXachgAEIACB3Agg2LlFDHshAAEIQKBIAgh2kWHHaQhAAAIQyI0Agp1bxLAXAhCAAASKJIBgFxl2nIYABCAAgdwIINi5RQx7IQABCECgSAIIdpFhx2kIQAACEMiNAIKdW8SwFwIQgAAEiiSAYBcZdpyGAAQgAIHcCCDYuUUMeyEAAQhAoEgCCHaRYcdpCEAAAhDIjQCCnVvEsBcCEIAABIokgGAXGXachgAEIACB3Agg2LlFDHshAAEIQKBIAgh2kWHHaQhAAAIQyI0Agp1bxLAXAhCAAASKJIBgFxl2nIYABCAAgdwIINi5RQx7IQABCECgSAIIdpFhx2kIQAACEMiNAIKdW8SwFwIQgAAEiiSAYBcZdpyGAAQgAIHcCCDYuUUMeyEAAQhAoEgCCHaRYcdpCEAAAhDIjQCCnVvEsBcCEIAABIokgGAXGXachgAEIACB3Agg2LlFDHshAAEIQKBIAgh2kWHHaQhAAAIQyI0Agp1bxLAXAhCAAASKJIBgFxl2nIYABCAAgdwIINi5RQx7IQABCECgSAIIdpFhx2kIQAACEMiNAIKdW8SwFwIQgAAEiiSAYBcZdpyGAAQgAIHcCCDYuUUMeyEAAQhAoEgCCHaRYcdpCEAAAhDIjcD/AJn2bGpKrTu1AAAAAElFTkSuQmCC;imageBorder=default;" parent="1" vertex="1">
          <mxGeometry x="653.29" y="400" width="51.9" height="50" as="geometry" />
        </mxCell>
        <mxCell id="8Ngx9_ojINHOA52o8Yng-59" value="" style="edgeStyle=orthogonalEdgeStyle;rounded=0;orthogonalLoop=1;jettySize=auto;html=1;entryX=0;entryY=0.5;entryDx=0;entryDy=0;" parent="1" source="8Ngx9_ojINHOA52o8Yng-1" target="8Ngx9_ojINHOA52o8Yng-41" edge="1">
          <mxGeometry relative="1" as="geometry">
            <mxPoint x="349.9999999999999" y="350" as="targetPoint" />
            <Array as="points">
              <mxPoint x="290" y="350" />
              <mxPoint x="290" y="215" />
            </Array>
          </mxGeometry>
        </mxCell>
        <mxCell id="8Ngx9_ojINHOA52o8Yng-61" value="Notify User When Tickets become Available" style="text;html=1;align=center;verticalAlign=middle;resizable=0;points=[];autosize=1;strokeColor=none;fillColor=none;fontSize=9;fontFamily=Architects Daughter;fontSource=https%3A%2F%2Ffonts.googleapis.com%2Fcss%3Ffamily%3DArchitects%2BDaughter;" parent="1" vertex="1">
          <mxGeometry x="285" y="199" width="210" height="20" as="geometry" />
        </mxCell>
        <mxCell id="8Ngx9_ojINHOA52o8Yng-62" value="Generate Voice" style="text;html=1;align=center;verticalAlign=middle;resizable=0;points=[];autosize=1;strokeColor=none;fillColor=none;fontSize=9;fontFamily=Architects Daughter;fontSource=https%3A%2F%2Ffonts.googleapis.com%2Fcss%3Ffamily%3DArchitects%2BDaughter;" parent="1" vertex="1">
          <mxGeometry x="600" y="350" width="90" height="20" as="geometry" />
        </mxCell>
        <mxCell id="8Ngx9_ojINHOA52o8Yng-63" value="Scrapping Website&lt;br style=&quot;font-size: 9px;&quot;&gt;&amp;amp; Requesting Info&amp;nbsp;" style="text;html=1;align=center;verticalAlign=middle;resizable=0;points=[];autosize=1;strokeColor=none;fillColor=none;fontFamily=Architects Daughter;fontSource=https%3A%2F%2Ffonts.googleapis.com%2Fcss%3Ffamily%3DArchitects%2BDaughter;fontSize=9;" parent="1" vertex="1">
          <mxGeometry x="110" y="219" width="100" height="40" as="geometry" />
        </mxCell>
        <mxCell id="8Ngx9_ojINHOA52o8Yng-65" value="&lt;font face=&quot;Architects Daughter&quot; data-font-src=&quot;https://fonts.googleapis.com/css?family=Architects+Daughter&quot; style=&quot;font-size: 9px;&quot;&gt;Using LangChain SQL Agent to &lt;br style=&quot;font-size: 9px;&quot;&gt;&lt;font data-font-src=&quot;https://fonts.googleapis.com/css?family=Architects+Daughter&quot; style=&quot;font-size: 9px;&quot;&gt;Query With Natural Language&lt;/font&gt;&lt;/font&gt;" style="text;html=1;align=center;verticalAlign=middle;resizable=0;points=[];autosize=1;strokeColor=none;fillColor=none;fontSize=9;" parent="1" vertex="1">
          <mxGeometry x="386" y="505" width="150" height="40" as="geometry" />
        </mxCell>
        <mxCell id="8Ngx9_ojINHOA52o8Yng-66" value="&lt;font face=&quot;Architects Daughter&quot; data-font-src=&quot;https://fonts.googleapis.com/css?family=Architects+Daughter&quot; style=&quot;font-size: 9px;&quot;&gt;Set Tracker for a film with&lt;br&gt;&amp;nbsp;custom filters for a user&lt;br&gt;&lt;/font&gt;" style="text;html=1;align=center;verticalAlign=middle;resizable=0;points=[];autosize=1;strokeColor=none;fillColor=none;fontSize=9;" parent="1" vertex="1">
          <mxGeometry x="386" y="465" width="140" height="40" as="geometry" />
        </mxCell>
        <mxCell id="8Ngx9_ojINHOA52o8Yng-68" value="Write Data" style="text;html=1;align=center;verticalAlign=middle;resizable=0;points=[];autosize=1;strokeColor=none;fillColor=none;fontFamily=Architects Daughter;fontSource=https%3A%2F%2Ffonts.googleapis.com%2Fcss%3Ffamily%3DArchitects%2BDaughter;fontSize=9;" parent="1" vertex="1">
          <mxGeometry x="230" y="505" width="70" height="20" as="geometry" />
        </mxCell>
        <mxCell id="QKWXNezuvlLItDMxdMBO-1" value="Get Tracking info&lt;br&gt;&amp;nbsp;of users" style="text;html=1;align=center;verticalAlign=middle;resizable=0;points=[];autosize=1;strokeColor=none;fillColor=none;fontFamily=Architects Daughter;fontSource=https%3A%2F%2Ffonts.googleapis.com%2Fcss%3Ffamily%3DArchitects%2BDaughter;fontSize=9;" vertex="1" parent="1">
          <mxGeometry x="216" y="473" width="100" height="40" as="geometry" />
        </mxCell>
        <mxCell id="QKWXNezuvlLItDMxdMBO-2" value="Sending Voice Messages" style="text;html=1;align=center;verticalAlign=middle;resizable=0;points=[];autosize=1;strokeColor=none;fillColor=none;fontSize=9;fontFamily=Architects Daughter;fontSource=https%3A%2F%2Ffonts.googleapis.com%2Fcss%3Ffamily%3DArchitects%2BDaughter;" vertex="1" parent="1">
          <mxGeometry x="512" y="250" width="120" height="20" as="geometry" />
        </mxCell>
        <mxCell id="QKWXNezuvlLItDMxdMBO-3" value="Asking Question about cinema program" style="text;html=1;align=center;verticalAlign=middle;resizable=0;points=[];autosize=1;strokeColor=none;fillColor=none;fontSize=9;fontFamily=Architects Daughter;fontSource=https%3A%2F%2Ffonts.googleapis.com%2Fcss%3Ffamily%3DArchitects%2BDaughter;" vertex="1" parent="1">
          <mxGeometry x="512" y="155.25" width="190" height="20" as="geometry" />
        </mxCell>
        <mxCell id="QKWXNezuvlLItDMxdMBO-4" value="Search Upcoming Films&lt;br&gt;&amp;nbsp;&amp;amp; Set Tacker" style="text;html=1;align=center;verticalAlign=middle;resizable=0;points=[];autosize=1;strokeColor=none;fillColor=none;fontSize=9;fontFamily=Architects Daughter;fontSource=https%3A%2F%2Ffonts.googleapis.com%2Fcss%3Ffamily%3DArchitects%2BDaughter;" vertex="1" parent="1">
          <mxGeometry x="401" y="145.25" width="120" height="40" as="geometry" />
        </mxCell>
      </root>
    </mxGraphModel>
  </diagram>
</mxfile>
